%FSTAX24Y24*%
%MOIN*%
%SFA1B1*%

%IPPOS*%
%AMD49*
4,1,8,0.016700,0.035400,-0.016700,0.035400,-0.033400,0.018700,-0.033400,-0.018700,-0.016700,-0.035400,0.016700,-0.035400,0.033400,-0.018700,0.033400,0.018700,0.016700,0.035400,0.0*
1,1,0.033400,0.016700,0.018700*
1,1,0.033400,-0.016700,0.018700*
1,1,0.033400,-0.016700,-0.018700*
1,1,0.033400,0.016700,-0.018700*
%
%AMD50*
4,1,8,0.013700,0.035400,-0.013700,0.035400,-0.027500,0.021600,-0.027500,-0.021600,-0.013700,-0.035400,0.013700,-0.035400,0.027500,-0.021600,0.027500,0.021600,0.013700,0.035400,0.0*
1,1,0.027600,0.013700,0.021600*
1,1,0.027600,-0.013700,0.021600*
1,1,0.027600,-0.013700,-0.021600*
1,1,0.027600,0.013700,-0.021600*
%
%AMD51*
4,1,8,0.015800,0.035400,-0.015800,0.035400,-0.031500,0.019700,-0.031500,-0.019700,-0.015800,-0.035400,0.015800,-0.035400,0.031500,-0.019700,0.031500,0.019700,0.015800,0.035400,0.0*
1,1,0.031400,0.015800,0.019700*
1,1,0.031400,-0.015800,0.019700*
1,1,0.031400,-0.015800,-0.019700*
1,1,0.031400,0.015800,-0.019700*
%
%AMD57*
4,1,8,0.015800,0.031500,-0.015800,0.031500,-0.031500,0.015800,-0.031500,-0.015800,-0.015800,-0.031500,0.015800,-0.031500,0.031500,-0.015800,0.031500,0.015800,0.015800,0.031500,0.0*
1,1,0.031400,0.015800,0.015800*
1,1,0.031400,-0.015800,0.015800*
1,1,0.031400,-0.015800,-0.015800*
1,1,0.031400,0.015800,-0.015800*
%
%AMD66*
4,1,8,0.025000,-0.087500,0.025000,0.087500,0.012500,0.100000,-0.012500,0.100000,-0.025000,0.087500,-0.025000,-0.087500,-0.012500,-0.100000,0.012500,-0.100000,0.025000,-0.087500,0.0*
%
%ADD24R,0.050000X0.200000*%
%ADD39C,0.039400*%
%ADD40C,0.019700*%
%ADD41C,0.023600*%
%ADD42C,0.009800*%
%ADD43C,0.031500*%
%ADD44C,0.011800*%
G04~CAMADD=49~8~0.0~0.0~669.0~709.0~167.0~0.0~15~0.0~0.0~0.0~0.0~0~0.0~0.0~0.0~0.0~0~0.0~0.0~0.0~0.0~669.0~709.0*
%ADD49D49*%
G04~CAMADD=50~8~0.0~0.0~551.0~709.0~138.0~0.0~15~0.0~0.0~0.0~0.0~0~0.0~0.0~0.0~0.0~0~0.0~0.0~0.0~0.0~551.0~709.0*
%ADD50D50*%
G04~CAMADD=51~8~0.0~0.0~630.0~709.0~157.0~0.0~15~0.0~0.0~0.0~0.0~0~0.0~0.0~0.0~0.0~0~0.0~0.0~0.0~0.0~630.0~709.0*
%ADD51D51*%
%ADD52C,0.240000*%
%ADD53C,0.070000*%
%ADD54R,0.070000X0.070000*%
%ADD55R,0.059100X0.059100*%
%ADD56C,0.059100*%
G04~CAMADD=57~8~0.0~0.0~630.0~630.0~157.0~0.0~15~0.0~0.0~0.0~0.0~0~0.0~0.0~0.0~0.0~0~0.0~0.0~0.0~0.0~630.0~630.0*
%ADD57D57*%
%ADD58O,0.078700X0.059100*%
%ADD59R,0.078700X0.059100*%
%ADD60C,0.120000*%
%ADD61C,0.063000*%
%ADD62C,0.160000*%
%ADD63C,0.180000*%
%ADD64C,0.039400*%
%ADD65C,0.023600*%
G04~CAMADD=66~4~0.0~0.0~2000.0~500.0~0.0~125.0~0~0.0~0.0~0.0~0.0~0~0.0~0.0~0.0~0.0~0~0.0~0.0~0.0~270.0~500.0~2000.0*
%ADD66D66*%
%ADD67C,0.059100*%
%LNpcb1-1*%
%LPD*%
G36*
X156988Y093209D02*
X156398D01*
Y09498*
X156988*
Y093209*
G37*
G36*
X161516Y089961D02*
X158957Y087402D01*
Y08644*
X156988*
X156906Y086429*
X156829Y086397*
X156764Y086347*
X156713Y086281*
X156681Y086204*
X156671Y086122*
X156681Y08604*
X156713Y085963*
X156764Y085897*
X156829Y085847*
X156906Y085815*
X156988Y085804*
X158957*
Y085335*
X158071Y084449*
X152204*
X152181Y084547*
X152237Y084585*
X152289Y084663*
X152308Y084755*
X152289Y084847*
X152237Y084925*
X152159Y084978*
X152067Y084996*
X150995*
X150903Y084978*
X150825Y084925*
X150519Y084619*
X150466Y084541*
X150448Y084449*
X150466Y084357*
X150519Y084279*
X150597Y084226*
X150689Y084208*
X150781Y084226*
X150859Y084279*
X151095Y084514*
X151648*
X15166Y084482*
X151664Y084416*
X151601Y084374*
X151549Y084296*
X151532Y084209*
X151378Y084055*
X150689*
X150394Y08376*
Y082512*
X150368Y082474*
X15035Y082382*
X150368Y08229*
X150394Y082251*
Y082185*
Y078937*
X150591Y07874*
X152559Y076772*
X156496*
Y06939*
X156401*
X156343Y069469*
X156355Y06951*
X156364Y069597*
X155665*
X154967*
X154975Y06951*
X154988Y069469*
X154929Y06939*
X14942*
X149362Y069469*
X149373Y069506*
X149387Y069647*
X149373Y069788*
X149332Y069923*
X149265Y070048*
X149176Y070157*
X149066Y070247*
X148941Y070314*
X148806Y070355*
X148665Y070369*
X148525Y070355*
X148389Y070314*
X148264Y070247*
X148155Y070157*
X148065Y070048*
X147999Y069923*
X147958Y069788*
X147944Y069647*
X147958Y069506*
X147969Y069469*
X14791Y06939*
X147346*
X147288Y069469*
X1473Y06951*
X147309Y069597*
X14661*
X145912*
X14592Y06951*
X145933Y069469*
X145874Y06939*
X140365*
X140307Y069469*
X140318Y069506*
X140332Y069647*
X140318Y069788*
X140277Y069923*
X14021Y070048*
X14012Y070157*
X140011Y070247*
X139886Y070314*
X139751Y070355*
X13961Y070369*
X139469Y070355*
X139334Y070314*
X139209Y070247*
X1391Y070157*
X13901Y070048*
X138944Y069923*
X138903Y069788*
X138889Y069647*
X138902Y069516*
X13888Y069488*
X138821Y069439*
X13878Y069453*
Y078346*
Y07874*
X140256Y080217*
Y093973*
X142854*
X142881Y093909*
X142882Y093874*
X142801Y093813*
X142732Y093722*
X142688Y093617*
X142673Y093504*
X142688Y093391*
X142732Y093286*
X142801Y093195*
X142892Y093126*
X142997Y093082*
X14311Y093067*
X143223Y093082*
X143329Y093126*
X143419Y093195*
X143489Y093286*
X143532Y093391*
X143547Y093504*
X143532Y093617*
X143489Y093722*
X143419Y093813*
X143339Y093874*
X14334Y093909*
X143367Y093973*
X156277*
Y09369*
X156179Y093654*
X156176Y093658*
X156066Y093748*
X155941Y093815*
X155806Y093856*
X155665Y09387*
X155525Y093856*
X155389Y093815*
X155264Y093748*
X155155Y093658*
X155065Y093549*
X154999Y093424*
X154958Y093289*
X154944Y093148*
X154958Y093007*
X154999Y092872*
X155065Y092747*
X155155Y092638*
X155264Y092548*
X155389Y092481*
X155525Y09244*
X155665Y092426*
X155806Y09244*
X155941Y092481*
X156066Y092548*
X156176Y092638*
X156265Y092747*
X156332Y092872*
X156373Y093007*
X15638Y093075*
X156398Y093088*
X156624*
Y092976*
X15736*
Y094882*
X157624*
Y092976*
X157751*
Y090572*
X157184Y090005*
X156007*
X155982Y090103*
X156066Y090148*
X156176Y090238*
X156265Y090347*
X156332Y090472*
X156373Y090607*
X156387Y090748*
X156373Y090889*
X156332Y091024*
X156265Y091149*
X156176Y091258*
X156066Y091348*
X155941Y091415*
X155806Y091456*
X155665Y09147*
X155525Y091456*
X155389Y091415*
X155264Y091348*
X155155Y091258*
X155065Y091149*
X154999Y091024*
X154958Y090889*
X154944Y090748*
X154958Y090607*
X154999Y090472*
X155065Y090347*
X155155Y090238*
X155264Y090148*
X155349Y090103*
X155324Y090005*
X149007*
X148982Y090103*
X149066Y090148*
X149176Y090238*
X149265Y090347*
X149332Y090472*
X149373Y090607*
X149387Y090748*
X149373Y090889*
X149332Y091024*
X149265Y091149*
X149176Y091258*
X149066Y091348*
X148941Y091415*
X148806Y091456*
X148665Y09147*
X148525Y091456*
X148389Y091415*
X148264Y091348*
X148155Y091258*
X148065Y091149*
X147999Y091024*
X147958Y090889*
X147944Y090748*
X147958Y090607*
X147999Y090472*
X148065Y090347*
X148155Y090238*
X148264Y090148*
X148349Y090103*
X148324Y090005*
X146949*
X146857Y089986*
X146779Y089934*
X145893Y089048*
X14584Y08897*
X145822Y088878*
Y082874*
Y081693*
X14584Y081601*
X145893Y081523*
X14668Y080735*
X146758Y080683*
X14685Y080665*
X146943Y080683*
X147021Y080735*
X147073Y080813*
X147085Y080872*
X147123Y080928*
X147179Y080967*
X147238Y080978*
X147316Y08103*
X147368Y081109*
X147387Y081201*
X147368Y081293*
X147316Y081371*
X146698Y08199*
Y083169*
Y088581*
X147245Y089129*
X148428*
X148442Y089031*
X148389Y089015*
X148264Y088948*
X148155Y088858*
X148065Y088749*
X147999Y088624*
X147958Y088489*
X147944Y088348*
X147958Y088207*
X147999Y088072*
X148065Y087947*
X148155Y087838*
X148264Y087748*
X148278Y087741*
X148253Y087642*
X148228*
X148136Y087624*
X148058Y087572*
X147172Y086686*
X14712Y086608*
X147102Y086516*
Y082382*
X14712Y08229*
X147172Y082212*
X147467Y081916*
X147546Y081864*
X147638Y081846*
X14773Y081864*
X147808Y081916*
X14786Y081994*
X147879Y082087*
X14786Y082179*
X147808Y082257*
X147598Y082467*
X147605Y082525*
X147707Y082563*
X14796Y08231*
X148038Y082258*
X14813Y082239*
X148222Y082258*
X1483Y08231*
X148352Y082388*
X148371Y08248*
X148352Y082572*
X1483Y082651*
X147977Y082974*
Y086121*
X148525Y086669*
X157185*
X157277Y086687*
X157355Y086739*
X160603Y089987*
X160656Y090065*
X160674Y090157*
Y092421*
X160656Y092513*
X160603Y092592*
X160525Y092644*
X160433Y092662*
X160341Y092644*
X160331Y092637*
X160233Y09269*
Y092976*
X16036*
Y094882*
X160624*
Y092976*
X160706*
Y092717*
X160717Y092634*
X160749Y092558*
X160799Y092492*
X160865Y092441*
X160941Y09241*
X161024Y092399*
X161106Y09241*
X161182Y092441*
X161248Y092492*
X161299Y092558*
X16133Y092634*
X161341Y092717*
Y092976*
X16136*
Y094882*
X161516*
Y089961*
G37*
G36*
X155442Y089031D02*
X155389Y089015D01*
X155264Y088948*
X155155Y088858*
X155065Y088749*
X154999Y088624*
X154958Y088489*
X154944Y088348*
X154958Y088207*
X154999Y088072*
X155065Y087947*
X155155Y087838*
X155264Y087748*
X155278Y087741*
X155253Y087642*
X149077*
X149053Y087741*
X149066Y087748*
X149176Y087838*
X149265Y087947*
X149332Y088072*
X149373Y088207*
X149387Y088348*
X149373Y088489*
X149332Y088624*
X149265Y088749*
X149176Y088858*
X149066Y088948*
X148941Y089015*
X148888Y089031*
X148903Y089129*
X155428*
X155442Y089031*
G37*
G36*
X182951Y094783D02*
X182859Y094761D01*
X182667Y094682*
X182491Y094574*
X182333Y094439*
X182198Y094281*
X18209Y094104*
X18201Y093913*
X181962Y093711*
X181946Y093504*
X181962Y093297*
X18201Y093095*
X18209Y092904*
X182198Y092727*
X182333Y092569*
X182491Y092434*
X182667Y092326*
X182859Y092246*
X183061Y092198*
X183268Y092182*
X183475Y092198*
X183676Y092246*
X183868Y092326*
X184045Y092434*
X184203Y092569*
X184337Y092727*
X184446Y092904*
X184525Y093095*
X184547Y093187*
X184646Y093176*
Y069423*
X184547Y069411*
X184525Y069503*
X184446Y069695*
X184337Y069872*
X184203Y070029*
X184045Y070164*
X183868Y070273*
X183676Y070352*
X183475Y0704*
X183268Y070417*
X183061Y0704*
X182859Y070352*
X182667Y070273*
X182491Y070164*
X182333Y070029*
X182198Y069872*
X18209Y069695*
X18201Y069503*
X181962Y069301*
X181946Y069094*
X181962Y068888*
X18201Y068686*
X18209Y068494*
X182198Y068317*
X182333Y06816*
X182491Y068025*
X182667Y067916*
X182859Y067837*
X182951Y067815*
X182939Y067717*
X130446*
X130435Y067815*
X130527Y067837*
X130718Y067916*
X130895Y068025*
X131053Y06816*
X131188Y068317*
X131296Y068494*
X131376Y068686*
X131424Y068888*
X13144Y069094*
X131424Y069301*
X131376Y069503*
X131296Y069695*
X131188Y069872*
X131053Y070029*
X130895Y070164*
X130718Y070273*
X130527Y070352*
X130325Y0704*
X130118Y070417*
X129911Y0704*
X12971Y070352*
X129518Y070273*
X129341Y070164*
X129183Y070029*
X129048Y069872*
X12894Y069695*
X128861Y069503*
X128839Y069411*
X12874Y069423*
Y083932*
X128795Y083968*
X128839Y083984*
X128928Y083948*
X129035Y083933*
X129143Y083948*
X129244Y083989*
X12933Y084056*
X129397Y084142*
X129438Y084242*
X129452Y08435*
Y085039*
Y08563*
Y086319*
Y088902*
X134523Y093973*
X140135*
Y080266*
X138694Y078825*
X138668Y078786*
X138659Y07874*
Y078346*
Y069453*
X13866Y069448*
X138659Y069444*
X138665Y069426*
X138668Y069407*
X138671Y069403*
X138672Y069399*
X138684Y069384*
X138694Y069368*
X138698Y069365*
X138701Y069362*
X138718Y069352*
X138733Y069342*
X138738Y069341*
X138742Y069338*
X138783Y069325*
X138796Y069323*
X138809Y069319*
X138819Y06932*
X138829Y069319*
X138842Y069323*
X138855Y069324*
X138865Y069329*
X138875Y069332*
X138941Y069319*
X138986Y069292*
X13901Y069246*
X1391Y069137*
X139209Y069047*
X139334Y068981*
X139469Y06894*
X13961Y068926*
X139751Y06894*
X139886Y068981*
X140011Y069047*
X14012Y069137*
X140206Y069242*
X14021Y069245*
X140214Y069249*
X140229Y069258*
X140252Y069266*
X140319Y069279*
X140334Y069276*
X140347Y069271*
X140356*
X140365Y069269*
X145874*
X145883Y069271*
X145892*
X145906Y069276*
X14592Y069279*
X14599Y069254*
X146019Y069236*
Y069235*
X1461Y069137*
X146209Y069047*
X146334Y068981*
X146469Y06894*
X14661Y068926*
X146751Y06894*
X146886Y068981*
X147011Y069047*
X14712Y069137*
X147201Y069235*
X147202Y069236*
X147231Y069254*
X1473Y069279*
X147315Y069276*
X147329Y069271*
X147337*
X147346Y069269*
X14791*
X147919Y069271*
X147928*
X147942Y069276*
X147956Y069279*
X148024Y069266*
X148047Y069258*
X148062Y069249*
X148066Y069245*
X148069Y069242*
X148155Y069137*
X148264Y069047*
X148389Y068981*
X148525Y06894*
X148665Y068926*
X148806Y06894*
X148941Y068981*
X149066Y069047*
X149176Y069137*
X149261Y069242*
X149265Y069245*
X149269Y069249*
X149284Y069258*
X149307Y069266*
X149374Y069279*
X149389Y069276*
X149403Y069271*
X149412*
X14942Y069269*
X154929*
X154938Y069271*
X154947*
X154961Y069276*
X154975Y069279*
X155045Y069254*
X155074Y069236*
Y069235*
X155155Y069137*
X155264Y069047*
X155389Y068981*
X155525Y06894*
X155665Y068926*
X155806Y06894*
X155941Y068981*
X156066Y069047*
X156176Y069137*
X156256Y069235*
X156257Y069236*
X156286Y069254*
X156355Y069279*
X15637Y069276*
X156384Y069271*
X156393*
X156401Y069269*
X156496*
X156542Y069279*
X156581Y069305*
X156607Y069344*
X156616Y06939*
Y076772*
X156607Y076818*
X156581Y076857*
X156542Y076883*
X156496Y076892*
X152609*
X150676Y078825*
X150514Y078987*
Y082185*
Y082251*
X150512Y082263*
Y082275*
X150507Y082286*
X150505Y082297*
X150498Y082307*
X150494Y082318*
X150481Y082337*
X150472Y082382*
X150481Y082427*
X150494Y082446*
X150498Y082457*
X150505Y082466*
X150507Y082478*
X150512Y082489*
Y082501*
X150514Y082512*
Y08371*
X150739Y083935*
X151378*
X151424Y083944*
X151463Y08397*
X151617Y084124*
X151624Y084134*
X151632Y084142*
X151637Y084153*
X151643Y084163*
X151645Y084175*
X15165Y084186*
X151663Y084249*
X151688Y084287*
X151731Y084316*
X151743Y084327*
X151755Y084337*
X151759Y084344*
X151764Y084349*
X151771Y084364*
X151779Y084378*
X15178Y084385*
X151782Y084392*
Y084408*
X151784Y084424*
X151868Y084513*
X151874Y084514*
X152065*
X152087Y084421*
X152091Y084412*
X152093Y084403*
X1521Y084391*
X152106Y084379*
X152113Y084372*
X152119Y084364*
X15213Y084356*
X15214Y084347*
X15215Y084343*
X152158Y084338*
X152171Y084335*
X152184Y08433*
X152194*
X152204Y084328*
X152464*
X152494Y08423*
X152487Y084225*
X152435Y084147*
X152417Y084055*
Y083657*
X152318Y083596*
X152264Y083607*
X152172Y083589*
X152093Y083536*
X152041Y083458*
X152023Y083366*
X152041Y083274*
X152083Y083211*
Y081848*
X152041Y081785*
X152023Y081693*
X152041Y081601*
X152093Y081523*
X152172Y08147*
X152264Y081452*
X152318Y081463*
X152417Y081402*
Y08002*
X152435Y079928*
X152487Y079849*
X152565Y079797*
X152657Y079779*
X15275Y079797*
X152828Y079849*
X15288Y079928*
X152898Y08002*
Y080286*
X152933Y08031*
X152997Y08033*
X153057Y080289*
X15315Y080271*
X153242Y080289*
X15332Y080342*
X153372Y08042*
X15339Y080512*
X153372Y080604*
X15337Y080607*
Y082189*
X153372Y082191*
X15339Y082283*
X153372Y082376*
X15332Y082454*
X153242Y082506*
X15315Y082524*
X153057Y082506*
X152997Y082465*
X152933Y082485*
X152898Y082509*
Y084055*
X15288Y084147*
X152828Y084225*
X152821Y08423*
X152851Y084328*
X158071*
X158117Y084338*
X158156Y084364*
X159042Y085249*
X159068Y085289*
X159077Y085335*
Y085804*
X159941*
X160023Y085815*
X1601Y085847*
X160166Y085897*
X160216Y085963*
X160248Y08604*
X160259Y086122*
X160248Y086204*
X160216Y086281*
X160166Y086347*
X1601Y086397*
X160023Y086429*
X159941Y08644*
X159077*
Y087352*
X161601Y089875*
X161627Y089915*
X161636Y089961*
Y092976*
X16236*
Y094882*
X162642*
Y094144*
X162992*
X163342*
Y094882*
X182939*
X182951Y094783*
G37*
G36*
X159624Y092976D02*
X159751D01*
Y090505*
X156888Y087642*
X156077*
X156053Y087741*
X156066Y087748*
X156176Y087838*
X156265Y087947*
X156332Y088072*
X156373Y088207*
X156387Y088348*
X156373Y088489*
X156332Y088624*
X156265Y088749*
X156176Y088858*
X156066Y088948*
X155941Y089015*
X155888Y089031*
X155903Y089129*
X157579*
X157671Y089148*
X157749Y0892*
X158635Y090086*
X158687Y090164*
X158705Y090256*
Y09252*
X158687Y092612*
X158635Y09269*
X158557Y092742*
X158465Y092761*
X158372Y092742*
X158331Y092715*
X158233Y092762*
Y092976*
X15836*
Y094882*
X158642*
Y094144*
X158992*
X159342*
Y094882*
X159624*
Y092976*
G37*
%LNpcb1-2*%
%LPC*%
G36*
X14661Y075169D02*
X146469Y075155D01*
X146334Y075114*
X146209Y075047*
X1461Y074957*
X14601Y074848*
X145944Y074723*
X145903Y074588*
X145889Y074447*
X145903Y074306*
X145944Y074171*
X14601Y074046*
X1461Y073937*
X146209Y073847*
X146334Y073781*
X146469Y07374*
X14661Y073726*
X146751Y07374*
X146886Y073781*
X147011Y073847*
X14712Y073937*
X14721Y074046*
X147277Y074171*
X147318Y074306*
X147332Y074447*
X147318Y074588*
X147277Y074723*
X14721Y074848*
X14712Y074957*
X147011Y075047*
X146886Y075114*
X146751Y075155*
X14661Y075169*
G37*
G36*
X13961D02*
X139469Y075155D01*
X139334Y075114*
X139209Y075047*
X1391Y074957*
X13901Y074848*
X138944Y074723*
X138903Y074588*
X138889Y074447*
X138903Y074306*
X138944Y074171*
X13901Y074046*
X1391Y073937*
X139209Y073847*
X139334Y073781*
X139469Y07374*
X13961Y073726*
X139751Y07374*
X139886Y073781*
X140011Y073847*
X14012Y073937*
X14021Y074046*
X140277Y074171*
X140318Y074306*
X140332Y074447*
X140318Y074588*
X140277Y074723*
X14021Y074848*
X14012Y074957*
X140011Y075047*
X139886Y075114*
X139751Y075155*
X13961Y075169*
G37*
G36*
X155665Y072769D02*
X155525Y072755D01*
X155389Y072714*
X155264Y072647*
X155155Y072557*
X155065Y072448*
X154999Y072323*
X154958Y072188*
X154944Y072047*
X154958Y071906*
X154999Y071771*
X155065Y071646*
X155155Y071537*
X155264Y071447*
X155389Y071381*
X155525Y07134*
X155665Y071326*
X155806Y07134*
X155941Y071381*
X156066Y071447*
X156176Y071537*
X156265Y071646*
X156332Y071771*
X156373Y071906*
X156387Y072047*
X156373Y072188*
X156332Y072323*
X156265Y072448*
X156176Y072557*
X156066Y072647*
X155941Y072714*
X155806Y072755*
X155665Y072769*
G37*
G36*
X148665D02*
X148525Y072755D01*
X148389Y072714*
X148264Y072647*
X148155Y072557*
X148065Y072448*
X147999Y072323*
X147958Y072188*
X147944Y072047*
X147958Y071906*
X147999Y071771*
X148065Y071646*
X148155Y071537*
X148264Y071447*
X148389Y071381*
X148525Y07134*
X148665Y071326*
X148806Y07134*
X148941Y071381*
X149066Y071447*
X149176Y071537*
X149265Y071646*
X149332Y071771*
X149373Y071906*
X149387Y072047*
X149373Y072188*
X149332Y072323*
X149265Y072448*
X149176Y072557*
X149066Y072647*
X148941Y072714*
X148806Y072755*
X148665Y072769*
G37*
G36*
X14661D02*
X146469Y072755D01*
X146334Y072714*
X146209Y072647*
X1461Y072557*
X14601Y072448*
X145944Y072323*
X145903Y072188*
X145889Y072047*
X145903Y071906*
X145944Y071771*
X14601Y071646*
X1461Y071537*
X146209Y071447*
X146334Y071381*
X146469Y07134*
X14661Y071326*
X146751Y07134*
X146886Y071381*
X147011Y071447*
X14712Y071537*
X14721Y071646*
X147277Y071771*
X147318Y071906*
X147332Y072047*
X147318Y072188*
X147277Y072323*
X14721Y072448*
X14712Y072557*
X147011Y072647*
X146886Y072714*
X146751Y072755*
X14661Y072769*
G37*
G36*
X13961D02*
X139469Y072755D01*
X139334Y072714*
X139209Y072647*
X1391Y072557*
X13901Y072448*
X138944Y072323*
X138903Y072188*
X138889Y072047*
X138903Y071906*
X138944Y071771*
X13901Y071646*
X1391Y071537*
X139209Y071447*
X139334Y071381*
X139469Y07134*
X13961Y071326*
X139751Y07134*
X139886Y071381*
X140011Y071447*
X14012Y071537*
X14021Y071646*
X140277Y071771*
X140318Y071906*
X140332Y072047*
X140318Y072188*
X140277Y072323*
X14021Y072448*
X14012Y072557*
X140011Y072647*
X139886Y072714*
X139751Y072755*
X13961Y072769*
G37*
G36*
X155665Y075169D02*
X155525Y075155D01*
X155389Y075114*
X155264Y075047*
X155155Y074957*
X155065Y074848*
X154999Y074723*
X154958Y074588*
X154944Y074447*
X154958Y074306*
X154999Y074171*
X155065Y074046*
X155155Y073937*
X155264Y073847*
X155389Y073781*
X155525Y07374*
X155665Y073726*
X155806Y07374*
X155941Y073781*
X156066Y073847*
X156176Y073937*
X156265Y074046*
X156332Y074171*
X156373Y074306*
X156387Y074447*
X156373Y074588*
X156332Y074723*
X156265Y074848*
X156176Y074957*
X156066Y075047*
X155941Y075114*
X155806Y075155*
X155665Y075169*
G37*
G36*
X148665D02*
X148525Y075155D01*
X148389Y075114*
X148264Y075047*
X148155Y074957*
X148065Y074848*
X147999Y074723*
X147958Y074588*
X147944Y074447*
X147958Y074306*
X147999Y074171*
X148065Y074046*
X148155Y073937*
X148264Y073847*
X148389Y073781*
X148525Y07374*
X148665Y073726*
X148806Y07374*
X148941Y073781*
X149066Y073847*
X149176Y073937*
X149265Y074046*
X149332Y074171*
X149373Y074306*
X149387Y074447*
X149373Y074588*
X149332Y074723*
X149265Y074848*
X149176Y074957*
X149066Y075047*
X148941Y075114*
X148806Y075155*
X148665Y075169*
G37*
G36*
X14666Y070346D02*
Y069697D01*
X147309*
X1473Y069784*
X14726Y069916*
X147195Y070038*
X147108Y070145*
X147001Y070232*
X146879Y070297*
X146747Y070337*
X14666Y070346*
G37*
G36*
X155615D02*
X155528Y070337D01*
X155396Y070297*
X155275Y070232*
X155168Y070145*
X155081Y070038*
X155016Y069916*
X154975Y069784*
X154967Y069697*
X155615*
Y070346*
G37*
G36*
X14656D02*
X146473Y070337D01*
X146341Y070297*
X146219Y070232*
X146113Y070145*
X146025Y070038*
X14596Y069916*
X14592Y069784*
X145912Y069697*
X14656*
Y070346*
G37*
G36*
X155715D02*
Y069697D01*
X156364*
X156355Y069784*
X156315Y069916*
X15625Y070038*
X156163Y070145*
X156056Y070232*
X155935Y070297*
X155803Y070337*
X155715Y070346*
G37*
G36*
X14311Y091972D02*
X142997Y091957D01*
X142892Y091914*
X142801Y091844*
X142732Y091754*
X142688Y091648*
X142673Y091535*
X142688Y091422*
X142732Y091317*
X142801Y091227*
X142892Y091157*
X142997Y091114*
X14311Y091099*
X143223Y091114*
X143329Y091157*
X143419Y091227*
X143489Y091317*
X143532Y091422*
X143547Y091535*
X143532Y091648*
X143489Y091754*
X143419Y091844*
X143329Y091914*
X143223Y091957*
X14311Y091972*
G37*
G36*
X148665Y09387D02*
X148525Y093856D01*
X148389Y093815*
X148264Y093748*
X148155Y093658*
X148065Y093549*
X147999Y093424*
X147958Y093289*
X147944Y093148*
X147958Y093007*
X147999Y092872*
X148065Y092747*
X148155Y092638*
X148264Y092548*
X148389Y092481*
X148525Y09244*
X148665Y092426*
X148806Y09244*
X148941Y092481*
X149066Y092548*
X149176Y092638*
X149265Y092747*
X149332Y092872*
X149373Y093007*
X149387Y093148*
X149373Y093289*
X149332Y093424*
X149265Y093549*
X149176Y093658*
X149066Y093748*
X148941Y093815*
X148806Y093856*
X148665Y09387*
G37*
G36*
X14498Y081934D02*
X143996D01*
X143904Y081915*
X143826Y081863*
X143774Y081785*
X143755Y081693*
X143774Y081601*
X143826Y081523*
X143904Y08147*
X143996Y081452*
X14498*
X145072Y08147*
X145151Y081523*
X145203Y081601*
X145221Y081693*
X145203Y081785*
X145151Y081863*
X145072Y081915*
X14498Y081934*
G37*
G36*
X149606Y08469D02*
X149514Y084671D01*
X149436Y084619*
X149418*
X149337Y08465*
X149305Y084671*
X149213Y08469*
X14912Y084671*
X149042Y084619*
X14899Y084541*
X148972Y084449*
Y082087*
X14899Y081994*
X149042Y081916*
X14912Y081864*
X149213Y081846*
X149305Y081864*
X149383Y081916*
X149431*
X149509Y081864*
X149601Y081846*
X149694Y081864*
X149772Y081916*
X149824Y081994*
X149842Y082087*
Y084424*
X149847Y084449*
X149829Y084541*
X149777Y084619*
X149698Y084671*
X149606Y08469*
G37*
G36*
X169685Y074257D02*
X169593Y074238D01*
X169515Y074186*
X169463Y074108*
X169444Y074016*
X169463Y073924*
X169464Y073921*
Y072831*
X169463Y072828*
X169444Y072736*
X169463Y072644*
X169515Y072566*
X169593Y072514*
X169685Y072495*
X169777Y072514*
X169855Y072566*
X169908Y072644*
X169926Y072736*
X169908Y072828*
X169906Y072831*
Y073921*
X169908Y073924*
X169926Y074016*
X169908Y074108*
X169855Y074186*
X169777Y074238*
X169685Y074257*
G37*
G36*
X157972Y083684D02*
X15789Y083673D01*
X157814Y083641*
X157748Y083591*
X157697Y083525*
X157666Y083448*
X157655Y083366*
X157666Y083284*
X157694Y083214*
Y080368*
X157666Y080299*
X157655Y080217*
X157666Y080134*
X157697Y080058*
X157748Y079992*
X157814Y079941*
X15789Y07991*
X157972Y079899*
X158055Y07991*
X158131Y079941*
X158197Y079992*
X158248Y080058*
X158279Y080134*
X15829Y080217*
X158279Y080299*
X15825Y080368*
Y083214*
X158279Y083284*
X15829Y083366*
X158279Y083448*
X158248Y083525*
X158197Y083591*
X158131Y083641*
X158055Y083673*
X157972Y083684*
G37*
G36*
X132776Y080107D02*
X132025D01*
X132037Y079981*
X132088Y079811*
X132172Y079655*
X132285Y079518*
X132422Y079405*
X132578Y079322*
X132748Y07927*
X132776Y079268*
Y080107*
G37*
G36*
Y081047D02*
X132748Y081044D01*
X132578Y080993*
X132422Y080909*
X132285Y080797*
X132172Y08066*
X132088Y080503*
X132037Y080334*
X132025Y080207*
X132776*
Y081047*
G37*
G36*
X15876Y083509D02*
X158668Y08349D01*
X15859Y083438*
X158537Y08336*
X158519Y083268*
X158537Y083176*
X158579Y083113*
Y08047*
X158537Y080407*
X158519Y080315*
X158537Y080223*
X15859Y080145*
X158668Y080092*
X15876Y080074*
X158852Y080092*
X15893Y080145*
X158982Y080223*
X159001Y080315*
X158982Y080407*
X15894Y08047*
Y083113*
X158982Y083176*
X159001Y083268*
X158982Y08336*
X15893Y083438*
X158852Y08349*
X15876Y083509*
G37*
G36*
X182472Y082015D02*
X18235Y081999D01*
X182236Y081952*
X182139Y081877*
X182064Y081779*
X182016Y081666*
X182Y081543*
X182016Y081421*
X182064Y081307*
X182139Y081209*
X182236Y081134*
X182333Y081094*
X182342Y081043*
X182333Y080992*
X182236Y080952*
X182139Y080877*
X182064Y080779*
X182016Y080666*
X182Y080543*
X182016Y080421*
X182064Y080307*
X182139Y080209*
X182236Y080134*
X182333Y080094*
X182342Y080043*
X182333Y079992*
X182236Y079952*
X182139Y079877*
X182064Y079779*
X182016Y079666*
X182Y079543*
X182016Y079421*
X182064Y079307*
X182139Y079209*
X182236Y079134*
X182333Y079094*
X182342Y079043*
X182333Y078992*
X182236Y078952*
X182208Y078931*
X181751Y079388*
X181679Y079436*
X181638Y079444*
X180847Y080235*
X180833Y080309*
X180781Y080387*
X180702Y080439*
X18061Y080457*
X180518Y080439*
X18044Y080387*
X180388Y080309*
X180369Y080217*
X180388Y080124*
X18044Y080046*
X180518Y079994*
X180592Y079979*
X181382Y079189*
X181391Y079148*
X181438Y079076*
X182005Y07851*
X182016Y078421*
X182064Y078307*
X182139Y078209*
X182236Y078134*
X182333Y078094*
X182342Y078043*
X182333Y077992*
X182236Y077952*
X182139Y077877*
X182064Y077779*
X182016Y077666*
X182Y077543*
X182016Y077421*
X182064Y077307*
X182139Y077209*
X182236Y077134*
X18235Y077087*
X182376Y077084*
Y076985*
X182355Y076982*
X182246Y076936*
X182152Y076864*
X182079Y07677*
X182034Y076661*
X182025Y076593*
X182472*
Y076493*
X182025*
X182034Y076426*
X182079Y076316*
X182152Y076222*
X182246Y07615*
X182355Y076105*
X182376Y076102*
Y076003*
X18235Y075999*
X182236Y075952*
X182139Y075877*
X182064Y075779*
X182016Y075666*
X182Y075543*
X182016Y075421*
X182064Y075307*
X182139Y075209*
X182236Y075134*
X18235Y075087*
X182472Y075071*
X182595Y075087*
X182709Y075134*
X182806Y075209*
X182881Y075307*
X182929Y075421*
X183022Y075402*
Y075093*
X183422*
Y075543*
X183522*
Y075093*
X183834*
X183922*
X183933Y074999*
Y074895*
X183668Y07463*
X180803*
X180801Y074632*
X180709Y07465*
X180616Y074632*
X180538Y07458*
X180486Y074502*
X180468Y074409*
X180486Y074317*
X180538Y074239*
X180616Y074187*
X180709Y074169*
X180801Y074187*
X180803Y074189*
X18376*
X183844Y074205*
X183916Y074253*
X18431Y074647*
X184358Y074719*
X184374Y074803*
Y076862*
X184358Y076947*
X18431Y077018*
X183922Y077406*
X183929Y077421*
X183945Y077543*
X183929Y077666*
X183881Y077779*
X183806Y077877*
X183709Y077952*
X183595Y077999*
X183569Y078003*
Y078102*
X18359Y078105*
X183699Y07815*
X183793Y078222*
X183866Y078316*
X183911Y078426*
X18392Y078493*
X183472*
Y078593*
X18392*
X183911Y078661*
X183866Y07877*
X183793Y078864*
X183699Y078936*
X18359Y078982*
X183499Y078994*
Y079093*
X18359Y079105*
X183699Y07915*
X183793Y079222*
X183866Y079316*
X183911Y079426*
X18392Y079493*
X183472*
Y079593*
X18392*
X183911Y079661*
X183866Y07977*
X183793Y079864*
X183699Y079936*
X18359Y079982*
X183499Y079994*
Y080093*
X18359Y080105*
X183699Y08015*
X183793Y080222*
X183866Y080316*
X183911Y080426*
X18392Y080493*
X183472*
Y080593*
X18392*
X183911Y080661*
X183866Y08077*
X183793Y080864*
X183699Y080936*
X18359Y080982*
X183499Y080994*
Y081093*
X18359Y081105*
X183699Y08115*
X183793Y081222*
X183866Y081316*
X183911Y081426*
X18392Y081493*
X183472*
Y081543*
X183422*
Y081991*
X183355Y081982*
X183246Y081936*
X183151Y081864*
X183079Y08177*
X183034Y081661*
X183031Y081639*
X182932*
X182929Y081666*
X182881Y081779*
X182806Y081877*
X182709Y081952*
X182595Y081999*
X182472Y082015*
G37*
G36*
X165846Y076324D02*
X165754Y076305D01*
X165676Y076253*
X165624Y076175*
X165606Y076083*
X165624Y075991*
X165676Y075913*
Y074776*
X165624Y074698*
X165606Y074606*
X165624Y074514*
X165676Y074436*
X165754Y074384*
X165846Y074365*
X165939Y074384*
X166017Y074436*
X166069Y074514*
X166087Y074606*
X166069Y074698*
X166017Y074776*
Y075913*
X166069Y075991*
X166087Y076083*
X166069Y076175*
X166017Y076253*
X165939Y076305*
X165846Y076324*
G37*
G36*
X170234Y069943D02*
X170117D01*
X170047Y069934*
X169982Y069907*
X169926Y069864*
X169883Y069808*
X169856Y069743*
X169847Y069673*
Y069536*
X170234*
Y069943*
G37*
G36*
X171721Y069436D02*
X171334D01*
Y06903*
X171452*
X171521Y069039*
X171586Y069066*
X171642Y069109*
X171685Y069164*
X171712Y069229*
X171721Y069299*
Y069436*
G37*
G36*
X171234Y069943D02*
X171117D01*
X171047Y069934*
X170982Y069907*
X170926Y069864*
X170883Y069808*
X170856Y069743*
X170847Y069673*
Y069536*
X171234*
Y069943*
G37*
G36*
X170452D02*
X170334D01*
Y069536*
X170721*
Y069673*
X170712Y069743*
X170685Y069808*
X170642Y069864*
X170586Y069907*
X170521Y069934*
X170452Y069943*
G37*
G36*
X170234Y069436D02*
X169847D01*
Y069299*
X169856Y069229*
X169883Y069164*
X169926Y069109*
X169982Y069066*
X170047Y069039*
X170117Y06903*
X170234*
Y069436*
G37*
G36*
X172452Y069961D02*
X172117D01*
X172042Y069951*
X171973Y069923*
X171913Y069877*
X171868Y069817*
X171839Y069748*
X171829Y069673*
Y069299*
X171839Y069225*
X171868Y069155*
X171913Y069096*
X171973Y06905*
X172042Y069021*
X172117Y069011*
X172452*
X172526Y069021*
X172596Y06905*
X172655Y069096*
X172701Y069155*
X17273Y069225*
X172739Y069299*
Y069673*
X17273Y069748*
X172701Y069817*
X172655Y069877*
X172596Y069923*
X172526Y069951*
X172452Y069961*
G37*
G36*
X171234Y069436D02*
X170847D01*
Y069299*
X170856Y069229*
X170883Y069164*
X170926Y069109*
X170982Y069066*
X171047Y069039*
X171117Y06903*
X171234*
Y069436*
G37*
G36*
X170721D02*
X170334D01*
Y06903*
X170452*
X170521Y069039*
X170586Y069066*
X170642Y069109*
X170685Y069164*
X170712Y069229*
X170721Y069299*
Y069436*
G37*
G36*
X169452Y069961D02*
X169117D01*
X169042Y069951*
X168973Y069923*
X168913Y069877*
X168868Y069817*
X168839Y069748*
X168834Y06971*
X168735*
X16873Y069748*
X168701Y069817*
X168655Y069877*
X168596Y069923*
X168526Y069951*
X168452Y069961*
X168117*
X168042Y069951*
X167973Y069923*
X167913Y069877*
X167868Y069817*
X167839Y069748*
X167834Y06971*
X167735*
X16773Y069748*
X167701Y069817*
X167655Y069877*
X167596Y069923*
X167526Y069951*
X167452Y069961*
X167117*
X167042Y069951*
X166973Y069923*
X166913Y069877*
X166868Y069817*
X166839Y069748*
X166834Y06971*
X166735*
X16673Y069748*
X166701Y069817*
X166655Y069877*
X166596Y069923*
X166526Y069951*
X166452Y069961*
X166117*
X166042Y069951*
X165973Y069923*
X165913Y069877*
X165868Y069817*
X165839Y069748*
X165834Y06971*
X165735*
X16573Y069748*
X165701Y069817*
X165655Y069877*
X165596Y069923*
X165526Y069951*
X165452Y069961*
X165117*
X165042Y069951*
X164973Y069923*
X164913Y069877*
X164868Y069817*
X164839Y069748*
X164829Y069673*
Y069299*
X164839Y069225*
X164868Y069155*
X164913Y069096*
X164973Y06905*
X165042Y069021*
X165117Y069011*
X165452*
X165526Y069021*
X165596Y06905*
X165655Y069096*
X165701Y069155*
X16573Y069225*
X165735Y069262*
X165834*
X165839Y069225*
X165868Y069155*
X165913Y069096*
X165973Y06905*
X166042Y069021*
X166117Y069011*
X166452*
X166526Y069021*
X166596Y06905*
X166655Y069096*
X166701Y069155*
X16673Y069225*
X166735Y069262*
X166834*
X166839Y069225*
X166868Y069155*
X166913Y069096*
X166973Y06905*
X167042Y069021*
X167117Y069011*
X167452*
X167526Y069021*
X167596Y06905*
X167655Y069096*
X167701Y069155*
X16773Y069225*
X167735Y069262*
X167834*
X167839Y069225*
X167868Y069155*
X167913Y069096*
X167973Y06905*
X168042Y069021*
X168117Y069011*
X168452*
X168526Y069021*
X168596Y06905*
X168655Y069096*
X168701Y069155*
X16873Y069225*
X168735Y069262*
X168834*
X168839Y069225*
X168868Y069155*
X168913Y069096*
X168973Y06905*
X169042Y069021*
X169117Y069011*
X169452*
X169526Y069021*
X169596Y06905*
X169655Y069096*
X169701Y069155*
X16973Y069225*
X169739Y069299*
Y069673*
X16973Y069748*
X169701Y069817*
X169655Y069877*
X169596Y069923*
X169526Y069951*
X169452Y069961*
G37*
G36*
X15876Y071599D02*
X158668Y071581D01*
X15859Y071529*
X158537Y07145*
X158519Y071358*
X158537Y071266*
X158579Y071203*
Y070332*
X158537Y070269*
X158519Y070177*
X158537Y070085*
X15859Y070007*
X158668Y069955*
X15876Y069936*
X158852Y069955*
X15893Y070007*
X158982Y070085*
X159001Y070177*
X158982Y070269*
X15894Y070332*
Y071203*
X158982Y071266*
X159001Y071358*
X158982Y07145*
X15893Y071529*
X158852Y071581*
X15876Y071599*
G37*
G36*
X179428Y069961D02*
X179093D01*
X179019Y069951*
X178949Y069923*
X17889Y069877*
X178844Y069817*
X178815Y069748*
X17881Y06971*
X178711*
X178706Y069748*
X178677Y069817*
X178632Y069877*
X178572Y069923*
X178502Y069951*
X178428Y069961*
X178093*
X178019Y069951*
X177949Y069923*
X17789Y069877*
X177844Y069817*
X177815Y069748*
X17781Y06971*
X177711*
X177706Y069748*
X177677Y069817*
X177632Y069877*
X177572Y069923*
X177502Y069951*
X177428Y069961*
X177093*
X177019Y069951*
X176949Y069923*
X17689Y069877*
X176844Y069817*
X176815Y069748*
X17681Y06971*
X176711*
X176706Y069748*
X176677Y069817*
X176632Y069877*
X176572Y069923*
X176502Y069951*
X176428Y069961*
X176093*
X176019Y069951*
X175949Y069923*
X17589Y069877*
X175844Y069817*
X175815Y069748*
X17581Y06971*
X175711*
X175706Y069748*
X175677Y069817*
X175632Y069877*
X175572Y069923*
X175502Y069951*
X175428Y069961*
X175093*
X175019Y069951*
X174949Y069923*
X17489Y069877*
X174844Y069817*
X174815Y069748*
X17481Y06971*
X174711*
X174706Y069748*
X174677Y069817*
X174632Y069877*
X174572Y069923*
X174502Y069951*
X174428Y069961*
X174093*
X174019Y069951*
X173949Y069923*
X17389Y069877*
X173844Y069817*
X173815Y069748*
X173805Y069673*
Y069299*
X173815Y069225*
X173844Y069155*
X17389Y069096*
X173949Y06905*
X174019Y069021*
X174093Y069011*
X174428*
X174502Y069021*
X174572Y06905*
X174632Y069096*
X174677Y069155*
X174706Y069225*
X174711Y069262*
X17481*
X174815Y069225*
X174844Y069155*
X17489Y069096*
X174949Y06905*
X175019Y069021*
X175093Y069011*
X175428*
X175502Y069021*
X175572Y06905*
X175632Y069096*
X175677Y069155*
X175706Y069225*
X175711Y069262*
X17581*
X175815Y069225*
X175844Y069155*
X17589Y069096*
X175949Y06905*
X176019Y069021*
X176093Y069011*
X176428*
X176502Y069021*
X176572Y06905*
X176632Y069096*
X176677Y069155*
X176706Y069225*
X176711Y069262*
X17681*
X176815Y069225*
X176844Y069155*
X17689Y069096*
X176949Y06905*
X177019Y069021*
X177093Y069011*
X177428*
X177502Y069021*
X177572Y06905*
X177632Y069096*
X177677Y069155*
X177706Y069225*
X177711Y069262*
X17781*
X177815Y069225*
X177844Y069155*
X17789Y069096*
X177949Y06905*
X178019Y069021*
X178093Y069011*
X178428*
X178502Y069021*
X178572Y06905*
X178632Y069096*
X178677Y069155*
X178706Y069225*
X178711Y069262*
X17881*
X178815Y069225*
X178844Y069155*
X17889Y069096*
X178949Y06905*
X179019Y069021*
X179093Y069011*
X179428*
X179502Y069021*
X179572Y06905*
X179632Y069096*
X179677Y069155*
X179706Y069225*
X179716Y069299*
Y069673*
X179706Y069748*
X179677Y069817*
X179632Y069877*
X179572Y069923*
X179502Y069951*
X179428Y069961*
G37*
G36*
X171452Y069943D02*
X171334D01*
Y069536*
X171721*
Y069673*
X171712Y069743*
X171685Y069808*
X171642Y069864*
X171586Y069907*
X171521Y069934*
X171452Y069943*
G37*
G36*
X131644Y08297D02*
X131464Y082952D01*
X131291Y0829*
X131131Y082814*
X130992Y0827*
X130877Y08256*
X130792Y0824*
X130739Y082227*
X130721Y082047*
X130739Y081867*
X130792Y081694*
X130877Y081535*
X130992Y081395*
X131131Y08128*
X131291Y081195*
X131464Y081143*
X131644Y081125*
X131824Y081143*
X131997Y081195*
X132157Y08128*
X132296Y081395*
X132411Y081535*
X132496Y081694*
X132549Y081867*
X132567Y082047*
X132549Y082227*
X132496Y0824*
X132411Y08256*
X132296Y0827*
X132157Y082814*
X131997Y0829*
X131824Y082952*
X131644Y08297*
G37*
G36*
X166682Y091099D02*
X166634D01*
X166531Y091086*
X166435Y091046*
X166352Y090983*
X166289Y0909*
X166249Y090804*
X166242Y090751*
X166682*
Y091099*
G37*
G36*
X166831D02*
X166782D01*
Y090751*
X167223*
X167216Y090804*
X167176Y0909*
X167113Y090983*
X16703Y091046*
X166934Y091086*
X166831Y091099*
G37*
G36*
X167223Y090651D02*
X166782D01*
Y090302*
X166831*
X166934Y090316*
X16703Y090356*
X167113Y090419*
X167176Y090501*
X167216Y090598*
X167223Y090651*
G37*
G36*
X162908Y088859D02*
X162574D01*
X162499Y088849*
X16243Y08882*
X16237Y088774*
X162324Y088715*
X162296Y088645*
X162291Y088608*
X162191*
X162186Y088645*
X162158Y088715*
X162112Y088774*
X162052Y08882*
X161983Y088849*
X161908Y088859*
X161574*
X161499Y088849*
X16143Y08882*
X16137Y088774*
X161324Y088715*
X161296Y088645*
X161286Y088571*
Y088197*
X161296Y088122*
X161324Y088053*
X16137Y087993*
X16143Y087948*
X161499Y087919*
X161574Y087909*
X161908*
X161983Y087919*
X162052Y087948*
X162112Y087993*
X162158Y088053*
X162186Y088122*
X162191Y08816*
X162291*
X162296Y088122*
X162324Y088053*
X16237Y087993*
X16243Y087948*
X162499Y087919*
X162574Y087909*
X162908*
X162983Y087919*
X163052Y087948*
X163112Y087993*
X163158Y088053*
X163186Y088122*
X163196Y088197*
Y088571*
X163186Y088645*
X163158Y088715*
X163112Y088774*
X163052Y08882*
X162983Y088849*
X162908Y088859*
G37*
G36*
X179483D02*
X179148D01*
X179074Y088849*
X179004Y08882*
X178945Y088774*
X178899Y088715*
X17887Y088645*
X178865Y088608*
X178766*
X178761Y088645*
X178732Y088715*
X178687Y088774*
X178627Y08882*
X178558Y088849*
X178483Y088859*
X178148*
X178074Y088849*
X178004Y08882*
X177945Y088774*
X177899Y088715*
X17787Y088645*
X177865Y088608*
X177766*
X177761Y088645*
X177732Y088715*
X177687Y088774*
X177627Y08882*
X177558Y088849*
X177483Y088859*
X177148*
X177074Y088849*
X177004Y08882*
X176945Y088774*
X176899Y088715*
X17687Y088645*
X176865Y088608*
X176766*
X176761Y088645*
X176732Y088715*
X176687Y088774*
X176627Y08882*
X176558Y088849*
X176483Y088859*
X176148*
X176074Y088849*
X176004Y08882*
X175945Y088774*
X175899Y088715*
X17587Y088645*
X175865Y088608*
X175766*
X175761Y088645*
X175732Y088715*
X175687Y088774*
X175627Y08882*
X175558Y088849*
X175483Y088859*
X175148*
X175074Y088849*
X175004Y08882*
X174945Y088774*
X174899Y088715*
X17487Y088645*
X174865Y088608*
X174766*
X174761Y088645*
X174732Y088715*
X174687Y088774*
X174627Y08882*
X174558Y088849*
X174483Y088859*
X174148*
X174074Y088849*
X174004Y08882*
X173945Y088774*
X173899Y088715*
X17387Y088645*
X173865Y088608*
X173766*
X173761Y088645*
X173732Y088715*
X173687Y088774*
X173627Y08882*
X173558Y088849*
X173483Y088859*
X173148*
X173074Y088849*
X173004Y08882*
X172945Y088774*
X172899Y088715*
X17287Y088645*
X172861Y088571*
Y088197*
X17287Y088122*
X172899Y088053*
X172945Y087993*
X173004Y087948*
X173074Y087919*
X173148Y087909*
X173483*
X173558Y087919*
X173627Y087948*
X173687Y087993*
X173732Y088053*
X173761Y088122*
X173766Y08816*
X173865*
X17387Y088122*
X173899Y088053*
X173945Y087993*
X174004Y087948*
X174074Y087919*
X174148Y087909*
X174483*
X174558Y087919*
X174627Y087948*
X174687Y087993*
X174732Y088053*
X174761Y088122*
X174766Y08816*
X174865*
X17487Y088122*
X174899Y088053*
X174945Y087993*
X175004Y087948*
X175074Y087919*
X175148Y087909*
X175483*
X175558Y087919*
X175627Y087948*
X175687Y087993*
X175732Y088053*
X175761Y088122*
X175766Y08816*
X175865*
X17587Y088122*
X175899Y088053*
X175945Y087993*
X176004Y087948*
X176074Y087919*
X176148Y087909*
X176483*
X176558Y087919*
X176627Y087948*
X176687Y087993*
X176732Y088053*
X176761Y088122*
X176766Y08816*
X176865*
X17687Y088122*
X176899Y088053*
X176945Y087993*
X177004Y087948*
X177074Y087919*
X177148Y087909*
X177483*
X177558Y087919*
X177627Y087948*
X177687Y087993*
X177732Y088053*
X177761Y088122*
X177766Y08816*
X177865*
X17787Y088122*
X177899Y088053*
X177945Y087993*
X178004Y087948*
X178074Y087919*
X178148Y087909*
X178483*
X178558Y087919*
X178627Y087948*
X178687Y087993*
X178732Y088053*
X178761Y088122*
X178766Y08816*
X178865*
X17887Y088122*
X178899Y088053*
X178945Y087993*
X179004Y087948*
X179074Y087919*
X179148Y087909*
X179483*
X179558Y087919*
X179627Y087948*
X179687Y087993*
X179732Y088053*
X179761Y088122*
X179771Y088197*
Y088571*
X179761Y088645*
X179732Y088715*
X179687Y088774*
X179627Y08882*
X179558Y088849*
X179483Y088859*
G37*
G36*
X166682Y090651D02*
X166242D01*
X166249Y090598*
X166289Y090501*
X166352Y090419*
X166435Y090356*
X166531Y090316*
X166634Y090302*
X166682*
Y090651*
G37*
G36*
X166831Y092118D02*
X166634D01*
X166526Y092104*
X166425Y092062*
X166339Y091996*
X166273Y091909*
X166231Y091809*
X166217Y091701*
X166231Y091593*
X166273Y091492*
X166339Y091406*
X166425Y09134*
X166526Y091298*
X166634Y091284*
X166831*
X166939Y091298*
X167039Y09134*
X167126Y091406*
X167132Y091415*
X169291*
X169374Y091425*
X16945Y091457*
X169516Y091508*
X169566Y091573*
X169598Y09165*
X169609Y091732*
X169598Y091814*
X169566Y091891*
X169516Y091957*
X16945Y092007*
X169374Y092039*
X169291Y09205*
X167055*
X167039Y092062*
X166939Y092104*
X166831Y092118*
G37*
G36*
X162942Y094044D02*
X162642D01*
Y093169*
X162817Y092994*
X162942*
Y094044*
G37*
G36*
X163342D02*
X163042D01*
Y092994*
X163167*
X163342Y093169*
Y094044*
G37*
G36*
X167244Y094114D02*
X16622D01*
Y093287*
X167244*
Y094114*
G37*
G36*
X166831Y093118D02*
X166634D01*
X166526Y093104*
X166425Y093062*
X166339Y092996*
X166273Y092909*
X166231Y092809*
X166217Y092701*
X166231Y092593*
X166273Y092492*
X166339Y092406*
X166425Y09234*
X166526Y092298*
X166634Y092284*
X166831*
X166939Y092298*
X167039Y09234*
X167126Y092406*
X167192Y092492*
X167233Y092593*
X167248Y092701*
X167233Y092809*
X167192Y092909*
X167126Y092996*
X167039Y093062*
X166939Y093104*
X166831Y093118*
G37*
G36*
X170865Y088859D02*
X17053D01*
X170456Y088849*
X170386Y08882*
X170327Y088774*
X170281Y088715*
X170252Y088645*
X170246Y088597*
X170147*
X170139Y088653*
X170112Y08872*
X170067Y088777*
X17001Y088821*
X169943Y088849*
X169871Y088859*
X169556*
X169484Y088849*
X169417Y088821*
X169359Y088777*
X169315Y08872*
X169287Y088653*
X169286Y088642*
X169187*
X169186Y088645*
X169158Y088715*
X169112Y088774*
X169052Y08882*
X168983Y088849*
X168908Y088859*
X168574*
X168499Y088849*
X16843Y08882*
X16837Y088774*
X168324Y088715*
X168296Y088645*
X168291Y088608*
X168191*
X168186Y088645*
X168158Y088715*
X168112Y088774*
X168052Y08882*
X167983Y088849*
X167908Y088859*
X167574*
X167499Y088849*
X16743Y08882*
X16737Y088774*
X167324Y088715*
X167296Y088645*
X167291Y088608*
X167191*
X167186Y088645*
X167158Y088715*
X167112Y088774*
X167052Y08882*
X166983Y088849*
X166908Y088859*
X166574*
X166499Y088849*
X16643Y08882*
X16637Y088774*
X166324Y088715*
X166296Y088645*
X166291Y088608*
X166191*
X166186Y088645*
X166158Y088715*
X166112Y088774*
X166052Y08882*
X165983Y088849*
X165908Y088859*
X165574*
X165499Y088849*
X16543Y08882*
X16537Y088774*
X165324Y088715*
X165296Y088645*
X165291Y088608*
X165191*
X165186Y088645*
X165158Y088715*
X165112Y088774*
X165052Y08882*
X164983Y088849*
X164908Y088859*
X164574*
X164499Y088849*
X16443Y08882*
X16437Y088774*
X164324Y088715*
X164296Y088645*
X164286Y088571*
Y088197*
X164296Y088122*
X164324Y088053*
X16437Y087993*
X16443Y087948*
X164499Y087919*
X164574Y087909*
X164908*
X164983Y087919*
X165052Y087948*
X165112Y087993*
X165158Y088053*
X165186Y088122*
X165191Y08816*
X165291*
X165296Y088122*
X165324Y088053*
X16537Y087993*
X16543Y087948*
X165499Y087919*
X165574Y087909*
X165908*
X165983Y087919*
X166052Y087948*
X166112Y087993*
X166158Y088053*
X166186Y088122*
X166191Y08816*
X166291*
X166296Y088122*
X166324Y088053*
X16637Y087993*
X16643Y087948*
X166499Y087919*
X166574Y087909*
X166908*
X166983Y087919*
X167052Y087948*
X167112Y087993*
X167158Y088053*
X167186Y088122*
X167191Y08816*
X167291*
X167296Y088122*
X167324Y088053*
X16737Y087993*
X16743Y087948*
X167499Y087919*
X167574Y087909*
X167908*
X167983Y087919*
X168052Y087948*
X168112Y087993*
X168158Y088053*
X168186Y088122*
X168191Y08816*
X168291*
X168296Y088122*
X168324Y088053*
X16837Y087993*
X16843Y087948*
X168499Y087919*
X168541Y087913*
X168585Y087842*
X168591Y087811*
X168577Y087789*
X168558Y087697*
X168566Y087657*
X168531Y087623*
X168478Y087594*
X168433Y087613*
X168366Y087622*
X168259*
Y087255*
X168626*
Y087362*
X168619Y087415*
X168652Y087448*
X168704Y087476*
X168707Y087474*
X168799Y087456*
X168891Y087474*
X168954Y087516*
X170011*
X17008Y08753*
X170138Y087569*
X170484Y087915*
X17053Y087909*
X170865*
X170939Y087919*
X171009Y087948*
X171069Y087993*
X171114Y088053*
X171143Y088122*
X171153Y088197*
Y088571*
X171143Y088645*
X171114Y088715*
X171069Y088774*
X171009Y08882*
X170939Y088849*
X170865Y088859*
G37*
G36*
X179823Y084471D02*
X179741Y08446D01*
X179671Y084432*
X177317*
X177248Y08446*
X177165Y084471*
X177083Y08446*
X177007Y084429*
X176941Y084378*
X17689Y084312*
X176859Y084236*
X176848Y084154*
X176859Y084071*
X17689Y083995*
X176941Y083929*
X177007Y083878*
X177083Y083847*
X177165Y083836*
X177248Y083847*
X177317Y083876*
X179671*
X179741Y083847*
X179823Y083836*
X179905Y083847*
X179982Y083878*
X180047Y083929*
X180098Y083995*
X18013Y084071*
X180141Y084154*
X18013Y084236*
X180098Y084312*
X180047Y084378*
X179982Y084429*
X179905Y08446*
X179823Y084471*
G37*
G36*
X182465Y085358D02*
X182357Y085344D01*
X182256Y085302*
X18217Y085236*
X182103Y085149*
X182062Y085049*
X182048Y084941*
X182062Y084833*
X182103Y084732*
X18217Y084646*
X182256Y08458*
X182357Y084538*
X182465Y084524*
X182572Y084538*
X182673Y08458*
X182759Y084646*
X182826Y084732*
X182867Y084833*
X182882Y084941*
X182867Y085049*
X182826Y085149*
X182759Y085236*
X182673Y085302*
X182572Y085344*
X182465Y085358*
G37*
G36*
X183878Y085354D02*
X183051D01*
Y084528*
X183878*
Y085354*
G37*
G36*
X134547Y082944D02*
Y082097D01*
X135104*
X13509Y082243*
X135032Y082432*
X13494Y082606*
X134815Y082758*
X134662Y082883*
X134547Y082944*
G37*
G36*
X135104Y081997D02*
X134547D01*
Y08115*
X134662Y081212*
X134815Y081337*
X13494Y081489*
X135032Y081663*
X13509Y081851*
X135104Y081997*
G37*
G36*
X183522Y081991D02*
Y081593D01*
X18392*
X183911Y081661*
X183866Y08177*
X183793Y081864*
X183699Y081936*
X18359Y081982*
X183522Y081991*
G37*
G36*
X180118Y087544D02*
X180026Y087526D01*
X180023Y087524*
X177351*
X177348Y087526*
X177256Y087544*
X177164Y087526*
X177086Y087473*
X177033Y087395*
X177015Y087303*
X177033Y087211*
X177086Y087133*
X177164Y087081*
X177256Y087062*
X177348Y087081*
X177351Y087082*
X180023*
X180026Y087081*
X180118Y087062*
X18021Y087081*
X180288Y087133*
X180341Y087211*
X180359Y087303*
X180341Y087395*
X180288Y087473*
X18021Y087526*
X180118Y087544*
G37*
G36*
X172473Y088859D02*
X172158D01*
X172086Y088849*
X172019Y088821*
X171962Y088777*
X171918Y08872*
X17189Y088653*
X17188Y088581*
Y088187*
X17189Y088115*
X171918Y088048*
X171962Y08799*
X172019Y087946*
X172086Y087919*
X172158Y087909*
X172473*
X172545Y087919*
X172612Y087946*
X17267Y08799*
X172714Y088048*
X172742Y088115*
X172751Y088187*
Y088581*
X172742Y088653*
X172714Y08872*
X17267Y088777*
X172612Y088821*
X172545Y088849*
X172473Y088859*
G37*
G36*
X163879D02*
X163603D01*
X163536Y08885*
X163474Y088824*
X163421Y088783*
X16338Y088729*
X163354Y088667*
X163345Y0886*
Y088167*
X163354Y088101*
X16338Y088038*
X163421Y087985*
X163474Y087944*
X163536Y087918*
X163603Y087909*
X163879*
X163946Y087918*
X164008Y087944*
X164061Y087985*
X164102Y088038*
X164128Y088101*
X164137Y088167*
Y0886*
X164128Y088667*
X164102Y088729*
X164061Y088783*
X164008Y088824*
X163946Y08885*
X163879Y088859*
G37*
G36*
X170866Y087622D02*
X170759D01*
Y087255*
X171126*
Y087362*
X171117Y087429*
X171091Y087492*
X17105Y087546*
X170996Y087587*
X170933Y087613*
X170866Y087622*
G37*
G36*
X171126Y087155D02*
X170291D01*
Y087047*
X1703Y08698*
X170326Y086917*
X170346Y086892*
X17031Y086801*
X170303Y086794*
X168614*
X168608Y086801*
X168572Y086892*
X168591Y086917*
X168617Y08698*
X168626Y087047*
Y087155*
X167791*
Y087047*
X1678Y08698*
X167812Y086951*
X167783Y086857*
X167766Y086834*
X167718Y086815*
X1677Y086823*
X167618Y086833*
X167536Y086823*
X167466Y086794*
X167376*
X167307Y086823*
X167224Y086833*
X167142Y086823*
X167066Y086791*
X167Y08674*
X166949Y086675*
X166918Y086598*
X166907Y086516*
X166918Y086434*
X166949Y086357*
X167Y086291*
X167066Y086241*
X167142Y086209*
X167224Y086198*
X167307Y086209*
X167376Y086238*
X167466*
X167536Y086209*
X167562Y086206*
X167579Y086203*
X167573Y086107*
X167565Y086105*
X167323*
X167251Y086095*
X167184Y086067*
X167126Y086023*
X167082Y085966*
X167054Y085899*
X167045Y085827*
X167054Y085755*
X167082Y085688*
X167126Y08563*
X167184Y085586*
X167251Y085558*
X167323Y085549*
X167729*
X167789Y08545*
X167783Y085434*
X167773Y085362*
Y085047*
X167783Y084975*
X16781Y084908*
X167855Y084851*
X167912Y084807*
X167979Y084779*
X168051Y084769*
X168366*
X168438Y084779*
X168505Y084807*
X168563Y084851*
X168607Y084908*
X168635Y084975*
X168641Y085024*
X170276*
X170283Y084975*
X17031Y084908*
X170355Y084851*
X170412Y084807*
X170479Y084779*
X170551Y084769*
X170866*
X170938Y084779*
X171005Y084807*
X171063Y084851*
X171107Y084908*
X171135Y084975*
X171144Y085047*
Y085362*
X171137Y085417*
X171175Y085449*
X171226Y085468*
X171572Y085121*
Y08435*
Y083563*
X171582Y083491*
X17161Y083424*
X171654Y083366*
X172048Y082973*
X172744Y082277*
Y081191*
Y07876*
Y078218*
X172753Y078147*
X172781Y07808*
X172825Y078022*
X172883Y077978*
X17295Y07795*
X173022Y077941*
X173094Y07795*
X173161Y077978*
X173218Y078022*
X173241Y078051*
X173442*
Y077773*
X173113Y077443*
X171654*
X171582Y077434*
X171515Y077406*
X171457Y077362*
X171145Y07705*
X168684*
X168652Y077103*
X16864Y077148*
X168671Y077195*
X168685Y077264*
Y077543*
X171081Y07994*
X171155Y079955*
X171233Y080007*
X171286Y080085*
X171304Y080177*
X171286Y080269*
X171233Y080347*
X171202Y080369*
X171181Y080487*
X17138Y080686*
X171417Y080742*
X17143Y080807*
Y08248*
X171417Y082546*
X17138Y082601*
X170938Y083043*
Y083295*
X17099Y083372*
X171009Y083465*
X17099Y083557*
X170938Y083635*
X17086Y083687*
X170768Y083705*
X170707Y083794*
X170695Y083852*
X170643Y08393*
X170565Y083982*
X170472Y084001*
X17038Y083982*
X170302Y08393*
X17025Y083852*
X170235Y083778*
X16999Y083533*
X169954Y083536*
X169876Y083589*
X169783Y083607*
X169691Y083589*
X169613Y083536*
X169561Y083458*
X169549Y083398*
X169488Y08341*
X169396Y083392*
X169318Y08334*
X169266Y083261*
X169247Y083169*
X169266Y083077*
X169267Y083075*
Y082276*
X1692Y082209*
X168894*
X168891Y082211*
X168799Y082229*
X168707Y082211*
X168629Y082158*
X168577Y08208*
X168558Y081988*
X168577Y081896*
X168629Y081818*
X168707Y081766*
X168799Y081747*
X168891Y081766*
X168894Y081767*
X169291*
X169376Y081784*
X169447Y081832*
X169512Y081897*
X169603Y081859*
Y081483*
X169587Y08147*
X164665*
X1646Y081457*
X164545Y08142*
X164173Y081048*
X164081Y08103*
X164003Y080977*
X163951Y080899*
X163932Y080807*
X163951Y080715*
X164003Y080637*
X164081Y080585*
X164173Y080566*
X164265Y080585*
X164344Y080637*
X164361Y080662*
X164478*
X164495Y080637*
X164573Y080585*
X164665Y080566*
X164758Y080585*
X164836Y080637*
X164888Y080715*
X164903Y080789*
X165035Y080922*
X169217*
X169459Y080679*
X169517Y08064*
X169587Y080626*
X169823*
X16986Y080536*
X169782Y080457*
X16811*
X168018Y080439*
X16794Y080387*
X166857Y079304*
X166805Y079226*
X166787Y079134*
X166803Y079051*
X166799Y079045*
X166691Y079023*
X165694Y080021*
Y080315*
X165675Y080407*
X165623Y080485*
X165545Y080537*
X165453Y080556*
X165361Y080537*
X165282Y080485*
X16523Y080407*
X165212Y080315*
Y080162*
X16378*
X163687Y080144*
X163609Y080092*
X163557Y080013*
X163539Y079921*
X163557Y079829*
X163609Y079751*
X163687Y079699*
X16378Y07968*
X165353*
X166688Y078345*
Y077264*
Y072736*
X166707Y072644*
X166759Y072566*
X166837Y072514*
X166929Y072495*
X166945Y072499*
X167044Y072419*
Y07171*
X167002Y071647*
X166984Y071555*
X167002Y071463*
X167054Y071385*
X167132Y071333*
X167191Y071321*
X167247Y071282*
X167286Y071226*
X167297Y071168*
X167349Y07109*
X167428Y071037*
X16752Y071019*
X167586Y071032*
X167662Y070978*
X167673Y070965*
X167691Y070872*
X167743Y070794*
X167821Y070742*
X167913Y070724*
X168006Y070742*
X168084Y070794*
X168136Y070872*
X168154Y070965*
X168136Y071057*
X168094Y071119*
Y074995*
X168192Y075046*
X168226Y075023*
Y074803*
Y074508*
Y074213*
X168235Y074141*
X168263Y074074*
X168307Y074016*
X168365Y073972*
X168432Y073944*
X168504Y073935*
X168576Y073944*
X168643Y073972*
X1687Y074016*
X168745Y074074*
X168772Y074141*
X168782Y074213*
Y074508*
Y074803*
Y075029*
X16888Y075082*
X168894Y075073*
X168986Y075054*
X169078Y075073*
X169157Y075125*
X169209Y075203*
Y075206*
X169546Y075543*
X169594Y075614*
X169611Y075699*
Y07583*
X169612Y075833*
X169631Y075925*
X169616Y076*
X169649Y076064*
X169676Y076099*
X170071*
X170312Y075858*
X170302Y075761*
X17025Y075683*
X170232Y075591*
X17025Y075498*
X170292Y075436*
Y075197*
X170306Y075128*
X170345Y075069*
X170443Y074971*
X170502Y074932*
X170571Y074918*
X171555*
X171624Y074932*
X171683Y074971*
X171827Y075115*
X173172*
X173235Y075073*
X173327Y075054*
X173419Y075073*
X173497Y075125*
X173549Y075203*
X173568Y075295*
X173549Y075387*
X173497Y075466*
X173472Y075483*
Y0756*
X173497Y075617*
X173549Y075695*
X173568Y075787*
X173564Y075804*
X173644Y075902*
X17372*
X17379Y075916*
X173848Y075955*
X174931Y077038*
X17497Y077096*
X174984Y077165*
Y081028*
X175325Y081368*
X175364Y081427*
X175377Y081496*
Y08203*
X175419Y082093*
X175438Y082185*
X175419Y082277*
X175367Y082355*
X175289Y082408*
X175197Y082426*
X175105Y082408*
X175027Y082355*
X174974Y082277*
X174956Y082185*
X174945Y082172*
X174869Y082118*
X174803Y082131*
X174711Y082112*
X174633Y08206*
X174581Y081982*
X174566Y081908*
X174484Y081826*
X174393Y081864*
Y086361*
X174435Y086424*
X174453Y086516*
X174435Y086608*
X174383Y086686*
X174305Y086738*
X174213Y086757*
X17412Y086738*
X174042Y086686*
X17399Y086608*
X173972Y086516*
X17399Y086424*
X174032Y086361*
Y084657*
X173934Y084624*
X173917Y084645*
X17185Y086712*
X171793Y086756*
X171725Y086784*
X171654Y086794*
X171114*
X171108Y086801*
X171072Y086892*
X171091Y086917*
X171117Y08698*
X171126Y087047*
Y087155*
G37*
G36*
X168159Y087622D02*
X168051D01*
X167984Y087613*
X167921Y087587*
X167868Y087546*
X167826Y087492*
X1678Y087429*
X167791Y087362*
Y087255*
X168159*
Y087622*
G37*
G36*
X170659D02*
X170551D01*
X170484Y087613*
X170421Y087587*
X170368Y087546*
X170326Y087492*
X1703Y087429*
X170291Y087362*
Y087255*
X170659*
Y087622*
G37*
G36*
X159342Y094044D02*
X159042D01*
Y092994*
X159342*
Y094044*
G37*
G36*
X158942D02*
X158642D01*
Y092994*
X158942*
Y094044*
G37*
%LNpcb1-3*%
%LPD*%
G54D24*
X161992Y094094D03*
X160992D03*
X159992D03*
X158992D03*
X157992D03*
X156992D03*
G54D39*
X156594Y094685D02*
X156988D01*
X156992Y094094D02*
Y094681D01*
X156988Y094685D02*
X156992Y094681D01*
X161024Y092717D02*
Y094063D01*
X160992Y094094D02*
X161024Y094063D01*
X156988Y086122D02*
X15748D01*
X170709Y087205D02*
X171457D01*
X168209D02*
X170709D01*
X166831D02*
X168209D01*
X154545Y070768D02*
Y074294D01*
X150197Y078642D02*
X154545Y074294D01*
X145374Y092224D02*
Y092717D01*
Y081201D02*
Y092224D01*
Y081201D02*
X14626Y080315D01*
X147343*
X147736Y080709*
Y081398*
X147539Y081594D02*
X147736Y081398D01*
X154545Y070768D02*
X155665Y069647D01*
X147731Y070768D02*
X154545D01*
X14661Y069647D02*
X147731Y070768D01*
X159449Y086122D02*
X159941D01*
X15748D02*
X159449D01*
X166732Y091701D02*
X166764Y091732D01*
X169291*
G54D40*
X163287Y083071D02*
X166929D01*
X166831Y082087D02*
Y082972D01*
X167224Y083366D02*
X168799D01*
X166929Y083071D02*
X167224Y083366D01*
X148228Y085039D02*
Y08563D01*
X148425Y085827*
X149902*
X150197Y085532*
Y084154D02*
Y085532D01*
X15315Y080512D02*
Y082283D01*
X182441Y076575D02*
X182472Y076543D01*
X181791Y076575D02*
X182441D01*
X181791Y074819D02*
Y076575D01*
Y074819D02*
X181799Y074811D01*
X183472*
Y075543*
X177256Y087303D02*
X180118D01*
X181594Y079232D02*
X182283Y078543D01*
X182472*
X168799Y081988D02*
X169291D01*
X169488Y082185*
Y083169*
X166831Y082972D02*
X166929Y083071D01*
X171555Y08061D02*
Y082776D01*
X17126Y083071D02*
X171555Y082776D01*
X168986Y075295D02*
X16939Y075699D01*
Y075925*
X169685Y072736D02*
Y074016D01*
X183472Y077543D02*
X184154Y076862D01*
Y074803D02*
Y076862D01*
X18376Y074409D02*
X184154Y074803D01*
X180709Y074409D02*
X18376D01*
G54D41*
X147146Y08937D02*
X157579D01*
X158465Y090256*
Y09252*
X146949Y089764D02*
X157283D01*
X157992Y090472*
Y094094*
X157185Y086909D02*
X160433Y090157D01*
Y092421*
X156988Y087402D02*
X159992Y090406D01*
Y094094*
X146063Y088878D02*
X146949Y089764D01*
X146063Y082874D02*
Y088878D01*
X146457Y088681D02*
X147146Y08937D01*
X146457Y083169D02*
Y088681D01*
X148228Y087402D02*
X156988D01*
X147343Y086516D02*
X148228Y087402D01*
X147343Y082382D02*
Y086516D01*
X148425Y086909D02*
X157185D01*
X147736Y08622D02*
X148425Y086909D01*
X147736Y082874D02*
Y08622D01*
X168799Y083366D02*
X169783Y08435D01*
X150197Y078642D02*
Y084154D01*
X149601Y084444D02*
X149606Y084449D01*
X149601Y082087D02*
Y084444D01*
X149213Y082087D02*
Y084449D01*
Y082087D02*
D01*
X169783Y085532D02*
Y085827D01*
X150689Y084449D02*
X150995Y084755D01*
X152067*
X152657Y08002D02*
Y084055D01*
X147539Y081594D02*
X150197D01*
X143996Y081693D02*
X14498D01*
X147736Y082874D02*
X14813Y08248D01*
X147343Y082382D02*
X147638Y082087D01*
X146949Y082185D02*
Y087402D01*
Y082185D02*
X147539Y081594D01*
X146063Y081693D02*
Y082874D01*
Y081693D02*
X14685Y080906D01*
X146457Y08189D02*
Y083169D01*
Y08189D02*
X147146Y081201D01*
X163386Y085335D02*
X16378D01*
X163287Y085236D02*
X163386Y085335D01*
X163287Y08435D02*
Y085236D01*
Y082677D02*
Y083071D01*
Y08435*
X167028Y079134D02*
X16811Y080217D01*
X169882*
X170669Y081004*
X166929Y072736D02*
Y077264D01*
X165453Y079921D02*
Y080315D01*
X16378Y079921D02*
X165453D01*
X166929Y078445*
Y077264D02*
Y078445D01*
G54D42*
X166437Y093701D02*
X166732D01*
X165846Y074606D02*
Y076083D01*
X170472Y082776D02*
X170965Y082283D01*
X170472Y082776D02*
Y083169D01*
X170768Y082972D02*
Y083465D01*
Y082972D02*
X17126Y08248D01*
X16811Y077657D02*
X17126Y080807D01*
Y08248*
X167815Y077461D02*
Y077756D01*
X170965Y080906*
Y082283*
X164173Y080807D02*
X164665Y081299D01*
X169587*
X169783Y081102*
G54D43*
X133169Y08002D02*
X134252D01*
X131594D02*
X133169D01*
Y081201*
Y079035D02*
Y08002D01*
X134154Y081988D02*
Y083563D01*
Y080413D02*
Y081988D01*
X135433*
X132776D02*
X134154D01*
X155512Y080315D02*
X156791D01*
X162992Y09252D02*
Y094094D01*
X17126Y083071D02*
Y083858D01*
X169783Y08435D02*
X170768D01*
X168012Y086516D02*
X171654D01*
X167618D02*
X168012D01*
X167224D02*
X167618D01*
X167323Y085827D02*
X169783D01*
X17126D02*
X17185Y085236D01*
X169783Y085827D02*
X17126D01*
X157972Y080217D02*
Y083366D01*
X173228Y077165D02*
X17372Y077657D01*
X168307Y075394D02*
Y076476D01*
Y075394D02*
X168504Y075197D01*
X17372Y077657D02*
Y080118D01*
X168504Y074213D02*
Y074508D01*
Y074803*
Y075197*
X173022Y078218D02*
Y07876D01*
Y081191*
X172244Y083169D02*
X173022Y082392D01*
Y081191D02*
Y082392D01*
X170768Y08435D02*
X17126Y083858D01*
X158071Y083957D02*
X158465Y08435D01*
X153839Y083957D02*
X158071D01*
X168602Y076772D02*
X17126D01*
X171654Y077165*
X168307Y076476D02*
X168602Y076772D01*
X171654Y077165D02*
X173228D01*
X158465Y08435D02*
X163287D01*
X172244Y08376D02*
Y084055D01*
X177165Y084154D02*
X179823D01*
X172244Y08376D02*
X172441Y083563D01*
X17372*
Y080118D02*
Y083563D01*
X17185D02*
X172244Y083169D01*
X172736Y084449D02*
X173032Y084154D01*
X17185D02*
Y085236D01*
Y083563D02*
Y08435D01*
X171949Y084449*
X172736*
X171654Y086516D02*
X17372Y084449D01*
Y083563D02*
Y084449D01*
G54D44*
X171457Y078937D02*
Y080512D01*
X174508Y081594D02*
X174803Y08189D01*
X174508Y077362D02*
Y081594D01*
X173524Y076378D02*
X174508Y077362D01*
X174803Y081102D02*
X175197Y081496D01*
X174803Y077165D02*
Y081102D01*
X17372Y076083D02*
X174803Y077165D01*
X15876Y080315D02*
Y083268D01*
X170472Y08376D02*
D01*
X170079Y083366D02*
X170472Y08376D01*
X170079Y082972D02*
Y083366D01*
Y082972D02*
X170177Y082874D01*
Y081004D02*
Y082874D01*
X16998Y080807D02*
X170177Y081004D01*
X170472Y077953D02*
X171457Y078937D01*
X170768Y075394D02*
Y075657D01*
X170145Y07628D02*
X170768Y075657D01*
X168701Y07628D02*
X170145D01*
X168504Y077264D02*
Y077618D01*
X18061Y080217D02*
X181594Y079232D01*
X170472Y075197D02*
Y075591D01*
X171752Y075295D02*
X173327D01*
X171555Y075098D02*
X171752Y075295D01*
X172736Y075787D02*
X173327D01*
X172047Y075886D02*
X172244Y076083D01*
X172047Y075591D02*
Y075886D01*
X170571Y075098D02*
X171555D01*
X170472Y075197D02*
X170571Y075098D01*
X175197Y081496D02*
Y082185D01*
X171063Y075984D02*
X171752Y076673D01*
X171063Y075591D02*
Y075984D01*
X171358Y075787D02*
X171949Y076378D01*
X171358Y075394D02*
Y075787D01*
X152264Y081693D02*
Y083366D01*
X171752Y076673D02*
X173425D01*
X171949Y076378D02*
X173524D01*
X172244Y076083D02*
X17372D01*
X168307Y085205D02*
X170709D01*
X170807*
X170011Y087697D02*
X170698Y088384D01*
X168209Y079429D02*
Y079626D01*
X168504Y079134D02*
Y079823D01*
X168799Y087697D02*
X170011D01*
X169783Y081102D02*
Y083366D01*
X167815Y077461D02*
D01*
X16752Y07815D02*
X168504Y079134D01*
X167913Y076673D02*
X168504Y077264D01*
X167913Y070965D02*
Y076673D01*
X167224Y078445D02*
X168209Y079429D01*
X167224Y071555D02*
Y078445D01*
X16752Y07126D02*
Y07815D01*
X171457Y080512D02*
X171555Y08061D01*
X168504Y077618D02*
X171063Y080177D01*
X16811Y077264D02*
Y077657D01*
X15876Y070177D02*
Y071358D01*
X164665Y080807D02*
X164961Y081102D01*
X169291*
X169587Y080807*
X16998*
X173425Y076673D02*
X174213Y077461D01*
Y086516*
G54D49*
X165741Y088384D03*
X164741D03*
X162741D03*
X161741D03*
X166741D03*
X167741D03*
X168741D03*
X170698D03*
X172284Y069486D03*
X171284D03*
X170284D03*
X169284D03*
X168284D03*
X167284D03*
X166284D03*
X165284D03*
X174261D03*
X175261D03*
X176261D03*
X177261D03*
X178261D03*
X179261D03*
X179316Y088384D03*
X178316D03*
X177316D03*
X176316D03*
X175316D03*
X174316D03*
X173316D03*
G54D50*
X163741Y088384D03*
G54D51*
X169713Y088384D03*
X172316D03*
G54D52*
X130906Y093504D03*
X183268Y069094D03*
X130118D03*
X183268Y093504D03*
G54D53*
X182472Y081543D03*
X183472D03*
X182472Y080543D03*
X183472D03*
X182472Y079543D03*
X183472D03*
X182472Y078543D03*
X183472D03*
X182472Y077543D03*
X183472D03*
X182472Y076543D03*
X183472D03*
X182472Y075543D03*
G54D54*
X183472Y075543D03*
G54D55*
X183465Y084941D03*
G54D56*
X182465Y084941D03*
G54D57*
X168209Y085205D03*
X170709Y087205D03*
X168209D03*
X170709Y085205D03*
G54D58*
X166732Y090701D03*
Y091701D03*
Y092701D03*
G54D59*
X166732Y093701D03*
G54D60*
X148665Y088348D03*
Y090748D03*
Y093148D03*
X155665Y088348D03*
Y090748D03*
Y093148D03*
X14661Y074447D03*
Y072047D03*
Y069647D03*
X13961Y074447D03*
Y072047D03*
Y069647D03*
X155665Y074447D03*
Y072047D03*
Y069647D03*
X148665Y074447D03*
Y072047D03*
Y069647D03*
G54D61*
X14311Y093504D03*
Y091535D03*
G54D62*
X131644Y082047D03*
X132924Y080157D03*
G54D63*
X134104Y082047D03*
G54D64*
X162008Y092421D03*
Y091437D03*
X162992Y09252D03*
X156791Y080315D03*
X155512D03*
X154035D03*
X154528Y087894D03*
X156594Y094094D03*
Y093504D03*
X129035Y085039D03*
Y08563D03*
X156594Y094685D03*
X137205Y09311D03*
X129035Y08435D03*
Y086319D03*
X161024Y092717D03*
X145374D03*
Y092224D03*
X156988Y086122D03*
X15748D03*
X159449D03*
X159941D03*
X168012Y086516D03*
X167618D03*
X167224D03*
X157972Y083366D03*
Y080217D03*
X169291Y091732D03*
X179823Y084154D03*
X177165D03*
X173032D03*
G54D65*
X159449Y091535D03*
X158957Y09252D03*
Y090551D03*
X158465Y089567D03*
X15748Y091535D03*
X157972Y086614D03*
X15748Y08563D03*
X156988Y09252D03*
X156496Y091535D03*
X156988Y090551D03*
Y088583D03*
X156496Y08563D03*
X155512D03*
Y075787D03*
X156004Y072835D03*
X154528Y093504D03*
X15502Y09252D03*
X154528Y091535D03*
Y08563D03*
Y075787D03*
Y07185D03*
Y069882D03*
X153543Y093504D03*
X154035Y09252D03*
X153543Y091535D03*
X154035Y090551D03*
Y088583D03*
X153543Y08563D03*
Y075787D03*
Y073819D03*
X154035Y072835D03*
X153543Y07185D03*
Y069882D03*
X152559Y093504D03*
X153051Y09252D03*
Y090551D03*
Y088583D03*
X152559Y08563D03*
Y073819D03*
X153051Y072835D03*
X152559Y07185D03*
Y069882D03*
X151575Y091535D03*
X152067Y090551D03*
Y088583D03*
X151575Y075787D03*
X152067Y074803D03*
X151575Y073819D03*
X152067Y072835D03*
X151575Y07185D03*
Y069882D03*
X150591Y093504D03*
X151083Y09252D03*
X150591Y091535D03*
X151083Y090551D03*
X150591Y075787D03*
X151083Y074803D03*
X150591Y073819D03*
X151083Y072835D03*
X150591Y07185D03*
Y069882D03*
X149606Y093504D03*
X150098Y09252D03*
X149606Y091535D03*
X150098Y090551D03*
X149606Y081693D03*
X150098Y080709D03*
Y07874D03*
Y076772D03*
X149606Y075787D03*
X150098Y074803D03*
X149606Y073819D03*
X150098Y072835D03*
X149606Y07185D03*
Y069882D03*
X148622Y081693D03*
Y079724D03*
X149114Y076772D03*
X148622Y075787D03*
X149114Y072835D03*
X147638Y093504D03*
Y087598D03*
X14813Y084646D03*
X147638Y081693D03*
X14813Y080709D03*
X147638Y079724D03*
X14813Y07874D03*
Y076772D03*
X147638Y075787D03*
Y073819D03*
X14813Y072835D03*
X147638Y07185D03*
Y069882D03*
X146654Y093504D03*
X147146Y09252D03*
X146654Y091535D03*
X147146Y090551D03*
Y088583D03*
X146654Y077756D03*
X147146Y076772D03*
X146654Y075787D03*
X147146Y072835D03*
X146161Y09252D03*
X145669Y091535D03*
X146161Y090551D03*
X145669Y089567D03*
Y087598D03*
Y083661D03*
Y081693D03*
X146161Y080709D03*
X145669Y079724D03*
X146161Y07874D03*
X145669Y077756D03*
X146161Y076772D03*
X145669Y075787D03*
Y07185D03*
Y069882D03*
X144685Y091535D03*
X145177Y090551D03*
X144685Y089567D03*
X145177Y088583D03*
X144685Y087598D03*
X145177Y086614D03*
Y084646D03*
X144685Y083661D03*
X145177Y080709D03*
Y07874D03*
X144685Y077756D03*
X145177Y076772D03*
X144685Y075787D03*
X145177Y072835D03*
X144685Y07185D03*
Y069882D03*
X143701Y093504D03*
X144193Y09252D03*
X143701Y091535D03*
X144193Y086614D03*
Y084646D03*
X143701Y083661D03*
X144193Y082677D03*
X143701Y079724D03*
X144193Y076772D03*
X143701Y073819D03*
X144193Y072835D03*
X143701Y07185D03*
Y069882D03*
X143209Y09252D03*
Y090551D03*
X142717Y089567D03*
X143209Y088583D03*
Y084646D03*
X142717Y083661D03*
X143209Y082677D03*
Y080709D03*
X142717Y079724D03*
X143209Y07874D03*
X142717Y075787D03*
X143209Y074803D03*
X142717Y073819D03*
X143209Y072835D03*
X142717Y07185D03*
Y069882D03*
X141732Y093504D03*
X142224Y09252D03*
X141732Y087598D03*
Y08563D03*
X142224Y084646D03*
X141732Y083661D03*
X142224Y082677D03*
X141732Y081693D03*
Y077756D03*
X142224Y076772D03*
X141732Y075787D03*
X142224Y074803D03*
X141732Y073819D03*
X142224Y072835D03*
X141732Y07185D03*
Y069882D03*
X14124Y090551D03*
X140748Y089567D03*
X14124Y088583D03*
X140748Y087598D03*
X14124Y086614D03*
X140748Y08563D03*
Y081693D03*
X14124Y080709D03*
X140748Y079724D03*
X14124Y07874D03*
X140748Y077756D03*
X14124Y076772D03*
X140748Y075787D03*
X14124Y074803D03*
X140748Y073819D03*
X14124Y072835D03*
X140748Y07185D03*
Y069882D03*
X140256Y07874D03*
X139764Y077756D03*
X140256Y076772D03*
X139764Y075787D03*
X140256Y072835D03*
X184055Y091535D03*
Y07185D03*
X183563Y090551D03*
X183071Y089567D03*
X183563Y088583D03*
X183071Y08563D03*
Y083661D03*
X183563Y082677D03*
Y074803D03*
X183071Y073819D03*
Y07185D03*
X183563Y070866D03*
X182579Y090551D03*
X182087Y089567D03*
X182579Y088583D03*
Y086614D03*
X182087Y08563D03*
Y083661D03*
X182579Y082677D03*
Y074803D03*
X182087Y073819D03*
Y07185D03*
X182579Y070866D03*
X182087Y067913D03*
X181102Y093504D03*
X181594Y09252D03*
Y090551D03*
X181102Y089567D03*
X181594Y088583D03*
Y086614D03*
X181102Y08563D03*
X181594Y084646D03*
X181102Y083661D03*
X181594Y082677D03*
X181102Y081693D03*
X181594Y076772D03*
X181102Y075787D03*
X181594Y074803D03*
X181102Y073819D03*
Y07185D03*
X181594Y070866D03*
X181102Y069882D03*
X181594Y068898D03*
X181102Y067913D03*
X180118Y093504D03*
X18061Y09252D03*
Y090551D03*
X180118Y089567D03*
X18061Y088583D03*
Y084646D03*
X180118Y083661D03*
X18061Y082677D03*
X180118Y081693D03*
X18061Y080709D03*
Y076772D03*
X180118Y075787D03*
X18061Y074803D03*
X180118Y07185D03*
X18061Y070866D03*
X180118Y069882D03*
X18061Y068898D03*
X180118Y067913D03*
X179134Y093504D03*
X179626Y09252D03*
Y090551D03*
X179134Y089567D03*
X179626Y084646D03*
Y082677D03*
X179134Y081693D03*
X179626Y080709D03*
X179134Y077756D03*
X179626Y076772D03*
X179134Y075787D03*
Y07185D03*
X179626Y070866D03*
Y068898D03*
X179134Y067913D03*
X17815Y093504D03*
X178642Y09252D03*
Y090551D03*
X17815Y089567D03*
X178642Y080709D03*
X17815Y077756D03*
X178642Y076772D03*
X17815Y075787D03*
X178642Y074803D03*
X17815Y07185D03*
X178642Y070866D03*
Y068898D03*
X17815Y067913D03*
X177165Y093504D03*
X177657Y09252D03*
Y090551D03*
X177165Y089567D03*
Y083661D03*
X177657Y080709D03*
X177165Y079724D03*
X177657Y076772D03*
X177165Y075787D03*
X177657Y074803D03*
X177165Y07185D03*
X177657Y070866D03*
Y068898D03*
X177165Y067913D03*
X176181Y093504D03*
X176673Y09252D03*
Y090551D03*
X176181Y089567D03*
Y087598D03*
Y083661D03*
X176673Y080709D03*
X176181Y079724D03*
X176673Y076772D03*
X176181Y075787D03*
Y07185D03*
X176673Y068898D03*
X176181Y067913D03*
X175197Y093504D03*
X175689Y09252D03*
Y090551D03*
X175197Y089567D03*
Y087598D03*
Y08563D03*
Y083661D03*
X175689Y068898D03*
X175197Y067913D03*
X174213Y093504D03*
X174705Y09252D03*
Y090551D03*
X174213Y089567D03*
Y087598D03*
X174705Y084646D03*
Y068898D03*
X174213Y067913D03*
X173228Y093504D03*
X17372Y09252D03*
Y090551D03*
X173228Y089567D03*
Y087598D03*
X17372Y086614D03*
X173228Y08563D03*
Y069882D03*
X17372Y068898D03*
X173228Y067913D03*
X172244Y093504D03*
X172736Y09252D03*
Y090551D03*
X172244Y089567D03*
X172736Y086614D03*
X17126Y093504D03*
X171752Y09252D03*
Y090551D03*
X170276Y093504D03*
X170768Y09252D03*
X169291Y093504D03*
X169783Y09252D03*
X168307Y093504D03*
X168799Y09252D03*
X167323Y087598D03*
X166339Y089567D03*
Y087598D03*
X166831Y082677D03*
X166339Y07185D03*
X166831Y070866D03*
X165846Y090551D03*
X165354Y089567D03*
X165846Y086614D03*
Y070866D03*
X164862Y090551D03*
X16437Y089567D03*
Y087598D03*
X164862Y086614D03*
X16437Y08563D03*
Y077756D03*
Y073819D03*
X164862Y072835D03*
X16437Y07185D03*
X163386Y087598D03*
X163878Y086614D03*
X163386Y08563D03*
Y079724D03*
Y077756D03*
Y073819D03*
X163878Y072835D03*
X163386Y07185D03*
X162894Y090551D03*
X162402Y089567D03*
X162894Y086614D03*
X162402Y08563D03*
X162894Y084646D03*
Y082677D03*
X162402Y079724D03*
X162894Y07874D03*
Y076772D03*
X162402Y073819D03*
X162894Y072835D03*
X162402Y07185D03*
X161417Y087598D03*
X161909Y086614D03*
X161417Y08563D03*
X161909Y084646D03*
X161417Y083661D03*
Y079724D03*
Y077756D03*
Y073819D03*
X161909Y072835D03*
X161417Y07185D03*
X160925Y088583D03*
X160433Y087598D03*
X160925Y086614D03*
X160433Y08563D03*
X160925Y084646D03*
X160433Y083661D03*
Y081693D03*
Y073819D03*
X160925Y072835D03*
X160433Y07185D03*
X159941Y086614D03*
X159449Y08563D03*
X159941Y084646D03*
X159449Y083661D03*
Y075787D03*
X159941Y074803D03*
X159449Y073819D03*
X159941Y072835D03*
X159449Y07185D03*
X158957Y084646D03*
X158465Y083661D03*
Y069882D03*
X15748Y077756D03*
Y075787D03*
Y073819D03*
Y07185D03*
Y069882D03*
X156988Y07874D03*
X156496Y077756D03*
X156988Y076772D03*
Y074803D03*
Y072835D03*
X156004Y07874D03*
X155512Y077756D03*
X154528Y083661D03*
X15502Y07874D03*
X154528Y077756D03*
X154035Y07874D03*
X153543Y077756D03*
X153051Y07874D03*
X152559Y077756D03*
X152067Y07874D03*
X151083D03*
X139764Y093504D03*
Y091535D03*
Y089567D03*
Y087598D03*
Y08563D03*
Y083661D03*
Y081693D03*
X13878Y093504D03*
Y091535D03*
Y089567D03*
X139272Y086614D03*
X13878Y08563D03*
Y081693D03*
X139272Y080709D03*
X13878Y079724D03*
X137795Y093504D03*
X138287Y09252D03*
X137795Y091535D03*
X138287Y090551D03*
X137795Y089567D03*
X138287Y088583D03*
Y086614D03*
X137795Y08563D03*
X138287Y084646D03*
X137795Y083661D03*
X138287Y082677D03*
X137795Y081693D03*
X138287Y080709D03*
X137795Y079724D03*
X138287Y07874D03*
X137795Y077756D03*
X138287Y076772D03*
X137795Y075787D03*
X138287Y074803D03*
Y072835D03*
X137795Y069882D03*
X137303Y09252D03*
Y090551D03*
Y088583D03*
Y086614D03*
X136811Y08563D03*
X137303Y084646D03*
X136811Y083661D03*
X137303Y082677D03*
X136811Y081693D03*
X137303Y080709D03*
X136811Y079724D03*
X137303Y07874D03*
X136811Y077756D03*
X137303Y076772D03*
X136811Y075787D03*
Y073819D03*
Y069882D03*
X135827Y08563D03*
X136319Y084646D03*
X135827Y083661D03*
X136319Y082677D03*
X135827Y081693D03*
X136319Y080709D03*
X135827Y079724D03*
X136319Y07874D03*
X135827Y077756D03*
X136319Y076772D03*
X135827Y069882D03*
X135335Y084646D03*
X134843Y083661D03*
X135335Y082677D03*
Y080709D03*
X134843Y079724D03*
X135335Y07874D03*
Y076772D03*
X134843Y069882D03*
X133858Y08563D03*
X13435Y084646D03*
X133858Y083661D03*
X13435Y080709D03*
X133858Y079724D03*
X13435Y07874D03*
Y076772D03*
X133858Y069882D03*
X133366Y090551D03*
Y088583D03*
Y086614D03*
Y084646D03*
Y07874D03*
Y076772D03*
Y074803D03*
X132382Y07874D03*
X131398Y086614D03*
Y076772D03*
X130413D03*
Y074803D03*
X129921Y073819D03*
X130413Y072835D03*
X134941Y093799D03*
X13435Y09311D03*
X133957D03*
X130709Y089862D03*
X131594Y090256D03*
Y09065D03*
X158465Y09252D03*
X160433Y092421D03*
X175984Y080217D03*
Y081004D03*
X174114Y074803D03*
X174409Y074409D03*
X168504Y073425D03*
X169193Y072835D03*
X168504D03*
X170177Y073917D03*
X170866Y072835D03*
X170177D03*
X171457Y083366D03*
X166634Y082874D03*
X166732Y083465D03*
X168799Y083366D03*
X170472Y078445D03*
X170866Y079035D03*
X171457Y078051D03*
Y078642D03*
X171476Y079055D03*
X169783Y077854D03*
Y077362D03*
X148228Y085039D03*
X149606Y084449D03*
X149213D03*
X167323Y085827D03*
X169783Y085532D03*
X152067Y084755D03*
X152657Y08002D03*
X15876Y083268D03*
Y080315D03*
X15315Y080512D03*
Y082283D03*
X165846Y076083D03*
X164173Y080807D03*
X170472Y08376D03*
X164665Y080807D03*
X169783Y081102D03*
X167323Y080512D03*
X166831Y082087D03*
X170177Y081004D03*
X162894Y077067D03*
X162167Y077695D03*
X151772Y084203D03*
X152657Y084055D03*
X180118Y087303D03*
X177256D03*
X150591Y082382D03*
X15128D03*
Y083268D03*
X150886Y082874D03*
X154429Y083366D03*
X153839Y083957D03*
X135335Y086614D03*
X134843D03*
X13622Y085532D03*
Y085925D03*
X133661Y086909D03*
X133268D03*
X170472Y077953D03*
X17126Y083071D03*
X168701Y07628D03*
X172244Y083169D03*
X17372Y080118D03*
X170768Y083465D03*
X170472Y083169D03*
X16811Y077264D03*
X170472Y075591D03*
X170768Y075394D03*
X173327Y075295D03*
Y075787D03*
X172047Y075591D03*
X172736Y075787D03*
X17185Y075D03*
X171654Y074803D03*
X175197Y082185D03*
X174803Y08189D03*
X18061Y080217D03*
X168986Y075295D03*
X16939Y075925D03*
X171063Y075591D03*
X171358Y075394D03*
X173022Y07876D03*
Y078218D03*
X171063Y080177D03*
X150197Y084154D03*
X149213Y082087D03*
X149601D03*
X143996Y081693D03*
X150689Y084449D03*
X14498Y081693D03*
X152264Y083366D03*
Y081693D03*
X147638Y082087D03*
X14813Y08248D03*
X146063Y082874D03*
X146457Y083169D03*
X14685Y080906D03*
X147146Y081201D03*
X168504Y074213D03*
Y074508D03*
Y074803D03*
X173022Y081191D03*
X172244Y08376D03*
X168209Y079626D03*
X168504Y079823D03*
X168799Y087697D03*
X169783Y083366D03*
X167815Y077461D03*
X167913Y070965D03*
X167224Y071555D03*
X16752Y07126D03*
X165846Y074606D03*
X163287Y082677D03*
X16378Y085335D03*
X165846Y077559D03*
X135827Y072539D03*
X135433D03*
X135039D03*
X135236Y072933D03*
X13563D03*
X136122D03*
X137402Y075591D03*
Y076083D03*
X168799Y081988D03*
X169488Y083169D03*
X170669Y081004D03*
X167028Y079134D03*
X172244Y084055D03*
X166929Y077264D03*
Y072736D03*
X169685Y074016D03*
Y072736D03*
X179331Y077953D03*
X178642D03*
X180709Y074409D03*
X15876Y070177D03*
Y071358D03*
X165453Y080315D03*
X16378Y079921D03*
X164961Y079134D03*
X174213Y086516D03*
X133563Y072933D03*
Y072244D03*
X165059Y076476D03*
X168799Y070374D03*
X169783D03*
X170768D03*
X171949D03*
X164862Y080413D03*
X165945Y080315D03*
Y074114D03*
Y073524D03*
X158465Y071752D03*
X158366Y079134D03*
X158465Y075197D03*
X15064Y08502D03*
X15063Y086348D03*
G54D66*
X162992Y094094D03*
G54D67*
X13435Y09439D02*
X156594D01*
X129035Y086319D02*
Y089075D01*
Y08563D02*
Y086319D01*
Y085039D02*
Y08563D01*
Y08435D02*
Y085039D01*
Y089075D02*
X13435Y09439D01*
M02*