%FSTAX24Y24*%
%MOIN*%
%SFA1B1*%

%IPPOS*%
%AMD49*
4,1,8,0.016700,0.035400,-0.016700,0.035400,-0.033400,0.018700,-0.033400,-0.018700,-0.016700,-0.035400,0.016700,-0.035400,0.033400,-0.018700,0.033400,0.018700,0.016700,0.035400,0.0*
1,1,0.033400,0.016700,0.018700*
1,1,0.033400,-0.016700,0.018700*
1,1,0.033400,-0.016700,-0.018700*
1,1,0.033400,0.016700,-0.018700*
%
%AMD50*
4,1,8,0.013700,0.035400,-0.013700,0.035400,-0.027500,0.021600,-0.027500,-0.021600,-0.013700,-0.035400,0.013700,-0.035400,0.027500,-0.021600,0.027500,0.021600,0.013700,0.035400,0.0*
1,1,0.027600,0.013700,0.021600*
1,1,0.027600,-0.013700,0.021600*
1,1,0.027600,-0.013700,-0.021600*
1,1,0.027600,0.013700,-0.021600*
%
%AMD51*
4,1,8,0.015800,0.035400,-0.015800,0.035400,-0.031500,0.019700,-0.031500,-0.019700,-0.015800,-0.035400,0.015800,-0.035400,0.031500,-0.019700,0.031500,0.019700,0.015800,0.035400,0.0*
1,1,0.031400,0.015800,0.019700*
1,1,0.031400,-0.015800,0.019700*
1,1,0.031400,-0.015800,-0.019700*
1,1,0.031400,0.015800,-0.019700*
%
%AMD57*
4,1,8,0.015800,0.031500,-0.015800,0.031500,-0.031500,0.015800,-0.031500,-0.015800,-0.015800,-0.031500,0.015800,-0.031500,0.031500,-0.015800,0.031500,0.015800,0.015800,0.031500,0.0*
1,1,0.031400,0.015800,0.015800*
1,1,0.031400,-0.015800,0.015800*
1,1,0.031400,-0.015800,-0.015800*
1,1,0.031400,0.015800,-0.015800*
%
%ADD10R,0.050000X0.060000*%
%ADD11R,0.045000X0.170000*%
%ADD12R,0.060000X0.050000*%
%ADD13R,0.094000X0.025000*%
%ADD14O,0.094000X0.025000*%
%ADD15R,0.040000X0.100000*%
%ADD16R,0.071000X0.071000*%
%ADD17R,0.011000X0.031500*%
%ADD18R,0.031500X0.011000*%
%ADD19R,0.011000X0.027600*%
%ADD20R,0.027600X0.011000*%
%ADD21R,0.250000X0.250000*%
%ADD22R,0.065000X0.065000*%
%ADD23R,0.080000X0.025000*%
%ADD24R,0.050000X0.200000*%
%ADD25R,0.094500X0.088600*%
%ADD26R,0.098400X0.098400*%
%ADD27R,0.230000X0.220000*%
%ADD28R,0.072000X0.056000*%
%ADD29R,0.098400X0.090500*%
%ADD30R,0.170000X0.045000*%
%ADD31R,0.098400X0.098400*%
%ADD32R,0.280000X0.240000*%
%ADD33R,0.080000X0.030000*%
%ADD34R,0.019700X0.011800*%
%ADD35R,0.023600X0.011800*%
%ADD36R,0.011800X0.019700*%
%ADD37R,0.011800X0.023600*%
%ADD38R,0.126000X0.126000*%
%ADD39C,0.039400*%
%ADD40C,0.019700*%
%ADD41C,0.023600*%
%ADD42C,0.009800*%
%ADD43C,0.031500*%
%ADD44C,0.011800*%
%ADD45C,0.007900*%
%ADD46C,0.027600*%
%ADD47C,0.010000*%
%ADD48C,0.078700*%
G04~CAMADD=49~8~0.0~0.0~669.0~709.0~167.0~0.0~15~0.0~0.0~0.0~0.0~0~0.0~0.0~0.0~0.0~0~0.0~0.0~0.0~0.0~669.0~709.0*
%ADD49D49*%
G04~CAMADD=50~8~0.0~0.0~551.0~709.0~138.0~0.0~15~0.0~0.0~0.0~0.0~0~0.0~0.0~0.0~0.0~0~0.0~0.0~0.0~0.0~551.0~709.0*
%ADD50D50*%
G04~CAMADD=51~8~0.0~0.0~630.0~709.0~157.0~0.0~15~0.0~0.0~0.0~0.0~0~0.0~0.0~0.0~0.0~0~0.0~0.0~0.0~0.0~630.0~709.0*
%ADD51D51*%
%ADD52C,0.240000*%
%ADD53C,0.070000*%
%ADD54R,0.070000X0.070000*%
%ADD55R,0.059100X0.059100*%
%ADD56C,0.059100*%
G04~CAMADD=57~8~0.0~0.0~630.0~630.0~157.0~0.0~15~0.0~0.0~0.0~0.0~0~0.0~0.0~0.0~0.0~0~0.0~0.0~0.0~0.0~630.0~630.0*
%ADD57D57*%
%ADD58O,0.078700X0.059100*%
%ADD59R,0.078700X0.059100*%
%ADD60C,0.120000*%
%ADD61C,0.063000*%
%ADD62C,0.160000*%
%ADD63C,0.180000*%
%ADD64C,0.039400*%
%ADD65C,0.023600*%
%LNpcb1-1*%
%LPD*%
G36*
X166955Y083768D02*
Y083137D01*
X167152*
Y083005*
X166955*
Y082169*
X1675*
X167583Y082085*
X167542Y081987*
X167373*
Y081587*
Y081187*
X167644*
Y079773*
X167553Y079735*
X167395Y079893*
Y08002*
X167382Y080085*
X167345Y08014*
X166863Y080622*
Y081077*
X166666*
Y081685*
X166649Y08177*
X166643Y081779*
Y081956*
X166625*
Y082037*
X166125*
Y082137*
X166625*
Y082218*
X166643*
Y082704*
X16637*
Y083096*
X166568*
Y083833*
X166665Y083834*
X166831*
X166856Y083839*
X166955Y083768*
G37*
G36*
X171496Y081831D02*
Y080965D01*
X17063Y080098*
X170315*
Y080374*
X170512Y080571*
Y081831*
X171496*
G37*
G36*
X132874Y081693D02*
X13248Y081299D01*
X131299*
X131102Y081496*
Y083071*
X131496Y083465*
Y085433*
X132874*
Y081693*
G37*
G36*
X182012Y079631D02*
X182Y079543D01*
X182008Y079482*
X181389Y078863*
X180741*
Y07901*
X179905*
Y078274*
X179941Y078175*
X179914Y078136*
X179902Y078077*
X179457Y077631*
X177703*
X177674Y07773*
X17768Y077734*
X178832Y078886*
X178923Y078848*
Y078692*
X179273*
Y078992*
X179066*
X179029Y079083*
X179106Y07916*
X18126*
X181325Y079173*
X18138Y07921*
X181384Y079213*
X181443Y079225*
X181514Y079273*
X181919Y079677*
X182012Y079631*
G37*
G36*
X162344Y080159D02*
X162416Y080111D01*
X1625Y080094*
X163493*
X163519Y080061*
X163554Y079996*
X163539Y079921*
Y079524*
X163344*
Y078578*
X16429*
Y078587*
X164389Y078617*
X164411Y078584*
X164805Y07819*
X164876Y078142*
X164961Y078126*
X165027*
Y078*
Y077978*
X165045Y077887*
Y077609*
X165445*
X165845*
Y077887*
X165863Y077978*
Y078*
Y078693*
Y078715*
X165845Y078805*
Y078813*
Y079084*
X165445*
X165045*
Y078805*
X165027Y078715*
X16494Y078679*
X164788Y078832*
Y08002*
X164771Y080104*
X164723Y080176*
X164428Y080471*
X164388Y080498*
X164369Y080597*
X164372Y080616*
X16439Y080638*
X164495Y080637*
X164573Y080585*
X164665Y080566*
X164758Y080585*
X164836Y080637*
X164888Y080715*
X164906Y080807*
X164888Y080899*
X164836Y080977*
X164758Y08103*
X164741Y081033*
X164727Y081058*
X164785Y081157*
X164861*
X165027Y080991*
Y080341*
Y080289*
Y079575*
Y079553*
X165045Y079462*
Y079455*
Y079184*
X165445*
X165845*
Y079462*
X165863Y079553*
Y079575*
Y080289*
Y080341*
Y081077*
X16562*
X165615Y081084*
X16532Y081379*
X165358Y081469*
X166224*
Y081077*
X166027*
Y080388*
Y080341*
Y080289*
Y0796*
Y079553*
Y079502*
Y078766*
Y078715*
Y077978*
Y077927*
Y07788*
Y077191*
X166447*
X16649Y077136*
X166447Y077041*
X16429*
Y077524*
X163344*
Y076578*
X16429*
Y076699*
X166686*
X166716Y076601*
X16671Y076597*
X166183Y07607*
X166155Y076073*
X166082Y076108*
X166069Y076175*
X166017Y076253*
X165939Y076305*
X165846Y076324*
X165754Y076305*
X165677Y076253*
X161586*
X160899Y076941*
Y080807*
X160886Y080872*
X160849Y080928*
X159805Y081972*
X159843Y082063*
X16044*
X162344Y080159*
G37*
G36*
X179548Y083995D02*
X179598Y083929D01*
X179664Y083878*
X179741Y083847*
X179823Y083836*
X179905Y083847*
X179975Y083876*
X184033*
Y077628*
X183934Y077622*
X183929Y077666*
X183881Y077779*
X183806Y077877*
X183709Y077952*
X183595Y077999*
X183569Y078003*
Y078102*
X18359Y078105*
X183699Y07815*
X183793Y078222*
X183866Y078316*
X183911Y078426*
X18392Y078493*
X183472*
Y078593*
X18392*
X183911Y078661*
X183866Y07877*
X183793Y078864*
X183699Y078936*
X18359Y078982*
X183499Y078994*
Y079093*
X18359Y079105*
X183699Y07915*
X183793Y079222*
X183866Y079316*
X183911Y079426*
X18392Y079493*
X183472*
Y079593*
X18392*
X183911Y079661*
X183866Y07977*
X183793Y079864*
X183699Y079936*
X18359Y079982*
X183499Y079994*
Y080093*
X18359Y080105*
X183699Y08015*
X183793Y080222*
X183866Y080316*
X183911Y080426*
X18392Y080493*
X183472*
Y080593*
X18392*
X183911Y080661*
X183866Y08077*
X183793Y080864*
X183699Y080936*
X18359Y080982*
X183499Y080994*
Y081093*
X18359Y081105*
X183699Y08115*
X183793Y081222*
X183866Y081316*
X183911Y081426*
X18392Y081493*
X183472*
Y081543*
X183422*
Y081991*
X183355Y081982*
X183246Y081936*
X183151Y081864*
X183079Y08177*
X183034Y081661*
X183031Y081639*
X182932*
X182929Y081666*
X182881Y081779*
X182806Y081877*
X182709Y081952*
X182595Y081999*
X182472Y082015*
X18235Y081999*
X182236Y081952*
X182139Y081877*
X182064Y081779*
X182016Y081666*
X182Y081543*
X182016Y081421*
X182023Y081406*
X181143Y080526*
X181095Y080455*
X181084Y080396*
X180944Y080256*
X180837Y080288*
X180833Y080309*
X180781Y080387*
X180702Y080439*
X18061Y080457*
X180518Y080439*
X18044Y080387*
X178642*
X178576Y080374*
X178521Y080337*
X177784Y0796*
X175623*
Y079776*
Y079797*
X175605Y079888*
Y080167*
X175205*
X174805*
Y079888*
X174787Y079797*
Y079776*
Y079061*
Y07901*
Y078321*
Y078222*
Y078175*
Y077671*
X174712Y077633*
X174623Y077683*
Y078222*
Y078274*
Y078321*
Y07901*
Y079061*
Y079108*
Y079797*
Y079848*
Y080585*
Y080683*
Y081372*
X174163*
X174125Y081463*
X174477Y081814*
X174556Y081802*
X174588Y081786*
X174633Y081719*
X174711Y081667*
X174803Y081649*
X174895Y081667*
X174958Y081709*
X17815*
X178219Y081723*
X178277Y081762*
X179368Y082853*
X179407Y082911*
X179421Y08298*
Y084054*
X179516Y084071*
X179548Y083995*
G37*
G36*
X131102Y083661D02*
X130413Y082972D01*
Y081594*
X131693Y080315*
Y07874*
X128839*
Y086614*
X131102*
Y083661*
G37*
G36*
X136811Y087205D02*
X134055D01*
Y091339*
X136811*
Y087205*
G37*
G36*
X132874Y087598D02*
X132087D01*
Y088386*
X131102*
Y087992*
Y087402*
X128937*
Y089567*
X132874*
Y087598*
G37*
G36*
X164495Y092173D02*
X164457Y092082D01*
X164314*
Y091782*
X164664*
Y091876*
X164755Y091913*
X164846Y091822*
Y091364*
X165682*
Y091491*
X166273*
X166339Y091406*
X166425Y09134*
X166526Y091298*
X166634Y091284*
X166831*
X166939Y091298*
X167039Y09134*
X167126Y091406*
X167192Y091492*
X167233Y091593*
X167241Y091647*
X167339Y091641*
Y090429*
X167051Y090141*
X163976*
X163907Y090128*
X163849Y090088*
X16316Y089399*
X163121Y089341*
X163107Y089272*
Y0889*
X163098Y088887*
X163061Y088857*
X163015Y088836*
X162983Y088849*
X162922Y088857*
Y089339*
X16371Y090128*
X16375Y090187*
X163763Y090256*
Y09231*
X163846Y092348*
X16432*
X164495Y092173*
G37*
G36*
X170759Y086788D02*
X170866D01*
X170933Y086796*
X170996Y086822*
X171089Y08677*
Y085662*
X171042Y085629*
X170991Y085609*
X170938Y085631*
X170866Y08564*
X170551*
X170479Y085631*
X170446Y085617*
X170364Y085659*
X170348Y085678*
Y086755*
X170375Y08678*
X170446Y086812*
X170484Y086796*
X170551Y086788*
X170659*
Y087205*
X170759*
Y086788*
G37*
G36*
X163411Y083235D02*
X164148D01*
Y083466*
X164246Y083471*
X164273Y083435*
X164289Y083389*
X164265Y083352*
X164248Y083268*
Y081933*
X164148*
Y082103*
X163411*
Y081359*
X163313Y081318*
X161636Y082995*
X16163Y082999*
X16166Y083097*
X161713*
X161778Y08311*
X161833Y083147*
X162169Y083483*
X163411*
Y083235*
G37*
G36*
X169022Y08381D02*
Y082987D01*
X168849*
Y082587*
X168749*
Y082987*
X168576*
Y083492*
X168931Y083848*
X169022Y08381*
G37*
G36*
X182294Y085673D02*
Y085318D01*
X182256Y085302*
X18217Y085236*
X182103Y085149*
X182062Y085049*
X182048Y084941*
X182062Y084833*
X182103Y084732*
X18217Y084646*
X182256Y08458*
X182357Y084538*
X182419Y08453*
X182413Y084432*
X179975*
X179905Y08446*
X179823Y084471*
X179741Y08446*
X179664Y084429*
X179598Y084378*
X179548Y084312*
X179516Y084236*
X179421Y084253*
Y085106*
X179699*
Y085804*
X179786Y085846*
X179867Y085793*
Y085574*
X180217*
X180567*
Y085861*
X18061Y085938*
X180653Y085951*
X182016*
X182294Y085673*
G37*
G36*
X181313Y077339D02*
X181398Y077323D01*
X182057*
X182064Y077307*
X182139Y077209*
X182236Y077134*
X18235Y077087*
X182376Y077084*
Y076985*
X182355Y076982*
X182246Y076936*
X182152Y076864*
X182079Y07677*
X182034Y076661*
X182025Y076593*
X182472*
Y076493*
X182025*
X182034Y076426*
X182079Y076316*
X182152Y076222*
X182246Y07615*
X182355Y076105*
X182376Y076102*
Y076003*
X18235Y075999*
X182236Y075952*
X182139Y075877*
X182064Y075779*
X182016Y075666*
Y075663*
X175623*
Y075886*
Y075959*
Y0766*
Y076648*
Y076699*
Y076896*
X180626*
X180691Y076909*
X180747Y076946*
X181173Y077373*
X181263*
X181313Y077339*
G37*
G36*
X15866Y080538D02*
X158656Y08053D01*
X15859Y080485*
X158537Y080407*
X158519Y080315*
X158537Y080223*
X158579Y08016*
Y071513*
X158537Y07145*
X158519Y071358*
X158537Y071266*
X15859Y071188*
X158596Y071184*
X158566Y071085*
X15825*
Y079724*
Y080065*
X158279Y080134*
X15829Y080217*
X158279Y080299*
X158248Y080375*
X158197Y080441*
X158131Y080492*
X158055Y080523*
X157972Y080534*
X15789Y080523*
X157814Y080492*
X157748Y080441*
X157697Y080375*
X157666Y080299*
X157655Y080217*
X157666Y080134*
X157679Y080101*
X157628Y080002*
X153658*
X153445Y080216*
X153387Y08026*
X153378Y080264*
X15337Y080275*
X153345Y080379*
X153372Y08042*
X15339Y080512*
X153385Y080538*
X15346Y080636*
X158622*
X15866Y080538*
G37*
G36*
X160706Y074781D02*
X160761Y074744D01*
X160827Y074731*
X165054*
Y07425*
X165354*
X165654*
Y074332*
X165753Y074385*
X165754Y074384*
X165846Y074365*
X165939Y074384*
X166016Y074436*
X166476*
X166516Y074337*
X166267Y074088*
X166214Y074009*
X166196Y073917*
Y073349*
X165354*
X165272Y073338*
X165195Y073307*
X165146Y073268*
X165036*
Y072032*
X165037*
Y071293*
X164829Y071085*
X158954*
X158924Y071184*
X15893Y071188*
X158982Y071266*
X159001Y071358*
X158982Y07145*
X15894Y071513*
Y076415*
X159013Y076446*
X159039Y076448*
X160706Y074781*
G37*
G36*
X132087Y073228D02*
X133268D01*
Y07185*
X131102*
Y074705*
X132087*
Y073228*
G37*
G36*
X153347Y079528D02*
X153404Y079484D01*
X153471Y079456*
X153543Y079446*
X157694*
Y071085*
X156616*
Y076772*
X156607Y076818*
X156581Y076857*
X156542Y076883*
X156496Y076892*
X152609*
X150677Y078824*
Y078851*
X150707Y078923*
X150836*
Y079323*
X150886*
Y079373*
X151236*
Y07966*
Y079723*
X151326Y079742*
X153133*
X153347Y079528*
G37*
G36*
X148525Y070355D02*
X148389Y070314D01*
X148264Y070247*
X148155Y070157*
X148065Y070048*
X147999Y069923*
X147958Y069788*
X147944Y069647*
X147958Y069506*
X147969Y069469*
X14791Y06939*
X147346*
X147288Y069469*
X1473Y06951*
X147309Y069597*
X14661*
X145912*
X14592Y06951*
X145933Y069469*
X145874Y06939*
X140365*
X140307Y069469*
X140318Y069506*
X140332Y069647*
X140318Y069788*
X140277Y069923*
X14021Y070048*
X14012Y070157*
X140011Y070247*
X139886Y070314*
X139751Y070355*
X139766Y07045*
X14851*
X148525Y070355*
G37*
G36*
X156496Y06939D02*
X156401D01*
X156343Y069469*
X156355Y06951*
X156364Y069597*
X155665*
X154967*
X154975Y06951*
X154988Y069469*
X154929Y06939*
X14942*
X149362Y069469*
X149373Y069506*
X149387Y069647*
X149373Y069788*
X149332Y069923*
X149265Y070048*
X149176Y070157*
X149066Y070247*
X148941Y070314*
X148806Y070355*
X148821Y07045*
X156496*
Y06939*
G37*
G36*
X137795Y07185D02*
Y071063D01*
X13189*
X131102Y07185*
X137795*
G37*
G36*
X169291Y074016D02*
X167815D01*
Y074705*
X16811Y075*
X169291*
Y074016*
G37*
G36*
X172047Y07535D02*
X1721Y07536D01*
X172198Y075298*
Y074915*
X172024*
X171929Y074896*
X171849Y074843*
X171795Y074762*
X171776Y074667*
X171795Y074572*
X171849Y074492*
X171865Y074481*
X171845Y074376*
X171819Y074371*
X171747Y074323*
X171701Y074277*
X17161Y074314*
Y074367*
X17126*
Y074467*
X17161*
Y074817*
X171624Y07491*
X171672Y074942*
X17181Y07508*
X171858Y075152*
X171874Y075236*
Y075304*
X171908Y07533*
X171973Y075365*
X172047Y07535*
G37*
G36*
X133071Y075394D02*
X131102D01*
Y076181*
X13189*
Y077165*
X129724*
Y07815*
X133071*
Y075394*
G37*
G36*
X166955Y073999D02*
D01*
X167603*
X167691*
X167704Y07397*
X16773Y073931*
X167702Y073831*
X1677Y073829*
X167662Y073817*
X167373*
Y073417*
Y073017*
X167662*
X167673*
X16776*
X167771*
X16806*
Y073417*
X16816*
Y073017*
X168449*
X16846*
X168548*
X168559*
X168848*
Y073417*
X168948*
Y073017*
X169237*
X169248*
X169335*
X169346*
X169503*
X169533Y072919*
X169515Y072907*
X169463Y072828*
X169449Y072759*
X167166*
X167152Y072828*
X167099Y072907*
X167081Y072919*
X167111Y073017*
X167273*
Y073367*
X166973*
Y073069*
X16694Y073*
X166846Y072966*
X166795Y072991*
X166755Y073022*
Y073032*
X166744Y073114*
X166712Y07319*
X166678Y073235*
Y073818*
X166887Y074027*
X166955Y073999*
G37*
G36*
X184646Y073429D02*
Y069423D01*
X184547Y069411*
X184525Y069503*
X184446Y069695*
X184337Y069872*
X184203Y070029*
X184045Y070164*
X183868Y070273*
X183676Y070352*
X183475Y0704*
X183268Y070417*
X183061Y0704*
X182859Y070352*
X182667Y070273*
X182491Y070164*
X182333Y070029*
X182198Y069872*
X18209Y069695*
X18201Y069503*
X181962Y069301*
X181946Y069094*
X181962Y068888*
X18201Y068686*
X18209Y068494*
X182198Y068317*
X182333Y06816*
X182491Y068025*
X182667Y067916*
X182859Y067837*
X182951Y067815*
X182939Y067717*
X172204*
X172181Y067808*
X172305Y06786*
X172412Y067942*
X172649Y068179*
X172731Y068286*
X172783Y06841*
X1728Y068544*
Y069486*
X172783Y06962*
X172731Y069744*
X17273Y069746*
Y069748*
X172701Y069817*
X172655Y069877*
X172596Y069923*
X172526Y069951*
X172486Y069957*
X172418Y069985*
X172284Y070002*
X172151Y069985*
X172082Y069957*
X172042Y069951*
X171973Y069923*
X171913Y069877*
X171868Y069817*
X171839Y069748*
Y069746*
X171837Y069744*
X171817Y069697*
X171716Y06971*
X171712Y069743*
X171685Y069808*
X171642Y069864*
X171586Y069907*
X171521Y069934*
X171452Y069943*
X171334*
Y069486*
Y06903*
X171452*
X171521Y069039*
X171586Y069066*
X171642Y069109*
X17167Y069144*
X171756Y069125*
X171768Y069119*
Y068823*
X133974*
X131953Y070844*
X131994Y070943*
X137557*
X137956Y070543*
X138022Y070493*
X138099Y070461*
X138181Y07045*
X139454*
X139469Y070355*
X139334Y070314*
X139209Y070247*
X1391Y070157*
X13901Y070048*
X138944Y069923*
X138903Y069788*
X138889Y069647*
X138903Y069506*
X138944Y069371*
X13901Y069246*
X1391Y069137*
X139209Y069047*
X139334Y068981*
X139469Y06894*
X13961Y068926*
X139751Y06894*
X139886Y068981*
X140011Y069047*
X14012Y069137*
X140206Y069242*
X14021Y069245*
X140214Y069249*
X140229Y069258*
X140252Y069266*
X140319Y069279*
X140334Y069276*
X140347Y069271*
X140356*
X140365Y069269*
X145874*
X145883Y069271*
X145892*
X145906Y069276*
X14592Y069279*
X14599Y069254*
X146019Y069236*
Y069235*
X1461Y069137*
X146209Y069047*
X146334Y068981*
X146469Y06894*
X14661Y068926*
X146751Y06894*
X146886Y068981*
X147011Y069047*
X14712Y069137*
X147201Y069235*
X147202Y069236*
X147231Y069254*
X1473Y069279*
X147315Y069276*
X147329Y069271*
X147337*
X147346Y069269*
X14791*
X147919Y069271*
X147928*
X147942Y069276*
X147956Y069279*
X148024Y069266*
X148047Y069258*
X148062Y069249*
X148066Y069245*
X148069Y069242*
X148155Y069137*
X148264Y069047*
X148389Y068981*
X148525Y06894*
X148665Y068926*
X148806Y06894*
X148941Y068981*
X149066Y069047*
X149176Y069137*
X149261Y069242*
X149265Y069245*
X149269Y069249*
X149284Y069258*
X149307Y069266*
X149374Y069279*
X149389Y069276*
X149403Y069271*
X149412*
X14942Y069269*
X154929*
X154938Y069271*
X154947*
X154961Y069276*
X154975Y069279*
X155045Y069254*
X155074Y069236*
Y069235*
X155155Y069137*
X155264Y069047*
X155389Y068981*
X155525Y06894*
X155665Y068926*
X155806Y06894*
X155941Y068981*
X156066Y069047*
X156176Y069137*
X156256Y069235*
X156257Y069236*
X156286Y069254*
X156355Y069279*
X15637Y069276*
X156384Y069271*
X156393*
X156401Y069269*
X156496*
X156542Y069279*
X156581Y069305*
X156607Y069344*
X156616Y06939*
Y07045*
X158566*
X158596Y070352*
X15859Y070347*
X158537Y070269*
X158519Y070177*
X158537Y070085*
X15859Y070007*
X158668Y069955*
X15876Y069936*
X158852Y069955*
X158915Y069997*
X164908*
X164941Y069898*
X164913Y069877*
X164868Y069817*
X164839Y069748*
X164829Y069673*
Y069299*
X164839Y069225*
X164868Y069155*
X164913Y069096*
X164973Y06905*
X165042Y069021*
X165117Y069011*
X165452*
X165526Y069021*
X165596Y06905*
X165655Y069096*
X165701Y069155*
X16573Y069225*
X165735Y069262*
X165834*
X165839Y069225*
X165868Y069155*
X165913Y069096*
X165973Y06905*
X166042Y069021*
X166117Y069011*
X166452*
X166526Y069021*
X166596Y06905*
X166655Y069096*
X166701Y069155*
X16673Y069225*
X166735Y069262*
X166834*
X166839Y069225*
X166868Y069155*
X166913Y069096*
X166973Y06905*
X167042Y069021*
X167117Y069011*
X167452*
X167526Y069021*
X167596Y06905*
X167655Y069096*
X167701Y069155*
X16773Y069225*
X167735Y069262*
X167834*
X167839Y069225*
X167868Y069155*
X167913Y069096*
X167973Y06905*
X168042Y069021*
X168117Y069011*
X168452*
X168526Y069021*
X168596Y06905*
X168655Y069096*
X168701Y069155*
X16873Y069225*
X168735Y069262*
X168834*
X168839Y069225*
X168868Y069155*
X168913Y069096*
X168973Y06905*
X169042Y069021*
X169117Y069011*
X169452*
X169526Y069021*
X169596Y06905*
X169655Y069096*
X169701Y069155*
X16973Y069225*
X169739Y069299*
Y069673*
X16973Y069748*
X169701Y069817*
X169655Y069877*
X169596Y069923*
X169526Y069951*
X169452Y069961*
X169117*
X169042Y069951*
X168973Y069923*
X168913Y069877*
X168868Y069817*
X168839Y069748*
X168834Y06971*
X168735*
X16873Y069748*
X168701Y069817*
X168655Y069877*
X168596Y069923*
X168526Y069951*
X168452Y069961*
X168117*
X168042Y069951*
X167973Y069923*
X167913Y069877*
X167868Y069817*
X167839Y069748*
X167834Y06971*
X167735*
X16773Y069748*
X167701Y069817*
X167655Y069877*
X167596Y069923*
X167526Y069951*
X167452Y069961*
X167204*
X16686Y070305*
X166801Y070344*
X166732Y070358*
X165014*
X165008Y070456*
X165043Y070461*
X165119Y070493*
X165185Y070543*
X165579Y070937*
X165629Y071003*
X165661Y071079*
X165672Y071161*
Y072032*
Y072714*
X166119*
Y072638*
X16613Y072556*
X166162Y072479*
X166212Y072413*
X166409Y072216*
X166475Y072166*
X166552Y072134*
X166634Y072123*
X183071*
X183153Y072134*
X18323Y072166*
X183295Y072216*
X184547Y073468*
X184646Y073429*
G37*
G36*
X174787Y076456D02*
Y075959D01*
Y075886*
Y075813*
Y075124*
X175623*
Y075322*
X182058*
X182064Y075307*
X182139Y075209*
X182236Y075134*
X18235Y075087*
X182472Y075071*
X182595Y075087*
X182709Y075134*
X182806Y075209*
X182881Y075307*
X182929Y075421*
X183022Y075402*
Y075093*
X183422*
Y075543*
X183472*
Y075593*
X183922*
Y075993*
X183614*
X183595Y076087*
X183709Y076134*
X183806Y076209*
X183881Y076307*
X183929Y076421*
X183934Y076465*
X184033Y076459*
Y073852*
X182939Y072759*
X179648*
Y072922*
X179699Y072999*
X17975*
X180486*
Y073835*
X17975*
X179699*
X178963*
Y072999*
X179013*
Y072759*
X178095*
Y074114*
X178077Y074206*
X178025Y074284*
X177721Y074588*
X177643Y07464*
X177551Y074658*
X177435*
Y074835*
X176699*
X176648*
X175911*
Y074791*
X175813Y074774*
X175776Y07483*
X175702Y074879*
X175614Y074897*
X175319*
Y074667*
X175269*
Y074617*
X174704*
X174712Y07458*
X174762Y074505*
X174795Y074483*
X174796Y074481*
X174792Y074371*
X174749Y074343*
X174695Y074262*
X174676Y074167*
X174695Y074072*
X174749Y073992*
X174722Y073894*
X174675Y073855*
X174657Y073858*
X173793Y074722*
Y075124*
X174623*
Y075813*
Y07586*
Y075911*
Y076492*
X174714Y076529*
X174787Y076456*
G37*
G36*
X170522Y073017D02*
X170822D01*
X170892Y072999*
X170913*
X171019*
Y072759*
X169921*
X169908Y072828*
X169855Y072907*
X169837Y072919*
X169867Y073017*
X170027*
X170035*
X170122*
X170131*
X170422*
Y073417*
X170522*
Y073017*
G37*
G36*
X159624Y092976D02*
X159751D01*
Y092862*
X15977Y09277*
X159822Y092692*
X160263Y092251*
X160341Y092199*
X160433Y09218*
X160525Y092199*
X160603Y092251*
X160608Y092257*
X160706Y092227*
Y090781*
X15824Y088315*
X158189Y088249*
X158158Y088173*
X158147Y088091*
Y085762*
X157458Y085073*
X15707*
Y085098*
X155134*
Y085073*
X152067*
X151985Y085062*
X151908Y08503*
X151842Y08498*
X151792Y084914*
X15176Y084837*
X151749Y084755*
X15176Y084673*
X151792Y084596*
X151829Y084547*
X151812Y084486*
X151787Y084449*
X151772*
X151766Y084443*
X151717Y084433*
X151619Y084495*
Y088287*
X1516Y08838*
X151548Y088458*
X149375Y090631*
X149387Y090748*
X149373Y090889*
X149332Y091024*
X149265Y091149*
X149176Y091258*
X149066Y091348*
X148941Y091415*
X148806Y091456*
X148665Y09147*
X148525Y091456*
X148389Y091415*
X148264Y091348*
X148155Y091258*
X148065Y091149*
X147999Y091024*
X147977Y090953*
X147879Y090967*
Y092021*
X148357Y092499*
X148389Y092481*
X148525Y09244*
X148665Y092426*
X148806Y09244*
X148941Y092481*
X149066Y092548*
X149176Y092638*
X149265Y092747*
X149332Y092872*
X149373Y093007*
X149387Y093148*
X149373Y093289*
X149332Y093424*
X149265Y093549*
X149176Y093658*
X149066Y093748*
X148941Y093815*
X148806Y093856*
X148665Y09387*
X148525Y093856*
X148389Y093815*
X148264Y093748*
X148155Y093658*
X148065Y093549*
X147999Y093424*
X147958Y093289*
X147944Y093148*
X147958Y093007*
X147999Y092872*
X148016Y092839*
X147467Y092291*
X147415Y092213*
X147397Y09212*
Y090157*
X147415Y090065*
X147467Y089987*
X148058Y089397*
X148136Y089344*
X148228Y089326*
X14931*
X150743Y087892*
Y085039*
Y084734*
X150689Y08469*
X150635Y084679*
X15055Y084732*
X150536Y084749*
Y087598*
X150518Y087691*
X150466Y087769*
X149716Y088518*
X149638Y088571*
X149546Y088589*
X149343*
X149332Y088624*
X149265Y088749*
X149176Y088858*
X149066Y088948*
X148941Y089015*
X148806Y089056*
X148665Y08907*
X148525Y089056*
X148389Y089015*
X148264Y088948*
X148155Y088858*
X148065Y088749*
X147999Y088624*
X147958Y088489*
X147944Y088348*
X147958Y088207*
X147999Y088072*
X148065Y087947*
X148155Y087838*
X148264Y087748*
X148389Y087681*
X148525Y08764*
X148665Y087626*
X148806Y08764*
X148941Y087681*
X149066Y087748*
X149176Y087838*
X149265Y087947*
X149332Y088072*
X149343Y088107*
X149446*
X150054Y087499*
Y084646*
X150073Y084553*
X150125Y084476*
Y084449*
X150138Y084384*
X150175Y084328*
X150396Y084107*
X150397Y084101*
X150348Y084016*
X15002*
Y08374*
X149744*
X149724Y083732*
X149639Y083797*
Y084214*
X149698Y084226*
X149777Y084279*
X149829Y084357*
X149847Y084449*
Y085433*
X149829Y085525*
X149777Y085603*
X149088Y086292*
X149009Y086345*
X148917Y086363*
X143899*
X143753Y086509*
Y086738*
X14393*
Y087474*
X143897Y087553*
X144068Y087723*
X144106Y08778*
X144216*
Y089016*
X14358*
Y088091*
X142494*
Y088894*
X141758*
Y088058*
X141885*
Y087894*
X141903Y087802*
X141956Y087723*
X142126Y087553*
X142094Y087474*
Y086738*
X142271*
Y086622*
X142289Y08653*
X142342Y086452*
X143334Y08546*
X143412Y085407*
X143504Y085389*
X148522*
X148972Y08494*
Y084449*
X14899Y084357*
X149011Y084325*
X148959Y084226*
X148802*
Y08349*
X14942*
X149467Y083432*
X149427Y08334*
X148756*
X148707Y083373*
X148622Y08339*
X146551*
X146549Y083392*
X146457Y08341*
X146365Y083392*
X146286Y08334*
X146234Y083261*
X146216Y083169*
X146205Y083156*
X146129Y083102*
X146063Y083115*
X145971Y083097*
X145893Y083044*
X14584Y082966*
X145822Y082874*
X145833Y08282*
X145772Y082721*
X145079*
X144987Y082703*
X144908Y082651*
X144318Y08206*
X144266Y081982*
X144252Y081912*
X144205Y081885*
X144196Y081882*
X144149Y081875*
X144088Y081915*
X143996Y081934*
X142421*
X142329Y081915*
X142251Y081863*
X141956Y081568*
X141903Y08149*
X141885Y081398*
Y081019*
X141808*
Y079783*
X142444*
Y081019*
X142367*
Y081298*
X142521Y081452*
X143996*
X144088Y08147*
X144149Y081511*
X144213Y081491*
X144247Y081467*
Y081019*
X14417*
Y079783*
X144806*
Y081019*
X144729*
Y081467*
X144764Y081491*
X144827Y081511*
X144888Y08147*
X14498Y081452*
X145072Y08147*
X145151Y081523*
X145474Y081846*
X14872*
X148813Y081864*
X148891Y081916*
X148911Y081936*
X149037Y081924*
X149042Y081916*
X14912Y081864*
X149213Y081846*
X149305Y081864*
X149383Y081916*
X149431*
X149509Y081864*
X149601Y081846*
X149694Y081864*
X149772Y081916*
X149824Y081994*
X149827Y082008*
X15002*
Y081752*
X150217*
Y081732*
X150394*
Y078937*
X150591Y07874*
X152559Y076772*
X156496*
Y071085*
X13878*
Y078346*
Y07874*
X140256Y080217*
Y082579*
Y084611*
Y091081*
X140276Y091171*
X140354*
X141457*
X141529Y091201*
X141885Y090845*
Y089894*
X141758*
Y089058*
X142494*
Y089894*
X142367*
Y090945*
X142348Y091037*
X142296Y091115*
X141509Y091903*
X141457Y091937*
Y092293*
X140354*
X140276*
X140256Y092384*
Y092459*
X140276Y092549*
X140354*
X141457*
Y093671*
X140354*
X140276*
X140256Y093762*
Y094171*
X144702*
X144782Y094126*
Y094072*
Y093633*
X145927*
Y094072*
Y094126*
X146007Y094171*
X150557*
X152241Y092487*
Y086713*
X152252Y08663*
X152284Y086554*
X152334Y086488*
X152925Y085897*
X152991Y085847*
X153067Y085815*
X15315Y085804*
X15748*
X157563Y085815*
X157639Y085847*
X157705Y085897*
X157755Y085963*
X157787Y08604*
X157798Y086122*
X157787Y086204*
X157755Y086281*
X157705Y086347*
X157639Y086397*
X157563Y086429*
X15748Y08644*
X153281*
X152877Y086844*
Y092618*
X152866Y0927*
X152834Y092777*
X152784Y092843*
X150914Y094713*
X150848Y094763*
X150799Y094783*
X150819Y094882*
X156277*
Y094688*
Y094685*
Y094682*
Y094098*
Y094094*
Y094091*
Y09369*
X156179Y093654*
X156176Y093658*
X156066Y093748*
X155941Y093815*
X155806Y093856*
X155665Y09387*
X155525Y093856*
X155389Y093815*
X155264Y093748*
X155155Y093658*
X155065Y093549*
X154999Y093424*
X154958Y093289*
X154944Y093148*
X154958Y093007*
X154999Y092872*
X155065Y092747*
X155155Y092638*
X155264Y092548*
X155389Y092481*
X155525Y09244*
X155665Y092426*
X155806Y09244*
X155941Y092481*
X156066Y092548*
X156176Y092638*
X156265Y092747*
X156332Y092872*
X156373Y093007*
X15638Y093075*
X156398Y093088*
X156624*
Y092976*
X15736*
Y094882*
X157624*
Y092976*
X157754*
X15777Y0929*
X157822Y092822*
X158294Y092349*
X158372Y092297*
X158465Y092279*
X158557Y092297*
X158635Y092349*
X158687Y092428*
X158705Y09252*
X158687Y092612*
X158635Y09269*
X158419Y092906*
X15836Y092976*
Y094882*
X158642*
Y094144*
X158992*
X159342*
Y094882*
X159624*
Y092976*
G37*
G36*
X15689Y093209D02*
X156398D01*
Y09498*
X15689*
Y093209*
G37*
G36*
X182951Y094783D02*
X182859Y094761D01*
X182667Y094682*
X182491Y094574*
X182333Y094439*
X182198Y094281*
X18209Y094104*
X18201Y093913*
X181962Y093711*
X181946Y093504*
X181962Y093297*
X18201Y093095*
X18209Y092904*
X182198Y092727*
X182333Y092569*
X182491Y092434*
X182667Y092326*
X182859Y092246*
X183061Y092198*
X183268Y092182*
X183475Y092198*
X183676Y092246*
X183868Y092326*
X184045Y092434*
X184203Y092569*
X184337Y092727*
X184446Y092904*
X184525Y093095*
X184547Y093187*
X184646Y093176*
Y090744*
X184547Y090705*
X183295Y091957*
X18323Y092007*
X183153Y092039*
X183071Y09205*
X169291*
X169209Y092039*
X169132Y092007*
X169067Y091957*
X169016Y091891*
X168984Y091814*
X168974Y091732*
X168984Y09165*
X169016Y091573*
X169067Y091508*
X169132Y091457*
X169209Y091425*
X169291Y091415*
X182939*
X184033Y090321*
Y085259*
X183878*
Y085354*
X183685*
Y086909*
X183669Y086994*
X183621Y087066*
X183227Y087459*
X183155Y087507*
X183071Y087524*
X180213*
X18021Y087526*
X180118Y087544*
X180026Y087526*
X179948Y087473*
X179896Y087395*
X179877Y087303*
X179896Y087211*
X179948Y087133*
X180026Y087081*
X180118Y087062*
X18021Y087081*
X180213Y087082*
X182979*
X183244Y086818*
Y085354*
X183051*
Y084528*
X183045Y084432*
X182516*
X18251Y08453*
X182572Y084538*
X182673Y08458*
X182759Y084646*
X182826Y084732*
X182867Y084833*
X182882Y084941*
X182867Y085049*
X182826Y085149*
X182759Y085236*
X182673Y085302*
X182635Y085318*
Y085744*
X182622Y085809*
X182585Y085865*
X182207Y086243*
X182152Y08628*
X182087Y086293*
X180689*
X180585Y086397*
Y086942*
X179848*
Y086408*
X179792Y086362*
X179699Y086403*
Y086942*
X179511*
Y087913*
X179558Y087919*
X179627Y087948*
X179687Y087993*
X179732Y088053*
X179761Y088122*
X179771Y088197*
Y088571*
X179761Y088645*
X179732Y088715*
X179687Y088774*
X179627Y08882*
X179558Y088849*
X179483Y088859*
X179148*
X179074Y088849*
X179004Y08882*
X178945Y088774*
X178899Y088715*
X17887Y088645*
X178865Y088608*
X178766*
X178761Y088645*
X178732Y088715*
X178687Y088774*
X178627Y08882*
X178558Y088849*
X178483Y088859*
X178148*
X178074Y088849*
X178004Y08882*
X177945Y088774*
X177899Y088715*
X17787Y088645*
X177865Y088608*
X177766*
X177761Y088645*
X177732Y088715*
X177687Y088774*
X177627Y08882*
X177558Y088849*
X177483Y088859*
X177148*
X177074Y088849*
X177004Y08882*
X176945Y088774*
X176899Y088715*
X17687Y088645*
X176865Y088608*
X176766*
X176761Y088645*
X176732Y088715*
X176687Y088774*
X176627Y08882*
X176558Y088849*
X176483Y088859*
X176148*
X176074Y088849*
X176004Y08882*
X175945Y088774*
X175899Y088715*
X17587Y088645*
X175865Y088608*
X175766*
X175761Y088645*
X175732Y088715*
X175687Y088774*
X175627Y08882*
X175558Y088849*
X175483Y088859*
X175148*
X175074Y088849*
X175004Y08882*
X174945Y088774*
X174899Y088715*
X17487Y088645*
X174865Y088608*
X174766*
X174761Y088645*
X174732Y088715*
X174687Y088774*
X174627Y08882*
X174558Y088849*
X174483Y088859*
X174148*
X174074Y088849*
X174004Y08882*
X173945Y088774*
X173899Y088715*
X17387Y088645*
X173865Y088608*
X173766*
X173761Y088645*
X173732Y088715*
X173687Y088774*
X173627Y08882*
X173558Y088849*
X173483Y088859*
X173148*
X173074Y088849*
X173004Y08882*
X172945Y088774*
X172899Y088715*
X17287Y088645*
X172861Y088571*
Y088197*
X17287Y088122*
X172899Y088053*
X172945Y087993*
X173004Y087948*
X173074Y087919*
X173148Y087909*
X173483*
X173558Y087919*
X173627Y087948*
X173687Y087993*
X173732Y088053*
X173761Y088122*
X173766Y08816*
X173865*
X17387Y088122*
X173899Y088053*
X173945Y087993*
X174004Y087948*
X174074Y087919*
X174148Y087909*
X174483*
X174558Y087919*
X174627Y087948*
X174687Y087993*
X174732Y088053*
X174761Y088122*
X174766Y08816*
X174865*
X17487Y088122*
X174899Y088053*
X174945Y087993*
X175004Y087948*
X175074Y087919*
X175148Y087909*
X175483*
X175558Y087919*
X175627Y087948*
X175687Y087993*
X175732Y088053*
X175761Y088122*
X175766Y08816*
X175865*
X17587Y088122*
X175899Y088053*
X175945Y087993*
X176004Y087948*
X176074Y087919*
X176148Y087909*
X176483*
X176558Y087919*
X176627Y087948*
X176687Y087993*
X176732Y088053*
X176761Y088122*
X176766Y08816*
X176865*
X17687Y088122*
X176899Y088053*
X176945Y087993*
X177004Y087948*
X177074Y087919*
X177148Y087909*
X177483*
X177558Y087919*
X177627Y087948*
X177687Y087993*
X177732Y088053*
X177761Y088122*
X177766Y08816*
X177865*
X17787Y088122*
X177899Y088053*
X177945Y087993*
X178004Y087948*
X178074Y087919*
X178148Y087909*
X178166*
Y086942*
X177978*
Y086176*
X177931Y086144*
X177734Y085947*
X17773Y085942*
X177632*
X177614*
X176896*
Y08532*
X176883Y085307*
X176624*
Y08557*
X175738*
Y084684*
X176624*
Y084946*
X176957*
X177027Y08496*
X177085Y084999*
X177192Y085106*
X177585*
X177632*
X177684Y085029*
Y083437*
X176996Y082749*
X175*
X174935Y082736*
X174879Y082699*
X173589Y081409*
X173498Y081447*
Y082005*
X172816*
Y082187*
X17308*
Y082587*
Y082987*
X172816*
Y083806*
X172915Y083861*
X172949Y083847*
X173032Y083836*
X173114Y083847*
X173183Y083876*
X177013*
X177083Y083847*
X177165Y083836*
X177248Y083847*
X177324Y083878*
X17739Y083929*
X17744Y083995*
X177472Y084071*
X177483Y084154*
X177472Y084236*
X17744Y084312*
X17739Y084378*
X177324Y084429*
X177248Y08446*
X177165Y084471*
X177083Y08446*
X177013Y084432*
X173183*
X173114Y08446*
X173032Y084471*
X172949Y08446*
X172915Y084446*
X172816Y084501*
Y084835*
X172803Y0849*
X172766Y084955*
X172612Y08511*
Y087795*
X172599Y087861*
X172612Y087946*
X17267Y08799*
X172714Y088048*
X172742Y088115*
X172751Y088187*
Y088581*
X172742Y088653*
X172714Y08872*
X17267Y088777*
X172612Y088821*
X172545Y088849*
X172473Y088859*
X172158*
X172119Y088854*
X172021Y088916*
Y089567*
X172008Y089632*
X171971Y089688*
X171184Y090475*
X171128Y090512*
X171063Y090525*
X168279*
X168084Y09072*
Y09311*
X168071Y093176*
X168034Y093231*
X167479Y093786*
X167451Y093829*
X167392Y093868*
X167323Y093881*
X167244*
Y094114*
X16622*
Y093922*
X165682*
Y094069*
X165151*
X164801Y094419*
X164742Y094458*
X164673Y094472*
X163878*
X163809Y094458*
X16375Y094419*
X163455Y094124*
X163441Y094102*
X163342Y094132*
Y094882*
X182939*
X182951Y094783*
G37*
G36*
X13985D02*
X139802Y094763D01*
X139736Y094713*
X139047Y094024*
X138997Y093958*
X138965Y093881*
X138954Y093799*
Y088321*
X138459Y087826*
X136931*
Y091339*
X136922Y091385*
X136896Y091424*
X136857Y09145*
X136811Y091459*
X136644*
Y091758*
X136745*
Y092494*
X135909*
Y091758*
X136009*
Y091459*
X134055*
X134009Y09145*
X13397Y091424*
X133944Y091385*
X133935Y091339*
Y087205*
X133944Y087159*
X13397Y08712*
X134009Y087093*
X134055Y087084*
X134232*
Y087081*
X135453*
Y087084*
X136811*
X136857Y087093*
X136896Y08712*
X136922Y087159*
X136929Y08719*
X138591*
X138673Y087201*
X138749Y087233*
X138815Y087283*
X139496Y087964*
X139547Y08803*
X139579Y088107*
X139589Y088189*
Y093668*
X140037Y094115*
X140135Y094075*
Y093762*
X140138Y093749*
Y093736*
X140158Y093646*
X140162Y093636*
X140164Y093625*
X140172Y093614*
X140177Y093603*
X140184Y093595*
X14019Y093586*
X140201Y093579*
X140211Y09357*
X140221Y093566*
X14023Y09356*
X140242Y093557*
X140254Y093553*
X140276Y093458*
Y092762*
X140254Y092668*
X140242Y092663*
X14023Y09266*
X140221Y092654*
X140211Y092651*
X140201Y092642*
X14019Y092634*
X140184Y092625*
X140177Y092618*
X140172Y092606*
X140164Y092595*
X140162Y092585*
X140158Y092575*
X140138Y092485*
Y092472*
X140135Y092459*
Y092384*
X140138Y092371*
Y092358*
X140158Y092268*
X140162Y092258*
X140164Y092247*
X140172Y092236*
X140177Y092225*
X140184Y092217*
X14019Y092208*
X140201Y092201*
X140211Y092192*
X140221Y092188*
X14023Y092182*
X140242Y09218*
X140254Y092175*
X140276Y09208*
Y091384*
X140254Y09129*
X140242Y091285*
X14023Y091283*
X140221Y091277*
X140211Y091273*
X140201Y091264*
X14019Y091256*
X140184Y091247*
X140177Y09124*
X140172Y091228*
X140164Y091217*
X140162Y091207*
X140158Y091197*
X140138Y091107*
Y091094*
X140135Y091081*
Y084744*
Y084611*
Y082711*
Y082579*
Y080266*
X138694Y078825*
X138668Y078786*
X138659Y07874*
Y078346*
Y071085*
X138313*
X137916Y071482*
Y07185*
X137907Y071896*
X13788Y071936*
X137841Y071962*
X137795Y071971*
X134994*
X134937Y072046*
Y072588*
X133752*
Y072069*
X133696Y071971*
X133388*
Y073204*
X133752*
Y072688*
X134937*
Y073204*
X137181*
Y072965*
X137033*
Y072129*
X13777*
Y072965*
X137622*
Y073425*
X137688Y073491*
X13777*
Y074328*
X137033*
Y073646*
X133019*
X132991Y073683*
X133041Y073782*
X133167*
Y074282*
Y074818*
X133149*
Y075*
X132649*
X132149*
Y074913*
X132087Y074825*
X131102*
X131056Y074816*
X131017Y07479*
X130991Y074751*
X130982Y074705*
Y071954*
X130884Y071913*
X12965Y073147*
Y076964*
X129724Y077045*
X131769*
Y076302*
X131102*
X131056Y076292*
X131017Y076266*
X130991Y076227*
X130982Y076181*
Y075394*
X130991Y075348*
X131017Y075309*
X131056Y075282*
X131102Y075273*
X132149*
Y0751*
X132649*
X133149*
Y075282*
X133167*
Y075325*
X133182Y075348*
X133191Y075394*
Y07815*
X133182Y078196*
X133156Y078235*
X133117Y078261*
X133071Y07827*
X131813*
Y07874*
Y080315*
X131873Y080405*
X131886Y080413*
X131979*
X132002Y080382*
X132035Y080315*
X132025Y080207*
X132874*
Y081057*
X132748Y081044*
X132658Y081017*
X132579Y081076*
Y081227*
X132959Y081608*
X132985Y081647*
X132994Y081693*
Y085433*
X132985Y085479*
X132959Y085518*
X13292Y085544*
X132874Y085553*
X131496*
X13145Y085544*
X131431Y085532*
X131223*
Y086614*
X131214Y08666*
X131188Y086699*
X131148Y086725*
X131102Y086735*
X128839*
X128749Y086794*
X12874Y086808*
Y08732*
X128839Y087336*
X128852Y087316*
X128891Y08729*
X128937Y087281*
X131102*
X131148Y08729*
X131188Y087316*
X131214Y087355*
X131223Y087402*
Y087992*
Y088265*
X131966*
Y087598*
X131975Y087552*
X132001Y087513*
X132041Y087487*
X132087Y087478*
X132874*
X13292Y087487*
X132959Y087513*
X132985Y087552*
X132994Y087598*
Y089567*
X132985Y089613*
X132959Y089652*
X13292Y089678*
X132874Y089687*
X128937*
X128891Y089678*
X128852Y089652*
X128839Y089632*
X12874Y089649*
Y094882*
X130577*
X130589Y094783*
X130497Y094761*
X130305Y094682*
X130128Y094574*
X129971Y094439*
X129836Y094281*
X129727Y094104*
X129648Y093913*
X1296Y093711*
X129583Y093504*
X1296Y093297*
X129648Y093095*
X129727Y092904*
X129836Y092727*
X129971Y092569*
X130128Y092434*
X130305Y092326*
X130497Y092246*
X130699Y092198*
X130906Y092182*
X131112Y092198*
X131314Y092246*
X131506Y092326*
X131683Y092434*
X13184Y092569*
X131975Y092727*
X132084Y092904*
X132163Y093095*
X132211Y093297*
X132228Y093504*
X132211Y093711*
X132163Y093913*
X132084Y094104*
X131975Y094281*
X13184Y094439*
X131683Y094574*
X131506Y094682*
X131314Y094761*
X131222Y094783*
X131234Y094882*
X139831*
X13985Y094783*
G37*
G36*
X162642Y094144D02*
X162992D01*
Y094094*
X163042*
Y092994*
X163342*
X163402Y092921*
Y090331*
X162613Y089542*
X162574Y089483*
X16256Y089414*
Y088857*
X162499Y088849*
X16243Y08882*
X16237Y088774*
X162324Y088715*
X162296Y088645*
X162291Y088608*
X162191*
X162186Y088645*
X162158Y088715*
X162112Y088774*
X162052Y08882*
X161983Y088849*
X161908Y088859*
X161574*
X161499Y088849*
X16143Y08882*
X16137Y088774*
X161324Y088715*
X161296Y088645*
X161286Y088571*
Y088197*
X161296Y088122*
X161324Y088053*
X16137Y087993*
X16143Y087948*
X161499Y087919*
X161574Y087909*
X161581*
X161583Y087898*
X16162Y087843*
X161789Y087675*
X161844Y087638*
X161909Y087625*
X163091*
X163156Y087638*
X163211Y087675*
X163408Y087871*
X163458Y087926*
X163536Y087918*
X163603Y087909*
X163879*
X163946Y087918*
X164008Y087944*
X164061Y087985*
X164102Y088038*
X164128Y088101*
X164137Y088167*
Y0886*
X164128Y088667*
X164102Y088729*
X164061Y088783*
X164008Y088824*
X163946Y08885*
X163879Y088859*
X163603*
X163563Y088853*
X163549Y088857*
X163498Y088894*
X163468Y088928*
Y089197*
X164051Y08978*
X166671*
X166702Y089707*
X166704Y089682*
X165881Y088859*
X165574*
X165499Y088849*
X16543Y08882*
X16537Y088774*
X165324Y088715*
X165296Y088645*
X165291Y088608*
X165191*
X165186Y088645*
X165158Y088715*
X165112Y088774*
X165052Y08882*
X164983Y088849*
X164908Y088859*
X164574*
X164499Y088849*
X16443Y08882*
X16437Y088774*
X164324Y088715*
X164296Y088645*
X164286Y088571*
Y088197*
X164296Y088122*
X164324Y088053*
X16437Y087993*
X16443Y087948*
X164499Y087919*
X164574Y087909*
X164908*
X164967Y087917*
X165019Y08788*
X165054Y087842*
Y087341*
X165354*
X165654*
Y087811*
Y087891*
X165745Y087909*
X165908*
X165983Y087919*
X166052Y087948*
X166112Y087993*
X166158Y088053*
X166186Y088122*
X166191Y08816*
X166291*
X166296Y088122*
X166324Y088053*
X16637Y087993*
X16643Y087948*
X166499Y087919*
X166574Y087909*
X166908*
X166983Y087919*
X167052Y087948*
X167112Y087993*
X167158Y088053*
X167186Y088122*
X167191Y08816*
X167291*
X167296Y088122*
X167324Y088053*
X16737Y087993*
X16743Y087948*
X167499Y087919*
X167574Y087909*
X167908*
X167983Y087919*
X168052Y087948*
X168112Y087993*
X168158Y088053*
X168186Y088122*
X168191Y08816*
X168291*
X168296Y088122*
X168324Y088053*
X16837Y087993*
X16843Y087948*
X168499Y087919*
X168541Y087913*
X168585Y087842*
X168591Y087811*
X168577Y087789*
X168558Y087697*
X168566Y087657*
X168531Y087623*
X168478Y087594*
X168433Y087613*
X168366Y087622*
X168259*
Y087205*
X168209*
Y087155*
X167791*
Y087047*
X1678Y08698*
X16782Y086932*
X1678Y086881*
X167767Y086833*
X166929*
X166847Y086823*
X16677Y086791*
X166705Y08674*
X166409Y086445*
X166359Y086379*
X166327Y086303*
X166316Y08622*
Y085663*
X166207Y085554*
X165683*
X165672Y085564*
Y086359*
X165563*
X165513Y086397*
X165437Y086429*
X165354Y08644*
X159449*
X159367Y086429*
X15929Y086397*
X159224Y086347*
X159174Y086281*
X159142Y086204*
X159131Y086122*
X159142Y08604*
X159174Y085963*
X159224Y085897*
X15929Y085847*
X159367Y085815*
X159449Y085804*
X165036*
Y085123*
X165215*
X165324Y085014*
Y085005*
X16529Y084915*
X164732*
Y08437*
X164246Y083885*
X164148Y083926*
Y084072*
X163411*
Y083824*
X162098*
X162033Y083811*
X161978Y083774*
X161642Y083438*
X15893*
X158852Y08349*
X15876Y083509*
X158668Y08349*
X15859Y083438*
X158537Y08336*
X158519Y083268*
X158537Y083176*
X158559Y083143*
X158506Y083045*
X158232*
X158199Y083136*
X158198Y083143*
X158248Y083207*
X158279Y083284*
X15829Y083366*
X158279Y083448*
X158248Y083525*
X158197Y083591*
X158131Y083641*
X158055Y083673*
X157972Y083684*
X15789Y083673*
X15782Y083644*
X15707*
Y083698*
X155134*
Y083045*
X154246*
Y083316*
X153846*
X153446*
Y083045*
X153265*
Y083734*
X152878*
Y08396*
X15288Y083963*
X152898Y084055*
X15288Y084147*
X152828Y084225*
X15275Y084278*
X152657Y084296*
X152565Y084278*
X152487Y084225*
X152435Y084147*
X152417Y084055*
X152435Y083963*
X152437Y08396*
Y083832*
X152165*
X1521Y083819*
X152045Y083782*
X152003Y08374*
X151734*
Y083978*
X151555*
Y084016*
X151549*
Y084181*
X1516Y084258*
X151621Y084277*
X151684Y08431*
X151698Y084315*
X151719*
X151741*
X15179Y084325*
X1518Y08433*
X151805Y084331*
X15181*
X151821Y084335*
X151833Y084338*
X151843Y084344*
X151853Y084348*
X151862Y084357*
X151872Y084364*
X151879Y084373*
X151887Y084381*
X151912Y084419*
X15192Y084437*
X151928Y084454*
X151948Y084463*
X151985Y084448*
X152067Y084437*
X155134*
Y084412*
X15707*
Y084437*
X15759*
X157672Y084448*
X157749Y08448*
X157814Y08453*
X158689Y085405*
X15874Y085471*
X158771Y085548*
X158782Y08563*
Y087959*
X161248Y090425*
X161299Y090491*
X16133Y090567*
X161341Y09065*
Y092717*
Y092976*
X16136*
Y094882*
X161624*
Y092976*
X16236*
Y094882*
X162642*
Y094144*
G37*
%LNpcb1-2*%
%LPC*%
G36*
X167273Y081987D02*
X166973D01*
Y081637*
X167273*
Y081987*
G37*
G36*
Y081537D02*
X166973D01*
Y081187*
X167273*
Y081537*
G37*
G36*
X179723Y078592D02*
X179373D01*
Y078292*
X179723*
Y078592*
G37*
G36*
X179273D02*
X178923D01*
Y078292*
X179273*
Y078592*
G37*
G36*
X179723Y078992D02*
X179373D01*
Y078692*
X179723*
Y078992*
G37*
G36*
X165395Y077509D02*
X165045D01*
Y077209*
X165395*
Y077509*
G37*
G36*
X165845D02*
X165495D01*
Y077209*
X165845*
Y077509*
G37*
G36*
X16264Y079524D02*
X161694D01*
Y078578*
X16264*
Y079524*
G37*
G36*
X162622Y077506D02*
X162217D01*
Y077101*
X162622*
Y077506*
G37*
G36*
X162117Y077001D02*
X161712D01*
Y076596*
X162117*
Y077001*
G37*
G36*
X162622D02*
X162217D01*
Y076596*
X162622*
Y077001*
G37*
G36*
X162117Y077506D02*
X161712D01*
Y077101*
X162117*
Y077506*
G37*
G36*
X175155Y081354D02*
X174805D01*
Y081054*
X175155*
Y081354*
G37*
G36*
X175605D02*
X175255D01*
Y081054*
X175605*
Y081354*
G37*
G36*
X183522Y081991D02*
Y081593D01*
X18392*
X183911Y081661*
X183866Y08177*
X183793Y081864*
X183699Y081936*
X18359Y081982*
X183522Y081991*
G37*
G36*
X175605Y080954D02*
X175205D01*
X174805*
Y080665*
Y080654*
Y080567*
Y080556*
Y080267*
X175205*
X175605*
Y080556*
Y080567*
Y080654*
Y080665*
Y080954*
G37*
G36*
X166682Y091099D02*
X166634D01*
X166531Y091086*
X166435Y091046*
X166352Y090983*
X166289Y0909*
X166249Y090804*
X166242Y090751*
X166682*
Y091099*
G37*
G36*
Y090651D02*
X166242D01*
X166249Y090598*
X166289Y090501*
X166352Y090419*
X166435Y090356*
X166531Y090316*
X166634Y090302*
X166682*
Y090651*
G37*
G36*
X167223D02*
X166782D01*
Y090302*
X166831*
X166934Y090316*
X16703Y090356*
X167113Y090419*
X167176Y090501*
X167216Y090598*
X167223Y090651*
G37*
G36*
X164214Y091682D02*
X163864D01*
Y091382*
X164214*
Y091682*
G37*
G36*
X164664D02*
X164314D01*
Y091382*
X164664*
Y091682*
G37*
G36*
X164214Y092082D02*
X163864D01*
Y091782*
X164214*
Y092082*
G37*
G36*
X166831Y091099D02*
X166782D01*
Y090751*
X167223*
X167216Y090804*
X167176Y0909*
X167113Y090983*
X16703Y091046*
X166934Y091086*
X166831Y091099*
G37*
G36*
X16373Y083085D02*
X16343D01*
Y082735*
X16373*
Y083085*
G37*
G36*
X16413D02*
X16383D01*
Y082735*
X16413*
Y083085*
G37*
G36*
Y082635D02*
X16383D01*
Y082285*
X16413*
Y082635*
G37*
G36*
X16373D02*
X16343D01*
Y082285*
X16373*
Y082635*
G37*
G36*
X180167Y085474D02*
X179867D01*
Y085124*
X180167*
Y085474*
G37*
G36*
X180567D02*
X180267D01*
Y085124*
X180567*
Y085474*
G37*
G36*
X165304Y07415D02*
X165054D01*
Y0736*
X165304*
Y07415*
G37*
G36*
X165654D02*
X165404D01*
Y0736*
X165654*
Y07415*
G37*
G36*
X151236Y079273D02*
X150936D01*
Y078923*
X151236*
Y079273*
G37*
G36*
X14656Y070346D02*
X146473Y070337D01*
X146341Y070297*
X146219Y070232*
X146113Y070145*
X146025Y070038*
X14596Y069916*
X14592Y069784*
X145912Y069697*
X14656*
Y070346*
G37*
G36*
X14666D02*
Y069697D01*
X147309*
X1473Y069784*
X14726Y069916*
X147195Y070038*
X147108Y070145*
X147001Y070232*
X146879Y070297*
X146747Y070337*
X14666Y070346*
G37*
G36*
X155715D02*
Y069697D01*
X156364*
X156355Y069784*
X156315Y069916*
X15625Y070038*
X156163Y070145*
X156056Y070232*
X155935Y070297*
X155803Y070337*
X155715Y070346*
G37*
G36*
X155615D02*
X155528Y070337D01*
X155396Y070297*
X155275Y070232*
X155168Y070145*
X155081Y070038*
X155016Y069916*
X154975Y069784*
X154967Y069697*
X155615*
Y070346*
G37*
G36*
X167273Y073817D02*
X166973D01*
Y073467*
X167273*
Y073817*
G37*
G36*
X167224Y071796D02*
X167132Y071778D01*
X167054Y071725*
X167002Y071647*
X166984Y071555*
X167002Y071463*
X167054Y071385*
X167132Y071333*
X167191Y071321*
X167247Y071282*
X167286Y071226*
X167297Y071168*
X167349Y07109*
X167428Y071037*
X16752Y071019*
X167586Y071032*
X167662Y070978*
X167673Y070965*
X167691Y070872*
X167743Y070794*
X167821Y070742*
X167913Y070724*
X168006Y070742*
X168068Y070784*
X174603*
X17508Y070307*
Y069959*
X175019Y069951*
X174949Y069923*
X17489Y069877*
X174844Y069817*
X174815Y069748*
X17481Y06971*
X174711*
X174706Y069748*
X174677Y069817*
X174632Y069877*
X174572Y069923*
X174502Y069951*
X174428Y069961*
X174093*
X174019Y069951*
X173949Y069923*
X17389Y069877*
X173844Y069817*
X173815Y069748*
X173805Y069673*
Y069299*
X173815Y069225*
X173844Y069155*
X17389Y069096*
X173949Y06905*
X174019Y069021*
X174093Y069011*
X174428*
X174502Y069021*
X174572Y06905*
X174632Y069096*
X174677Y069155*
X174706Y069225*
X174711Y069262*
X17481*
X174815Y069225*
X174844Y069155*
X17489Y069096*
X174949Y06905*
X175019Y069021*
X175093Y069011*
X175428*
X175502Y069021*
X175572Y06905*
X175632Y069096*
X175677Y069155*
X175706Y069225*
X175711Y069262*
X17581*
X175815Y069225*
X175844Y069155*
X17589Y069096*
X175949Y06905*
X176019Y069021*
X176093Y069011*
X176428*
X176502Y069021*
X176572Y06905*
X176632Y069096*
X176677Y069155*
X176706Y069225*
X176711Y069262*
X17681*
X176815Y069225*
X176844Y069155*
X17689Y069096*
X176949Y06905*
X177019Y069021*
X177093Y069011*
X177428*
X177502Y069021*
X177572Y06905*
X177632Y069096*
X177677Y069155*
X177706Y069225*
X177711Y069262*
X17781*
X177815Y069225*
X177844Y069155*
X17789Y069096*
X177949Y06905*
X178019Y069021*
X178093Y069011*
X178428*
X178502Y069021*
X178572Y06905*
X178632Y069096*
X178677Y069155*
X178706Y069225*
X178711Y069262*
X17881*
X178815Y069225*
X178844Y069155*
X17889Y069096*
X178949Y06905*
X179019Y069021*
X179093Y069011*
X179428*
X179502Y069021*
X179572Y06905*
X179632Y069096*
X179677Y069155*
X179706Y069225*
X179716Y069299*
Y069673*
X179706Y069748*
X179677Y069817*
X179632Y069877*
X179572Y069923*
X179502Y069951*
X179428Y069961*
X179093*
X179019Y069951*
X178949Y069923*
X17889Y069877*
X178844Y069817*
X178815Y069748*
X17881Y06971*
X178711*
X178706Y069748*
X178677Y069817*
X178632Y069877*
X178572Y069923*
X178502Y069951*
X178428Y069961*
X178093*
X178019Y069951*
X177949Y069923*
X17789Y069877*
X177844Y069817*
X177815Y069748*
X17781Y06971*
X177711*
X177706Y069748*
X177677Y069817*
X177632Y069877*
X177572Y069923*
X177502Y069951*
X177441Y069959*
Y069983*
X177428Y070053*
X177388Y070111*
X175817Y071683*
X175758Y071722*
X175689Y071736*
X167379*
X167317Y071778*
X167224Y071796*
G37*
G36*
X171234Y069436D02*
X170847D01*
Y069299*
X170856Y069229*
X170883Y069164*
X170926Y069109*
X170982Y069066*
X171047Y069039*
X171117Y06903*
X171234*
Y069436*
G37*
G36*
X170234D02*
X169847D01*
Y069299*
X169856Y069229*
X169883Y069164*
X169926Y069109*
X169982Y069066*
X170047Y069039*
X170117Y06903*
X170234*
Y069436*
G37*
G36*
X170721D02*
X170334D01*
Y06903*
X170452*
X170521Y069039*
X170586Y069066*
X170642Y069109*
X170685Y069164*
X170712Y069229*
X170721Y069299*
Y069436*
G37*
G36*
X171234Y069943D02*
X171117D01*
X171047Y069934*
X170982Y069907*
X170926Y069864*
X170883Y069808*
X170856Y069743*
X170847Y069673*
Y069536*
X171234*
Y069943*
G37*
G36*
X170234D02*
X170117D01*
X170047Y069934*
X169982Y069907*
X169926Y069864*
X169883Y069808*
X169856Y069743*
X169847Y069673*
Y069536*
X170234*
Y069943*
G37*
G36*
X170452D02*
X170334D01*
Y069536*
X170721*
Y069673*
X170712Y069743*
X170685Y069808*
X170642Y069864*
X170586Y069907*
X170521Y069934*
X170452Y069943*
G37*
G36*
X183922Y075493D02*
X183522D01*
Y075093*
X183922*
Y075493*
G37*
G36*
X17975Y074835D02*
X179659Y074817D01*
X179381*
Y074417*
Y074017*
X179659*
X17975Y073999*
X179772*
X180486*
Y074176*
X180669*
X180709Y074169*
X180801Y074187*
X180879Y074239*
X180931Y074317*
X18095Y074409*
X180949Y074413*
X18095Y074417*
X180931Y074509*
X180879Y074588*
X180801Y07464*
X180709Y074658*
X180486*
Y074835*
X179772*
X17975*
G37*
G36*
X179281Y074367D02*
X178981D01*
Y074017*
X179281*
Y074367*
G37*
G36*
Y074817D02*
X178981D01*
Y074467*
X179281*
Y074817*
G37*
G36*
X175219Y074897D02*
X174924D01*
X174836Y074879*
X174762Y07483*
X174712Y074755*
X174704Y074717*
X175219*
Y074897*
G37*
G36*
X158942Y094044D02*
X158642D01*
Y092994*
X158942*
Y094044*
G37*
G36*
X159342D02*
X159042D01*
Y092994*
X159342*
Y094044*
G37*
G36*
X148665Y072769D02*
X148525Y072755D01*
X148389Y072714*
X148264Y072647*
X148155Y072557*
X148065Y072448*
X147999Y072323*
X147958Y072188*
X147944Y072047*
X147958Y071906*
X147999Y071771*
X148065Y071646*
X148155Y071537*
X148264Y071447*
X148389Y071381*
X148525Y07134*
X148665Y071326*
X148806Y07134*
X148941Y071381*
X149066Y071447*
X149176Y071537*
X149265Y071646*
X149332Y071771*
X149373Y071906*
X149387Y072047*
X149373Y072188*
X149332Y072323*
X149265Y072448*
X149176Y072557*
X149066Y072647*
X148941Y072714*
X148806Y072755*
X148665Y072769*
G37*
G36*
X13961D02*
X139469Y072755D01*
X139334Y072714*
X139209Y072647*
X1391Y072557*
X13901Y072448*
X138944Y072323*
X138903Y072188*
X138889Y072047*
X138903Y071906*
X138944Y071771*
X13901Y071646*
X1391Y071537*
X139209Y071447*
X139334Y071381*
X139469Y07134*
X13961Y071326*
X139751Y07134*
X139886Y071381*
X140011Y071447*
X14012Y071537*
X14021Y071646*
X140277Y071771*
X140318Y071906*
X140332Y072047*
X140318Y072188*
X140277Y072323*
X14021Y072448*
X14012Y072557*
X140011Y072647*
X139886Y072714*
X139751Y072755*
X13961Y072769*
G37*
G36*
Y075169D02*
X139469Y075155D01*
X139334Y075114*
X139209Y075047*
X1391Y074957*
X13901Y074848*
X138944Y074723*
X138903Y074588*
X138889Y074447*
X138903Y074306*
X138944Y074171*
X13901Y074046*
X1391Y073937*
X139209Y073847*
X139334Y073781*
X139469Y07374*
X13961Y073726*
X139751Y07374*
X139886Y073781*
X140011Y073847*
X14012Y073937*
X14021Y074046*
X140277Y074171*
X140318Y074306*
X140332Y074447*
X140318Y074588*
X140277Y074723*
X14021Y074848*
X14012Y074957*
X140011Y075047*
X139886Y075114*
X139751Y075155*
X13961Y075169*
G37*
G36*
X142444Y079469D02*
X141808D01*
Y078233*
X142096*
X142869Y077459*
Y075591*
X142888Y075498*
X14294Y07542*
X144613Y073747*
X144691Y073695*
X144783Y073676*
X14557*
X146265Y072981*
Y072677*
X146209Y072647*
X1461Y072557*
X14601Y072448*
X145944Y072323*
X145903Y072188*
X145889Y072047*
X145903Y071906*
X145944Y071771*
X14601Y071646*
X1461Y071537*
X146209Y071447*
X146334Y071381*
X146469Y07134*
X14661Y071326*
X146751Y07134*
X146886Y071381*
X147011Y071447*
X14712Y071537*
X14721Y071646*
X147277Y071771*
X147318Y071906*
X147332Y072047*
X147318Y072188*
X147277Y072323*
X14721Y072448*
X14712Y072557*
X147011Y072647*
X146886Y072714*
X146751Y072755*
X146747*
Y073081*
X146728Y073173*
X146676Y073251*
X146171Y073756*
X14623Y073836*
X146334Y073781*
X146469Y07374*
X14661Y073726*
X146751Y07374*
X146886Y073781*
X147011Y073847*
X14712Y073937*
X14721Y074046*
X147277Y074171*
X147318Y074306*
X147332Y074447*
X147318Y074588*
X147277Y074723*
X14721Y074848*
X14712Y074957*
X147011Y075047*
X146886Y075114*
X146751Y075155*
X14661Y075169*
X146469Y075155*
X146334Y075114*
X146209Y075047*
X1461Y074957*
X14601Y074848*
X145944Y074723*
X145933Y074688*
X14508*
X143843Y075925*
Y077459*
X144617Y078233*
X144806*
Y079469*
X14417*
Y078467*
X143432Y077729*
X143415Y077704*
X143298*
X143281Y077729*
X142444Y078566*
Y079469*
G37*
G36*
X148665Y075169D02*
X148525Y075155D01*
X148389Y075114*
X148264Y075047*
X148155Y074957*
X148065Y074848*
X147999Y074723*
X147958Y074588*
X147944Y074447*
X147958Y074306*
X147999Y074171*
X148065Y074046*
X148155Y073937*
X148264Y073847*
X148389Y073781*
X148525Y07374*
X148665Y073726*
X148806Y07374*
X148941Y073781*
X149066Y073847*
X149176Y073937*
X149265Y074046*
X149332Y074171*
X149373Y074306*
X149387Y074447*
X149373Y074588*
X149332Y074723*
X149265Y074848*
X149176Y074957*
X149066Y075047*
X148941Y075114*
X148806Y075155*
X148665Y075169*
G37*
G36*
X147169Y079371D02*
X146532D01*
Y078134*
X14682*
X147664Y07729*
X147742Y077238*
X147835Y07722*
X150546*
X155158Y072608*
X155155Y072557*
X155065Y072448*
X154999Y072323*
X154958Y072188*
X154944Y072047*
X154958Y071906*
X154999Y071771*
X155065Y071646*
X155155Y071537*
X155264Y071447*
X155389Y071381*
X155525Y07134*
X155665Y071326*
X155806Y07134*
X155941Y071381*
X156066Y071447*
X156176Y071537*
X156265Y071646*
X156332Y071771*
X156373Y071906*
X156387Y072047*
X156373Y072188*
X156332Y072323*
X156265Y072448*
X156176Y072557*
X156066Y072647*
X155941Y072714*
X155806Y072755*
X155679Y072767*
X154967Y07348*
X155008Y073578*
X155315*
X155407Y073596*
X155485Y073649*
X155572Y073735*
X155665Y073726*
X155806Y07374*
X155941Y073781*
X156066Y073847*
X156176Y073937*
X156265Y074046*
X156332Y074171*
X156373Y074306*
X156387Y074447*
X156373Y074588*
X156332Y074723*
X156265Y074848*
X156176Y074957*
X156066Y075047*
X155941Y075114*
X155806Y075155*
X155665Y075169*
X155525Y075155*
X155389Y075114*
X155264Y075047*
X155155Y074957*
X155065Y074848*
X154999Y074723*
X154958Y074588*
X154944Y074447*
X154958Y074306*
X154977Y074243*
X15489Y074191*
X150958Y078123*
X15088Y078175*
X150787Y078194*
X149804*
X149531Y078467*
Y079371*
X148894*
Y078134*
X149182*
X149517Y0778*
X1495Y077732*
X149479Y077701*
X147934*
X147169Y078467*
Y079371*
G37*
G36*
X145927Y093533D02*
X145404D01*
Y09304*
X145927*
Y093533*
G37*
G36*
X145304D02*
X144782D01*
Y09304*
X145304*
Y093533*
G37*
G36*
X14311Y093941D02*
X142997Y093926D01*
X142892Y093882*
X142801Y093813*
X142732Y093722*
X142688Y093617*
X142673Y093504*
X142688Y093391*
X142732Y093286*
X142801Y093195*
X142892Y093126*
X142997Y093082*
X14311Y093067*
X143223Y093082*
X143329Y093126*
X143419Y093195*
X143489Y093286*
X143532Y093391*
X143547Y093504*
X143532Y093617*
X143489Y093722*
X143419Y093813*
X143329Y093882*
X143223Y093926*
X14311Y093941*
G37*
G36*
X143848Y090548D02*
X143598D01*
Y089998*
X143848*
Y090548*
G37*
G36*
X144198D02*
X143948D01*
Y089998*
X144198*
Y090548*
G37*
G36*
X143848Y089898D02*
X143598D01*
Y089348*
X143848*
Y089898*
G37*
G36*
X144198D02*
X143948D01*
Y089348*
X144198*
Y089898*
G37*
G36*
X155665Y09147D02*
X155525Y091456D01*
X155389Y091415*
X155264Y091348*
X155155Y091258*
X155065Y091149*
X154999Y091024*
X154958Y090889*
X154944Y090748*
X154958Y090607*
X154999Y090472*
X155065Y090347*
X155155Y090238*
X155264Y090148*
X155389Y090081*
X155525Y09004*
X155665Y090026*
X155806Y09004*
X155941Y090081*
X156066Y090148*
X156176Y090238*
X156265Y090347*
X156332Y090472*
X156373Y090607*
X156387Y090748*
X156373Y090889*
X156332Y091024*
X156265Y091149*
X156176Y091258*
X156066Y091348*
X155941Y091415*
X155806Y091456*
X155665Y09147*
G37*
G36*
Y08907D02*
X155525Y089056D01*
X155389Y089015*
X155264Y088948*
X155155Y088858*
X155065Y088749*
X154999Y088624*
X154958Y088489*
X154944Y088348*
X154958Y088207*
X154999Y088072*
X155065Y087947*
X155155Y087838*
X155264Y087748*
X155389Y087681*
X155525Y08764*
X155665Y087626*
X155806Y08764*
X155941Y087681*
X156066Y087748*
X156176Y087838*
X156265Y087947*
X156332Y088072*
X156373Y088207*
X156387Y088348*
X156373Y088489*
X156332Y088624*
X156265Y088749*
X156176Y088858*
X156066Y088948*
X155941Y089015*
X155806Y089056*
X155665Y08907*
G37*
G36*
X149016Y081442D02*
X147146D01*
X147053Y081423*
X146975Y081371*
X146923Y081293*
X146912Y081235*
X146873Y081179*
X146817Y08114*
X146758Y081128*
X14668Y081076*
X146628Y080998*
X146613Y080921*
X146532*
Y079684*
X147169*
Y080921*
X147251Y08096*
X148812*
X148894Y080921*
Y079684*
X149531*
Y080921*
X149453*
Y081004*
X149435Y081096*
X149383Y081174*
X149186Y081371*
X149108Y081423*
X149016Y081442*
G37*
G36*
X14817Y084208D02*
X14782D01*
Y083908*
X14817*
Y084208*
G37*
G36*
X14862D02*
X14827D01*
Y083908*
X14862*
Y084208*
G37*
G36*
X14817Y083808D02*
X14782D01*
Y083508*
X14817*
Y083808*
G37*
G36*
X14862D02*
X14827D01*
Y083508*
X14862*
Y083808*
G37*
G36*
X14311Y091972D02*
X142997Y091957D01*
X142892Y091914*
X142801Y091844*
X142732Y091754*
X142688Y091648*
X142673Y091535*
X142688Y091422*
X142732Y091317*
X142801Y091227*
X142892Y091157*
X142997Y091114*
X14311Y091099*
X143223Y091114*
X143329Y091157*
X143419Y091227*
X143489Y091317*
X143532Y091422*
X143547Y091535*
X143532Y091648*
X143489Y091754*
X143419Y091844*
X143329Y091914*
X143223Y091957*
X14311Y091972*
G37*
G36*
X177256Y087544D02*
X177164Y087526D01*
X177086Y087473*
X177033Y087395*
X177015Y087303*
X177033Y087211*
X177043Y087197*
Y086942*
X176896*
Y086106*
X177632*
Y086942*
X177485*
Y087242*
X177497Y087303*
X177478Y087395*
X177426Y087473*
X177348Y087526*
X177256Y087544*
G37*
G36*
X176624Y08697D02*
X175738D01*
Y086696*
X174367*
X174305Y086738*
X174213Y086757*
X17412Y086738*
X174042Y086686*
X17399Y086608*
X173972Y086516*
X17399Y086424*
X174042Y086345*
X17412Y086293*
X174213Y086275*
X174305Y086293*
X174367Y086335*
X175738*
Y086084*
X176624*
Y08697*
G37*
G36*
X17348Y082987D02*
X17318D01*
Y082637*
X17348*
Y082987*
G37*
G36*
Y082537D02*
X17318D01*
Y082187*
X17348*
Y082537*
G37*
G36*
X135827Y07635D02*
X135199D01*
Y0751*
X135827*
Y07635*
G37*
G36*
X135099D02*
X133649D01*
Y0751*
X135099*
Y07635*
G37*
G36*
X130806Y075737D02*
X130456D01*
Y075437*
X130806*
Y075737*
G37*
G36*
X130356D02*
X130006D01*
Y075437*
X130356*
Y075737*
G37*
G36*
X137752Y075309D02*
X137452D01*
Y074959*
X137752*
Y075309*
G37*
G36*
X137352D02*
X137052D01*
Y074959*
X137352*
Y075309*
G37*
G36*
Y074859D02*
X137052D01*
Y074509*
X137352*
Y074859*
G37*
G36*
X137752D02*
X137452D01*
Y074509*
X137752*
Y074859*
G37*
G36*
X134098Y078151D02*
X133556D01*
Y077609*
X134098*
Y078151*
G37*
G36*
X13474D02*
X134198D01*
Y077609*
X13474*
Y078151*
G37*
G36*
X136277Y09306D02*
X135927D01*
Y09276*
X136277*
Y09306*
G37*
G36*
X130356Y076137D02*
X130006D01*
Y075837*
X130356*
Y076137*
G37*
G36*
X130806D02*
X130456D01*
Y075837*
X130806*
Y076137*
G37*
G36*
X136727Y09306D02*
X136377D01*
Y09276*
X136727*
Y09306*
G37*
G36*
X134098Y077509D02*
X133556D01*
Y076967*
X134098*
Y077509*
G37*
G36*
X13474D02*
X134198D01*
Y076967*
X13474*
Y077509*
G37*
G36*
X133808Y094582D02*
X133266D01*
Y09404*
X133808*
Y094582*
G37*
G36*
X13445Y09394D02*
X133908D01*
Y093398*
X13445*
Y09394*
G37*
G36*
X133808D02*
X133266D01*
Y093398*
X133808*
Y09394*
G37*
G36*
X13445Y094582D02*
X133908D01*
Y09404*
X13445*
Y094582*
G37*
G36*
X136727Y09346D02*
X136377D01*
Y09316*
X136727*
Y09346*
G37*
G36*
X135099Y075D02*
X133649D01*
Y07375*
X135099*
Y075*
G37*
G36*
X135827D02*
X135199D01*
Y07375*
X135827*
Y075*
G37*
G36*
X136767Y072497D02*
X136467D01*
Y072147*
X136767*
Y072497*
G37*
G36*
X136367Y072947D02*
X136067D01*
Y072597*
X136367*
Y072947*
G37*
G36*
X136277Y09346D02*
X135927D01*
Y09316*
X136277*
Y09346*
G37*
G36*
X136367Y072497D02*
X136067D01*
Y072147*
X136367*
Y072497*
G37*
G36*
X136767Y072947D02*
X136467D01*
Y072597*
X136767*
Y072947*
G37*
G36*
X13617Y086458D02*
X13587D01*
Y086108*
X13617*
Y086458*
G37*
G36*
X13657D02*
X13627D01*
Y086108*
X13657*
Y086458*
G37*
G36*
X135435Y086523D02*
X134893D01*
Y085981*
X135435*
Y086523*
G37*
G36*
X13617Y086908D02*
X13587D01*
Y086558*
X13617*
Y086908*
G37*
G36*
X13657D02*
X13627D01*
Y086558*
X13657*
Y086908*
G37*
G36*
X13243Y086852D02*
X13213D01*
Y086502*
X13243*
Y086852*
G37*
G36*
X13283D02*
X13253D01*
Y086502*
X13283*
Y086852*
G37*
G36*
X134793Y086523D02*
X13425D01*
Y085981*
X134793*
Y086523*
G37*
G36*
X135435Y085881D02*
X134893D01*
Y085339*
X135435*
Y085881*
G37*
G36*
X134793D02*
X13425D01*
Y085339*
X134793*
Y085881*
G37*
G36*
X131301Y090594D02*
X130759D01*
Y090052*
X131301*
Y090594*
G37*
G36*
X130659D02*
X130117D01*
Y090052*
X130659*
Y090594*
G37*
G36*
X13243Y087302D02*
X13213D01*
Y086952*
X13243*
Y087302*
G37*
G36*
X13283D02*
X13253D01*
Y086952*
X13283*
Y087302*
G37*
G36*
X130659Y091236D02*
X130117D01*
Y090694*
X130659*
Y091236*
G37*
G36*
X131301D02*
X130759D01*
Y090694*
X131301*
Y091236*
G37*
G36*
X134054Y081997D02*
X133858D01*
Y081077*
X133908Y081062*
X134054Y081047*
Y081997*
G37*
G36*
X135104D02*
X134154D01*
Y081047*
X1343Y081062*
X134489Y081119*
X134662Y081212*
X134815Y081337*
X13494Y081489*
X135032Y081663*
X13509Y081851*
X135104Y081997*
G37*
G36*
X132874Y080107D02*
X132025D01*
X132037Y079981*
X132088Y079811*
X132172Y079655*
X132285Y079518*
X132422Y079405*
X132578Y079322*
X132748Y07927*
X132874Y079258*
Y080107*
G37*
G36*
X133169D02*
X132974D01*
Y079258*
X1331Y07927*
X133169Y079291*
Y080107*
G37*
G36*
X135745Y093478D02*
X134909D01*
Y092742*
X135009*
Y092494*
X134909*
Y092444*
X134468*
Y09284*
X133248*
Y092548*
X132978*
X132896Y092537*
X132819Y092505*
X132754Y092455*
X132144Y091845*
X132093Y091779*
X132061Y091702*
X132051Y09162*
Y091139*
X13189*
Y090343*
X132846*
Y091139*
X132686*
Y091489*
X13311Y091913*
X133248*
Y09162*
X134468*
Y091808*
X134909*
Y091758*
X135745*
Y092494*
X135644*
Y092742*
X135745*
Y093478*
G37*
G36*
X132974Y081057D02*
Y080207D01*
X133169*
Y081023*
X1331Y081044*
X132974Y081057*
G37*
G36*
X133169Y081997D02*
X133104D01*
X133118Y081851*
X133169Y081684*
Y081997*
G37*
G36*
X134054Y083047D02*
X133908Y083033D01*
X133858Y083018*
Y082097*
X134054*
Y083047*
G37*
G36*
X134154D02*
Y082097D01*
X135104*
X13509Y082243*
X135032Y082432*
X13494Y082606*
X134815Y082758*
X134662Y082883*
X134489Y082976*
X1343Y083033*
X134154Y083047*
G37*
G36*
X133169Y082411D02*
X133118Y082243D01*
X133104Y082097*
X133169*
Y082411*
G37*
G36*
X162942Y094044D02*
X162642D01*
Y092994*
X162942*
Y094044*
G37*
G36*
X16413Y085054D02*
X16383D01*
Y084704*
X16413*
Y085054*
G37*
G36*
Y084604D02*
X16383D01*
Y084254*
X16413*
Y084604*
G37*
G36*
X16373Y085054D02*
X16343D01*
Y084704*
X16373*
Y085054*
G37*
G36*
X165304Y087241D02*
X165054D01*
Y086691*
X165304*
Y087241*
G37*
G36*
X165654D02*
X165404D01*
Y086691*
X165654*
Y087241*
G37*
G36*
X168159Y087622D02*
X168051D01*
X167984Y087613*
X167921Y087587*
X167868Y087546*
X167826Y087492*
X1678Y087429*
X167791Y087362*
Y087255*
X168159*
Y087622*
G37*
G36*
X16373Y084604D02*
X16343D01*
Y084254*
X16373*
Y084604*
G37*
G36*
X153796Y083716D02*
X153446D01*
Y083416*
X153796*
Y083716*
G37*
G36*
X154246D02*
X153896D01*
Y083416*
X154246*
Y083716*
G37*
%LNpcb1-3*%
%LPD*%
G54D10*
X13622Y087508D03*
Y086508D03*
X150886Y080323D03*
Y079323D03*
X180118Y074417D03*
Y073417D03*
X179331Y074417D03*
Y073417D03*
X177067D03*
Y074417D03*
X17628Y073417D03*
Y074417D03*
X17126Y073417D03*
Y074417D03*
X170472Y073417D03*
Y074417D03*
X169685D03*
Y073417D03*
X168898D03*
Y074417D03*
X16811Y073417D03*
Y074417D03*
X167323Y073417D03*
Y074417D03*
X168799Y082587D03*
Y081587D03*
X169685D03*
Y082587D03*
X170472Y081587D03*
Y082587D03*
X17126D03*
Y081587D03*
X172244D03*
Y082587D03*
X17313Y081587D03*
Y082587D03*
X180217Y085524D03*
Y086524D03*
X179331D03*
Y085524D03*
X178346Y086524D03*
Y085524D03*
X177264D03*
Y086524D03*
X167323Y081587D03*
Y082587D03*
Y083555D03*
Y084555D03*
X16378Y082685D03*
Y081685D03*
Y083654D03*
Y084654D03*
X142126Y089476D03*
Y088476D03*
X13248Y087902D03*
Y086902D03*
X137402Y072547D03*
Y071547D03*
X136417D03*
Y072547D03*
X137402Y074909D03*
Y073909D03*
G54D11*
X140562Y083661D03*
X139162D03*
G54D12*
X179323Y078642D03*
X180323D03*
X165445Y077559D03*
X166445D03*
Y078346D03*
X165445D03*
X166445Y079134D03*
X165445D03*
X166445Y079921D03*
X165445D03*
X166445Y080709D03*
X165445D03*
X175205Y075492D03*
X174205D03*
X175205Y07628D03*
X174205D03*
X175205Y077067D03*
X174205D03*
X175205Y077854D03*
X174205D03*
X175205Y078642D03*
X174205D03*
X175205Y079429D03*
X174205D03*
X175205Y080217D03*
X174205D03*
X175205Y081004D03*
X174205D03*
X16615Y083465D03*
X16515D03*
X16615Y084547D03*
X16515D03*
X165264Y091732D03*
X164264D03*
X165264Y092717D03*
X164264D03*
X165264Y093701D03*
X164264D03*
X142512Y087106D03*
X143512D03*
X135327Y092126D03*
X136327D03*
Y09311D03*
X135327D03*
X131406Y075787D03*
X130406D03*
X14822Y083858D03*
X14922D03*
X152846Y083366D03*
X153846D03*
G54D13*
X175269Y073167D03*
G54D14*
X175269Y073667D03*
Y074167D03*
Y074667D03*
X172369D03*
Y074167D03*
Y073667D03*
Y073167D03*
G54D15*
X165354Y0742D03*
Y07265D03*
Y087291D03*
Y085741D03*
X143898Y088398D03*
Y089948D03*
X142126Y078851D03*
Y080401D03*
X144488Y078851D03*
Y080401D03*
X14685Y080303D03*
Y078753D03*
X149213Y080303D03*
Y078753D03*
G54D16*
X162167Y079051D03*
Y077051D03*
X163817D03*
Y079051D03*
G54D17*
X168996Y076321D03*
X169193D03*
X16939D03*
X169587D03*
X169783D03*
X16998D03*
X170177D03*
X170374D03*
X170571D03*
X170768D03*
X170965D03*
X171161D03*
X171358D03*
X171555D03*
X171752D03*
X171949D03*
Y079781D03*
X171752D03*
X171555D03*
X171358D03*
X171161D03*
X170965D03*
X170768D03*
X170571D03*
X170374D03*
X170177D03*
X16998D03*
X169783D03*
X169587D03*
X16939D03*
X169193D03*
G54D18*
X172244Y076575D03*
X172202Y076772D03*
Y076968D03*
Y077165D03*
Y077362D03*
Y077559D03*
Y077756D03*
Y077953D03*
Y07815D03*
Y078346D03*
Y078543D03*
Y07874D03*
Y078937D03*
Y079134D03*
Y079331D03*
Y079528D03*
X168742D03*
Y079331D03*
Y079134D03*
Y078937D03*
Y07874D03*
Y078543D03*
Y078346D03*
Y07815D03*
Y077953D03*
Y077756D03*
Y077559D03*
Y077362D03*
Y077165D03*
Y076968D03*
Y076772D03*
G54D19*
X168996Y079803D03*
G54D20*
X168701Y076575D03*
G54D21*
X170472Y078051D03*
G54D22*
X176181Y086527D03*
Y085127D03*
G54D23*
X166125Y081713D03*
Y082087D03*
Y082461D03*
X165175D03*
Y081713D03*
G54D24*
X162992Y094094D03*
X161992D03*
X160992D03*
X159992D03*
X158992D03*
X157992D03*
X156992D03*
G54D25*
X145354Y093583D03*
X140866Y091732D03*
Y09311D03*
G54D26*
X133858Y09399D03*
Y09223D03*
X130709Y090644D03*
Y088884D03*
X134843Y085931D03*
Y087691D03*
G54D27*
X135348Y089861D03*
G54D28*
X132368Y088941D03*
Y090741D03*
G54D29*
X132149Y084853D03*
X130449Y084833D03*
G54D30*
X13002Y087708D03*
Y086308D03*
X130709Y077646D03*
Y079046D03*
X156102Y083355D03*
Y084755D03*
G54D31*
X134148Y077559D03*
X132388D03*
X134345Y072638D03*
X132585D03*
G54D32*
X135149Y07505D03*
G54D33*
X132649Y07405D03*
Y07455D03*
Y07555D03*
Y07605D03*
Y07505D03*
G54D34*
X151791Y083563D03*
Y082185D03*
X14998D03*
G54D35*
X151791Y083366D03*
Y083169D03*
Y082972D03*
Y082776D03*
Y082579D03*
Y082382D03*
X14998D03*
Y082579D03*
Y082776D03*
Y082972D03*
Y083169D03*
Y083366D03*
Y083563D03*
G54D36*
X151575Y081968D03*
X150197D03*
X151575Y08378D03*
G54D37*
X151378Y081968D03*
X151181D03*
X150984D03*
X150787D03*
X150591D03*
X150394D03*
X150197Y08378D03*
X150394D03*
X150591D03*
X150787D03*
X150984D03*
X151181D03*
X151378D03*
G54D38*
X150886Y082874D03*
G54D39*
X154035Y080315D02*
X155512D01*
X162992Y09252D02*
Y094094D01*
X156594Y094685D02*
X156988D01*
X156992Y094681*
Y094094D02*
Y094681D01*
X136327Y09311D02*
X137205D01*
X161024Y092717D02*
Y094063D01*
X160992Y094094D02*
X161024Y094063D01*
X158465Y088091D02*
X161024Y09065D01*
Y092717*
X174114Y074705D02*
Y074803D01*
Y074705D02*
X174409Y074409D01*
X16811Y073417D02*
X170472D01*
X167323D02*
X16811D01*
X166937D02*
X167323D01*
X143898Y089764D02*
Y093012D01*
X144468Y093583D02*
X145354D01*
X143898Y093012D02*
X144468Y093583D01*
X145374Y092717D02*
Y093563D01*
Y092224D02*
Y092717D01*
X145354Y093583D02*
X145374Y093563D01*
X139961Y094488D02*
X150689D01*
X13622Y087508D02*
X138591D01*
X139272Y093799D02*
X139961Y094488D01*
X139272Y088189D02*
Y093799D01*
X138591Y087508D02*
X139272Y088189D01*
X15315Y086122D02*
X156988D01*
X150689Y094488D02*
X152559Y092618D01*
Y086713D02*
Y092618D01*
Y086713D02*
X15315Y086122D01*
X159941D02*
X165354D01*
X156988D02*
X15748D01*
X159449D02*
X159941D01*
X165354Y085741D02*
Y086122D01*
X167618Y086516D02*
X168012D01*
X167224D02*
X167618D01*
X166929D02*
X167224D01*
X166634Y08622D02*
X166929Y086516D01*
X166634Y085532D02*
Y08622D01*
X166339Y085236D02*
X166634Y085532D01*
X165551Y085236D02*
X166339D01*
X165354Y085433D02*
X165551Y085236D01*
X165354Y085433D02*
Y085741D01*
X158465Y08563D02*
Y088091D01*
X135933Y087795D02*
X13622Y087508D01*
X135925Y087795D02*
X135933D01*
X152067Y084755D02*
X156102D01*
X157972Y070768D02*
X164961D01*
X138181D02*
X157972D01*
X15759Y084755D02*
X158465Y08563D01*
X156102Y084755D02*
X15759D01*
X136327Y090839D02*
Y092126D01*
X135348Y089861D02*
X136327Y090839D01*
X135327Y092126D02*
Y09311D01*
X133963Y092126D02*
X135327D01*
X133858Y09223D02*
X133963Y092126D01*
X132368Y09162D02*
X132978Y09223D01*
X132368Y090741D02*
Y09162D01*
X132978Y09223D02*
X133858D01*
X179331Y072441D02*
Y073417D01*
X17126Y072441D02*
X177854D01*
X166929D02*
X169685D01*
X17126*
X183071D02*
X18435Y07372D01*
X177854Y072441D02*
X179331D01*
X183071*
X183465Y084941D02*
X18435D01*
Y090453*
X169291Y091732D02*
X183071D01*
X18435Y090453*
X166634Y072441D02*
X166929D01*
X166437Y072638D02*
X166634Y072441D01*
X166437Y072638D02*
Y073032D01*
X165354Y07265D02*
Y073032D01*
X137402Y071547D02*
X138181Y070768D01*
X165354Y073032D02*
X166437D01*
X165354Y071161D02*
Y07265D01*
X164961Y070768D02*
X165354Y071161D01*
X18435Y07372D02*
Y084154D01*
Y084941*
X131348Y07505D02*
X132649D01*
X175984Y080217D02*
Y08061D01*
Y081004*
G54D40*
X134055Y093799D02*
X134941D01*
X133858Y093996D02*
X134055Y093799D01*
X13435Y09311D02*
Y093504D01*
X133858Y093996D02*
X13435Y093504D01*
X133957Y09311D02*
Y093799D01*
X133766Y09399D02*
X133957Y093799D01*
X133766Y09399D02*
X133858D01*
X133957Y09311D02*
Y093898D01*
X133858Y093996D02*
X133957Y093898D01*
X130709Y089862D02*
Y090256D01*
X131594*
X131097D02*
X131594D01*
X130709Y090644D02*
X131097Y090256D01*
X130906Y09065D02*
X131594D01*
X130709Y090846D02*
X130906Y09065D01*
X130709Y090644D02*
Y090748D01*
X170465Y073425D02*
X170472Y073417D01*
X168504Y072835D02*
X169193D01*
X168406D02*
X168504D01*
X170177Y073917D02*
X170472Y073622D01*
Y073417D02*
Y073622D01*
X170177Y072835D02*
X170866D01*
X17126Y083169D02*
X171457Y083366D01*
X17126Y083071D02*
Y083169D01*
Y082587D02*
D01*
X170472D02*
X17126D01*
X168799Y082685D02*
Y083366D01*
X170472Y078445D02*
X17126D01*
X171457Y078642*
X170472Y078051D02*
Y078445D01*
X170669Y078839D02*
X170866Y079035D01*
X171457Y078051D02*
Y078642D01*
X169783Y077362D02*
X170472Y078051D01*
X171161Y078346D02*
X171457Y078051D01*
X170965Y078543D02*
X171161Y078346D01*
X170669Y078839D02*
X170965Y078543D01*
X171398Y078976*
X170472Y078051D02*
X170965Y078543D01*
X171398Y078976D02*
X171476Y079055D01*
X171555Y079134*
X169783Y077362D02*
Y077854D01*
X167323Y084555D02*
Y085827D01*
X169783Y084252D02*
Y085532D01*
X152264Y080512D02*
X15315D01*
X151132Y081644D02*
X152264Y080512D01*
X15315Y082283D02*
X160532D01*
X1625Y080315*
X164272*
X164567Y08002*
Y07874D02*
Y08002D01*
X164961Y078346D02*
X165445D01*
X164567Y07874D02*
X164961Y078346D01*
X167677Y078051D02*
X168406D01*
X167382Y078346D02*
X167677Y078051D01*
X166445Y078346D02*
X167382D01*
X166831Y077756D02*
X16752D01*
X166634Y077559D02*
X166831Y077756D01*
X168799Y082685D02*
X168898Y082587D01*
X17313Y082783D02*
X173228Y082685D01*
X17313Y082587D02*
X173228Y082685D01*
X167323Y080512D02*
Y081587D01*
X167126Y082087D02*
X167323Y08189D01*
X166831Y082087D02*
X167126D01*
X166125D02*
X166831D01*
X164468Y081713D02*
Y083268D01*
X164665Y083465D02*
X16515D01*
X164468Y083268D02*
X164665Y083465D01*
X168898Y080768D02*
X169252Y080413D01*
X164468Y081713D02*
X165175D01*
X152657Y083555D02*
Y084055D01*
X170177Y075098D02*
X171516D01*
X169685Y074606D02*
X170177Y075098D01*
X169685Y074417D02*
Y074606D01*
X179331Y073417D02*
X180118D01*
X183465Y075535D02*
X183472Y075543D01*
X183465Y074803D02*
Y075535D01*
X181791Y074803D02*
X183465D01*
X181791D02*
Y075098D01*
X179331D02*
X181791D01*
X179331Y074417D02*
Y075098D01*
X183465Y084941D02*
Y086909D01*
X183071Y087303D02*
X183465Y086909D01*
X180118Y087303D02*
X183071D01*
X177256D02*
X177264Y087295D01*
Y086516D02*
Y087295D01*
X150591Y082382D02*
Y082579D01*
X150886Y082874*
Y082776D02*
X15128Y082382D01*
X150886Y082776D02*
Y082874D01*
X153846Y083366D02*
X154429D01*
X153839Y083957D02*
X153846Y083949D01*
Y083366D02*
Y083949D01*
X134843Y086614D02*
X135335D01*
X134843Y085931D02*
Y086614D01*
X13622Y085532D02*
Y085925D01*
Y086508*
X133268Y086909D02*
X133661D01*
X13326Y086902D02*
X133268Y086909D01*
X13248Y086902D02*
X13326D01*
X133858Y09399D02*
Y093996D01*
X17126Y082587D02*
Y083071D01*
X173425Y079823D02*
X17372Y080118D01*
X173425Y078671D02*
Y079823D01*
X173248Y078494D02*
X173425Y078671D01*
X173022Y08002D02*
X174006Y081004D01*
X173022Y07876D02*
Y08002D01*
X172244Y082587D02*
Y083169D01*
X17372Y080118D02*
X173819Y080217D01*
X174205*
X166445Y080709D02*
Y081685D01*
X166417Y081713D02*
X166445Y081685D01*
X166125Y081713D02*
X166417D01*
X166125Y082461D02*
X16615Y082486D01*
X171654Y074803D02*
X17185Y075D01*
X171646Y074803D02*
X171654D01*
X17126Y074417D02*
X171646Y074803D01*
X181398Y077543D02*
X182472D01*
X181299Y08037D02*
X182472Y081543D01*
X180118Y078051D02*
X180323Y078256D01*
Y078642*
X18148*
X182382Y079543*
X182472*
X181358Y079429D02*
X182472Y080543D01*
X168081Y075295D02*
X168986D01*
X167323Y074537D02*
X168081Y075295D01*
X167323Y074417D02*
Y074537D01*
X16811Y074417D02*
Y074646D01*
X168366Y074902*
X169045D02*
X170128Y075984D01*
X171654Y075236D02*
Y075492D01*
X171516Y075098D02*
X171654Y075236D01*
X177067Y073032D02*
Y073417D01*
X176968Y072933D02*
X177067Y073032D01*
X175787Y072933D02*
X176968D01*
X175553Y073167D02*
X175787Y072933D01*
X175269Y073167D02*
X175553D01*
X17185Y073524D02*
X171994Y073667D01*
X171366Y073524D02*
X17185D01*
X17126Y073417D02*
X171366Y073524D01*
X171904Y074167D02*
X172369D01*
X171654Y073917D02*
X171904Y074167D01*
X170866Y073917D02*
X171654D01*
X170472Y074311D02*
X170866Y073917D01*
X17603Y073667D02*
X17628Y073417D01*
X175269Y073667D02*
X17603D01*
X17126Y073417D02*
X17151Y073167D01*
X172369*
X171994Y073667D02*
X172369D01*
X174006Y081004D02*
X174205D01*
X166445Y077559D02*
X166634D01*
X167815Y078346D02*
X168012D01*
X167028Y079134D02*
X167815Y078346D01*
X166445Y079134D02*
X167028D01*
X165264Y093701D02*
X166732D01*
X165264Y092717D02*
X166717D01*
X166701Y091732D02*
X166732Y091701D01*
X165248Y091732D02*
X165264D01*
X164264Y092717D02*
X165248Y091732D01*
X164264Y092717D02*
Y093701D01*
X132649Y07365D02*
Y07405D01*
Y07365D02*
X132874Y073425D01*
X137402*
Y072547D02*
Y073909D01*
X150886Y080323D02*
Y081398D01*
X148622Y083169D02*
D01*
X146063Y082874D02*
X148327D01*
X146457Y083169D02*
X148622D01*
X168898Y074508D02*
X170266Y075876D01*
X168898Y074417D02*
Y074508D01*
X168366Y074902D02*
X169045D01*
X173022Y081478D02*
X17313Y081587D01*
X173022Y081191D02*
Y081478D01*
X171772Y080295D02*
X172126D01*
X173022Y081191*
X167913Y084055D02*
X168209Y08435D01*
Y085205*
X16615Y084055D02*
X166831D01*
X16615Y082486D02*
Y083465D01*
Y084055*
Y084547*
X165175Y081713D02*
X165445D01*
X169488Y083169D02*
Y083957D01*
X169783Y084252*
X163295Y082685D02*
X16378D01*
X163287Y082677D02*
X163295Y082685D01*
X16378Y084654D02*
Y085335D01*
X165445Y077559D02*
X165846D01*
X135835Y072547D02*
X136417D01*
X135827Y072539D02*
X135835Y072547D01*
X135433Y072539D02*
X135827D01*
X135039D02*
X135433D01*
X134443D02*
X135039D01*
X134345Y072638D02*
X134443Y072539D01*
X134345Y072638D02*
X13464Y072933D01*
X135236*
X13563*
X136122*
X137402Y074909D02*
Y075591D01*
Y076083*
X168799Y081587D02*
Y081988D01*
X168898Y080768D02*
Y081587D01*
X169488Y082874D02*
Y083169D01*
Y082874D02*
X169685Y082677D01*
Y082587D02*
Y082677D01*
X179323Y077961D02*
Y078642D01*
Y077961D02*
X179331Y077953D01*
X178642D02*
X179331D01*
X163654Y081713D02*
X164468D01*
X164961Y079134D02*
X165445D01*
X133563Y072244D02*
Y072933D01*
X168799Y070374D02*
X169783D01*
X170768*
X171949*
X175205Y08061D02*
X175984D01*
X175205Y080217D02*
Y08061D01*
Y081004*
X165945Y073524D02*
Y074114D01*
G54D41*
X157992Y092992D02*
X158465Y09252D01*
X157992Y092992D02*
Y094094D01*
X159992Y092862D02*
X160433Y092421D01*
X159992Y092862D02*
Y094094D01*
X143602Y077559D02*
X144488Y078445D01*
X143602Y075825D02*
Y077559D01*
Y075825D02*
X14498Y074447D01*
X148228Y083866D02*
Y085039D01*
X14822Y083858D02*
X148228Y083866D01*
X149606Y084449D02*
Y085433D01*
X148917Y086122D02*
X149606Y085433D01*
X143799Y086122D02*
X148917D01*
X149213Y084449D02*
Y085039D01*
X143512Y086409D02*
X143799Y086122D01*
X143512Y086409D02*
Y087106D01*
X17126Y081587D02*
X171752Y082079D01*
X170472Y081587D02*
X170591Y081468D01*
X165264Y091732D02*
X166701D01*
X155665Y074169D02*
Y074841D01*
X155315Y073819D02*
X155665Y074169D01*
X154921Y073819D02*
X155315D01*
X147638Y09212D02*
X148665Y093148D01*
X147638Y090157D02*
X148228Y089567D01*
X147638Y090157D02*
Y09212D01*
X14685Y078445D02*
Y079048D01*
Y078445D02*
X147835Y077461D01*
X150646*
X155665Y072441*
X150787Y077953D02*
X154921Y073819D01*
X14872Y082087D02*
X148917Y082283D01*
X142421Y081693D02*
X143996D01*
X142126Y081398D02*
X142421Y081693D01*
X142126Y080696D02*
Y081398D01*
X140866Y091732D02*
X141339D01*
X142126Y089476D02*
Y090945D01*
X141339Y091732D02*
X142126Y090945D01*
X143512Y087508D02*
X143898Y087894D01*
X143512Y087106D02*
Y087508D01*
X143898Y087894D02*
Y088398D01*
X142512Y087106D02*
Y087508D01*
X142126Y087894D02*
X142512Y087508D01*
X142126Y087894D02*
Y088476D01*
X144488Y078445D02*
Y079146D01*
X142126Y078543D02*
Y079146D01*
Y078543D02*
X14311Y077559D01*
X149213Y078445D02*
Y079048D01*
Y078445D02*
X149705Y077953D01*
X150787*
X14498Y081693D02*
X145374Y082087D01*
X144488Y080696D02*
Y08189D01*
X145079Y08248*
X150984Y085039D02*
Y084646D01*
X149546Y088348D02*
X150295Y087598D01*
X148665Y088348D02*
X149546D01*
X150295Y084646D02*
Y087598D01*
X14498Y074447D02*
X14661D01*
Y072047D02*
Y072091D01*
X14311Y075591D02*
Y077559D01*
X149016Y081201D02*
X149213Y081004D01*
Y080598D02*
Y081004D01*
X145374Y082087D02*
X147638D01*
X14872*
X145079Y08248D02*
X14813D01*
X148622*
X14685Y080413D02*
Y080906D01*
X147146Y081201D02*
X149016D01*
X168693Y074417D02*
X168898D01*
X168504Y074213D02*
Y074508D01*
Y074606*
Y074803*
Y074606D02*
X168693Y074417D01*
X171752Y082079D02*
Y083268D01*
X172244Y08376*
X166937Y074417D02*
X167323D01*
X177551D02*
X177854Y074114D01*
Y072441D02*
Y074114D01*
X17628Y074417D02*
X177067D01*
X177551*
X17126Y072441D02*
Y073417D01*
Y072441D02*
D01*
X166445Y077559D02*
X16674Y077264D01*
X166929*
Y072441D02*
Y072736D01*
X169685Y072441D02*
Y072736D01*
Y074016D02*
Y074417D01*
X180118D02*
X180709D01*
X166437Y073917D02*
X166937Y074417D01*
X166437Y073032D02*
Y073917D01*
X165445Y080709D02*
Y080913D01*
X164961Y081398D02*
X165445Y080913D01*
X164067Y081398D02*
X164961D01*
X16378Y081685D02*
X164067Y081398D01*
X16378Y079089D02*
X163817Y079051D01*
X16378Y079089D02*
Y079921D01*
X165445D02*
Y080709D01*
X148622Y08563D02*
X149213Y085039D01*
X142512Y086622D02*
Y087106D01*
Y086622D02*
X143504Y08563D01*
X148622*
X14311Y075591D02*
X144783Y073917D01*
X145669*
X146506Y073081*
Y072195D02*
Y073081D01*
Y072195D02*
X14661Y072091D01*
X148228Y089567D02*
X149409D01*
X150984Y087992*
Y085039D02*
Y087992D01*
X148665Y090748D02*
X148917D01*
X151378Y08435D02*
Y088287D01*
X148917Y090748D02*
X151378Y088287D01*
G54D42*
X171437Y078937D02*
X172202D01*
X171398Y078976D02*
X171437Y078937D01*
X150984Y081791D02*
X151132Y081644D01*
X167224Y077756D02*
X168742D01*
X163189Y080807D02*
X164173D01*
X161417Y082579D02*
X163189Y080807D01*
X151791Y082579D02*
X161417D01*
X163287Y081102D02*
X16437D01*
X161516Y082874D02*
X163287Y081102D01*
X152077Y082874D02*
X161516D01*
X15876Y083268D02*
X161713D01*
X162098Y083654D02*
X16378D01*
X161713Y083268D02*
X162098Y083654D01*
X160728Y07687D02*
Y080807D01*
X159547Y081988D02*
X160728Y080807D01*
X152854Y081988D02*
X159547D01*
X160335Y076772D02*
Y080709D01*
X15935Y081693D02*
X160335Y080709D01*
X152756Y081693D02*
X15935D01*
X159941Y076673D02*
Y08061D01*
X159154Y081398D02*
X159941Y08061D01*
X152559Y081398D02*
X159154D01*
X159547Y076673D02*
Y080512D01*
X158957Y081102D02*
X159547Y080512D01*
X152441Y081102D02*
X158957D01*
X152362Y080807D02*
X15876D01*
X151378Y081791D02*
X152362Y080807D01*
X151378Y081791D02*
Y081968D01*
X151575D02*
X152441Y081102D01*
X152461Y082382D02*
X152854Y081988D01*
X152264Y082185D02*
X152756Y081693D01*
X151791Y082185D02*
X152264D01*
Y081693D02*
X152559Y081398D01*
X15876Y080807D02*
X159154Y080413D01*
X161516Y076083D02*
X165846D01*
X160728Y07687D02*
X161516Y076083D01*
X159547Y076673D02*
X161024Y075197D01*
X160827Y074902D02*
X166437D01*
X159154Y076575D02*
Y080413D01*
Y076575D02*
X160827Y074902D01*
X161024Y075197D02*
X166339D01*
X161122Y075492D02*
X16624D01*
X159941Y076673D02*
X161122Y075492D01*
X161319Y075787D02*
X166142D01*
X160335Y076772D02*
X161319Y075787D01*
X16437Y081102D02*
X164665Y080807D01*
X161909Y087795D02*
X163091D01*
X161741Y087964D02*
X161909Y087795D01*
X161741Y087964D02*
Y088384D01*
X163287Y087992D02*
Y088878D01*
X163091Y087795D02*
X163287Y087992D01*
X17126Y084941D02*
Y088681D01*
X170079Y08376D02*
X17126Y084941D01*
X170079Y08198D02*
Y08376D01*
X169193Y080807D02*
X169587Y080413D01*
X166831Y089567D02*
X170866D01*
X165741Y088477D02*
X166831Y089567D01*
X165741Y088384D02*
Y088477D01*
X16752Y089272D02*
X170669D01*
X166741Y088493D02*
X16752Y089272D01*
X166741Y088384D02*
Y088493D01*
X168333Y088976D02*
X16998D01*
X167741Y088384D02*
X168333Y088976D01*
X170669Y089272D02*
X17126Y088681D01*
X170866Y089567D02*
X171457Y088976D01*
X16998D02*
X170177Y08878D01*
X172244Y081587D02*
X172646Y081988D01*
X172441Y085039D02*
X172646Y084835D01*
Y081988D02*
Y084835D01*
X172316Y08792D02*
Y088384D01*
X172441Y085039D02*
Y087795D01*
X172316Y08792D02*
X172441Y087795D01*
X17185D02*
X172146Y0875D01*
X171654Y087598D02*
X17185Y087402D01*
X170768Y083465D02*
Y083661D01*
X17185Y084744*
Y087402*
X171457Y0875D02*
X171555Y087402D01*
X170472Y08376D02*
X171555Y084843D01*
Y087402*
X171457Y0875D02*
Y088976D01*
X169783Y080906D02*
Y081102D01*
Y080906D02*
X16998Y080709D01*
X167815Y079626D02*
X168307Y079134D01*
X169685Y081587D02*
X170079Y08198D01*
X164256Y083654D02*
X16515Y084547D01*
X16378Y083654D02*
X164256D01*
X16811Y080807D02*
X168996Y079921D01*
Y079902D02*
Y079921D01*
X168406Y080906D02*
X169193Y080118D01*
Y07988D02*
Y080118D01*
X16939Y079781D02*
Y080276D01*
X169587Y079781D02*
Y080413D01*
X169783Y079781D02*
Y080512D01*
X169488Y080807D02*
X169783Y080512D01*
X169488Y080807D02*
Y08139D01*
X16998Y079781D02*
Y080709D01*
X170177Y079781D02*
Y081004D01*
X152657Y083555D02*
X152846Y083366D01*
X152551Y083661D02*
X152657Y083555D01*
X176261Y069486D02*
Y069685D01*
X151181Y083169D02*
Y08378D01*
X169242Y076624D02*
X169882D01*
X16624Y075492D02*
X167028Y07628D01*
X168701*
X171358Y079781D02*
Y080413D01*
X172244Y081299D02*
Y081587D01*
X171358Y080413D02*
X172244Y081299D01*
X168209Y079626D02*
X168504Y079331D01*
Y079626D02*
X168602Y079528D01*
X182465Y084941D02*
Y085744D01*
X182087Y086122D02*
X182465Y085744D01*
X180618Y086122D02*
X182087D01*
X180217Y086524D02*
X180618Y086122D01*
X172638Y078937D02*
Y080217D01*
X16811Y077264D02*
X168307D01*
X168406Y077362*
X168742*
X168209Y076575D02*
X168622D01*
X16811Y076476D02*
X168209Y076575D01*
X167126Y075984D02*
X168799D01*
X167323Y075787D02*
X168898D01*
X16752Y075591D02*
X169409D01*
X168189Y07687D02*
X168484Y077165D01*
X170472Y075591D02*
Y075689D01*
X170768Y075394D02*
Y075689D01*
X172369Y074667D02*
Y075761D01*
X174624Y073167D02*
X175269D01*
X173327Y074464D02*
X174624Y073167D01*
X173327Y074464D02*
Y075295D01*
X174606Y073667D02*
X175269D01*
X173622Y074652D02*
Y075492D01*
Y074652D02*
X174606Y073667D01*
X173327Y075787D02*
X173622Y075492D01*
X172369Y074167D02*
X172933D01*
X172539Y076772D02*
X173032Y07628D01*
X172933Y074167D02*
X173032Y074266D01*
Y07628*
X171949Y076181D02*
X172369Y075761D01*
X171949Y076181D02*
Y076321D01*
X171752Y075886D02*
X172047Y075591D01*
X172736Y075787D02*
Y07628D01*
X172441Y076575D02*
X172736Y07628D01*
X178642Y080217D02*
X18061D01*
X177854Y079429D02*
X178642Y080217D01*
X175205Y079429D02*
X177854D01*
X17874Y079724D02*
X180654D01*
X177657Y078642D02*
X17874Y079724D01*
X175205Y078642D02*
X177657D01*
X179035Y079331D02*
X18126D01*
X177559Y077854D02*
X179035Y079331D01*
X175205Y077854D02*
X177559D01*
X179528Y077461D02*
X18022Y078154D01*
X174803Y077461D02*
X179528D01*
X181102Y077543D02*
X181398D01*
X175205Y077067D02*
X180626D01*
X181102Y077543*
X179717Y086024D02*
X180217Y086524D01*
X18126Y079331D02*
X181358Y079429D01*
X180654Y079724D02*
X181299Y08037D01*
X174705Y077362D02*
X174803Y077461D01*
X174705Y07678D02*
Y077362D01*
Y07678D02*
X175205Y07628D01*
X182421Y075492D02*
X182472Y075543D01*
X175205Y075492D02*
X182421D01*
X167913Y07874D02*
X16811D01*
X169783Y075965D02*
Y076321D01*
X169409Y075591D02*
X169783Y075965D01*
X16939Y075925D02*
Y076321D01*
X168799Y075984D02*
X168996Y076181D01*
Y076321*
X168898Y075787D02*
X169193Y076083D01*
Y076321*
X170354Y075906D02*
X170571Y076122D01*
Y076321*
X170217Y075965D02*
X170374Y076122D01*
Y076321*
X169882Y076624D02*
X16998Y076526D01*
Y076321D02*
Y076526D01*
X170472Y075689D02*
X170768Y075984D01*
Y076321*
X170965Y075886D02*
Y076321D01*
X170768Y075689D02*
X170965Y075886D01*
X171161Y075689D02*
Y076321D01*
X171063Y075591D02*
X171161Y075689D01*
X171358Y075394D02*
Y076321D01*
X171654Y075492D02*
Y075689D01*
X171555Y075787D02*
X171654Y075689D01*
X171555Y075787D02*
Y076321D01*
X171752Y075886D02*
Y076321D01*
X172202Y076575D02*
X172441D01*
X172202Y076772D02*
X172539D01*
X170472Y074311D02*
Y074417D01*
X172835Y07876D02*
X173022D01*
X172618Y078543D02*
X172835Y07876D01*
X172202Y078543D02*
X172618D01*
X172913Y078494D02*
X173248D01*
X172766Y078346D02*
X172913Y078494D01*
X172202Y077756D02*
X173228D01*
X172202Y077953D02*
X173105D01*
X17377Y078994D02*
X174205Y079429D01*
X17377Y078617D02*
Y078994D01*
X173105Y077953D02*
X17377Y078617D01*
X172953Y07815D02*
X173022Y078218D01*
X172202Y07815D02*
X172953D01*
X172202Y078346D02*
X172766D01*
X172441Y07874D02*
X172638Y078937D01*
X172202Y07874D02*
X172441D01*
X17313Y076968D02*
X173622Y076476D01*
Y076083D02*
X174205Y0755D01*
X173622Y076083D02*
Y076476D01*
X172202Y076968D02*
X17313D01*
X174205Y07628D02*
Y076287D01*
X173327Y077165D02*
X174205Y076287D01*
X172202Y077165D02*
X173327D01*
X173228Y077756D02*
X174114Y078642D01*
X174205*
X173909Y077362D02*
X174205Y077067D01*
X172202Y077362D02*
X173909D01*
X172202Y077559D02*
X173909D01*
X174205Y077854*
Y075492D02*
Y0755D01*
X171555Y079134D02*
X172202D01*
X169252Y080413D02*
X16939Y080276D01*
X171555Y080079D02*
X171772Y080295D01*
X171555Y079781D02*
Y080079D01*
X170945Y080177D02*
X171063D01*
X170768Y08D02*
X170945Y080177D01*
X170768Y079781D02*
Y08D01*
X170374Y080276D02*
X170472Y080374D01*
X170374Y079781D02*
Y080276D01*
X170571Y079781D02*
Y080079D01*
X168484Y077165D02*
X168742D01*
X168406Y078051D02*
X168504Y077953D01*
X168742*
X167224Y079823D02*
Y08002D01*
X166535Y080709D02*
X167224Y08002D01*
X166445Y080709D02*
X166535D01*
X166732Y079921D02*
X167913Y07874D01*
X166445Y079921D02*
X166732D01*
X16811Y078937D02*
X168209D01*
X167224Y079823D02*
X16811Y078937D01*
X168504Y079331D02*
X168742D01*
X168602Y079528D02*
X168742D01*
X149795Y083366D02*
X14998D01*
X149311Y08385D02*
X149795Y083366D01*
X150886Y082874D02*
X151181Y083169D01*
X150394Y08378D02*
Y083957D01*
X150197Y084154D02*
X150394Y083957D01*
X149813Y082185D02*
X14998D01*
X149705Y082382D02*
X14998D01*
X142126Y080413D02*
Y080696D01*
X149213Y082579D02*
X14998D01*
X148917Y082776D02*
X14998D01*
X149311Y082382D02*
X149705D01*
X149213Y082283D02*
X149311Y082382D01*
X149213Y082087D02*
Y082283D01*
X1497Y082185D02*
X149813D01*
X149601Y082087D02*
X1497Y082185D01*
X148622Y083169D02*
X14998D01*
X148622Y08248D02*
X148917Y082776D01*
Y082283D02*
X149213Y082579D01*
X150591Y08378D02*
Y084154D01*
X150295Y084449D02*
X150591Y084154D01*
X150295Y084449D02*
Y084646D01*
X150984Y08378D02*
Y084646D01*
X151378Y08378D02*
Y08435D01*
X150787Y08378D02*
Y08435D01*
X150689Y084449D02*
X150787Y08435D01*
X150984Y081791D02*
Y081968D01*
X150787Y081496D02*
Y081968D01*
Y081496D02*
X150886Y081398D01*
X148327Y082874D02*
X14872D01*
X148819Y082972*
X14998*
X16403Y07687D02*
X168189D01*
X151791Y082382D02*
X152461D01*
X169488Y08139D02*
X169685Y081587D01*
X151791Y083366D02*
D01*
Y082972D02*
X151978D01*
X152077Y082874*
X151791Y083366D02*
X152264D01*
X151791Y083169D02*
X152067D01*
X152165Y083071*
X152551*
X152846Y083366*
X151791Y083563D02*
X151968D01*
X152067*
X152165Y083661*
X152551*
X151575Y08378D02*
Y084007D01*
X151772Y084203*
X166339Y075197D02*
X167126Y075984D01*
X166437Y074902D02*
X167323Y075787D01*
X166831Y076476D02*
X16811D01*
X166142Y075787D02*
X166831Y076476D01*
X172638Y080217D02*
X175Y082579D01*
X177067*
X178051Y086024D02*
X179717D01*
X167323Y082587D02*
X167815Y082094D01*
Y079626D02*
Y082094D01*
X167323Y082587D02*
Y083555D01*
X166831Y084055D02*
X167913D01*
X168406Y080906D02*
Y083563D01*
X16811Y080807D02*
Y08376D01*
X168504Y079626D02*
Y079823D01*
X16811Y08376D02*
X168799Y084449D01*
Y087697*
X168406Y083563D02*
X169094Y084252D01*
Y08803*
X168741Y088384D02*
X169094Y08803D01*
X16939Y08806D02*
X169713Y088384D01*
X169193Y080807D02*
Y083957D01*
X16939Y084154*
Y08806*
X169783Y083366D02*
Y083858D01*
X170177Y084252*
Y08878*
X167815Y077461D02*
X167913Y077559D01*
X168742*
X166535Y074606D02*
X16752Y075591D01*
X165846Y074606D02*
X166535D01*
X170472Y083169D02*
X170866D01*
X172146Y084449*
Y0875*
X170866Y089961D02*
X171654Y089173D01*
X167913Y089961D02*
X170866D01*
X16752Y090354D02*
X167913Y089961D01*
X171654Y087598D02*
Y089173D01*
X16752Y092126D02*
Y092224D01*
X167028Y092717D02*
X16752Y092224D01*
X17185Y087795D02*
Y089567D01*
X171063Y090354D02*
X17185Y089567D01*
X168209Y090354D02*
X171063D01*
X167913Y09065D02*
X168209Y090354D01*
X167913Y09065D02*
Y09311D01*
X167323Y093701D02*
X167913Y09311D01*
X177067Y082579D02*
X177854Y083366D01*
Y085827*
X178051Y086024*
G54D43*
X150886Y080323D02*
X151189Y08002D01*
X152657*
X157972Y079724D02*
Y080217D01*
Y070768D02*
Y079724D01*
X152657Y08002D02*
X153248D01*
X153543Y079724D02*
X157972D01*
X153248Y08002D02*
X153543Y079724D01*
X156102Y083355D02*
X156113Y083366D01*
X157972*
X172244Y08376D02*
Y084055D01*
X179823Y084154D02*
X18435D01*
X173032D02*
X177165D01*
G54D44*
X163583Y093996D02*
X163878Y094291D01*
X163583Y090256D02*
Y093996D01*
X162741Y089414D02*
X163583Y090256D01*
X163878Y094291D02*
X164673D01*
X162741Y088384D02*
Y089414D01*
X163287Y088878D02*
Y089272D01*
X163976Y089961D02*
X167126D01*
X163287Y089272D02*
X163976Y089961D01*
X167126D02*
X16752Y090354D01*
X164673Y094291D02*
X165264Y093701D01*
X162878Y077051D02*
X162894Y077067D01*
X162167Y077051D02*
X162878D01*
X162167D02*
Y077695D01*
X175492Y07126D02*
X176261Y070491D01*
X175261Y069486D02*
Y070382D01*
X174678Y070965D02*
X175261Y070382D01*
X176261Y069685D02*
Y070491D01*
X177261Y069486D02*
Y069983D01*
X179316Y088384D02*
X179331Y088369D01*
Y086524D02*
Y088369D01*
X178316Y088384D02*
X178346Y088353D01*
Y086524D02*
Y088353D01*
X17815Y08189D02*
X17924Y08298D01*
Y085433*
X174803Y08189D02*
X17815D01*
X17924Y085433D02*
X179331Y085524D01*
X175197Y082185D02*
X177362D01*
X178346Y083169*
Y085524*
X167913Y070965D02*
X174678D01*
X175689Y071555D02*
X177261Y069983D01*
X167224Y071555D02*
X175689D01*
X16752Y07126D02*
X175492D01*
X16752Y090354D02*
Y092126D01*
X166717Y092717D02*
X167028D01*
X166732Y093701D02*
X167323D01*
X167284Y069486D02*
Y069625D01*
X166732Y070177D02*
X167284Y069625D01*
X15876Y070177D02*
X166732D01*
X15876Y071358D02*
Y080315D01*
X174213Y086516D02*
D01*
X17617D02*
X176181Y086527D01*
X174213Y086516D02*
X17617D01*
X177264Y085433D02*
Y085524D01*
X176957Y085127D02*
X177264Y085433D01*
X176181Y085127D02*
X176957D01*
G54D45*
X15128Y083268D02*
X151575Y083563D01*
X151181Y083169D02*
X15128Y083268D01*
X168996Y076321D02*
Y076535D01*
X169085Y076624*
X169242*
X151575Y083563D02*
Y08378D01*
X175205Y081004D02*
D01*
G54D46*
X13144Y07455D02*
X132649D01*
Y07505D02*
X135149D01*
G54D47*
X16811Y07874D02*
X168307Y078543D01*
X168742*
X168307Y079134D02*
X168504Y078937D01*
X168209D02*
X168406Y07874D01*
X168012Y078346D02*
X168742D01*
X168406Y07874D02*
X168742D01*
X168504Y078937D02*
X168742D01*
G54D48*
X172284Y068544D02*
Y069486D01*
X172047Y068307D02*
X172284Y068544D01*
X129134Y078937D02*
X129724Y079528D01*
X129134Y072933D02*
Y078937D01*
Y072933D02*
X13376Y068307D01*
X172047*
G54D49*
X165741Y088384D03*
X164741D03*
X162741D03*
X161741D03*
X166741D03*
X167741D03*
X168741D03*
X170698D03*
X172284Y069486D03*
X171284D03*
X170284D03*
X169284D03*
X168284D03*
X167284D03*
X166284D03*
X165284D03*
X174261D03*
X175261D03*
X176261D03*
X177261D03*
X178261D03*
X179261D03*
X179316Y088384D03*
X178316D03*
X177316D03*
X176316D03*
X175316D03*
X174316D03*
X173316D03*
G54D50*
X163741Y088384D03*
G54D51*
X169713Y088384D03*
X172316D03*
G54D52*
X130906Y093504D03*
X183268Y069094D03*
X130118D03*
X183268Y093504D03*
G54D53*
X182472Y081543D03*
X183472D03*
X182472Y080543D03*
X183472D03*
X182472Y079543D03*
X183472D03*
X182472Y078543D03*
X183472D03*
X182472Y077543D03*
X183472D03*
X182472Y076543D03*
X183472D03*
X182472Y075543D03*
G54D54*
X183472Y075543D03*
G54D55*
X183465Y084941D03*
G54D56*
X182465Y084941D03*
G54D57*
X168209Y085205D03*
X170709Y087205D03*
X168209D03*
X170709Y085205D03*
G54D58*
X166732Y090701D03*
Y091701D03*
Y092701D03*
G54D59*
X166732Y093701D03*
G54D60*
X148665Y088348D03*
Y090748D03*
Y093148D03*
X155665Y088348D03*
Y090748D03*
Y093148D03*
X14661Y074447D03*
Y072047D03*
Y069647D03*
X13961Y074447D03*
Y072047D03*
Y069647D03*
X155665Y074447D03*
Y072047D03*
Y069647D03*
X148665Y074447D03*
Y072047D03*
Y069647D03*
G54D61*
X14311Y093504D03*
Y091535D03*
G54D62*
X131644Y082047D03*
X132924Y080157D03*
G54D63*
X134104Y082047D03*
G54D64*
X162008Y092421D03*
Y091437D03*
X162992Y09252D03*
X156791Y080315D03*
X155512D03*
X154035D03*
X154528Y087894D03*
X156594Y094094D03*
Y093504D03*
X129035Y085039D03*
Y08563D03*
X156594Y094685D03*
X137205Y09311D03*
X129035Y08435D03*
Y086319D03*
X161024Y092717D03*
X145374D03*
Y092224D03*
X156988Y086122D03*
X15748D03*
X159449D03*
X159941D03*
X168012Y086516D03*
X167618D03*
X167224D03*
X157972Y083366D03*
Y080217D03*
X169291Y091732D03*
X179823Y084154D03*
X177165D03*
X173032D03*
G54D65*
X159449Y091535D03*
X158957Y09252D03*
Y090551D03*
X158465Y089567D03*
X15748Y091535D03*
X157972Y086614D03*
X15748Y08563D03*
X156988Y09252D03*
X156496Y091535D03*
X156988Y090551D03*
Y088583D03*
X156496Y08563D03*
X155512D03*
Y075787D03*
X156004Y072835D03*
X154528Y093504D03*
X15502Y09252D03*
X154528Y091535D03*
Y08563D03*
Y075787D03*
Y07185D03*
Y069882D03*
X153543Y093504D03*
X154035Y09252D03*
X153543Y091535D03*
X154035Y090551D03*
Y088583D03*
X153543Y08563D03*
Y075787D03*
Y073819D03*
X154035Y072835D03*
X153543Y07185D03*
Y069882D03*
X152559Y093504D03*
X153051Y09252D03*
Y090551D03*
Y088583D03*
X152559Y08563D03*
Y073819D03*
X153051Y072835D03*
X152559Y07185D03*
Y069882D03*
X151575Y091535D03*
X152067Y090551D03*
Y088583D03*
X151575Y075787D03*
X152067Y074803D03*
X151575Y073819D03*
X152067Y072835D03*
X151575Y07185D03*
Y069882D03*
X150591Y093504D03*
X151083Y09252D03*
X150591Y091535D03*
X151083Y090551D03*
X150591Y075787D03*
X151083Y074803D03*
X150591Y073819D03*
X151083Y072835D03*
X150591Y07185D03*
Y069882D03*
X149606Y093504D03*
X150098Y09252D03*
X149606Y091535D03*
X150098Y090551D03*
X149606Y081693D03*
X150098Y080709D03*
Y07874D03*
Y076772D03*
X149606Y075787D03*
X150098Y074803D03*
X149606Y073819D03*
X150098Y072835D03*
X149606Y07185D03*
Y069882D03*
X148622Y081693D03*
Y079724D03*
X149114Y076772D03*
X148622Y075787D03*
X149114Y072835D03*
X147638Y093504D03*
Y087598D03*
X14813Y084646D03*
X147638Y081693D03*
X14813Y080709D03*
X147638Y079724D03*
X14813Y07874D03*
Y076772D03*
X147638Y075787D03*
Y073819D03*
X14813Y072835D03*
X147638Y07185D03*
Y069882D03*
X146654Y093504D03*
X147146Y09252D03*
X146654Y091535D03*
X147146Y090551D03*
Y088583D03*
X146654Y077756D03*
X147146Y076772D03*
X146654Y075787D03*
X147146Y072835D03*
X146161Y09252D03*
X145669Y091535D03*
X146161Y090551D03*
X145669Y089567D03*
Y087598D03*
Y083661D03*
Y081693D03*
X146161Y080709D03*
X145669Y079724D03*
X146161Y07874D03*
X145669Y077756D03*
X146161Y076772D03*
X145669Y075787D03*
Y07185D03*
Y069882D03*
X144685Y091535D03*
X145177Y090551D03*
X144685Y089567D03*
X145177Y088583D03*
X144685Y087598D03*
X145177Y086614D03*
Y084646D03*
X144685Y083661D03*
X145177Y080709D03*
Y07874D03*
X144685Y077756D03*
X145177Y076772D03*
X144685Y075787D03*
X145177Y072835D03*
X144685Y07185D03*
Y069882D03*
X143701Y093504D03*
X144193Y09252D03*
X143701Y091535D03*
X144193Y086614D03*
Y084646D03*
X143701Y083661D03*
X144193Y082677D03*
X143701Y079724D03*
X144193Y076772D03*
X143701Y073819D03*
X144193Y072835D03*
X143701Y07185D03*
Y069882D03*
X143209Y09252D03*
Y090551D03*
X142717Y089567D03*
X143209Y088583D03*
Y084646D03*
X142717Y083661D03*
X143209Y082677D03*
Y080709D03*
X142717Y079724D03*
X143209Y07874D03*
X142717Y075787D03*
X143209Y074803D03*
X142717Y073819D03*
X143209Y072835D03*
X142717Y07185D03*
Y069882D03*
X141732Y093504D03*
X142224Y09252D03*
X141732Y087598D03*
Y08563D03*
X142224Y084646D03*
X141732Y083661D03*
X142224Y082677D03*
X141732Y081693D03*
Y077756D03*
X142224Y076772D03*
X141732Y075787D03*
X142224Y074803D03*
X141732Y073819D03*
X142224Y072835D03*
X141732Y07185D03*
Y069882D03*
X14124Y090551D03*
X140748Y089567D03*
X14124Y088583D03*
X140748Y087598D03*
X14124Y086614D03*
X140748Y08563D03*
Y081693D03*
X14124Y080709D03*
X140748Y079724D03*
X14124Y07874D03*
X140748Y077756D03*
X14124Y076772D03*
X140748Y075787D03*
X14124Y074803D03*
X140748Y073819D03*
X14124Y072835D03*
X140748Y07185D03*
Y069882D03*
X140256Y07874D03*
X139764Y077756D03*
X140256Y076772D03*
X139764Y075787D03*
X140256Y072835D03*
X184055Y091535D03*
Y07185D03*
X183563Y090551D03*
X183071Y089567D03*
X183563Y088583D03*
X183071Y08563D03*
Y083661D03*
X183563Y082677D03*
Y074803D03*
X183071Y073819D03*
Y07185D03*
X183563Y070866D03*
X182579Y090551D03*
X182087Y089567D03*
X182579Y088583D03*
Y086614D03*
X182087Y08563D03*
Y083661D03*
X182579Y082677D03*
Y074803D03*
X182087Y073819D03*
Y07185D03*
X182579Y070866D03*
X182087Y067913D03*
X181102Y093504D03*
X181594Y09252D03*
Y090551D03*
X181102Y089567D03*
X181594Y088583D03*
Y086614D03*
X181102Y08563D03*
X181594Y084646D03*
X181102Y083661D03*
X181594Y082677D03*
X181102Y081693D03*
X181594Y076772D03*
X181102Y075787D03*
X181594Y074803D03*
X181102Y073819D03*
Y07185D03*
X181594Y070866D03*
X181102Y069882D03*
X181594Y068898D03*
X181102Y067913D03*
X180118Y093504D03*
X18061Y09252D03*
Y090551D03*
X180118Y089567D03*
X18061Y088583D03*
Y084646D03*
X180118Y083661D03*
X18061Y082677D03*
X180118Y081693D03*
X18061Y080709D03*
Y076772D03*
X180118Y075787D03*
X18061Y074803D03*
X180118Y07185D03*
X18061Y070866D03*
X180118Y069882D03*
X18061Y068898D03*
X180118Y067913D03*
X179134Y093504D03*
X179626Y09252D03*
Y090551D03*
X179134Y089567D03*
X179626Y084646D03*
Y082677D03*
X179134Y081693D03*
X179626Y080709D03*
X179134Y077756D03*
X179626Y076772D03*
X179134Y075787D03*
Y07185D03*
X179626Y070866D03*
Y068898D03*
X179134Y067913D03*
X17815Y093504D03*
X178642Y09252D03*
Y090551D03*
X17815Y089567D03*
X178642Y080709D03*
X17815Y077756D03*
X178642Y076772D03*
X17815Y075787D03*
X178642Y074803D03*
X17815Y07185D03*
X178642Y070866D03*
Y068898D03*
X17815Y067913D03*
X177165Y093504D03*
X177657Y09252D03*
Y090551D03*
X177165Y089567D03*
Y083661D03*
X177657Y080709D03*
X177165Y079724D03*
X177657Y076772D03*
X177165Y075787D03*
X177657Y074803D03*
X177165Y07185D03*
X177657Y070866D03*
Y068898D03*
X177165Y067913D03*
X176181Y093504D03*
X176673Y09252D03*
Y090551D03*
X176181Y089567D03*
Y087598D03*
Y083661D03*
X176673Y080709D03*
X176181Y079724D03*
X176673Y076772D03*
X176181Y075787D03*
Y07185D03*
X176673Y068898D03*
X176181Y067913D03*
X175197Y093504D03*
X175689Y09252D03*
Y090551D03*
X175197Y089567D03*
Y087598D03*
Y08563D03*
Y083661D03*
X175689Y068898D03*
X175197Y067913D03*
X174213Y093504D03*
X174705Y09252D03*
Y090551D03*
X174213Y089567D03*
Y087598D03*
X174705Y084646D03*
Y068898D03*
X174213Y067913D03*
X173228Y093504D03*
X17372Y09252D03*
Y090551D03*
X173228Y089567D03*
Y087598D03*
X17372Y086614D03*
X173228Y08563D03*
Y069882D03*
X17372Y068898D03*
X173228Y067913D03*
X172244Y093504D03*
X172736Y09252D03*
Y090551D03*
X172244Y089567D03*
X172736Y086614D03*
X17126Y093504D03*
X171752Y09252D03*
Y090551D03*
X170276Y093504D03*
X170768Y09252D03*
X169291Y093504D03*
X169783Y09252D03*
X168307Y093504D03*
X168799Y09252D03*
X167323Y087598D03*
X166339Y089567D03*
Y087598D03*
X166831Y082677D03*
X166339Y07185D03*
X166831Y070866D03*
X165846Y090551D03*
X165354Y089567D03*
X165846Y086614D03*
Y070866D03*
X164862Y090551D03*
X16437Y089567D03*
Y087598D03*
X164862Y086614D03*
X16437Y08563D03*
Y077756D03*
Y073819D03*
X164862Y072835D03*
X16437Y07185D03*
X163386Y087598D03*
X163878Y086614D03*
X163386Y08563D03*
Y079724D03*
Y077756D03*
Y073819D03*
X163878Y072835D03*
X163386Y07185D03*
X162894Y090551D03*
X162402Y089567D03*
X162894Y086614D03*
X162402Y08563D03*
X162894Y084646D03*
Y082677D03*
X162402Y079724D03*
X162894Y07874D03*
Y076772D03*
X162402Y073819D03*
X162894Y072835D03*
X162402Y07185D03*
X161417Y087598D03*
X161909Y086614D03*
X161417Y08563D03*
X161909Y084646D03*
X161417Y083661D03*
Y079724D03*
Y077756D03*
Y073819D03*
X161909Y072835D03*
X161417Y07185D03*
X160925Y088583D03*
X160433Y087598D03*
X160925Y086614D03*
X160433Y08563D03*
X160925Y084646D03*
X160433Y083661D03*
Y081693D03*
Y073819D03*
X160925Y072835D03*
X160433Y07185D03*
X159941Y086614D03*
X159449Y08563D03*
X159941Y084646D03*
X159449Y083661D03*
Y075787D03*
X159941Y074803D03*
X159449Y073819D03*
X159941Y072835D03*
X159449Y07185D03*
X158957Y084646D03*
X158465Y083661D03*
Y069882D03*
X15748Y077756D03*
Y075787D03*
Y073819D03*
Y07185D03*
Y069882D03*
X156988Y07874D03*
X156496Y077756D03*
X156988Y076772D03*
Y074803D03*
Y072835D03*
X156004Y07874D03*
X155512Y077756D03*
X154528Y083661D03*
X15502Y07874D03*
X154528Y077756D03*
X154035Y07874D03*
X153543Y077756D03*
X153051Y07874D03*
X152559Y077756D03*
X152067Y07874D03*
X151083D03*
X139764Y093504D03*
Y091535D03*
Y089567D03*
Y087598D03*
Y08563D03*
Y083661D03*
Y081693D03*
X13878Y093504D03*
Y091535D03*
Y089567D03*
X139272Y086614D03*
X13878Y08563D03*
Y081693D03*
X139272Y080709D03*
X13878Y079724D03*
X137795Y093504D03*
X138287Y09252D03*
X137795Y091535D03*
X138287Y090551D03*
X137795Y089567D03*
X138287Y088583D03*
Y086614D03*
X137795Y08563D03*
X138287Y084646D03*
X137795Y083661D03*
X138287Y082677D03*
X137795Y081693D03*
X138287Y080709D03*
X137795Y079724D03*
X138287Y07874D03*
X137795Y077756D03*
X138287Y076772D03*
X137795Y075787D03*
X138287Y074803D03*
Y072835D03*
X137795Y069882D03*
X137303Y09252D03*
Y090551D03*
Y088583D03*
Y086614D03*
X136811Y08563D03*
X137303Y084646D03*
X136811Y083661D03*
X137303Y082677D03*
X136811Y081693D03*
X137303Y080709D03*
X136811Y079724D03*
X137303Y07874D03*
X136811Y077756D03*
X137303Y076772D03*
X136811Y075787D03*
Y073819D03*
Y069882D03*
X135827Y08563D03*
X136319Y084646D03*
X135827Y083661D03*
X136319Y082677D03*
X135827Y081693D03*
X136319Y080709D03*
X135827Y079724D03*
X136319Y07874D03*
X135827Y077756D03*
X136319Y076772D03*
X135827Y069882D03*
X135335Y084646D03*
X134843Y083661D03*
X135335Y082677D03*
Y080709D03*
X134843Y079724D03*
X135335Y07874D03*
Y076772D03*
X134843Y069882D03*
X133858Y08563D03*
X13435Y084646D03*
X133858Y083661D03*
X13435Y080709D03*
X133858Y079724D03*
X13435Y07874D03*
Y076772D03*
X133858Y069882D03*
X133366Y090551D03*
Y088583D03*
Y086614D03*
Y084646D03*
Y07874D03*
Y076772D03*
Y074803D03*
X132382Y07874D03*
X131398Y086614D03*
Y076772D03*
X130413D03*
Y074803D03*
X129921Y073819D03*
X130413Y072835D03*
X134941Y093799D03*
X13435Y09311D03*
X133957D03*
X130709Y089862D03*
X131594Y090256D03*
Y09065D03*
X158465Y09252D03*
X160433Y092421D03*
X175984Y080217D03*
Y081004D03*
X174114Y074803D03*
X174409Y074409D03*
X168504Y073425D03*
X169193Y072835D03*
X168504D03*
X170177Y073917D03*
X170866Y072835D03*
X170177D03*
X171457Y083366D03*
X166634Y082874D03*
X166732Y083465D03*
X168799Y083366D03*
X170472Y078445D03*
X170866Y079035D03*
X171457Y078051D03*
Y078642D03*
X171476Y079055D03*
X169783Y077854D03*
Y077362D03*
X148228Y085039D03*
X149606Y084449D03*
X149213D03*
X167323Y085827D03*
X169783Y085532D03*
X152067Y084755D03*
X152657Y08002D03*
X15876Y083268D03*
Y080315D03*
X15315Y080512D03*
Y082283D03*
X165846Y076083D03*
X164173Y080807D03*
X170472Y08376D03*
X164665Y080807D03*
X169783Y081102D03*
X167323Y080512D03*
X166831Y082087D03*
X170177Y081004D03*
X162894Y077067D03*
X162167Y077695D03*
X151772Y084203D03*
X152657Y084055D03*
X180118Y087303D03*
X177256D03*
X150591Y082382D03*
X15128D03*
Y083268D03*
X150886Y082874D03*
X154429Y083366D03*
X153839Y083957D03*
X135335Y086614D03*
X134843D03*
X13622Y085532D03*
Y085925D03*
X133661Y086909D03*
X133268D03*
X170472Y077953D03*
X17126Y083071D03*
X168701Y07628D03*
X172244Y083169D03*
X17372Y080118D03*
X170768Y083465D03*
X170472Y083169D03*
X16811Y077264D03*
X170472Y075591D03*
X170768Y075394D03*
X173327Y075295D03*
Y075787D03*
X172047Y075591D03*
X172736Y075787D03*
X17185Y075D03*
X171654Y074803D03*
X175197Y082185D03*
X174803Y08189D03*
X18061Y080217D03*
X168986Y075295D03*
X16939Y075925D03*
X171063Y075591D03*
X171358Y075394D03*
X173022Y07876D03*
Y078218D03*
X171063Y080177D03*
X150197Y084154D03*
X149213Y082087D03*
X149601D03*
X143996Y081693D03*
X150689Y084449D03*
X14498Y081693D03*
X152264Y083366D03*
Y081693D03*
X147638Y082087D03*
X14813Y08248D03*
X146063Y082874D03*
X146457Y083169D03*
X14685Y080906D03*
X147146Y081201D03*
X168504Y074213D03*
Y074508D03*
Y074803D03*
X173022Y081191D03*
X172244Y08376D03*
X168209Y079626D03*
X168504Y079823D03*
X168799Y087697D03*
X169783Y083366D03*
X167815Y077461D03*
X167913Y070965D03*
X167224Y071555D03*
X16752Y07126D03*
X165846Y074606D03*
X163287Y082677D03*
X16378Y085335D03*
X165846Y077559D03*
X135827Y072539D03*
X135433D03*
X135039D03*
X135236Y072933D03*
X13563D03*
X136122D03*
X137402Y075591D03*
Y076083D03*
X168799Y081988D03*
X169488Y083169D03*
X170669Y081004D03*
X167028Y079134D03*
X172244Y084055D03*
X166929Y077264D03*
Y072736D03*
X169685Y074016D03*
Y072736D03*
X179331Y077953D03*
X178642D03*
X180709Y074409D03*
X15876Y070177D03*
Y071358D03*
X165453Y080315D03*
X16378Y079921D03*
X164961Y079134D03*
X174213Y086516D03*
X133563Y072933D03*
Y072244D03*
X165059Y076476D03*
X168799Y070374D03*
X169783D03*
X170768D03*
X171949D03*
X164862Y080413D03*
X165945Y080315D03*
Y074114D03*
Y073524D03*
X158465Y071752D03*
X158366Y079134D03*
X158465Y075197D03*
X15064Y08502D03*
X15063Y086348D03*
M02*