%FSTAX24Y24*%
%MOIN*%
%SFA1B1*%

%IPPOS*%
%ADD47C,0.010000*%
%LNpcb1-1*%
%LPD*%
G36*
X156006Y091601D02*
X156246D01*
Y091521*
X156326*
Y091441*
X156406*
Y091361*
X156486*
Y091281*
X156566*
Y091201*
X156646*
Y091121*
Y091041*
Y090961*
Y090881*
Y090801*
Y090721*
X156726*
Y090641*
X156646*
Y090561*
Y090481*
Y090401*
Y090321*
X156566*
Y090241*
Y090161*
X156486*
Y090081*
X156406*
Y090001*
X156246*
Y089921*
X156166*
Y089841*
X155846*
Y089761*
X155606*
Y089841*
X155286*
Y089921*
X155206*
Y090001*
X155126*
Y090081*
X154966*
Y090161*
Y090241*
X154886*
Y090321*
Y090401*
X154806*
Y090481*
Y090561*
Y090641*
Y090721*
Y090801*
Y090881*
Y090961*
Y091041*
Y091121*
X154886*
Y091201*
X154966*
Y091281*
Y091361*
X155046*
Y091441*
X155126*
Y091521*
X155206*
Y091601*
X155446*
Y091681*
X156006*
Y091601*
G37*
G36*
X133977Y07022D02*
X133897D01*
Y0703*
X133977*
Y07022*
G37*
G36*
X163577Y07646D02*
X163497D01*
Y07654*
X163577*
Y07646*
G37*
G36*
X152057Y0707D02*
X151977D01*
Y07078*
X152057*
Y0707*
G37*
G36*
X156857Y07006D02*
X156777D01*
Y07014*
X156857*
Y07006*
G37*
G36*
X154486Y089361D02*
X154566D01*
Y089281*
X154646*
Y089201*
X154726*
Y089121*
X154806*
Y089041*
Y088961*
Y088881*
X154726*
Y088961*
Y089041*
X154646*
Y089121*
Y089201*
X154566*
Y089281*
X154406*
Y089361*
X153926*
Y089281*
X153766*
Y089201*
X153686*
Y089121*
X153606*
Y089201*
Y089281*
X153686*
Y089361*
X153846*
Y089441*
X154486*
Y089361*
G37*
G36*
X171257Y07006D02*
X171177D01*
Y07014*
X171257*
Y07006*
G37*
G36*
X144697Y07678D02*
X144617D01*
Y07686*
X144697*
Y07678*
G37*
G36*
X148377Y07118D02*
X148297D01*
Y07126*
X148377*
Y07118*
G37*
G36*
X135737Y07166D02*
X135657D01*
Y07174*
X135737*
Y07166*
G37*
G36*
X141977Y0715D02*
X141897D01*
Y07158*
X141977*
Y0715*
G37*
G36*
X143897Y07182D02*
X143817D01*
Y0719*
X143897*
Y07182*
G37*
G36*
X135577D02*
X135497D01*
Y0719*
X135577*
Y07182*
G37*
G36*
X135737Y07134D02*
X135657D01*
Y07142*
X135737*
Y07134*
G37*
G36*
X133817D02*
X133737D01*
Y07142*
X133817*
Y07134*
G37*
G36*
X161977D02*
X161897D01*
Y07142*
X161977*
Y07134*
G37*
G36*
X144697D02*
X144617D01*
Y07142*
X144697*
Y07134*
G37*
G36*
X161017Y07774D02*
X160937D01*
Y07782*
X161017*
Y07774*
G37*
G36*
X137337D02*
X137257D01*
Y07782*
X137337*
Y07774*
G37*
G36*
X183268Y070502D02*
D01*
X183453Y070487*
X183454*
X183674Y070434*
X183675*
X183885Y070347*
X183886Y070346*
X184079Y070228*
X18408Y070227*
X184253Y07008*
Y070079*
X184401Y069907*
Y069906*
X18452Y069712*
X184607Y069502*
Y069501*
X18466Y06928*
X184675Y069095*
X184674Y069093*
Y069091*
X184673*
X184672Y06909*
X18467Y069089*
X184668*
X18402*
X184018Y06909*
X184017*
X184016Y069091*
X184015Y069092*
Y069094*
X184001Y069227*
X183958Y069371*
X183887Y069503*
X183792Y069619*
X183676Y069714*
X183544Y069785*
X1834Y069828*
X183272Y069841*
X183271*
X18327Y06984*
X183268Y069839*
X183266Y06984*
X183264Y069841*
X183263Y069843*
X183262Y069844*
Y070496*
Y070497*
X183263Y070498*
X183264Y0705*
X183266Y070501*
X183268Y070502*
G37*
G36*
X177017Y07774D02*
X176937D01*
Y07782*
X177017*
Y07774*
G37*
G36*
X177337Y07742D02*
X177257D01*
Y0775*
X177337*
Y07742*
G37*
G36*
X130118Y070502D02*
X130119D01*
X130303Y070487*
X130304*
X130525Y070434*
X130526*
X130735Y070347*
X130736*
Y070346*
X13093Y070228*
Y070227*
X131103Y07008*
X131104Y070079*
X131251Y069907*
Y069906*
X13137Y069712*
X131457Y069502*
X131458Y069501*
X131511Y06928*
X131525Y069095*
Y069093*
X131524Y069091*
X131522Y06909*
X13152Y069089*
X131518*
X13087*
X130869Y06909*
X130867*
Y069091*
X130866Y069092*
X130865Y069094*
X130852Y069227*
X130808Y069371*
X130738Y069503*
X130642Y069619*
X130527Y069714*
X130394Y069785*
X130251Y069828*
X130122Y069841*
X13012Y06984*
X130118Y069839*
X130116Y06984*
X130114Y069841*
X130113Y069843*
Y069844*
Y070496*
Y070497*
X130114Y070498*
Y0705*
X130115*
X130116Y070501*
X130118Y070502*
G37*
G36*
X161177Y07758D02*
X161097D01*
Y07766*
X161177*
Y07758*
G37*
G36*
X153337Y07742D02*
X153257D01*
Y0775*
X153337*
Y07742*
G37*
G36*
X149497Y07806D02*
X149417D01*
Y07814*
X149497*
Y07806*
G37*
G36*
X158886Y087121D02*
X159126D01*
Y087041*
X159206*
Y086961*
Y086881*
Y086801*
Y086721*
Y086641*
Y086561*
Y086481*
Y086401*
X159046*
Y086321*
X158966*
Y086241*
X158006*
Y086161*
Y086081*
X158166*
Y086001*
X158326*
Y085921*
X158486*
Y085841*
X158646*
Y085761*
X158726*
Y085681*
X158806*
Y085601*
X158886*
Y085521*
X159046*
Y085441*
X159126*
Y085361*
X159206*
Y085281*
Y085201*
X159286*
Y085121*
X159366*
Y085041*
X159446*
Y084961*
X159526*
Y084881*
Y084801*
X159606*
Y084721*
Y084641*
X159686*
Y084561*
Y084481*
X159766*
Y084401*
Y084321*
Y084241*
X159846*
Y084161*
Y084081*
Y084001*
X159926*
Y083921*
Y083841*
Y083761*
Y083681*
Y083601*
Y083521*
X160006*
Y083441*
Y083361*
Y083281*
Y083201*
Y083121*
Y083041*
Y082961*
Y082881*
X160086*
Y082801*
X160006*
Y082721*
Y082641*
Y082561*
Y082481*
Y082401*
Y082321*
Y082241*
X159926*
Y082161*
Y082081*
Y082001*
Y081921*
Y081841*
X159846*
Y081761*
Y081681*
X159766*
Y081601*
Y081521*
Y081441*
X159686*
Y081361*
Y081281*
X159606*
Y081201*
X159526*
Y081121*
Y081041*
X159446*
Y080961*
X159366*
Y080881*
Y080801*
X159286*
Y080721*
X159206*
Y080641*
X159126*
Y080561*
Y080481*
X158966*
Y080401*
Y080321*
X158806*
Y080241*
Y080161*
X158646*
Y080081*
X158566*
Y080001*
Y079921*
Y079841*
Y079761*
Y079681*
Y079601*
Y079521*
Y079441*
Y079361*
Y079281*
Y079201*
Y079121*
Y079041*
X158486*
Y07902*
X158537*
Y07894*
X158777*
Y07886*
X158857*
Y07894*
X158937*
Y07886*
X159017*
Y07878*
X159257*
Y0787*
X159337*
Y07862*
X159577*
Y07854*
X159657*
Y07846*
X159897*
Y07838*
X159977*
Y0783*
X160217*
Y07822*
X160297*
Y07814*
X160377*
Y07806*
X160457*
Y07798*
X160697*
Y0779*
X160777*
Y07782*
X160857*
Y07774*
X160937*
Y07766*
X161017*
Y07758*
X161097*
Y0775*
X161337*
Y07742*
X161417*
Y07734*
X161497*
Y07726*
X161577*
Y07718*
X161657*
Y0771*
Y07702*
Y07694*
X161737*
Y07686*
X161657*
Y07678*
X161737*
Y0767*
X161817*
Y07678*
X161897*
Y07686*
X161977*
Y07678*
X162057*
Y07686*
X162137*
Y07678*
X162217*
Y07686*
X162297*
Y07678*
X162377*
Y07686*
X162457*
Y07678*
X162537*
Y07686*
X162617*
Y07678*
X162697*
Y0767*
X162777*
Y07678*
X162697*
Y07686*
X162777*
Y07678*
X162857*
Y0767*
X163097*
Y07662*
X163177*
Y07654*
X163257*
Y07662*
X163337*
Y07654*
X163417*
Y07646*
X163497*
Y07638*
X163737*
Y0763*
X163817*
Y07622*
X163897*
Y07614*
X163977*
Y07606*
X164057*
Y07598*
X164137*
Y0759*
X164217*
Y07582*
X164297*
Y07574*
X164377*
Y07566*
Y07558*
X164537*
Y0755*
X164457*
Y07542*
X164537*
Y07534*
X164617*
Y07526*
X164697*
Y07518*
X164617*
Y0751*
X164697*
Y07502*
X164777*
Y07494*
X164857*
Y07486*
X164777*
Y07478*
X164857*
Y0747*
X164777*
Y07462*
X164857*
Y07454*
X164937*
Y07446*
Y07438*
Y0743*
X165017*
Y07438*
X165097*
Y07446*
Y07454*
Y07462*
X165177*
Y0747*
X165257*
Y07478*
Y07486*
Y07494*
X165337*
Y07502*
X165257*
Y0751*
X165337*
Y07518*
X165417*
Y07526*
X165497*
Y07534*
Y07542*
Y0755*
X165577*
Y07558*
X165657*
Y07566*
X165577*
Y07574*
X165657*
Y07582*
X165737*
Y0759*
X165817*
Y07598*
Y07606*
X165897*
Y07614*
Y07622*
X165977*
Y0763*
X166057*
Y07638*
X166137*
Y07646*
X166217*
Y07654*
X166297*
Y07662*
X166377*
Y0767*
X166617*
Y07678*
X166697*
Y07686*
X166777*
Y07678*
X166857*
Y07686*
X166937*
Y07678*
X167017*
Y07686*
X167097*
Y07678*
X167177*
Y07686*
X167257*
Y07678*
X167337*
Y07686*
X167417*
Y07678*
X167497*
Y0767*
X167737*
Y07662*
X167817*
Y07654*
X168057*
Y07646*
X167977*
Y07638*
X168217*
Y0763*
Y07622*
X168377*
Y07614*
X168457*
Y07606*
X168537*
Y07598*
Y0759*
X168697*
Y07582*
Y07574*
X168857*
Y07566*
Y07558*
X169017*
Y0755*
X168937*
Y07542*
X169017*
Y07534*
X168937*
Y07526*
X169017*
Y07518*
X168937*
Y0751*
X169017*
Y07502*
X168937*
Y07494*
X169017*
Y07486*
X168937*
Y07478*
X169017*
Y0747*
X168937*
Y07462*
X169017*
Y07454*
X168937*
Y07446*
X169017*
Y07438*
X168937*
Y0743*
Y07422*
Y07414*
X169017*
Y07406*
X169097*
Y07398*
X169177*
Y0739*
X169257*
Y07382*
X169497*
Y0739*
X169577*
Y07382*
X169657*
Y0739*
X169577*
Y07398*
X169657*
Y0739*
X169737*
Y07382*
X169817*
Y0739*
X169737*
Y07398*
X169817*
Y07406*
X169737*
Y07414*
X169817*
Y07422*
X169737*
Y0743*
X169817*
Y07438*
X169737*
Y07446*
X169817*
Y07454*
X169737*
Y07462*
X169817*
Y0747*
X169737*
Y07478*
X169817*
Y07486*
X169737*
Y07494*
X169817*
Y07502*
X169737*
Y0751*
X169817*
Y07518*
X169737*
Y07526*
X169817*
Y07534*
X169737*
Y07542*
X169817*
Y0755*
X169737*
Y07558*
X169817*
Y07566*
X169737*
Y07574*
X169817*
Y07582*
X169737*
Y0759*
X169817*
Y07598*
X169737*
Y07606*
X169817*
Y07614*
X169737*
Y07622*
X169817*
Y0763*
X169737*
Y07638*
X169817*
Y07646*
X169737*
Y07654*
X169817*
Y07662*
X169737*
Y0767*
X169817*
Y07678*
X169737*
Y07686*
X169817*
Y07694*
X169737*
Y07702*
X169817*
Y0771*
X169737*
Y07718*
X169817*
Y07726*
X169737*
Y07734*
X169817*
Y07742*
Y0775*
Y07758*
X169897*
Y07766*
Y07774*
Y07782*
X169977*
Y0779*
X170057*
Y07798*
X170137*
Y07806*
X170057*
Y07814*
X170137*
Y07822*
X170217*
Y0783*
X170457*
Y07838*
X170537*
Y0783*
X170617*
Y07838*
X170537*
Y07846*
X170617*
Y07838*
X170697*
Y0783*
X170777*
Y07838*
X170857*
Y0783*
X171097*
Y07822*
X171177*
Y07814*
X171257*
Y07806*
X171337*
Y07798*
X171417*
Y0779*
X171497*
Y07782*
X171577*
Y07774*
X171657*
Y07766*
X171737*
Y07758*
X171817*
Y0775*
X172057*
Y07742*
X172137*
Y07734*
X172217*
Y07726*
X172297*
Y07718*
X172377*
Y0771*
X172457*
Y07702*
X172537*
Y07694*
X172617*
Y07702*
X172697*
Y0771*
X172617*
Y07718*
X172697*
Y07726*
X172777*
Y07734*
X172857*
Y07742*
X172777*
Y0775*
X172857*
Y07758*
X172937*
Y07766*
X173017*
Y07774*
X173097*
Y07782*
X173177*
Y0779*
X173257*
Y07798*
X173337*
Y0779*
X173417*
Y07798*
X173497*
Y07806*
X173577*
Y07814*
X173817*
Y07822*
X173897*
Y07814*
X173977*
Y07822*
X173897*
Y0783*
X173977*
Y07822*
X174057*
Y0783*
X174137*
Y07822*
X174217*
Y0783*
X174297*
Y07822*
X174377*
Y0783*
X174457*
Y07822*
X174537*
Y0783*
X174617*
Y07822*
X174697*
Y07814*
X174937*
Y07806*
X175017*
Y07798*
X175257*
Y0779*
X175337*
Y07782*
X175417*
Y0779*
X175337*
Y07798*
X175417*
Y07806*
X175497*
Y07814*
X175737*
Y07822*
X175817*
Y0783*
X175897*
Y07822*
X175977*
Y0783*
X176377*
Y07822*
X176457*
Y07814*
X176697*
Y07806*
X176617*
Y07798*
X176697*
Y0779*
X176777*
Y07782*
X176857*
Y07774*
X176937*
Y07766*
X177017*
Y07758*
X177097*
Y0775*
X177177*
Y07742*
X177257*
Y07734*
X177337*
Y07726*
X177417*
Y07718*
X177497*
Y0771*
X177577*
Y07702*
X177657*
Y07694*
X177577*
Y07686*
X177657*
Y07678*
X177577*
Y0767*
X177657*
Y07662*
X177577*
Y07654*
X177657*
Y07646*
Y07638*
Y0763*
X177577*
Y07622*
X177657*
Y07614*
Y07606*
Y07598*
X177577*
Y0759*
X177657*
Y07582*
X177577*
Y07574*
X177497*
Y07582*
X177417*
Y07574*
X177337*
Y07566*
X177257*
Y07574*
X177177*
Y07566*
X177097*
Y07558*
X177177*
Y0755*
X177097*
Y07542*
X177177*
Y07534*
X177097*
Y07526*
X177177*
Y07518*
X177097*
Y0751*
X177177*
Y07502*
X177097*
Y07494*
X177177*
Y07486*
X177097*
Y07478*
X177177*
Y0747*
X177097*
Y07462*
X177177*
Y07454*
X177097*
Y07446*
X177177*
Y07438*
X177097*
Y0743*
X177177*
Y07422*
X177097*
Y07414*
X177177*
Y07406*
X177097*
Y07398*
X177177*
Y0739*
X177097*
Y07382*
X177177*
Y07374*
X177097*
Y07366*
X177177*
Y07358*
X177097*
Y0735*
X177177*
Y07342*
X177097*
Y07334*
X177177*
Y07326*
X177097*
Y07318*
X177177*
Y0731*
X177097*
Y07302*
X177177*
Y07294*
X177097*
Y07286*
X177177*
Y07278*
Y0727*
X177337*
Y07262*
X177257*
Y07254*
X177337*
Y07246*
X177417*
Y07238*
X177497*
Y0723*
X177577*
Y07222*
X177497*
Y0723*
X177417*
Y07222*
X177497*
Y07214*
X177577*
Y07206*
X177657*
Y07198*
Y0719*
Y07182*
X177577*
Y07174*
X177657*
Y07166*
X177577*
Y07158*
Y0715*
Y07142*
X177497*
Y07134*
X177417*
Y07126*
X177337*
Y07118*
X177097*
Y0711*
X177017*
Y07118*
X176617*
Y07126*
X176537*
Y07118*
X176457*
Y07126*
X176377*
Y07118*
X176297*
Y07126*
X176217*
Y07134*
X176137*
Y07126*
X176217*
Y07118*
X176137*
Y07126*
X176057*
Y07134*
X175977*
Y07126*
X175897*
Y07134*
X175817*
Y07126*
X175737*
Y07134*
X175657*
Y07126*
X175577*
Y07134*
X175497*
Y07126*
X175417*
Y07134*
X175337*
Y07126*
X175257*
Y07134*
X175017*
Y07126*
X174937*
Y07134*
X174697*
Y07126*
X174617*
Y07134*
X173737*
Y07142*
X173657*
Y0715*
X173577*
Y07158*
X173497*
Y07166*
X173417*
Y07174*
X173337*
Y07182*
X173257*
Y0719*
X173337*
Y07198*
X173097*
Y07206*
X173177*
Y07214*
X173097*
Y07222*
X173017*
Y0723*
X172777*
Y07238*
X172857*
Y07246*
X172617*
Y07254*
X172537*
Y07262*
X172457*
Y0727*
X172377*
Y07278*
X172297*
Y07286*
X172377*
Y07294*
X172297*
Y07302*
X172217*
Y0731*
X172137*
Y07318*
X172217*
Y07326*
X172137*
Y07334*
Y07342*
Y0735*
X172057*
Y07358*
X171977*
Y0735*
X172057*
Y07342*
X171977*
Y07334*
X172057*
Y07326*
X171977*
Y07318*
X172057*
Y0731*
X171977*
Y07302*
X172057*
Y07294*
X171977*
Y07286*
X172057*
Y07278*
X171977*
Y0727*
Y07262*
Y07254*
Y07246*
Y07238*
X171897*
Y0723*
X171817*
Y07222*
X171897*
Y07214*
X171817*
Y07206*
X171897*
Y07198*
X171817*
Y0719*
X171737*
Y07182*
X171657*
Y07174*
Y07166*
Y07158*
X171737*
Y0715*
X171657*
Y07142*
X171737*
Y07134*
X171817*
Y07126*
X171737*
Y07118*
X171817*
Y0711*
Y07102*
Y07094*
Y07086*
Y07078*
Y0707*
Y07062*
X171737*
Y07054*
X171657*
Y07046*
X171737*
Y07038*
X171657*
Y0703*
X171577*
Y07022*
X171497*
Y0703*
X171417*
Y07022*
X171337*
Y07014*
X171257*
Y07022*
X171017*
Y07014*
X170937*
Y07022*
X170857*
Y0703*
X170777*
Y07022*
X170697*
Y0703*
X170617*
Y07038*
X170537*
Y07046*
X170617*
Y07054*
X170537*
Y07062*
X170457*
Y0707*
Y07078*
Y07086*
Y07094*
Y07102*
Y0711*
Y07118*
X170537*
Y07126*
X170457*
Y07134*
X170537*
Y07142*
X170617*
Y0715*
X170537*
Y07158*
X170617*
Y07166*
X170377*
Y07174*
X170297*
Y07182*
X170217*
Y0719*
X170137*
Y07198*
X170057*
Y07206*
X169977*
Y07214*
X169897*
Y07222*
X169817*
Y0723*
X169737*
Y07238*
X169657*
Y07246*
X169577*
Y07238*
X169657*
Y0723*
X169577*
Y07222*
X169657*
Y07214*
X169577*
Y07206*
X169497*
Y07198*
X169417*
Y0719*
X169497*
Y07182*
X169417*
Y07174*
X169337*
Y07166*
X169257*
Y07158*
X169177*
Y0715*
X168937*
Y07142*
X168857*
Y07134*
X168777*
Y07142*
X168697*
Y07134*
X167657*
Y07142*
X167577*
Y07134*
X167497*
Y07142*
X167417*
Y0715*
X167177*
Y07158*
X167097*
Y07166*
X166857*
Y07174*
X166777*
Y07182*
X166697*
Y0719*
X166617*
Y07198*
X166537*
Y0719*
X166457*
Y07182*
X166377*
Y07174*
X166457*
Y07166*
X166217*
Y07158*
X166297*
Y0715*
X166057*
Y07142*
X165977*
Y07134*
X165737*
Y07126*
X165657*
Y07118*
X165577*
Y07126*
X165497*
Y07118*
X165417*
Y07126*
X165337*
Y07118*
X165257*
Y07126*
X165177*
Y07134*
X164937*
Y07142*
X164857*
Y0715*
X164777*
Y07158*
X164697*
Y07166*
X164617*
Y07174*
X164537*
Y07182*
X164457*
Y0719*
X164377*
Y07198*
X164297*
Y0719*
X164217*
Y07182*
X164137*
Y07174*
X164057*
Y07166*
X163977*
Y07158*
X163897*
Y0715*
X163817*
Y07158*
X163737*
Y0715*
X163657*
Y07142*
X163577*
Y0715*
X163497*
Y07142*
X163577*
Y07134*
X163177*
Y07126*
X163097*
Y07134*
X163017*
Y07126*
X162937*
Y07134*
X162857*
Y07126*
X162777*
Y07134*
X162697*
Y07126*
X162777*
Y07118*
X162697*
Y07126*
X162617*
Y07134*
X162537*
Y07126*
X162457*
Y07134*
X162057*
Y07142*
X161977*
Y0715*
X161737*
Y07158*
X161657*
Y07166*
X161417*
Y07174*
X161497*
Y07182*
X161337*
Y0719*
Y07198*
X161177*
Y07206*
Y07214*
X161097*
Y07222*
X161017*
Y0723*
X160937*
Y07222*
Y07214*
Y07206*
X161017*
Y07198*
X160937*
Y0719*
X160857*
Y07182*
X160777*
Y07174*
X160857*
Y07166*
X160777*
Y07158*
X160697*
Y0715*
X160617*
Y07142*
X160697*
Y07134*
X160457*
Y07126*
X160377*
Y07118*
X160137*
Y0711*
X160057*
Y07102*
X159977*
Y07094*
X159897*
Y07102*
X159817*
Y07094*
X159737*
Y07086*
X159657*
Y07078*
X159737*
Y0707*
X159657*
Y07062*
X159577*
Y07054*
X159497*
Y07046*
X159417*
Y07038*
X159017*
Y07046*
X158937*
Y07054*
X158857*
Y07046*
X158937*
Y07038*
X158857*
Y07046*
X158777*
Y07054*
Y07062*
Y0707*
X158697*
Y07078*
X158777*
Y07086*
X158697*
Y07094*
X158617*
Y07102*
X158217*
Y07094*
X158297*
Y07086*
X158217*
Y07078*
X158137*
Y0707*
X158057*
Y07062*
X157977*
Y07054*
X157897*
Y07046*
X157977*
Y07038*
X157897*
Y0703*
X157817*
Y07022*
X157737*
Y07014*
X157657*
Y07006*
X157417*
Y06998*
X157337*
Y07006*
X157257*
Y06998*
X157337*
Y0699*
X157257*
Y06998*
X157017*
Y07006*
X156937*
Y07014*
X156857*
Y07022*
X156617*
Y0703*
X156697*
Y07038*
X156457*
Y07046*
X156377*
Y07054*
X156297*
Y07062*
X156217*
Y0707*
X156137*
Y07078*
X156057*
Y07086*
X155817*
Y07094*
X155737*
Y07102*
X155657*
Y0711*
Y07118*
X155577*
Y07126*
Y07134*
X155497*
Y07142*
X155577*
Y0715*
X155497*
Y07158*
X155577*
Y07166*
X155657*
Y07174*
Y07182*
Y0719*
X155897*
Y07198*
X155977*
Y0719*
X156057*
Y07198*
Y07206*
X156217*
Y07214*
Y07222*
X156377*
Y0723*
X156297*
Y07238*
X156537*
Y07246*
X156457*
Y07254*
X156537*
Y07262*
X156617*
Y0727*
X156697*
Y07278*
X156777*
Y07286*
Y07294*
Y07302*
X156857*
Y0731*
X156937*
Y07318*
X157017*
Y07326*
Y07334*
X157177*
Y07342*
X157097*
Y0735*
X157177*
Y07358*
X157257*
Y07366*
Y07374*
Y07382*
X157337*
Y0739*
Y07398*
X157417*
Y07406*
Y07414*
X157497*
Y07422*
X157417*
Y0743*
X157337*
Y07438*
X157257*
Y07446*
X157177*
Y07454*
X157097*
Y07462*
X157177*
Y0747*
X157097*
Y07478*
X157017*
Y07486*
X156937*
Y07494*
X157017*
Y07502*
X156937*
Y0751*
X156857*
Y07518*
X156777*
Y07526*
X156857*
Y07534*
X156777*
Y07542*
X156857*
Y0755*
X156777*
Y07558*
X156857*
Y07566*
X156777*
Y07574*
X156857*
Y07582*
X156777*
Y0759*
X156857*
Y07598*
X156777*
Y07606*
X156857*
Y07614*
X156777*
Y07622*
X156857*
Y0763*
X156937*
Y07638*
X157017*
Y07646*
X156937*
Y07654*
X157177*
Y07662*
X157097*
Y0767*
X157337*
Y07678*
X157417*
Y07686*
X157657*
Y07694*
X157737*
Y07686*
X157817*
Y07694*
X157897*
Y07686*
X157977*
Y07694*
X157897*
Y07702*
X157977*
Y07694*
X158057*
Y07686*
X158137*
Y07694*
X158217*
Y07686*
X158297*
Y07694*
X158217*
Y07702*
X158137*
Y0771*
X157897*
Y07718*
X157817*
Y07726*
X157737*
Y07734*
X157657*
Y07742*
X157417*
Y0775*
X157337*
Y07758*
X157257*
Y07766*
X157177*
Y07774*
X156937*
Y07782*
Y0779*
Y07798*
X156857*
Y07806*
X156777*
Y07814*
X156857*
Y07822*
X156777*
Y0783*
X156857*
Y07838*
X156937*
Y07846*
Y07854*
Y07862*
X157017*
Y0787*
X157097*
Y07878*
X157177*
Y07886*
X157257*
Y07894*
X157337*
Y07886*
X157417*
Y07894*
X157497*
Y07902*
X157577*
Y07894*
X157657*
Y078961*
X157606*
Y079041*
X157526*
Y079121*
X157606*
Y079201*
Y079281*
X157526*
Y079361*
Y079441*
X157446*
Y079361*
X157286*
Y079281*
X157046*
Y079201*
X156886*
Y079121*
X156566*
Y079041*
X156166*
Y078961*
X155766*
Y078881*
X153526*
Y078961*
X153126*
Y079041*
X152806*
Y079121*
X152486*
Y079201*
X152326*
Y079281*
X152086*
Y079361*
X151926*
Y079441*
X151846*
Y079361*
X151766*
Y079281*
Y079201*
Y079121*
Y079041*
X151686*
Y078961*
Y078881*
Y078801*
X151606*
Y078721*
X151046*
Y078801*
X150966*
Y078881*
X150886*
Y078961*
Y079041*
X150806*
Y079121*
Y079201*
Y079281*
Y079361*
Y079441*
Y079521*
Y079601*
Y079681*
Y079761*
Y079841*
Y079921*
Y080001*
Y080081*
X150726*
Y080161*
X150566*
Y080241*
Y080321*
X150406*
Y080401*
Y080481*
X150246*
Y080561*
Y080641*
X150086*
Y080721*
Y080801*
X150006*
Y080881*
X149926*
Y080961*
Y081041*
X149846*
Y081121*
Y081201*
X149766*
Y081281*
X149686*
Y081361*
X149606*
Y081441*
Y081521*
Y081601*
X149526*
Y081681*
Y081761*
X149446*
Y081841*
Y081921*
Y082001*
Y082081*
Y082161*
X149366*
Y082241*
Y082321*
Y082401*
X149286*
Y082481*
X149366*
Y082561*
Y082641*
Y082721*
Y082801*
Y082881*
Y082961*
Y083041*
Y083121*
X149286*
Y083201*
X149366*
Y083281*
Y083361*
Y083441*
Y083521*
Y083601*
X149446*
Y083681*
Y083761*
Y083841*
Y083921*
Y084001*
Y084081*
X149526*
Y084161*
Y084241*
X149606*
Y084321*
Y084401*
Y084481*
X149686*
Y084561*
Y084641*
Y084721*
X149766*
Y084801*
X149846*
Y084881*
X149926*
Y084961*
Y085041*
X150006*
Y085121*
Y085201*
X150086*
Y085281*
X150166*
Y085361*
X150246*
Y085441*
X150326*
Y085521*
X150406*
Y085601*
X150486*
Y085681*
X150646*
Y085761*
X150726*
Y085841*
X150886*
Y085921*
X151046*
Y086001*
X151126*
Y086081*
X151366*
Y086161*
Y086241*
Y086321*
X151286*
Y086241*
X150406*
Y086321*
X150246*
Y086401*
X150166*
Y086481*
Y086561*
X150086*
Y086641*
Y086721*
Y086801*
Y086881*
X150166*
Y086961*
Y087041*
X150246*
Y087121*
X150486*
Y087201*
X150566*
Y087121*
X150646*
Y087201*
X151206*
Y087121*
X151286*
Y087201*
X151766*
Y087121*
X151846*
Y087201*
X152406*
Y087121*
X152486*
Y087201*
X152966*
Y087121*
X153126*
Y087201*
X153606*
Y087121*
X153686*
Y087201*
X154246*
Y087121*
X154326*
Y087201*
X154806*
Y087121*
X154886*
Y087201*
X155206*
Y087121*
X155286*
Y087201*
X155766*
Y087121*
X155846*
Y087201*
X156166*
Y087121*
X156246*
Y087201*
X156566*
Y087121*
X156646*
Y087201*
X156966*
Y087121*
X157046*
Y087201*
X157206*
Y087121*
X157366*
Y087201*
X157846*
Y087121*
X157926*
Y087201*
X158486*
Y087121*
X158566*
Y087201*
X158886*
Y087121*
G37*
G36*
X134137Y07006D02*
X134057D01*
Y07014*
X134137*
Y07006*
G37*
G36*
X13875Y094463D02*
Y094383D01*
Y094303*
Y094223*
Y094143*
Y094063*
Y093983*
Y093903*
Y093823*
Y093743*
Y093663*
Y093583*
Y093503*
Y093423*
Y093343*
Y093263*
Y093183*
Y093103*
Y093023*
Y092943*
Y092863*
Y092783*
Y092703*
Y092623*
Y092543*
Y092463*
Y092383*
Y092303*
Y092223*
Y092143*
Y092063*
Y091983*
Y091903*
Y091823*
Y091743*
Y091663*
Y091583*
Y091503*
Y091423*
Y091343*
Y091263*
Y091183*
Y091103*
Y091023*
Y090943*
Y090863*
Y090783*
Y090703*
Y090623*
Y090543*
Y090463*
Y090383*
Y090303*
Y090223*
Y090143*
Y090063*
Y089983*
Y089903*
Y089823*
Y089743*
Y089663*
Y089583*
Y089503*
Y089423*
Y089343*
Y089263*
Y089183*
Y089103*
Y089023*
Y088943*
Y088863*
Y088783*
Y088703*
Y088623*
Y088543*
X13275*
Y088623*
Y088703*
Y088783*
Y088863*
Y088943*
Y089023*
Y089103*
Y089183*
Y089263*
Y089343*
Y089423*
Y089503*
Y089583*
Y089663*
Y089743*
Y089823*
Y089903*
Y089983*
Y090063*
Y090143*
Y090223*
Y090303*
Y090383*
Y090463*
Y090543*
Y090623*
Y090703*
Y090783*
Y090863*
Y090943*
Y091023*
Y091103*
Y091183*
Y091263*
Y091343*
Y091423*
Y091503*
Y091583*
Y091663*
Y091743*
Y091823*
Y091903*
Y091983*
Y092063*
Y092143*
Y092223*
Y092303*
Y092383*
Y092463*
Y092543*
Y092623*
Y092703*
Y092783*
Y092863*
Y092943*
Y093023*
Y093103*
Y093183*
Y093263*
Y093343*
Y093423*
Y093503*
Y093583*
Y093663*
Y093743*
Y093823*
Y093903*
Y093983*
Y094063*
Y094143*
Y094223*
Y094303*
Y094383*
Y094463*
Y094543*
X13875*
Y094463*
G37*
G36*
X153606Y089041D02*
Y088961D01*
Y088881*
X153526*
Y088801*
Y088721*
Y088641*
X153606*
Y088561*
Y088481*
Y088401*
X153766*
Y088321*
Y088241*
X154006*
Y088161*
X154246*
Y088241*
X154486*
Y088321*
X154566*
Y088401*
X154646*
Y088481*
Y088561*
X154726*
Y088641*
Y088721*
X154806*
Y088641*
Y088561*
Y088481*
Y088401*
X154726*
Y088321*
X154646*
Y088241*
X154566*
Y088161*
X154326*
Y088081*
X153926*
Y088161*
X153686*
Y088241*
X153606*
Y088321*
Y088401*
X153526*
Y088481*
Y088561*
X153446*
Y088641*
Y088721*
Y088801*
Y088881*
Y088961*
Y089041*
X153526*
Y089121*
X153606*
Y089041*
G37*
G36*
X151577Y07838D02*
X151657D01*
Y0783*
X151897*
Y07822*
X151977*
Y07814*
X152217*
Y07806*
X152297*
Y07798*
X152377*
Y0779*
X152457*
Y07798*
X152537*
Y0779*
X152617*
Y07782*
X152697*
Y07774*
X152777*
Y07766*
X153017*
Y07758*
X153097*
Y0775*
X153177*
Y07742*
X153257*
Y07734*
X153497*
Y07726*
Y07718*
X153657*
Y0771*
Y07702*
X153817*
Y07694*
X153737*
Y07686*
X153817*
Y07678*
X153897*
Y0767*
X153977*
Y07662*
X154057*
Y07654*
Y07646*
Y07638*
X154137*
Y0763*
Y07622*
X154297*
Y07614*
X154217*
Y07606*
X154297*
Y07598*
X154217*
Y0759*
X154297*
Y07582*
X154377*
Y07574*
X154457*
Y07566*
X154377*
Y07558*
X154457*
Y0755*
X154377*
Y07542*
X154457*
Y07534*
X154377*
Y07526*
X154457*
Y07518*
X154377*
Y0751*
X154457*
Y07502*
Y07494*
Y07486*
X154377*
Y07478*
X154457*
Y0747*
X154377*
Y07462*
X154457*
Y07454*
X154377*
Y07446*
X154457*
Y07438*
X154377*
Y0743*
Y07422*
Y07414*
X154297*
Y07406*
X154217*
Y07398*
X154297*
Y0739*
X154217*
Y07382*
X154137*
Y07374*
Y07366*
Y07358*
X154057*
Y0735*
X153977*
Y07342*
X153897*
Y07334*
X153977*
Y07326*
X153737*
Y07318*
X153817*
Y0731*
X153737*
Y07302*
X153657*
Y07294*
X153577*
Y07286*
X153497*
Y07278*
X153417*
Y0727*
X153337*
Y07262*
X153257*
Y07254*
X153177*
Y07246*
X153097*
Y07238*
X153017*
Y0723*
X152937*
Y07222*
X152857*
Y07214*
X152777*
Y07206*
X152857*
Y07198*
X152777*
Y0719*
X152937*
Y07182*
Y07174*
X153017*
Y07166*
X153097*
Y07158*
X153177*
Y0715*
X153097*
Y07142*
X153177*
Y07134*
X153257*
Y07126*
X153177*
Y07118*
X153257*
Y0711*
X153337*
Y07102*
X153257*
Y07094*
Y07086*
Y07078*
X153337*
Y0707*
X153257*
Y07062*
X153177*
Y07054*
X153097*
Y07046*
X153017*
Y07054*
X152937*
Y07046*
X153017*
Y07038*
X152617*
Y07046*
X152537*
Y07054*
X152377*
Y07062*
X152217*
Y0707*
X152137*
Y07078*
X152057*
Y07086*
X151817*
Y07094*
X151737*
Y07086*
X151657*
Y07094*
X151577*
Y07102*
X151497*
Y0711*
X151417*
Y07118*
X151337*
Y07126*
X151417*
Y07134*
X151017*
Y07142*
X150937*
Y07134*
X150857*
Y07142*
X150777*
Y07134*
X150537*
Y07126*
X150297*
Y07118*
X150217*
Y0711*
X150137*
Y07118*
X150057*
Y0711*
X150137*
Y07102*
X149897*
Y07094*
Y07086*
Y07078*
X149977*
Y0707*
X149897*
Y07062*
X149977*
Y07054*
Y07046*
Y07038*
X150057*
Y0703*
X149977*
Y07038*
X149897*
Y0703*
X149977*
Y07022*
Y07014*
Y07006*
X149897*
Y06998*
X149977*
Y0699*
X149897*
Y06982*
X149817*
Y06974*
X149737*
Y06966*
X149657*
Y06958*
X148937*
Y06966*
X148857*
Y06974*
X148777*
Y06982*
Y0699*
X148617*
Y06998*
X148697*
Y07006*
X148617*
Y07014*
X148697*
Y07022*
X148617*
Y0703*
X148697*
Y07038*
X148617*
Y07046*
X148697*
Y07054*
X148617*
Y07062*
X148697*
Y0707*
Y07078*
X148777*
Y07086*
Y07094*
X148697*
Y07102*
X148617*
Y0711*
X148537*
Y07118*
X148457*
Y07126*
X148377*
Y07134*
X148137*
Y07142*
X148057*
Y0715*
X147977*
Y07158*
X148057*
Y07166*
X147817*
Y07174*
X147897*
Y07182*
Y0719*
Y07198*
X147977*
Y07206*
X148057*
Y07214*
X147977*
Y07222*
X148057*
Y0723*
X147977*
Y07238*
X147897*
Y07246*
X147817*
Y07254*
X147737*
Y07262*
X147657*
Y0727*
X147577*
Y07278*
X147497*
Y07286*
X147417*
Y07294*
X147337*
Y07302*
Y0731*
X147257*
Y07318*
Y07326*
X147097*
Y07334*
Y07342*
X147017*
Y0735*
X146937*
Y07358*
X146857*
Y07366*
X146937*
Y07374*
X146857*
Y07382*
X146777*
Y0739*
X146697*
Y07398*
X146777*
Y07406*
X146697*
Y07414*
X146617*
Y07422*
X146537*
Y0743*
X146617*
Y07438*
X146537*
Y07446*
Y07454*
Y07462*
X146457*
Y0747*
Y07478*
Y07486*
X146377*
Y07494*
X146457*
Y07502*
X146377*
Y0751*
X146457*
Y07518*
X146377*
Y07526*
X146457*
Y07534*
X146377*
Y07542*
X146457*
Y0755*
X146377*
Y07558*
X146457*
Y07566*
X146377*
Y07574*
X146457*
Y07582*
Y0759*
Y07598*
X146537*
Y07606*
X146457*
Y07614*
X146537*
Y07622*
X146617*
Y0763*
X146537*
Y07638*
X146617*
Y07646*
X146537*
Y07654*
X146617*
Y07662*
X146697*
Y0767*
X146777*
Y07678*
X146697*
Y07686*
X146777*
Y07694*
X146857*
Y07702*
Y0771*
Y07718*
X146937*
Y07726*
X147017*
Y07734*
X147097*
Y07742*
X147017*
Y0775*
X147257*
Y07758*
X147177*
Y07766*
X147257*
Y07774*
X147337*
Y07782*
X147417*
Y0779*
X147497*
Y07798*
X147577*
Y07806*
X147657*
Y07814*
X147897*
Y07822*
X147977*
Y0783*
X148057*
Y07838*
X148137*
Y0783*
X148217*
Y07838*
X148137*
Y07846*
X148217*
Y07838*
X148297*
Y07846*
X148377*
Y07838*
X148457*
Y07846*
X148537*
Y07838*
X148617*
Y07846*
X148697*
Y07838*
X148777*
Y0783*
X149017*
Y07822*
X149097*
Y07814*
X149177*
Y07822*
X149257*
Y07814*
X149337*
Y07806*
X149417*
Y07798*
X149657*
Y07806*
X149737*
Y07814*
X149977*
Y07822*
X150057*
Y0783*
X150297*
Y07838*
X150377*
Y07846*
X150457*
Y07838*
X150537*
Y07846*
X151577*
Y07838*
G37*
G36*
X148857D02*
X148777D01*
Y07846*
X148857*
Y07838*
G37*
G36*
X134777Y07902D02*
X134857D01*
Y07894*
X135097*
Y07886*
X135177*
Y07894*
X135257*
Y07886*
X135337*
Y07878*
X135577*
Y0787*
X135657*
Y07862*
X135897*
Y07854*
X135977*
Y07846*
X136217*
Y07838*
X136297*
Y0783*
X136377*
Y07822*
X136457*
Y0783*
X136537*
Y07822*
Y07814*
X136697*
Y07806*
X136777*
Y07798*
X137017*
Y0779*
X137097*
Y07782*
X137177*
Y07774*
X137257*
Y07766*
X137497*
Y07758*
Y0775*
X137657*
Y07742*
X137737*
Y07734*
X137817*
Y07726*
X137897*
Y07718*
X137977*
Y0771*
Y07702*
Y07694*
X137897*
Y07686*
X137977*
Y07678*
X137897*
Y0767*
X141017*
Y07662*
X141097*
Y07654*
X141337*
Y07646*
X141257*
Y07638*
X141337*
Y0763*
X141417*
Y07622*
X141497*
Y07614*
X141577*
Y07606*
X141657*
Y07598*
Y0759*
X141817*
Y07582*
X141737*
Y07574*
X141817*
Y07566*
X141897*
Y07558*
X141977*
Y0755*
X142057*
Y07542*
Y07534*
Y07526*
X142137*
Y07518*
X142057*
Y0751*
X142137*
Y07502*
X142057*
Y07494*
X142137*
Y07486*
X142057*
Y07478*
Y0747*
X141897*
Y07462*
X141817*
Y07454*
X141577*
Y07446*
X141657*
Y07438*
X141737*
Y0743*
X141817*
Y07422*
X141737*
Y07414*
X141817*
Y07406*
X141897*
Y07398*
Y0739*
Y07382*
X141977*
Y0739*
X142057*
Y07398*
X142137*
Y07406*
X142057*
Y07414*
X142137*
Y07422*
X142217*
Y0743*
Y07438*
Y07446*
X142297*
Y07454*
Y07462*
X142457*
Y0747*
X142377*
Y07478*
X142457*
Y07486*
X142377*
Y07494*
X142457*
Y07502*
X142537*
Y0751*
X142617*
Y07518*
X142537*
Y07526*
X142697*
Y07534*
Y07542*
X142777*
Y0755*
X142697*
Y07558*
X142777*
Y07566*
X142857*
Y07574*
X142937*
Y07582*
X142857*
Y0759*
X143017*
Y07598*
Y07606*
X143097*
Y07614*
X143177*
Y07622*
X143257*
Y0763*
X143177*
Y07638*
X143257*
Y07646*
X143337*
Y07654*
X143417*
Y07662*
X143497*
Y0767*
X143577*
Y07662*
X143657*
Y0767*
X143737*
Y07678*
X143817*
Y0767*
X143897*
Y07678*
X143977*
Y07686*
X144057*
Y07678*
X144137*
Y07686*
X144217*
Y07678*
X144297*
Y07686*
X144377*
Y07678*
X144457*
Y07686*
X144537*
Y07678*
X144617*
Y0767*
X144857*
Y07662*
X144937*
Y07654*
X145177*
Y07646*
X145257*
Y07638*
X145337*
Y0763*
X145417*
Y07622*
X145497*
Y07614*
X145577*
Y07606*
X145657*
Y07598*
X145737*
Y0759*
X145817*
Y07582*
X145897*
Y07574*
X145977*
Y07566*
X146057*
Y07558*
X146137*
Y0755*
X146057*
Y07542*
X146137*
Y07534*
X146217*
Y07526*
X146297*
Y07518*
X146217*
Y07526*
X146137*
Y07518*
X146217*
Y0751*
X146137*
Y07502*
X146217*
Y07494*
X146297*
Y07486*
X146217*
Y07478*
X146137*
Y0747*
X146217*
Y07462*
X146297*
Y07454*
X146217*
Y07446*
X146137*
Y07438*
X146057*
Y0743*
X146137*
Y07422*
X146057*
Y07414*
X146297*
Y07406*
X146377*
Y07398*
X146457*
Y0739*
X146377*
Y07382*
X146537*
Y07374*
Y07366*
X146617*
Y07358*
X146697*
Y0735*
X146777*
Y07342*
X146697*
Y07334*
X146777*
Y07326*
X146857*
Y07318*
X146777*
Y0731*
X146857*
Y07302*
X146937*
Y07294*
X146857*
Y07286*
Y07278*
Y0727*
X146937*
Y07262*
X146857*
Y07254*
Y07246*
Y07238*
X146937*
Y0723*
X146857*
Y07222*
X146777*
Y07214*
Y07206*
Y07198*
X146697*
Y0719*
X146617*
Y07182*
X146537*
Y07174*
X146617*
Y07166*
X146377*
Y07158*
X146297*
Y0715*
X146057*
Y07142*
X145977*
Y07134*
X144777*
Y07142*
X144697*
Y0715*
X144457*
Y07158*
X144217*
Y07166*
X144137*
Y07174*
X144057*
Y07182*
X143977*
Y0719*
X143897*
Y07198*
X143657*
Y0719*
X143737*
Y07182*
X143657*
Y07174*
X143577*
Y07166*
X143497*
Y07158*
X143417*
Y0715*
X143257*
Y07142*
Y07134*
X143177*
Y07142*
X143097*
Y07134*
X143017*
Y07126*
X142937*
Y07134*
X142857*
Y07126*
X142937*
Y07118*
X142857*
Y07126*
X142617*
Y07118*
X142537*
Y07126*
X142457*
Y07134*
X142377*
Y07126*
X142297*
Y07134*
X142217*
Y07142*
X142137*
Y0715*
X142057*
Y07158*
X141977*
Y07166*
X141737*
Y07174*
X141817*
Y07182*
X141577*
Y0719*
X141657*
Y07198*
X141417*
Y07206*
X141497*
Y07214*
X141257*
Y07206*
Y07198*
X141097*
Y0719*
X141017*
Y07182*
X140937*
Y07174*
X140857*
Y07166*
X140777*
Y07158*
X140697*
Y07166*
X140617*
Y07158*
X140697*
Y0715*
X140617*
Y07158*
X140537*
Y0715*
X140297*
Y07142*
X140217*
Y07134*
X140137*
Y07142*
X140057*
Y07134*
X139177*
Y07142*
X139097*
Y0715*
X139017*
Y07158*
X138937*
Y07166*
X138697*
Y07174*
X138617*
Y07182*
X138537*
Y0719*
X138457*
Y07198*
X138377*
Y07206*
X138297*
Y07214*
X138217*
Y07222*
X138137*
Y0723*
X138057*
Y07238*
X137977*
Y07246*
X137897*
Y07254*
X137817*
Y07262*
X137737*
Y0727*
X137817*
Y07278*
X137737*
Y07286*
X137657*
Y07294*
X137577*
Y07302*
X137657*
Y0731*
X137577*
Y07318*
X137657*
Y07326*
X137577*
Y07334*
X137657*
Y07342*
X137737*
Y0735*
X137817*
Y07358*
X137897*
Y0735*
X137977*
Y07358*
X137897*
Y07366*
X137977*
Y07358*
X138057*
Y0735*
X138137*
Y07358*
X138217*
Y0735*
X138297*
Y07358*
X138217*
Y07366*
X138297*
Y07358*
X138377*
Y0735*
X138457*
Y07358*
X138377*
Y07366*
X138297*
Y07374*
Y07382*
Y0739*
X138217*
Y07398*
X138297*
Y07406*
X138217*
Y07414*
X138297*
Y07422*
X138217*
Y0743*
X138297*
Y07438*
X138217*
Y07446*
Y07454*
Y07462*
X138137*
Y0747*
X138057*
Y07462*
X137977*
Y0747*
X137897*
Y07478*
Y07486*
X137817*
Y07494*
Y07502*
X137737*
Y0751*
X137657*
Y07518*
X137577*
Y07526*
X137497*
Y07518*
Y0751*
Y07502*
Y07494*
Y07486*
X137577*
Y07478*
X137497*
Y0747*
Y07462*
Y07454*
Y07446*
Y07438*
Y0743*
Y07422*
X137577*
Y07414*
X137497*
Y07406*
Y07398*
Y0739*
Y07382*
Y07374*
Y07366*
Y07358*
Y0735*
Y07342*
Y07334*
Y07326*
X137417*
Y07318*
X137497*
Y0731*
X137417*
Y07302*
X137497*
Y07294*
X137417*
Y07286*
X137497*
Y07278*
X137417*
Y0727*
X137497*
Y07262*
X137417*
Y07254*
X137497*
Y07246*
X137417*
Y07238*
X137337*
Y0723*
Y07222*
Y07214*
X137257*
Y07206*
X137337*
Y07198*
X137257*
Y0719*
X137177*
Y07182*
X137097*
Y07174*
X137177*
Y07166*
X137097*
Y07158*
X137017*
Y0715*
X136937*
Y07142*
X136857*
Y07134*
X136617*
Y07126*
X136537*
Y07134*
X136457*
Y07126*
X136377*
Y07134*
X136297*
Y07142*
X136217*
Y07134*
X136137*
Y07142*
X136057*
Y0715*
X135977*
Y07158*
X135897*
Y07166*
X135817*
Y07174*
X135737*
Y07182*
X135657*
Y0719*
X135577*
Y07198*
X135337*
Y07206*
X135257*
Y07214*
X135177*
Y07222*
X135257*
Y0723*
X135017*
Y07238*
X135097*
Y07246*
Y07254*
Y07262*
X135017*
Y0727*
X135097*
Y07278*
X135177*
Y07286*
X135257*
Y07294*
X135177*
Y07302*
X135257*
Y0731*
X135177*
Y07318*
X135257*
Y07326*
Y07334*
X135337*
Y07342*
Y0735*
X135257*
Y07358*
X135337*
Y07366*
X135417*
Y07374*
X135337*
Y07382*
X135417*
Y0739*
X135337*
Y07398*
X135417*
Y07406*
X135337*
Y07414*
X135417*
Y07422*
X135337*
Y0743*
X135257*
Y07422*
X135177*
Y07414*
X135097*
Y07406*
X135017*
Y07398*
X135097*
Y0739*
X135017*
Y07382*
X134937*
Y07374*
X134857*
Y07366*
X134937*
Y07358*
X134857*
Y0735*
Y07342*
Y07334*
X134777*
Y07326*
Y07318*
Y0731*
X134697*
Y07302*
X134777*
Y07294*
X134697*
Y07286*
X134777*
Y07278*
X134697*
Y0727*
X134777*
Y07262*
X134697*
Y07254*
X134777*
Y07246*
X134697*
Y07238*
X134777*
Y0723*
X134857*
Y07222*
X134937*
Y07214*
Y07206*
X135097*
Y07198*
X135017*
Y0719*
X135097*
Y07182*
X135177*
Y07174*
X135257*
Y07166*
X135337*
Y07158*
X135417*
Y0715*
X135497*
Y07142*
X135577*
Y07134*
X135657*
Y07126*
X135897*
Y07118*
X135977*
Y0711*
X136057*
Y07102*
X136137*
Y07094*
X136217*
Y07086*
X136137*
Y07078*
X136217*
Y0707*
X136297*
Y07062*
X136217*
Y07054*
Y07046*
Y07038*
X136137*
Y0703*
Y07022*
X135977*
Y07014*
X136057*
Y07006*
X135977*
Y06998*
X135897*
Y07006*
X135817*
Y06998*
X135897*
Y0699*
X135817*
Y06982*
X135737*
Y0699*
X135657*
Y06982*
X135737*
Y06974*
X135657*
Y06966*
X135577*
Y06958*
X135497*
Y0695*
X135417*
Y06958*
X135337*
Y0695*
X135417*
Y06942*
X135337*
Y0695*
X135257*
Y06942*
X135177*
Y0695*
X135097*
Y06942*
X135017*
Y0695*
X134937*
Y06958*
X134857*
Y0695*
X134937*
Y06942*
X134857*
Y0695*
X134777*
Y06958*
X134697*
Y06966*
X134617*
Y06974*
X134537*
Y06982*
X134457*
Y0699*
X134377*
Y06998*
X134297*
Y07006*
X134217*
Y07014*
X134137*
Y07022*
X134057*
Y0703*
X133977*
Y07038*
X133897*
Y07046*
X133817*
Y07054*
Y07062*
Y0707*
X133737*
Y07078*
X133817*
Y07086*
X133897*
Y07094*
X133977*
Y07102*
X133897*
Y0711*
X133977*
Y07118*
X134057*
Y07126*
X133977*
Y07134*
X133897*
Y07142*
X133817*
Y0715*
X133737*
Y07158*
X133657*
Y07166*
X133577*
Y07174*
X133497*
Y07182*
X133417*
Y0719*
X133337*
Y07198*
X133257*
Y07206*
X133337*
Y07214*
X133257*
Y07222*
X133177*
Y0723*
X133097*
Y07238*
Y07246*
X132937*
Y07254*
X133017*
Y07262*
X132937*
Y0727*
X132857*
Y07278*
Y07286*
Y07294*
X132777*
Y07302*
X132857*
Y0731*
X132777*
Y07318*
X132697*
Y07326*
Y07334*
Y07342*
Y0735*
Y07358*
Y07366*
Y07374*
X132617*
Y07382*
X132697*
Y0739*
Y07398*
Y07406*
Y07414*
Y07422*
Y0743*
Y07438*
X132777*
Y07446*
X132697*
Y07454*
X132777*
Y07462*
X132857*
Y0747*
X132777*
Y07478*
X132857*
Y07486*
X132937*
Y07494*
Y07502*
Y0751*
X133017*
Y07518*
X133097*
Y07526*
X133177*
Y07534*
X133097*
Y07542*
X133177*
Y0755*
X133257*
Y07558*
X133337*
Y07566*
X133417*
Y07574*
Y07582*
Y0759*
X133497*
Y07598*
X133577*
Y07606*
X133657*
Y07614*
X133417*
Y07622*
X133497*
Y0763*
X133417*
Y07638*
X133337*
Y07646*
X133257*
Y07654*
X133337*
Y07662*
X133257*
Y0767*
X133337*
Y07678*
X133257*
Y07686*
X133337*
Y07694*
X133257*
Y07702*
X133337*
Y0771*
X133257*
Y07718*
X133337*
Y07726*
Y07734*
Y07742*
Y0775*
Y07758*
X133177*
Y07766*
Y07774*
X132937*
Y07782*
X132857*
Y0779*
X132777*
Y07798*
X132857*
Y07806*
X132777*
Y07814*
X132697*
Y07822*
X132617*
Y0783*
X132697*
Y07838*
Y07846*
Y07854*
X132777*
Y07862*
X132857*
Y0787*
X132777*
Y07878*
X133017*
Y07886*
X133097*
Y07894*
X133337*
Y07902*
X133417*
Y0791*
X133497*
Y07902*
X133577*
Y0791*
X134457*
Y07902*
X134537*
Y0791*
X134617*
Y07902*
X134697*
Y0791*
X134777*
Y07902*
G37*
G36*
X159417Y0787D02*
X159337D01*
Y07878*
X159417*
Y0787*
G37*
G36*
X182509Y093501D02*
X182511Y0935D01*
X182513Y093499*
X182514Y093497*
X182515Y093495*
X182514Y093493*
X182513Y093491*
X182525Y093363*
X182569Y093219*
X18264Y093087*
X182735Y092971*
X182851Y092876*
X182983Y092805*
X183127Y092761*
X183255Y092749*
X183257Y09275*
X183259Y092751*
Y09275*
Y092751*
X183261Y09275*
X183263Y092749*
X183264Y092747*
X183265Y092745*
Y092113*
Y092109*
X183264Y092108*
X183263Y092106*
X183261Y092105*
X18326Y092104*
X183244Y092103*
X183243*
X183029Y09212*
X183028*
X182819Y09217*
X182818*
X182619Y092253*
X182618*
X182435Y092365*
X182434Y092366*
X18227Y092506*
X18213Y09267*
Y092671*
X182017Y092854*
Y092855*
X181934Y093054*
X181884Y093264*
X181867Y093479*
Y09348*
X181868Y093496*
X181869Y093497*
X18187Y093499*
X181872Y0935*
X181873Y093501*
X182509*
G37*
G36*
X153926Y093761D02*
X154166D01*
Y093681*
X154246*
Y093601*
X154406*
Y093521*
X154486*
Y093441*
Y093361*
X154566*
Y093281*
X154646*
Y093201*
Y093121*
X154726*
Y093041*
Y092961*
Y092881*
X154806*
Y092801*
Y092721*
Y092641*
Y092561*
Y092481*
Y092401*
Y092321*
Y092241*
Y092161*
X154726*
Y092081*
Y092001*
Y091921*
X154646*
Y091841*
X154566*
Y091761*
Y091681*
X154406*
Y091601*
X154326*
Y091521*
X154246*
Y091441*
X154166*
Y091361*
X154006*
Y091281*
X153686*
Y091201*
X153286*
Y091281*
X153046*
Y091361*
X152806*
Y091441*
X152726*
Y091521*
X152646*
Y091601*
X152486*
Y091681*
Y091761*
X152406*
Y091841*
X152326*
Y091921*
Y092001*
X152246*
Y092081*
Y092161*
X152166*
Y092241*
X152246*
Y092321*
Y092401*
X152166*
Y092481*
Y092561*
Y092641*
Y092721*
X152246*
Y092801*
Y092881*
X152166*
Y092961*
X152246*
Y093041*
X152326*
Y093121*
Y093201*
Y093281*
X152486*
Y093361*
Y093441*
X152566*
Y093521*
X152726*
Y093601*
Y093681*
X152886*
Y093761*
X153046*
Y093841*
X153926*
Y093761*
G37*
G36*
X12936Y069091D02*
X129361Y06909D01*
X129363*
Y069089*
X129364Y069088*
X129365Y069086*
X129364Y069084*
Y069082*
X129363*
X129376Y068953*
X129419Y06881*
X12949Y068677*
X129585Y068561*
X129701Y068466*
X129833Y068395*
X129977Y068352*
X130106Y068339*
Y06834*
X130108*
X13011Y068341*
X130112Y06834*
X130113Y068339*
X130114*
Y068338*
X130115Y068336*
Y067703*
Y0677*
X130114Y067698*
Y067696*
X130112Y067695*
X13011*
X130094Y067693*
X129879Y06771*
X129878*
X129669Y067761*
X129668*
X129469Y067843*
Y067844*
X129285Y067956*
X129284*
X129121Y068096*
Y068097*
X12912*
X12898Y06826*
Y068261*
X128867Y068445*
X128785Y068644*
Y068645*
X128784*
X128734Y068854*
Y068855*
X128717Y06907*
X128718Y069086*
X128719Y069088*
X12872Y06909*
X128722*
X128724Y069091*
X12936*
G37*
G36*
X130147Y093501D02*
X130149Y0935D01*
X130151Y093499*
X130152Y093497*
Y093495*
Y093493*
X130151Y093491*
X130163Y093363*
X130207Y093219*
X130278Y093087*
X130373Y092971*
X130489Y092876*
X130621Y092805*
X130764Y092761*
X130893Y092749*
X130895Y09275*
X130897Y092751*
Y09275*
Y092751*
X130899Y09275*
X130901Y092749*
X130902Y092747*
Y092745*
Y092113*
Y092109*
Y092108*
X130901Y092106*
X130899Y092105*
X130897Y092104*
X130882Y092103*
X130881*
X130666Y09212*
X130456Y09217*
X130257Y092253*
X130256*
X130072Y092365*
Y092366*
X129908Y092506*
X129768Y09267*
X129767Y092671*
X129655Y092854*
X129654Y092855*
X129572Y093054*
X129522Y093264*
X129505Y093479*
Y09348*
X129506Y093496*
X129507Y093497*
Y093499*
X129508*
X12951Y0935*
X129511Y093501*
X130147*
G37*
G36*
X130906Y094911D02*
D01*
X131091Y094897*
Y094896*
X131312Y094843*
X131313*
X131523Y094756*
X131717Y094637*
X131718*
X13189Y094489*
X131891*
X132038Y094316*
X132039*
Y094315*
X132158Y094122*
Y094121*
X132245Y093911*
X132298Y09369*
Y093689*
X132313Y093504*
X132312Y093502*
X132311Y0935*
X132309Y093499*
X132308*
X132307*
X132306*
X131658*
X131656*
X131654Y0935*
X131653Y093502*
X131652Y093503*
X131639Y093637*
X131596Y09378*
X131525Y093912*
X13143Y094028*
X131314Y094123*
X131182Y094194*
X131038Y094238*
X130909Y09425*
X130907Y094249*
X130906*
X130905*
X130904*
X130902Y09425*
X130901Y094252*
X1309Y094254*
Y094906*
X130901Y094908*
X130902Y09491*
X130904*
X130906Y094911*
G37*
G36*
X183268D02*
D01*
X183453Y094897*
Y094896*
X183454*
X183674Y094843*
X183675*
X183885Y094756*
X183886*
X184079Y094637*
X18408*
X184253Y094489*
X184401Y094316*
Y094315*
X18452Y094122*
Y094121*
X184607Y093911*
X18466Y09369*
Y093689*
X184675Y093504*
X184674Y093502*
Y0935*
X184673*
X184672Y093499*
X18467*
X184668*
X18402*
X184018*
X184017Y0935*
X184016*
X184015Y093502*
Y093503*
X184001Y093637*
X183958Y09378*
X183887Y093912*
X183792Y094028*
X183676Y094123*
X183544Y094194*
X1834Y094238*
X183272Y09425*
X183271*
X18327Y094249*
X183268*
X183266*
X183264Y09425*
X183263Y094252*
X183262Y094254*
Y094906*
X183263Y094908*
X183264Y09491*
X183266*
X183268Y094911*
G37*
G36*
X173017Y07214D02*
X172937D01*
Y07222*
X173017*
Y07214*
G37*
G36*
X182509Y069091D02*
X182511Y06909D01*
X182513*
Y069089*
X182514Y069088*
X182515Y069086*
X182514Y069084*
X182513Y069082*
X182525Y068953*
X182569Y06881*
X18264Y068677*
X182735Y068561*
X182851Y068466*
X182983Y068395*
X183127Y068352*
X183255Y068339*
Y06834*
X183257*
X183259Y068341*
X183261Y06834*
X183263Y068339*
X183264Y068338*
X183265Y068336*
Y067703*
Y0677*
X183264Y067698*
X183263Y067696*
X183261Y067695*
X18326*
X183244Y067693*
X183243*
X183029Y06771*
X183028*
X182819Y067761*
X182818*
X182619Y067843*
X182618Y067844*
X182435Y067956*
X182434*
X18227Y068096*
Y068097*
X18213Y06826*
Y068261*
X182017Y068445*
X181934Y068644*
Y068645*
X181884Y068854*
Y068855*
X181867Y06907*
X181868Y069086*
X181869Y069088*
X18187Y06909*
X181872*
X181873Y069091*
X182509*
G37*
G36*
X177977Y094478D02*
Y094398D01*
Y094318*
Y094238*
X178057*
Y094158*
X178377*
Y094078*
X181017*
Y093998*
X181097*
Y093918*
X181017*
Y093838*
X180937*
Y093758*
X180857*
Y093678*
X180777*
Y093598*
Y093518*
X180697*
Y093438*
X180537*
Y093518*
X180457*
Y093598*
X180377*
Y093518*
X180217*
Y093438*
Y093358*
Y093278*
X180377*
Y093198*
X180297*
Y093118*
X180137*
Y093198*
X179977*
Y093118*
X180137*
Y093038*
X180057*
Y092958*
X179897*
Y092878*
X179737*
Y092798*
X179577*
Y092718*
X179417*
Y092638*
X179177*
Y092558*
X178857*
Y092478*
X178377*
Y092398*
X178057*
Y092318*
X177817*
Y092398*
X177417*
Y092318*
X177497*
Y092238*
Y092158*
X177577*
Y092238*
X177657*
Y092318*
X177817*
Y092238*
X177737*
Y092158*
X177657*
Y092078*
X177577*
Y091998*
X177497*
Y092078*
X177417*
Y091998*
X177497*
Y091918*
Y091838*
Y091758*
Y091678*
Y091598*
Y091518*
Y091438*
Y091358*
Y091278*
X177577*
Y091198*
Y091118*
X177657*
Y091038*
X177737*
Y090958*
X177817*
Y090878*
X177897*
Y090798*
X177977*
Y090718*
X178137*
Y090638*
X178217*
Y090558*
X178457*
Y090478*
X178697*
Y090398*
X178777*
Y090318*
Y090238*
Y090158*
Y090078*
Y089998*
Y089918*
Y089838*
Y089758*
Y089678*
X177657*
Y089758*
X177497*
Y089838*
X177417*
Y089918*
X177257*
Y089998*
X177097*
Y090078*
X176697*
Y090158*
X176377*
Y090078*
X175977*
Y089998*
X175817*
Y089918*
X175657*
Y089838*
X175497*
Y089758*
X175417*
Y089678*
X175257*
Y089598*
X174217*
Y089678*
Y089758*
Y089838*
Y089918*
Y089998*
Y090078*
Y090158*
Y090238*
Y090318*
Y090398*
Y090478*
X174297*
Y090558*
X174377*
Y090638*
Y090718*
X174457*
Y090798*
X174537*
Y090878*
X174617*
Y090958*
X174777*
Y091038*
X175017*
Y090958*
X174937*
Y090878*
X174857*
Y090798*
X174697*
Y090718*
X174617*
Y090638*
Y090558*
X174777*
Y090478*
X174697*
Y090398*
X174777*
Y090318*
X175017*
Y090238*
X175177*
Y090158*
Y090078*
Y089998*
Y089918*
X175337*
Y089838*
X175417*
Y089918*
X175497*
Y089998*
X175337*
Y090078*
X175417*
Y090158*
Y090238*
X175497*
Y090318*
Y090398*
X175577*
Y090478*
X175657*
Y090558*
X175737*
Y090638*
X175817*
Y090718*
X175977*
Y090798*
X176057*
Y090878*
X176857*
Y090798*
X177017*
Y090718*
X177177*
Y090638*
X177257*
Y090558*
X177337*
Y090478*
X177417*
Y090398*
X177497*
Y090318*
Y090238*
X177577*
Y090158*
Y090078*
Y089998*
Y089918*
X177657*
Y089998*
X177737*
Y090078*
Y090158*
X177817*
Y090238*
X177897*
Y090318*
X178297*
Y090398*
Y090478*
X177657*
Y090558*
X177577*
Y090638*
X177497*
Y090718*
X177417*
Y090798*
X177337*
Y090878*
X177257*
Y090958*
X177177*
Y091038*
X177017*
Y091118*
X176937*
Y091198*
X176777*
Y091278*
X176217*
Y091198*
X176057*
Y091118*
X175977*
Y091038*
X175897*
Y090958*
X175817*
Y090878*
X175737*
Y090798*
X175657*
Y090718*
X175577*
Y090638*
X175417*
Y090718*
X175177*
Y090638*
X175417*
Y090558*
X175257*
Y090478*
X174857*
Y090558*
X174777*
Y090638*
X174937*
Y090718*
X175017*
Y090798*
X175097*
Y090878*
X175257*
Y090798*
X175337*
Y090878*
X175257*
Y090958*
Y091038*
X175337*
Y091118*
X175417*
Y091038*
Y090958*
X175497*
Y090878*
Y090798*
X175577*
Y090878*
X175657*
Y090958*
X175497*
Y091038*
Y091118*
X175417*
Y091198*
X175497*
Y091278*
Y091358*
X175577*
Y091438*
Y091518*
Y091598*
Y091678*
Y091758*
Y091838*
Y091918*
Y091998*
Y092078*
Y092158*
Y092238*
X175497*
Y092318*
Y092398*
X175417*
Y092478*
Y092558*
X175337*
Y092638*
X175257*
Y092718*
Y092798*
X175177*
Y092878*
X175017*
Y092958*
X174937*
Y093038*
X174857*
Y093118*
X174697*
Y093198*
X174537*
Y093278*
X174377*
Y093358*
X174137*
Y093438*
X173817*
Y093518*
X173417*
Y093598*
X173017*
Y093678*
X172857*
Y093758*
X172777*
Y093838*
Y093918*
Y093998*
Y094078*
Y094158*
Y094238*
Y094318*
Y094398*
Y094478*
Y094558*
X172857*
Y094478*
X172937*
Y094398*
X172857*
Y094318*
Y094238*
Y094158*
Y094078*
X172937*
Y094158*
X177657*
Y094078*
X177737*
Y093998*
X177817*
Y093918*
X177737*
Y093838*
X177897*
Y093918*
Y093998*
Y094078*
Y094158*
X177817*
Y094238*
Y094318*
Y094398*
Y094478*
X172937*
Y094558*
X177977*
Y094478*
G37*
G36*
X178057Y091038D02*
X178297D01*
Y090958*
X178457*
Y090878*
X178537*
Y090798*
X178617*
Y090718*
X178457*
Y090798*
X178217*
Y090878*
X178137*
Y090958*
X178057*
Y091038*
X177897*
Y091118*
X178057*
Y091038*
G37*
%LNpcb1-2*%
%LPC*%
G36*
X156006Y091521D02*
X155446D01*
Y091441*
X155286*
Y091361*
X155126*
Y091281*
Y091201*
X155046*
Y091121*
Y091041*
X154966*
Y090961*
Y090881*
Y090801*
Y090721*
Y090641*
Y090561*
Y090481*
Y090401*
X155046*
Y090321*
Y090241*
X155126*
Y090161*
X155286*
Y090081*
X155366*
Y090001*
X155606*
Y089921*
X155846*
Y090001*
X156086*
Y090081*
X156166*
Y090161*
X156326*
Y090241*
Y090321*
X156406*
Y090401*
X156486*
Y090481*
Y090561*
Y090641*
X156566*
Y090721*
Y090801*
Y090881*
X156486*
Y090961*
Y091041*
Y091121*
Y091201*
X156326*
Y091281*
X156246*
Y091361*
X156166*
Y091441*
X156006*
Y091521*
G37*
G36*
X172057Y0739D02*
X171977D01*
Y07382*
X172057*
Y07374*
X171977*
Y07366*
X172057*
Y07358*
X172137*
Y07366*
Y07374*
Y07382*
X172057*
Y0739*
G37*
G36*
X167337Y07646D02*
X166697D01*
Y07638*
X166537*
Y0763*
X166457*
Y07622*
X166377*
Y07614*
X166297*
Y07606*
X166217*
Y07598*
Y0759*
X166137*
Y07582*
Y07574*
X166057*
Y07566*
X165977*
Y07558*
Y0755*
X165897*
Y07542*
Y07534*
X165817*
Y07526*
Y07518*
X165737*
Y0751*
Y07502*
X165657*
Y07494*
Y07486*
Y07478*
X165577*
Y0747*
Y07462*
X165497*
Y07454*
Y07446*
X165417*
Y07438*
Y0743*
X165337*
Y07422*
Y07414*
X165257*
Y07406*
Y07398*
Y0739*
X165177*
Y07382*
Y07374*
X165097*
Y07366*
Y07358*
X165017*
Y0735*
Y07342*
X164937*
Y07334*
Y07326*
Y07318*
X164857*
Y0731*
Y07302*
X164777*
Y07294*
X164697*
Y07286*
X164457*
Y07294*
X164537*
Y07302*
Y0731*
Y07318*
Y07326*
X164617*
Y07334*
Y07342*
Y0735*
Y07358*
Y07366*
Y07374*
Y07382*
Y0739*
Y07398*
Y07406*
Y07414*
Y07422*
X164537*
Y0743*
Y07438*
Y07446*
Y07454*
Y07462*
X164457*
Y0747*
Y07478*
X164377*
Y07486*
Y07494*
X164297*
Y07502*
Y0751*
X164217*
Y07518*
Y07526*
X164137*
Y07534*
X164057*
Y07542*
Y0755*
X163977*
Y07558*
X163897*
Y07566*
X163817*
Y07574*
X163737*
Y07582*
X163657*
Y0759*
X163577*
Y07598*
X163497*
Y07606*
X163417*
Y07614*
X163257*
Y07622*
X163097*
Y0763*
X162937*
Y07638*
X162777*
Y07646*
X161897*
Y07638*
X161657*
Y0763*
X161497*
Y07622*
X161337*
Y07614*
X161257*
Y07606*
X161177*
Y07598*
X161097*
Y0759*
Y07582*
X161017*
Y07574*
Y07566*
Y07558*
X161097*
Y0755*
X161177*
Y07542*
Y07534*
X161257*
Y07526*
X161337*
Y07518*
X161417*
Y0751*
X161497*
Y07502*
X161577*
Y07494*
X161657*
Y07486*
X161737*
Y07478*
Y0747*
Y07462*
X161657*
Y07454*
Y07446*
X161577*
Y07438*
Y0743*
Y07422*
Y07414*
X161497*
Y07406*
Y07398*
Y0739*
Y07382*
X161577*
Y07374*
X161657*
Y07366*
X161737*
Y07358*
X161977*
Y07366*
X162057*
Y07374*
X162137*
Y07382*
X162217*
Y0739*
Y07398*
Y07406*
Y07414*
Y07422*
Y0743*
X162137*
Y07438*
Y07446*
X162057*
Y07454*
Y07462*
X161977*
Y0747*
Y07478*
Y07486*
Y07494*
X162057*
Y07502*
X162137*
Y0751*
X162217*
Y07518*
X162377*
Y07526*
X162537*
Y07518*
X162457*
Y0751*
X162377*
Y07502*
X162297*
Y07494*
Y07486*
X162217*
Y07478*
Y0747*
X162297*
Y07462*
Y07454*
X162377*
Y07446*
Y07438*
X162537*
Y0743*
X162697*
Y07422*
X162857*
Y0743*
X163017*
Y07438*
X163177*
Y07446*
Y07454*
X163257*
Y07462*
X163337*
Y0747*
Y07478*
Y07486*
X163257*
Y07494*
Y07502*
X163177*
Y0751*
X163097*
Y07518*
X163257*
Y0751*
X163337*
Y07502*
Y07494*
X163417*
Y07486*
Y07478*
Y0747*
Y07462*
X163497*
Y07454*
Y07446*
Y07438*
X163417*
Y0743*
Y07422*
Y07414*
Y07406*
Y07398*
X163337*
Y0739*
Y07382*
X163257*
Y07374*
Y07366*
X163177*
Y07358*
Y0735*
X163097*
Y07342*
X163017*
Y07334*
X162937*
Y07326*
X162857*
Y07318*
X162697*
Y0731*
X162537*
Y07302*
X161897*
Y0731*
X161657*
Y07318*
X161417*
Y07326*
X161257*
Y07318*
X161097*
Y0731*
Y07302*
Y07294*
X161177*
Y07286*
Y07278*
X161257*
Y0727*
Y07262*
Y07254*
X161337*
Y07246*
X161417*
Y07238*
Y0723*
X161497*
Y07222*
X161577*
Y07214*
X161657*
Y07206*
X161737*
Y07198*
X161817*
Y0719*
X161897*
Y07182*
X162057*
Y07174*
X162217*
Y07166*
X162537*
Y07158*
X163097*
Y07166*
X163337*
Y07174*
X163497*
Y07182*
X163657*
Y0719*
X163737*
Y07198*
X163897*
Y07206*
X163977*
Y07214*
X164057*
Y07222*
X164137*
Y0723*
X164217*
Y07238*
Y07246*
X164297*
Y07254*
X164377*
Y07246*
X164457*
Y07238*
X164537*
Y0723*
X164617*
Y07222*
X164697*
Y07214*
X164777*
Y07206*
X164857*
Y07198*
X164937*
Y0719*
X165017*
Y07182*
X165097*
Y07174*
X165177*
Y07166*
X165337*
Y07158*
X165657*
Y07166*
X165817*
Y07174*
X165897*
Y07182*
X165977*
Y0719*
X166057*
Y07198*
X166137*
Y07206*
X166217*
Y07214*
Y07222*
X166297*
Y0723*
Y07238*
X166377*
Y07246*
Y07254*
X166537*
Y07246*
X166617*
Y07238*
X166697*
Y0723*
X166777*
Y07222*
X166937*
Y07214*
X167017*
Y07206*
X167097*
Y07198*
X167257*
Y0719*
X167337*
Y07182*
X167497*
Y07174*
X167737*
Y07166*
X168617*
Y07174*
X168777*
Y07182*
X168937*
Y0719*
X169017*
Y07198*
X169097*
Y07206*
X169177*
Y07214*
X169257*
Y07222*
Y0723*
X169337*
Y07238*
Y07246*
Y07254*
Y07262*
Y0727*
Y07278*
Y07286*
Y07294*
Y07302*
Y0731*
X169257*
Y07318*
Y07326*
Y07334*
X169177*
Y07342*
X169097*
Y0735*
X169017*
Y07358*
Y07366*
X168937*
Y07374*
X168857*
Y07382*
X168697*
Y0739*
X168617*
Y07398*
X168537*
Y07406*
X168457*
Y07414*
X168377*
Y07422*
X168297*
Y0743*
X168137*
Y07438*
X168057*
Y07446*
X167977*
Y07454*
X167817*
Y07462*
X167737*
Y0747*
X167497*
Y07462*
Y07454*
X167417*
Y07446*
Y07438*
Y0743*
Y07422*
X167577*
Y07414*
X167657*
Y07406*
X167737*
Y07398*
X167817*
Y0739*
X167897*
Y07382*
X167737*
Y0739*
X167337*
Y07382*
X167177*
Y07374*
Y07366*
X167097*
Y07358*
Y0735*
Y07342*
Y07334*
Y07326*
Y07318*
X167177*
Y0731*
X167257*
Y07302*
X167337*
Y07294*
X167737*
Y07302*
X167897*
Y07294*
X167817*
Y07286*
X167097*
Y07294*
X166857*
Y07302*
X166697*
Y0731*
Y07318*
Y07326*
X166777*
Y07334*
Y07342*
X166857*
Y0735*
Y07358*
X166937*
Y07366*
Y07374*
X167017*
Y07382*
Y0739*
Y07398*
X167097*
Y07406*
Y07414*
X167177*
Y07422*
Y0743*
X167257*
Y07438*
Y07446*
X167337*
Y07454*
Y07462*
Y0747*
X167417*
Y07478*
Y07486*
X167497*
Y07494*
X167577*
Y07502*
Y0751*
X167657*
Y07518*
X167817*
Y07526*
X168217*
Y07518*
X168297*
Y0751*
X168377*
Y07502*
X168297*
Y07494*
Y07486*
Y07478*
X168217*
Y0747*
Y07462*
X168297*
Y07454*
Y07446*
X168617*
Y07454*
X168697*
Y07462*
Y0747*
Y07478*
Y07486*
X168617*
Y07494*
Y07502*
Y0751*
Y07518*
X168697*
Y07526*
Y07534*
X168617*
Y07542*
X168537*
Y0755*
X168457*
Y07558*
X168377*
Y07566*
X168297*
Y07574*
X168217*
Y07582*
X168137*
Y0759*
X168057*
Y07598*
X167977*
Y07606*
X167817*
Y07614*
X167737*
Y07622*
X167657*
Y0763*
X167497*
Y07638*
X167337*
Y07646*
G37*
G36*
X161097Y07494D02*
X161017D01*
Y07486*
Y07478*
Y0747*
Y07462*
Y07454*
Y07446*
Y07438*
Y0743*
Y07422*
Y07414*
Y07406*
Y07398*
Y0739*
Y07382*
Y07374*
Y07366*
Y07358*
X161097*
Y0735*
X161177*
Y07358*
X161097*
Y07366*
X161177*
Y07374*
Y07382*
Y0739*
Y07398*
Y07406*
Y07414*
Y07422*
Y0743*
Y07438*
X161257*
Y07446*
Y07454*
Y07462*
X161337*
Y0747*
X161257*
Y07478*
X161177*
Y07486*
X161097*
Y07494*
G37*
G36*
X162937Y0739D02*
X162537D01*
Y07382*
X162457*
Y07374*
Y07366*
Y07358*
X162377*
Y0735*
X162457*
Y07342*
X162537*
Y0735*
X162617*
Y07358*
X162697*
Y07366*
X162777*
Y07374*
X162857*
Y07382*
X162937*
Y0739*
G37*
G36*
X172057Y07742D02*
X171977D01*
Y07734*
X172057*
Y07742*
G37*
G36*
X162457Y07342D02*
X162377D01*
Y07334*
X162457*
Y07342*
G37*
G36*
X176217Y07798D02*
X175977D01*
Y0779*
X175817*
Y07782*
X175737*
Y07774*
X175657*
Y07766*
X175577*
Y07758*
Y0775*
X175497*
Y07742*
Y07734*
Y07726*
Y07718*
X175417*
Y07726*
X175337*
Y07734*
X175257*
Y07742*
X175177*
Y0775*
X175097*
Y07758*
X175017*
Y07766*
X174857*
Y07774*
X174777*
Y07782*
X174617*
Y0779*
X174377*
Y07798*
X174217*
Y0779*
X173977*
Y07782*
X173817*
Y07774*
X173657*
Y07766*
X173497*
Y07758*
X173417*
Y0775*
X173337*
Y07742*
X173257*
Y07734*
X173177*
Y07726*
X173097*
Y07718*
X173017*
Y0771*
Y07702*
X172937*
Y07694*
Y07686*
Y07678*
Y0767*
X172857*
Y07662*
Y07654*
Y07646*
Y07638*
Y0763*
Y07622*
Y07614*
Y07606*
X172937*
Y07598*
Y0759*
X173017*
Y07582*
X173097*
Y07574*
X173177*
Y07566*
X173257*
Y07558*
X173337*
Y0755*
X173417*
Y07542*
X173497*
Y07534*
X173337*
Y07526*
X173257*
Y07518*
X173097*
Y0751*
X173017*
Y07502*
X172937*
Y07494*
X172857*
Y07486*
X172777*
Y07478*
X172697*
Y0747*
Y07462*
X172617*
Y07454*
X172537*
Y07446*
Y07438*
Y0743*
X172457*
Y07422*
Y07414*
Y07406*
Y07398*
Y0739*
Y07382*
Y07374*
Y07366*
Y07358*
Y0735*
Y07342*
Y07334*
Y07326*
X172537*
Y07318*
Y0731*
X172617*
Y07302*
X172697*
Y07294*
X172777*
Y07286*
X172857*
Y07278*
X172937*
Y0727*
X173097*
Y07262*
X173177*
Y07254*
X173257*
Y07246*
X173337*
Y07238*
X173417*
Y0723*
Y07222*
X173497*
Y07214*
X173577*
Y07206*
X173657*
Y07198*
X173737*
Y0719*
X173817*
Y07182*
Y07174*
X173897*
Y07166*
X175417*
Y07158*
X176697*
Y0715*
X177177*
Y07158*
X177257*
Y07166*
Y07174*
X177337*
Y07182*
Y0719*
Y07198*
X177177*
Y07206*
Y07214*
X177097*
Y07222*
X177017*
Y0723*
Y07238*
X176937*
Y07246*
Y07254*
Y07262*
X176857*
Y0727*
Y07278*
Y07286*
Y07294*
Y07302*
Y0731*
Y07318*
Y07326*
Y07334*
Y07342*
Y0735*
Y07358*
Y07366*
Y07374*
Y07382*
Y0739*
Y07398*
Y07406*
Y07414*
Y07422*
Y0743*
Y07438*
Y07446*
Y07454*
Y07462*
Y0747*
Y07478*
Y07486*
Y07494*
Y07502*
Y0751*
Y07518*
Y07526*
Y07534*
Y07542*
Y0755*
Y07558*
Y07566*
Y07574*
Y07582*
Y0759*
Y07598*
Y07606*
Y07614*
Y07622*
Y0763*
Y07638*
Y07646*
Y07654*
X176937*
Y07662*
X177017*
Y07654*
Y07646*
X176937*
Y07638*
Y0763*
Y07622*
Y07614*
X177017*
Y07606*
X177097*
Y07598*
X177177*
Y07606*
X177337*
Y07614*
Y07622*
Y0763*
Y07638*
Y07646*
X177257*
Y07654*
Y07662*
Y0767*
X177337*
Y07678*
Y07686*
X177257*
Y07694*
X177177*
Y07702*
X177097*
Y0771*
X177017*
Y07718*
X176937*
Y07726*
X176857*
Y07734*
X176777*
Y07742*
X176697*
Y0775*
X176617*
Y07758*
X176537*
Y07766*
X176457*
Y07774*
X176377*
Y07782*
X176297*
Y0779*
X176217*
Y07798*
G37*
G36*
X162297Y07342D02*
X162217D01*
Y07334*
X162297*
Y07342*
G37*
G36*
X172537Y0763D02*
X172457D01*
Y07622*
X172537*
Y0763*
G37*
G36*
X172377Y07486D02*
X172297D01*
Y07478*
X172377*
Y07486*
G37*
G36*
X172697Y07566D02*
X172617D01*
Y07558*
X172697*
Y0755*
X172617*
Y07542*
X172697*
Y07534*
X172777*
Y07542*
X172857*
Y0755*
X172777*
Y07558*
X172697*
Y07566*
G37*
G36*
X170777Y07806D02*
X170537D01*
Y07798*
X170457*
Y0779*
X170377*
Y07782*
Y07774*
X170297*
Y07766*
X170217*
Y07758*
Y0775*
X170137*
Y07742*
Y07734*
Y07726*
Y07718*
X170057*
Y0771*
Y07702*
Y07694*
Y07686*
Y07678*
Y0767*
Y07662*
Y07654*
Y07646*
Y07638*
Y0763*
Y07622*
Y07614*
Y07606*
Y07598*
Y0759*
Y07582*
Y07574*
Y07566*
Y07558*
Y0755*
Y07542*
Y07534*
Y07526*
Y07518*
Y0751*
Y07502*
Y07494*
Y07486*
Y07478*
Y0747*
Y07462*
Y07454*
Y07446*
Y07438*
Y0743*
Y07422*
Y07414*
Y07406*
Y07398*
Y0739*
Y07382*
Y07374*
Y07366*
Y07358*
Y0735*
Y07342*
Y07334*
X169977*
Y07342*
X169817*
Y0735*
X169737*
Y07358*
X169577*
Y0735*
X169497*
Y07342*
X169417*
Y07334*
X169337*
Y07326*
Y07318*
X169417*
Y0731*
X169497*
Y07302*
X169577*
Y07294*
X169657*
Y07286*
X169737*
Y07278*
X169817*
Y0727*
X169897*
Y07262*
X169977*
Y07254*
X170137*
Y07246*
X170217*
Y07238*
X170297*
Y0723*
X170377*
Y07222*
X170457*
Y07214*
X170537*
Y07206*
X170617*
Y07198*
X170777*
Y0719*
X170857*
Y07182*
X170937*
Y07174*
X171017*
Y07166*
Y07158*
X170937*
Y0715*
Y07142*
X170857*
Y07134*
Y07126*
Y07118*
X170777*
Y0711*
Y07102*
Y07094*
Y07086*
Y07078*
Y0707*
X170857*
Y07062*
X170937*
Y07054*
X171097*
Y07046*
X171177*
Y07054*
X171337*
Y07062*
X171417*
Y0707*
Y07078*
X171497*
Y07086*
Y07094*
Y07102*
Y0711*
X171417*
Y07118*
Y07126*
Y07134*
X171337*
Y07142*
Y0715*
X171257*
Y07158*
Y07166*
X171177*
Y07174*
X171257*
Y07182*
X171337*
Y0719*
Y07198*
X171417*
Y07206*
Y07214*
X171497*
Y07222*
Y0723*
Y07238*
X171577*
Y07246*
Y07254*
Y07262*
Y0727*
X171657*
Y07278*
Y07286*
Y07294*
Y07302*
Y0731*
Y07318*
Y07326*
Y07334*
Y07342*
Y0735*
Y07358*
Y07366*
Y07374*
Y07382*
Y0739*
Y07398*
Y07406*
Y07414*
Y07422*
Y0743*
Y07438*
Y07446*
Y07454*
Y07462*
Y0747*
Y07478*
Y07486*
Y07494*
X171577*
Y07502*
Y0751*
Y07518*
Y07526*
Y07534*
Y07542*
Y0755*
Y07558*
Y07566*
Y07574*
Y07582*
Y0759*
Y07598*
Y07606*
Y07614*
Y07622*
Y0763*
Y07638*
Y07646*
Y07654*
X171737*
Y07646*
X171817*
Y07638*
X171897*
Y0763*
Y07622*
Y07614*
X171817*
Y07606*
Y07598*
X171737*
Y0759*
Y07582*
Y07574*
X171657*
Y07566*
Y07558*
Y0755*
Y07542*
X171737*
Y07534*
Y07526*
X171817*
Y07518*
X171977*
Y0751*
X172137*
Y07518*
X172217*
Y07526*
X172297*
Y07534*
X172377*
Y07542*
Y0755*
Y07558*
Y07566*
Y07574*
Y07582*
X172297*
Y0759*
Y07598*
Y07606*
X172217*
Y07614*
Y07622*
X172137*
Y0763*
Y07638*
X172217*
Y07646*
Y07654*
X172297*
Y07662*
Y0767*
Y07678*
X172137*
Y07686*
X172057*
Y07694*
X171977*
Y07702*
X171897*
Y0771*
X171817*
Y07718*
X171657*
Y07726*
X171577*
Y07734*
X171497*
Y07742*
X171417*
Y0775*
X171337*
Y07758*
X171257*
Y07766*
X171097*
Y07774*
X171017*
Y07782*
X170937*
Y0779*
X170857*
Y07798*
X170777*
Y07806*
G37*
G36*
X172697Y07518D02*
X172617D01*
Y0751*
X172697*
Y07518*
G37*
G36*
X172217Y07486D02*
X172137D01*
Y07478*
X172057*
Y07486*
X171977*
Y07478*
X172057*
Y0747*
X171977*
Y07462*
X172057*
Y07454*
X171977*
Y07446*
X172057*
Y07438*
X171977*
Y0743*
X172057*
Y07422*
X171977*
Y07414*
X172057*
Y07406*
X171977*
Y07398*
X172057*
Y0739*
X172137*
Y07398*
Y07406*
Y07414*
Y07422*
Y0743*
X172217*
Y07438*
X172137*
Y07446*
X172217*
Y07454*
X172137*
Y07462*
X172297*
Y0747*
Y07478*
X172217*
Y07486*
G37*
G36*
X172537Y07694D02*
X172457D01*
Y07686*
X172537*
Y07694*
G37*
G36*
X161017Y07246D02*
X160937D01*
Y07238*
X161017*
Y07246*
G37*
G36*
X177337D02*
X177257D01*
Y07238*
X177337*
Y07246*
G37*
G36*
X158457Y0787D02*
X157657D01*
Y07862*
X157497*
Y07854*
X157417*
Y07846*
X157337*
Y07838*
X157257*
Y0783*
X157177*
Y07822*
Y07814*
Y07806*
X157337*
Y07798*
X157417*
Y0779*
X157577*
Y07782*
X157657*
Y07774*
X157817*
Y07766*
X157897*
Y07758*
X157977*
Y0775*
X158137*
Y07742*
X158297*
Y0775*
X158377*
Y07758*
Y07766*
X158457*
Y07774*
Y07782*
X158617*
Y0779*
X159097*
Y07782*
X159257*
Y07774*
X159417*
Y07766*
X159577*
Y07758*
X159497*
Y0775*
Y07742*
Y07734*
X159417*
Y07726*
Y07718*
Y0771*
Y07702*
Y07694*
Y07686*
Y07678*
Y0767*
Y07662*
Y07654*
X159337*
Y07646*
Y07638*
Y0763*
Y07622*
Y07614*
Y07606*
Y07598*
Y0759*
X159257*
Y07598*
X159097*
Y07606*
X159017*
Y07614*
X158937*
Y07622*
X158857*
Y0763*
X158697*
Y07638*
X158617*
Y07646*
X158457*
Y07654*
X158217*
Y07662*
X157817*
Y07654*
X157577*
Y07646*
X157497*
Y07638*
X157337*
Y0763*
X157257*
Y07622*
Y07614*
X157177*
Y07606*
Y07598*
Y0759*
Y07582*
X157097*
Y07574*
Y07566*
Y07558*
Y0755*
X157177*
Y07542*
Y07534*
Y07526*
Y07518*
X157257*
Y0751*
Y07502*
X157337*
Y07494*
X157417*
Y07486*
Y07478*
X157497*
Y0747*
X157577*
Y07462*
X157657*
Y07454*
X157737*
Y07446*
X157817*
Y07438*
X157897*
Y0743*
X157817*
Y07422*
Y07414*
Y07406*
X157737*
Y07398*
Y0739*
Y07382*
X157657*
Y07374*
Y07366*
X157577*
Y07358*
Y0735*
X157497*
Y07342*
Y07334*
X157417*
Y07326*
Y07318*
X157337*
Y0731*
Y07302*
X157257*
Y07294*
X157177*
Y07286*
Y07278*
X157097*
Y0727*
X157017*
Y07262*
Y07254*
X156937*
Y07246*
X156857*
Y07238*
Y0723*
X156777*
Y07222*
X156697*
Y07214*
X156617*
Y07206*
Y07198*
X156537*
Y0719*
X156457*
Y07182*
X156377*
Y07174*
X156297*
Y07166*
X156137*
Y07158*
X156057*
Y07166*
X155897*
Y07158*
Y0715*
Y07142*
Y07134*
Y07126*
X156057*
Y07118*
X156217*
Y0711*
X156297*
Y07102*
X156377*
Y07094*
X156457*
Y07086*
X156617*
Y07078*
X156697*
Y0707*
X156777*
Y07062*
X156857*
Y07054*
X157017*
Y07046*
X157097*
Y07038*
X157177*
Y0703*
X157337*
Y07038*
X157417*
Y07046*
X157497*
Y07054*
X157577*
Y07062*
X157657*
Y0707*
X157737*
Y07078*
Y07086*
X157817*
Y07094*
X157897*
Y07102*
Y0711*
X157977*
Y07118*
Y07126*
X158057*
Y07134*
X158137*
Y07142*
Y0715*
X158217*
Y07158*
Y07166*
X158297*
Y07174*
Y07182*
Y0719*
X158377*
Y07198*
Y07206*
Y07214*
X158457*
Y07222*
Y0723*
Y07238*
X158537*
Y07246*
Y07254*
Y07262*
X158617*
Y0727*
Y07278*
Y07286*
Y07294*
X158697*
Y07302*
Y0731*
Y07318*
Y07326*
X158777*
Y07334*
Y07342*
Y0735*
Y07358*
Y07366*
X159177*
Y07358*
X159417*
Y0735*
X159337*
Y07342*
Y07334*
Y07326*
Y07318*
Y0731*
Y07302*
Y07294*
X159257*
Y07286*
Y07278*
Y0727*
X159177*
Y07262*
Y07254*
Y07246*
Y07238*
X159257*
Y0723*
X159097*
Y07222*
Y07214*
Y07206*
X159017*
Y07198*
Y0719*
Y07182*
Y07174*
X158777*
Y07166*
X158537*
Y07158*
X158377*
Y0715*
Y07142*
X158537*
Y07134*
X158777*
Y07126*
X158937*
Y07118*
X159017*
Y0711*
Y07102*
Y07094*
Y07086*
X159097*
Y07078*
Y0707*
Y07062*
X159337*
Y0707*
Y07078*
Y07086*
X159417*
Y07094*
Y07102*
Y0711*
X159497*
Y07118*
Y07126*
X159737*
Y07134*
X159977*
Y07142*
X160137*
Y0715*
Y07158*
X159977*
Y07166*
X159737*
Y07174*
X159497*
Y07182*
Y0719*
X159417*
Y07198*
Y07206*
Y07214*
X159577*
Y07206*
X159657*
Y07198*
X159737*
Y0719*
X159817*
Y07182*
X159977*
Y07174*
X160057*
Y07166*
X160137*
Y07158*
X160377*
Y07166*
X160457*
Y07174*
Y07182*
X160537*
Y0719*
Y07198*
Y07206*
X160617*
Y07214*
Y07222*
Y0723*
Y07238*
X160697*
Y07246*
Y07254*
Y07262*
Y0727*
Y07278*
Y07286*
Y07294*
Y07302*
Y0731*
Y07318*
Y07326*
Y07334*
Y07342*
Y0735*
Y07358*
Y07366*
Y07374*
Y07382*
Y0739*
Y07398*
Y07406*
Y07414*
Y07422*
Y0743*
Y07438*
Y07446*
Y07454*
Y07462*
Y0747*
Y07478*
Y07486*
Y07494*
Y07502*
Y0751*
Y07518*
Y07526*
Y07534*
Y07542*
Y0755*
Y07558*
Y07566*
Y07574*
X160777*
Y07582*
Y0759*
Y07598*
Y07606*
Y07614*
Y07622*
Y0763*
Y07638*
Y07646*
Y07654*
Y07662*
Y0767*
Y07678*
X160857*
Y0767*
X161017*
Y07662*
X161097*
Y07654*
X161257*
Y07662*
X161337*
Y0767*
Y07678*
X161417*
Y07686*
Y07694*
X161337*
Y07702*
X161177*
Y0771*
X161097*
Y07718*
X161017*
Y07726*
X160857*
Y07734*
X160777*
Y07742*
X160697*
Y0775*
X160537*
Y07758*
X160457*
Y07766*
X160297*
Y07774*
X160217*
Y07782*
X160057*
Y0779*
X159977*
Y07798*
X159817*
Y07806*
X159737*
Y07814*
X159577*
Y07822*
X159417*
Y0783*
X159257*
Y07838*
X159097*
Y07846*
X158937*
Y07854*
X158697*
Y07862*
X158457*
Y0787*
G37*
G36*
X165017Y07422D02*
X164937D01*
Y07414*
X165017*
Y07422*
G37*
G36*
X158937Y07758D02*
X158857D01*
Y0775*
X158777*
Y07758*
X158697*
Y0775*
X158777*
Y07742*
X158697*
Y07734*
X158617*
Y07726*
X158537*
Y07718*
X158457*
Y07726*
X158377*
Y07718*
X158457*
Y0771*
X158377*
Y07702*
X158297*
Y0771*
X158217*
Y07702*
X158297*
Y07694*
X158377*
Y07686*
X158617*
Y07678*
X158697*
Y0767*
X158937*
Y07662*
X159017*
Y07654*
X159097*
Y07662*
X159017*
Y0767*
X159097*
Y07678*
X159017*
Y07686*
X159097*
Y07694*
X159017*
Y07702*
X159097*
Y0771*
X159017*
Y07718*
X159097*
Y07726*
Y07734*
Y07742*
X159017*
Y0775*
X158937*
Y07758*
G37*
G36*
X155526Y086481D02*
X155286D01*
Y086401*
X155046*
Y086481*
X154886*
Y086401*
X154806*
Y086481*
X154646*
Y086401*
X154406*
Y086481*
X154326*
Y086401*
X154086*
Y086481*
X154006*
Y086401*
X153926*
Y086481*
X153606*
Y086401*
X153446*
Y086481*
X153286*
Y086401*
X153126*
Y086481*
X153046*
Y086401*
X152806*
Y086481*
X152646*
Y086401*
X152486*
Y086481*
X152406*
Y086401*
X152086*
Y086321*
Y086241*
Y086161*
Y086081*
Y086001*
X152166*
Y085921*
X155686*
Y086001*
X155766*
Y086081*
Y086161*
Y086241*
Y086321*
Y086401*
X155526*
Y086481*
G37*
G36*
X160697Y0779D02*
X160617D01*
Y07782*
X160697*
Y0779*
G37*
G36*
X157497Y07758D02*
X157417D01*
Y0775*
X157497*
Y07758*
G37*
G36*
X13619Y093903D02*
X13531D01*
Y093823*
Y093743*
Y093663*
Y093583*
Y093503*
X13523*
Y093423*
Y093343*
Y093263*
Y093183*
X13507*
Y093103*
X13483*
Y093023*
X13475*
Y093103*
X13467*
Y093183*
X13451*
Y093263*
X13443*
Y093343*
X13427*
Y093423*
X13411*
Y093343*
X13403*
Y093263*
X13395*
Y093183*
X13387*
Y093103*
X13379*
Y093023*
X13371*
Y092943*
X13363*
Y092863*
Y092783*
X13371*
Y092703*
X13379*
Y092623*
X13387*
Y092543*
Y092463*
X13395*
Y092383*
X13403*
Y092303*
Y092223*
X13395*
Y092143*
Y092063*
Y091983*
X13387*
Y091903*
Y091823*
X13339*
Y091743*
X13315*
Y091663*
Y091583*
Y091503*
Y091423*
Y091343*
Y091263*
Y091183*
Y091103*
Y091023*
Y090943*
X13339*
Y090863*
X13379*
Y090783*
X13387*
Y090703*
Y090623*
X13395*
Y090543*
Y090463*
X13403*
Y090383*
Y090303*
X13395*
Y090223*
X13387*
Y090143*
Y090063*
X13379*
Y089983*
X13371*
Y089903*
X13363*
Y089823*
Y089743*
X13371*
Y089663*
X13379*
Y089583*
X13387*
Y089503*
X13395*
Y089423*
X13403*
Y089343*
X13411*
Y089263*
X13427*
Y089343*
X13443*
Y089423*
X13451*
Y089503*
X13467*
Y089583*
X13491*
Y089503*
X13507*
Y089583*
Y089663*
X13515*
Y089743*
Y089823*
X13523*
Y089903*
Y089983*
X13531*
Y090063*
Y090143*
Y090223*
X13539*
Y090303*
Y090383*
X13547*
Y090463*
Y090543*
X13555*
Y090623*
Y090703*
X13547*
Y090783*
X13531*
Y090863*
X13523*
Y090943*
Y091023*
X13515*
Y091103*
Y091183*
X13507*
Y091263*
Y091343*
Y091423*
Y091503*
X13515*
Y091583*
Y091663*
X13523*
Y091743*
Y091823*
X13539*
Y091903*
X13547*
Y091983*
X13603*
Y091903*
X13619*
Y091823*
X13627*
Y091743*
Y091663*
X13635*
Y091583*
Y091503*
X13643*
Y091423*
Y091343*
Y091263*
Y091183*
X13635*
Y091103*
Y091023*
Y090943*
X13627*
Y090863*
X13619*
Y090783*
X13603*
Y090703*
X13595*
Y090623*
Y090543*
X13603*
Y090463*
Y090383*
X13611*
Y090303*
Y090223*
X13619*
Y090143*
Y090063*
X13627*
Y089983*
Y089903*
Y089823*
X13635*
Y089743*
Y089663*
X13643*
Y089583*
Y089503*
X13667*
Y089583*
X13683*
Y089503*
X13699*
Y089423*
X13707*
Y089343*
X13723*
Y089263*
X13739*
Y089343*
X13747*
Y089423*
X13755*
Y089503*
X13763*
Y089583*
X13771*
Y089663*
X13779*
Y089743*
X13787*
Y089823*
Y089903*
X13779*
Y089983*
X13771*
Y090063*
X13763*
Y090143*
Y090223*
X13755*
Y090303*
X13747*
Y090383*
X13755*
Y090463*
Y090543*
Y090623*
X13763*
Y090703*
Y090783*
X13771*
Y090863*
X13811*
Y090943*
X13835*
Y091023*
Y091103*
Y091183*
Y091263*
Y091343*
Y091423*
Y091503*
Y091583*
Y091663*
Y091743*
X13811*
Y091823*
X13771*
Y091903*
X13763*
Y091983*
Y092063*
X13755*
Y092143*
Y092223*
X13747*
Y092303*
Y092383*
X13755*
Y092463*
X13763*
Y092543*
Y092623*
X13771*
Y092703*
X13779*
Y092783*
X13787*
Y092863*
Y092943*
X13779*
Y093023*
X13771*
Y093103*
X13763*
Y093183*
X13755*
Y093263*
X13747*
Y093343*
X13739*
Y093423*
X13723*
Y093343*
X13707*
Y093263*
X13699*
Y093183*
X13683*
Y093103*
X13675*
Y093023*
X13667*
Y093103*
X13651*
Y093183*
X13627*
Y093263*
Y093343*
Y093423*
Y093503*
X13619*
Y093583*
Y093663*
Y093743*
Y093823*
Y093903*
G37*
G36*
X152697Y07214D02*
X152617D01*
Y07206*
X152697*
Y07214*
G37*
G36*
Y07054D02*
X152617D01*
Y07046*
X152697*
Y07054*
G37*
G36*
X151417Y07814D02*
X150617D01*
Y07806*
X150377*
Y07798*
X150217*
Y0779*
X150057*
Y07782*
X149977*
Y07774*
X149897*
Y07766*
X149817*
Y07758*
X149737*
Y0775*
X149577*
Y07758*
X149497*
Y07766*
X149337*
Y07774*
X149177*
Y07782*
X149097*
Y0779*
X148937*
Y07798*
X148697*
Y07806*
X148537*
Y07814*
X148377*
Y07806*
X148297*
Y07798*
X148137*
Y0779*
X147977*
Y07782*
X147897*
Y07774*
X147817*
Y07766*
X147737*
Y07758*
X147657*
Y0775*
X147577*
Y07742*
X147497*
Y07734*
X147417*
Y07726*
X147337*
Y07718*
Y0771*
X147257*
Y07702*
Y07694*
X147177*
Y07686*
X147097*
Y07678*
Y0767*
Y07662*
X147017*
Y07654*
X146937*
Y07646*
Y07638*
Y0763*
X146857*
Y07622*
Y07614*
Y07606*
Y07598*
X146777*
Y0759*
Y07582*
Y07574*
Y07566*
Y07558*
Y0755*
Y07542*
Y07534*
Y07526*
Y07518*
Y0751*
Y07502*
Y07494*
Y07486*
Y07478*
Y0747*
X146857*
Y07462*
Y07454*
Y07446*
X146937*
Y07438*
Y0743*
X147017*
Y07422*
Y07414*
X147097*
Y07406*
Y07398*
X147177*
Y0739*
Y07382*
X147257*
Y07374*
X147337*
Y07366*
Y07358*
X147417*
Y0735*
X147497*
Y07342*
X147577*
Y07334*
X147657*
Y07326*
Y07318*
X147737*
Y0731*
X147817*
Y07302*
X147897*
Y07294*
X147977*
Y07286*
X148057*
Y07278*
X148137*
Y0727*
X148297*
Y07262*
X148377*
Y07254*
X148457*
Y07246*
X148537*
Y07238*
X148617*
Y0723*
X148697*
Y07222*
X148617*
Y07214*
X148537*
Y07206*
X148377*
Y07198*
X148297*
Y0719*
X148217*
Y07182*
Y07174*
X148297*
Y07166*
X148457*
Y07158*
X148617*
Y0715*
X148697*
Y07142*
X148857*
Y07134*
X148937*
Y07126*
X149017*
Y07118*
X149097*
Y0711*
X149177*
Y07102*
Y07094*
Y07086*
X149097*
Y07078*
Y0707*
X149017*
Y07062*
Y07054*
Y07046*
X148937*
Y07038*
Y0703*
Y07022*
Y07014*
X149017*
Y07006*
Y06998*
X149177*
Y0699*
X149497*
Y06998*
X149577*
Y07006*
X149657*
Y07014*
Y07022*
Y0703*
Y07038*
Y07046*
Y07054*
X149577*
Y07062*
Y0707*
Y07078*
X149497*
Y07086*
Y07094*
X149417*
Y07102*
Y0711*
X149497*
Y07118*
X149657*
Y07126*
X149737*
Y07134*
X149897*
Y07142*
X149977*
Y0715*
X150137*
Y07158*
X150377*
Y07166*
X151577*
Y07158*
X151657*
Y0715*
X151737*
Y07142*
Y07134*
Y07126*
X151897*
Y07118*
X152137*
Y0711*
X152297*
Y07102*
X152457*
Y07094*
X152537*
Y07086*
X152697*
Y07078*
X152777*
Y0707*
X152937*
Y07078*
Y07086*
Y07094*
Y07102*
Y0711*
Y07118*
X152857*
Y07126*
Y07134*
X152777*
Y07142*
Y0715*
X152697*
Y07158*
X152617*
Y07166*
X152537*
Y07174*
X152457*
Y07182*
X152377*
Y0719*
X152217*
Y07198*
X152137*
Y07206*
X151977*
Y07214*
X151817*
Y07222*
X151657*
Y0723*
X151497*
Y07238*
X151337*
Y07246*
X151097*
Y07254*
X151017*
Y07262*
Y0727*
X151097*
Y07278*
Y07286*
X151177*
Y07278*
Y0727*
X151257*
Y07262*
X151337*
Y07254*
X151497*
Y07246*
X151577*
Y07238*
X151737*
Y0723*
X151897*
Y07222*
X152137*
Y0723*
X152377*
Y07238*
X152537*
Y07246*
X152617*
Y07254*
X152697*
Y07262*
X152777*
Y0727*
X152937*
Y07278*
X153017*
Y07286*
X153097*
Y07294*
Y07302*
X153177*
Y0731*
X153257*
Y07318*
X153337*
Y07326*
X153417*
Y07334*
X153497*
Y07342*
X153577*
Y0735*
Y07358*
X153657*
Y07366*
X153737*
Y07374*
X153817*
Y07382*
Y0739*
X153897*
Y07398*
Y07406*
X153977*
Y07414*
Y07422*
X154057*
Y0743*
Y07438*
Y07446*
X154137*
Y07454*
Y07462*
Y0747*
Y07478*
Y07486*
Y07494*
Y07502*
Y0751*
Y07518*
Y07526*
Y07534*
Y07542*
X154057*
Y0755*
Y07558*
Y07566*
Y07574*
X153977*
Y07582*
Y0759*
Y07598*
X153897*
Y07606*
Y07614*
X153817*
Y07622*
Y0763*
X153737*
Y07638*
Y07646*
X153657*
Y07654*
X153577*
Y07662*
X153497*
Y0767*
Y07678*
X153417*
Y07686*
X153337*
Y07694*
X153257*
Y07702*
X153097*
Y0771*
X153017*
Y07718*
X152937*
Y07726*
X152777*
Y07734*
X152697*
Y07742*
X152537*
Y0775*
X152457*
Y07758*
X152297*
Y07766*
X152137*
Y07774*
X151977*
Y07782*
X151817*
Y0779*
X151657*
Y07798*
X151497*
Y07806*
X151417*
Y07814*
G37*
G36*
X141977Y07374D02*
X141897D01*
Y07366*
X141977*
Y07374*
G37*
G36*
X139577D02*
X139497D01*
Y07366*
X139577*
Y07374*
G37*
G36*
X139097Y07342D02*
X138857D01*
Y07334*
X139097*
Y07342*
G37*
G36*
X138617D02*
X138537D01*
Y07334*
X138617*
Y07342*
G37*
G36*
X138777D02*
X138697D01*
Y07334*
X138777*
Y07342*
G37*
G36*
X139417Y07374D02*
X139177D01*
Y07366*
X139257*
Y07358*
X139097*
Y0735*
Y07342*
X139177*
Y07334*
X139257*
Y07342*
Y0735*
X139417*
Y07358*
Y07366*
Y07374*
G37*
G36*
X141817Y07406D02*
X141737D01*
Y07398*
X141817*
Y07406*
G37*
G36*
X144537Y07646D02*
X143897D01*
Y07638*
X143737*
Y0763*
X143657*
Y07622*
X143577*
Y07614*
X143497*
Y07606*
X143417*
Y07598*
Y0759*
X143337*
Y07582*
Y07574*
X143257*
Y07566*
X143177*
Y07558*
Y0755*
X143097*
Y07542*
Y07534*
X143017*
Y07526*
Y07518*
X142937*
Y0751*
Y07502*
X142857*
Y07494*
Y07486*
Y07478*
X142777*
Y0747*
Y07462*
X142697*
Y07454*
Y07446*
X142617*
Y07438*
Y0743*
X142537*
Y07422*
Y07414*
X142457*
Y07406*
Y07398*
Y0739*
X142377*
Y07382*
Y07374*
X142297*
Y07366*
Y07358*
X142217*
Y0735*
Y07342*
X142137*
Y07334*
Y07326*
Y07318*
X142057*
Y0731*
Y07302*
X141977*
Y07294*
X141897*
Y07286*
X141657*
Y07294*
X141577*
Y07302*
X141497*
Y0731*
Y07318*
X141577*
Y07326*
Y07334*
Y07342*
Y0735*
Y07358*
Y07366*
Y07374*
Y07382*
X141497*
Y0739*
Y07398*
Y07406*
X141417*
Y07414*
Y07422*
Y0743*
X141337*
Y07438*
Y07446*
X141257*
Y07454*
X141177*
Y07462*
Y0747*
X141097*
Y07478*
X141017*
Y07486*
Y07494*
X140937*
Y07502*
X140857*
Y0751*
X141417*
Y07502*
X141497*
Y07494*
X141817*
Y07502*
Y0751*
Y07518*
X141737*
Y07526*
X141657*
Y07534*
X141577*
Y07542*
Y0755*
X141497*
Y07558*
X141417*
Y07566*
X141337*
Y07574*
Y07582*
X141257*
Y0759*
X141177*
Y07598*
Y07606*
X141097*
Y07614*
X141017*
Y07622*
X140937*
Y0763*
Y07638*
X137497*
Y0763*
X137417*
Y07622*
Y07614*
X137497*
Y07606*
X137577*
Y07598*
Y0759*
X137657*
Y07582*
X137737*
Y07574*
Y07566*
X137817*
Y07558*
X137897*
Y0755*
Y07542*
X137977*
Y07534*
X138057*
Y07526*
Y07518*
X138137*
Y0751*
X138217*
Y07502*
Y07494*
X138297*
Y07486*
X138457*
Y07494*
X138537*
Y07486*
Y07478*
Y0747*
Y07462*
X138617*
Y07454*
Y07446*
Y07438*
Y0743*
Y07422*
Y07414*
Y07406*
Y07398*
Y0739*
Y07382*
Y07374*
Y07366*
X138857*
Y07374*
Y07382*
Y0739*
Y07398*
X138937*
Y07406*
Y07414*
Y07422*
Y0743*
Y07438*
Y07446*
Y07454*
Y07462*
Y0747*
Y07478*
Y07486*
X138857*
Y07494*
X139337*
Y07486*
X139257*
Y07478*
X139177*
Y0747*
Y07462*
Y07454*
Y07446*
Y07438*
Y0743*
X139257*
Y07422*
X139337*
Y07414*
X139417*
Y07406*
X139577*
Y07398*
X139817*
Y07406*
X139977*
Y07414*
X140057*
Y07422*
X140137*
Y0743*
Y07438*
X140217*
Y0743*
Y07422*
Y07414*
Y07406*
X140137*
Y07398*
Y0739*
Y07382*
X140057*
Y07374*
Y07366*
X139977*
Y07358*
Y0735*
X139897*
Y07342*
X139817*
Y07334*
X139657*
Y07326*
X139577*
Y07318*
X139497*
Y0731*
X139337*
Y07302*
X139097*
Y07294*
X138697*
Y07302*
X138457*
Y0731*
X138297*
Y07318*
X138137*
Y07326*
X137977*
Y07318*
Y0731*
Y07302*
X138057*
Y07294*
Y07286*
X138137*
Y07278*
X138217*
Y0727*
X138297*
Y07262*
X138377*
Y07254*
X138457*
Y07246*
X138537*
Y07238*
X138617*
Y0723*
X138697*
Y07222*
X138777*
Y07214*
X138857*
Y07206*
X138937*
Y07198*
X139097*
Y0719*
X139177*
Y07182*
X139257*
Y07174*
X139417*
Y07166*
X139977*
Y07174*
X140217*
Y07182*
X140377*
Y0719*
X140537*
Y07198*
X140617*
Y07206*
X140777*
Y07214*
X140857*
Y07222*
X140937*
Y0723*
X141017*
Y07238*
X141097*
Y07246*
X141177*
Y07254*
X141257*
Y07262*
X141337*
Y0727*
Y07278*
X141417*
Y0727*
Y07262*
X141497*
Y07254*
X141577*
Y07246*
X141657*
Y07238*
X141737*
Y0723*
X141817*
Y07222*
X141897*
Y07214*
X141977*
Y07206*
X142057*
Y07198*
X142137*
Y0719*
X142217*
Y07182*
X142297*
Y07174*
X142377*
Y07166*
X142537*
Y07158*
X142857*
Y07166*
X143017*
Y07174*
X143097*
Y07182*
X143177*
Y0719*
X143257*
Y07198*
X143337*
Y07206*
X143417*
Y07214*
Y07222*
X143497*
Y0723*
Y07238*
X143577*
Y07246*
Y07254*
X143737*
Y07246*
X143817*
Y07238*
X143897*
Y0723*
X143977*
Y07222*
X144137*
Y07214*
X144217*
Y07206*
X144297*
Y07198*
X144457*
Y0719*
X144537*
Y07182*
X144697*
Y07174*
X144937*
Y07166*
X145817*
Y07174*
X145977*
Y07182*
X146137*
Y0719*
X146217*
Y07198*
X146297*
Y07206*
X146377*
Y07214*
X146457*
Y07222*
Y0723*
X146537*
Y07238*
Y07246*
Y07254*
Y07262*
Y0727*
Y07278*
Y07286*
Y07294*
Y07302*
Y0731*
X146457*
Y07318*
Y07326*
Y07334*
X146377*
Y07342*
X146297*
Y0735*
X146217*
Y07358*
Y07366*
X146137*
Y07374*
X146057*
Y07382*
X145897*
Y0739*
X145817*
Y07398*
X145737*
Y07406*
X145657*
Y07414*
X145577*
Y07422*
X145497*
Y0743*
X145337*
Y07438*
X145257*
Y07446*
X145177*
Y07454*
X145017*
Y07462*
X144937*
Y0747*
X144697*
Y07462*
Y07454*
X144617*
Y07446*
Y07438*
Y0743*
Y07422*
X144777*
Y07414*
X144857*
Y07406*
X144937*
Y07398*
X145017*
Y0739*
X145097*
Y07382*
X144937*
Y0739*
X144537*
Y07382*
X144377*
Y07374*
Y07366*
X144297*
Y07358*
Y0735*
Y07342*
Y07334*
Y07326*
Y07318*
X144377*
Y0731*
X144457*
Y07302*
X144537*
Y07294*
X144937*
Y07302*
X145097*
Y07294*
X145017*
Y07286*
X144297*
Y07294*
X144057*
Y07302*
X143897*
Y0731*
Y07318*
Y07326*
X143977*
Y07334*
Y07342*
X144057*
Y0735*
Y07358*
X144137*
Y07366*
Y07374*
X144217*
Y07382*
Y0739*
Y07398*
X144297*
Y07406*
Y07414*
X144377*
Y07422*
Y0743*
X144457*
Y07438*
Y07446*
X144537*
Y07454*
Y07462*
Y0747*
X144617*
Y07478*
Y07486*
X144697*
Y07494*
X144777*
Y07502*
Y0751*
X144857*
Y07518*
X145017*
Y07526*
X145417*
Y07518*
X145497*
Y0751*
X145577*
Y07502*
X145497*
Y07494*
Y07486*
Y07478*
X145417*
Y0747*
Y07462*
X145497*
Y07454*
Y07446*
X145817*
Y07454*
X145897*
Y07462*
Y0747*
Y07478*
Y07486*
X145817*
Y07494*
Y07502*
Y0751*
Y07518*
X145897*
Y07526*
Y07534*
X145817*
Y07542*
X145737*
Y0755*
X145657*
Y07558*
X145577*
Y07566*
X145497*
Y07574*
X145417*
Y07582*
X145337*
Y0759*
X145257*
Y07598*
X145177*
Y07606*
X145017*
Y07614*
X144937*
Y07622*
X144857*
Y0763*
X144697*
Y07638*
X144537*
Y07646*
G37*
G36*
X137657Y07534D02*
X137577D01*
Y07526*
X137657*
Y07534*
G37*
G36*
X146297Y07406D02*
X146217D01*
Y07398*
X146297*
Y07406*
G37*
G36*
X134457Y07878D02*
X133577D01*
Y0787*
X133417*
Y07862*
X133257*
Y07854*
X133177*
Y07846*
X133017*
Y07838*
Y0783*
Y07822*
X133097*
Y07814*
X133177*
Y07806*
X133337*
Y07798*
X133417*
Y0779*
X133497*
Y07782*
X133577*
Y07774*
X133657*
Y07766*
X133737*
Y07758*
X133817*
Y0775*
Y07742*
X133737*
Y07734*
Y07726*
X133657*
Y07718*
Y0771*
Y07702*
X133577*
Y07694*
Y07686*
Y07678*
Y0767*
Y07662*
X133657*
Y07654*
X133737*
Y07646*
X133817*
Y07638*
X134057*
Y0763*
Y07622*
X133977*
Y07614*
Y07606*
Y07598*
X133897*
Y0759*
Y07582*
X133817*
Y07574*
X133737*
Y07566*
Y07558*
X133657*
Y0755*
Y07542*
X133577*
Y07534*
X133497*
Y07526*
Y07518*
X133417*
Y0751*
X133337*
Y07502*
Y07494*
X133257*
Y07486*
Y07478*
X133177*
Y0747*
Y07462*
X133097*
Y07454*
Y07446*
Y07438*
X133017*
Y0743*
Y07422*
Y07414*
Y07406*
Y07398*
Y0739*
Y07382*
Y07374*
Y07366*
Y07358*
Y0735*
Y07342*
Y07334*
X133097*
Y07326*
Y07318*
Y0731*
Y07302*
X133177*
Y07294*
Y07286*
X133257*
Y07278*
Y0727*
X133337*
Y07262*
Y07254*
X133417*
Y07246*
X133497*
Y07238*
Y0723*
X133577*
Y07222*
X133657*
Y07214*
X133737*
Y07206*
Y07198*
X133817*
Y0719*
X133897*
Y07182*
X133977*
Y07174*
X134057*
Y07166*
X134137*
Y07158*
X134217*
Y0715*
X134297*
Y07142*
X134377*
Y07134*
X134457*
Y07126*
X134537*
Y07118*
X134457*
Y0711*
X134377*
Y07102*
X134297*
Y07094*
Y07086*
X134217*
Y07078*
X134137*
Y0707*
Y07062*
Y07054*
X134297*
Y07046*
X134377*
Y07038*
X134457*
Y0703*
X134537*
Y07022*
X134617*
Y07014*
X134697*
Y07006*
X134777*
Y06998*
X134857*
Y0699*
X135017*
Y06982*
Y06974*
X135177*
Y06982*
X135257*
Y0699*
X135337*
Y06998*
X135417*
Y07006*
X135497*
Y07014*
X135577*
Y07022*
X135657*
Y0703*
Y07038*
X135737*
Y07046*
X135817*
Y07054*
X135897*
Y07062*
Y0707*
X135817*
Y07078*
X135737*
Y07086*
X135577*
Y07094*
X135497*
Y07102*
X135417*
Y0711*
X135337*
Y07118*
X135257*
Y07126*
X135097*
Y07134*
X135017*
Y07142*
X134937*
Y0715*
X134857*
Y07158*
Y07166*
X134777*
Y07174*
X134697*
Y07182*
X134617*
Y0719*
Y07198*
X134537*
Y07206*
Y07214*
X134457*
Y07222*
Y0723*
Y07238*
Y07246*
X134377*
Y07254*
Y07262*
Y0727*
Y07278*
Y07286*
Y07294*
Y07302*
Y0731*
Y07318*
Y07326*
X134457*
Y07334*
Y07342*
Y0735*
Y07358*
X134537*
Y07366*
Y07374*
X134617*
Y07382*
Y0739*
Y07398*
X134697*
Y07406*
Y07414*
X134777*
Y07422*
Y0743*
X134857*
Y07438*
Y07446*
X134937*
Y07454*
Y07462*
X135017*
Y0747*
Y07478*
X135097*
Y07486*
X135257*
Y07478*
X135337*
Y0747*
X135417*
Y07462*
X135497*
Y07454*
X135657*
Y07446*
X135737*
Y07438*
Y0743*
Y07422*
Y07414*
Y07406*
Y07398*
Y0739*
X135657*
Y07382*
Y07374*
Y07366*
Y07358*
Y0735*
Y07342*
Y07334*
Y07326*
Y07318*
X135577*
Y0731*
Y07302*
Y07294*
Y07286*
X135497*
Y07278*
Y0727*
Y07262*
X135417*
Y07254*
Y07246*
Y07238*
X135577*
Y0723*
X135657*
Y07222*
X135737*
Y07214*
X135897*
Y07206*
X135977*
Y07198*
X136057*
Y0719*
X136217*
Y07182*
X136297*
Y07174*
X136377*
Y07166*
X136537*
Y07158*
X136617*
Y07166*
X136697*
Y07174*
X136777*
Y07182*
Y0719*
X136857*
Y07198*
Y07206*
X136937*
Y07214*
Y07222*
X137017*
Y0723*
Y07238*
Y07246*
X137097*
Y07254*
Y07262*
Y0727*
Y07278*
Y07286*
Y07294*
X137177*
Y07302*
Y0731*
Y07318*
Y07326*
Y07334*
Y07342*
Y0735*
Y07358*
Y07366*
Y07374*
Y07382*
Y0739*
Y07398*
Y07406*
Y07414*
Y07422*
Y0743*
Y07438*
Y07446*
Y07454*
Y07462*
Y0747*
Y07478*
Y07486*
Y07494*
Y07502*
Y0751*
Y07518*
Y07526*
Y07534*
Y07542*
Y0755*
Y07558*
Y07566*
Y07574*
Y07582*
Y0759*
Y07598*
Y07606*
Y07614*
Y07622*
Y0763*
Y07638*
Y07646*
Y07654*
Y07662*
Y0767*
X137337*
Y07662*
X137577*
Y0767*
Y07678*
X137657*
Y07686*
Y07694*
Y07702*
X137577*
Y0771*
X137417*
Y07718*
X137337*
Y07726*
X137257*
Y07734*
X137097*
Y07742*
X137017*
Y0775*
X136857*
Y07758*
X136777*
Y07766*
X136617*
Y07774*
X136537*
Y07782*
X136377*
Y0779*
X136297*
Y07798*
X136137*
Y07806*
X135977*
Y07814*
X135817*
Y07822*
X135737*
Y0783*
X135577*
Y07838*
X135417*
Y07846*
X135177*
Y07854*
X135017*
Y07862*
X134777*
Y0787*
X134457*
Y07878*
G37*
G36*
X137017Y0779D02*
X136937D01*
Y07782*
X137017*
Y0779*
G37*
G36*
X153846Y093601D02*
X153206D01*
Y093521*
X152966*
Y093441*
X152886*
Y093361*
X152726*
Y093281*
Y093201*
X152646*
Y093121*
X152566*
Y093041*
X152486*
Y092961*
Y092881*
Y092801*
Y092721*
X152406*
Y092641*
Y092561*
Y092481*
Y092401*
Y092321*
X152486*
Y092241*
Y092161*
X152566*
Y092081*
Y092001*
Y091921*
X152646*
Y091841*
X152726*
Y091761*
X152806*
Y091681*
X152966*
Y091601*
X153126*
Y091521*
X153926*
Y091601*
X154006*
Y091681*
X154166*
Y091761*
X154246*
Y091841*
X154326*
Y091921*
X154406*
Y092001*
Y092081*
X154486*
Y092161*
Y092241*
X154566*
Y092321*
Y092401*
Y092481*
Y092561*
Y092641*
Y092721*
Y092801*
Y092881*
X154486*
Y092961*
Y093041*
X154406*
Y093121*
Y093201*
X154246*
Y093281*
Y093361*
Y093441*
X154086*
Y093521*
X153846*
Y093601*
G37*
G36*
X180617Y093598D02*
X180537D01*
Y093518*
X180617*
Y093598*
G37*
G36*
X175817Y091118D02*
X175737D01*
Y091038*
X175817*
Y091118*
G37*
G36*
X177577D02*
X177497D01*
Y091038*
X177417*
Y090958*
X177337*
Y090878*
X177497*
Y090958*
X177577*
Y091038*
Y091118*
G37*
G36*
X178137Y094078D02*
X177977D01*
Y093998*
Y093918*
Y093838*
Y093758*
Y093678*
Y093598*
X178057*
Y093518*
X178297*
Y093598*
Y093678*
Y093758*
Y093838*
Y093918*
Y093998*
X178137*
Y094078*
G37*
G36*
X177097Y091278D02*
X176937D01*
Y091198*
X177097*
Y091278*
G37*
G36*
X175977D02*
X175817D01*
Y091198*
Y091118*
X175897*
Y091198*
X175977*
Y091278*
G37*
G36*
X180697Y093678D02*
X180617D01*
Y093598*
X180697*
Y093678*
G37*
G36*
X176777Y090798D02*
X176537D01*
Y090718*
X176777*
Y090798*
G37*
G36*
X176297D02*
X176137D01*
Y090718*
X176297*
Y090798*
G37*
G36*
X177657Y090718D02*
X177577D01*
Y090638*
X177657*
Y090718*
G37*
G36*
X175417Y090958D02*
X175337D01*
Y090878*
X175417*
Y090958*
G37*
G36*
X173177Y093758D02*
X173097D01*
Y093678*
X173177*
Y093758*
G37*
G36*
X172937Y093998D02*
X172857D01*
Y093918*
Y093838*
X172937*
Y093758*
X173017*
Y093838*
X172937*
Y093918*
Y093998*
G37*
G36*
X175737Y091518D02*
X175657D01*
Y091438*
X175737*
Y091518*
G37*
G36*
X180777Y093918D02*
X178617D01*
Y093838*
X178457*
Y093758*
Y093678*
Y093598*
Y093518*
Y093438*
Y093358*
Y093278*
Y093198*
X178377*
Y093118*
Y093038*
Y092958*
Y092878*
X178457*
Y092958*
X178537*
Y093038*
X178617*
Y093118*
Y093198*
X178697*
Y093118*
X178857*
Y093198*
X178697*
Y093278*
X178777*
Y093358*
X179177*
Y093438*
X179577*
Y093518*
X179897*
Y093598*
X180217*
Y093678*
X180537*
Y093758*
X180777*
Y093838*
Y093918*
G37*
G36*
X179577Y092958D02*
X179417D01*
Y092878*
Y092798*
X179497*
Y092878*
X179577*
Y092958*
G37*
G36*
X175417Y092878D02*
X175257D01*
Y092798*
X175417*
Y092878*
G37*
G36*
X178857Y093038D02*
X178777D01*
Y092958*
X178857*
Y093038*
G37*
G36*
X175497Y092958D02*
X175417D01*
Y092878*
X175497*
Y092958*
G37*
G36*
X178617Y092638D02*
X178537D01*
Y092558*
X178617*
Y092638*
G37*
G36*
X174617Y093518D02*
X174217D01*
Y093438*
X174457*
Y093358*
X174617*
Y093438*
Y093518*
G37*
G36*
X175737Y092158D02*
X175657D01*
Y092078*
X175737*
Y092158*
G37*
G36*
X175497Y092718D02*
X175417D01*
Y092638*
Y092558*
X175497*
Y092638*
Y092718*
G37*
G36*
X175657Y092398D02*
X175577D01*
Y092318*
X175657*
Y092398*
G37*
G36*
X179497Y093358D02*
X179337D01*
Y093278*
X179497*
Y093358*
G37*
G36*
X178537Y093998D02*
X178457D01*
Y093918*
X178537*
Y093998*
G37*
G36*
X178697Y089838D02*
X178537D01*
Y089758*
X178697*
Y089838*
G37*
G36*
X177497Y090158D02*
X177417D01*
Y090078*
Y089998*
X177497*
Y090078*
Y090158*
G37*
G36*
X175737Y090398D02*
X175657D01*
Y090318*
X175577*
Y090238*
Y090158*
X175497*
Y090078*
Y089998*
X175657*
Y090078*
X175737*
Y090158*
Y090238*
Y090318*
Y090398*
G37*
G36*
X175337Y089838D02*
X175257D01*
Y089758*
X175337*
Y089838*
G37*
G36*
X174377Y089918D02*
X174297D01*
Y089838*
Y089758*
X174377*
Y089838*
Y089918*
G37*
G36*
X177897Y089838D02*
X177817D01*
Y089758*
X177897*
Y089838*
G37*
G36*
X177737D02*
X177657D01*
Y089758*
X177737*
Y089838*
G37*
G36*
X174377Y090158D02*
X174297D01*
Y090078*
X174377*
Y090158*
G37*
G36*
X175897Y090558D02*
X175817D01*
Y090478*
X175897*
Y090558*
G37*
G36*
X174617Y090478D02*
X174537D01*
Y090398*
X174617*
Y090478*
G37*
G36*
X178697Y090318D02*
X178537D01*
Y090238*
X178617*
Y090158*
X178697*
Y090238*
Y090318*
G37*
G36*
X177817Y090798D02*
X177737D01*
Y090718*
Y090638*
Y090558*
X177817*
Y090638*
X177897*
Y090558*
X178057*
Y090638*
X177897*
Y090718*
X177817*
Y090798*
G37*
G36*
X176057Y090638D02*
X175897D01*
Y090558*
X175977*
Y090478*
X176057*
Y090558*
Y090638*
G37*
G36*
X174777Y090318D02*
X174697D01*
Y090238*
Y090158*
X174777*
Y090238*
Y090318*
G37*
G36*
X178137Y090238D02*
X177977D01*
Y090158*
X177897*
Y090078*
X178057*
Y090158*
X178137*
Y090238*
G37*
G36*
X177257Y090158D02*
X177177D01*
Y090078*
X177257*
Y090158*
G37*
G36*
X174937Y090238D02*
X174857D01*
Y090158*
X174937*
Y090238*
G37*
%LNpcb1-3*%
%LPD*%
G36*
X155846Y091201D02*
X155606D01*
Y091121*
X155446*
Y091041*
X155366*
Y090961*
X155286*
Y090881*
Y090801*
X155206*
Y090881*
Y090961*
Y091041*
X155286*
Y091121*
X155366*
Y091201*
X155526*
Y091281*
X155846*
Y091201*
G37*
G36*
X163737Y0731D02*
X163817D01*
Y07302*
Y07294*
Y07286*
Y07278*
X163737*
Y0727*
X163417*
Y07278*
X163337*
Y07286*
Y07294*
Y07302*
Y0731*
X163417*
Y07318*
X163737*
Y0731*
G37*
G36*
X167977Y07302D02*
X167897D01*
Y0731*
X167977*
Y07302*
G37*
G36*
X165497D02*
X165577D01*
Y07294*
Y07286*
X165497*
Y07294*
X165417*
Y07302*
Y0731*
X165497*
Y07302*
G37*
G36*
X162937Y0727D02*
X163097D01*
Y07262*
Y07254*
Y07246*
X163177*
Y07238*
X163097*
Y0723*
Y07222*
Y07214*
X163017*
Y07206*
X162697*
Y07214*
X162617*
Y07222*
X162537*
Y0723*
Y07238*
Y07246*
Y07254*
Y07262*
X162617*
Y0727*
X162697*
Y07278*
X162937*
Y0727*
G37*
G36*
X166057Y07262D02*
X165817D01*
Y07254*
X165737*
Y07262*
Y0727*
X166057*
Y07262*
G37*
G36*
X165257Y0727D02*
Y07262D01*
Y07254*
X165177*
Y07262*
X164937*
Y0727*
X165177*
Y07278*
X165257*
Y0727*
G37*
G36*
X165577Y0723D02*
X165497D01*
Y07222*
X165417*
Y0723*
Y07238*
X165577*
Y0723*
G37*
G36*
X168697Y07278D02*
X168777D01*
Y0727*
X168857*
Y07262*
Y07254*
Y07246*
X168777*
Y07238*
X168617*
Y0723*
X168537*
Y07238*
X168457*
Y07246*
X168377*
Y07254*
Y07262*
Y0727*
Y07278*
X168457*
Y07286*
X168697*
Y07278*
G37*
G36*
X168057Y07318D02*
Y0731D01*
X167977*
Y07318*
Y07326*
X168057*
Y07318*
G37*
G36*
X163897Y07502D02*
X163977D01*
Y07494*
X163897*
Y07486*
X163817*
Y07494*
X163737*
Y07502*
X163817*
Y0751*
X163897*
Y07502*
G37*
G36*
X168057Y07366D02*
Y07358D01*
X167977*
Y07366*
Y07374*
X168057*
Y07366*
G37*
G36*
X164057Y07374D02*
X164137D01*
Y07366*
Y07358*
Y0735*
X164057*
Y07342*
X163897*
Y0735*
X163817*
Y07358*
X163737*
Y07366*
Y07374*
X163817*
Y07382*
X164057*
Y07374*
G37*
G36*
X168137Y07342D02*
Y07334D01*
X168057*
Y07342*
Y0735*
X168137*
Y07342*
G37*
G36*
X164137Y07438D02*
Y0743D01*
Y07422*
X163897*
Y0743*
Y07438*
Y07446*
X164137*
Y07438*
G37*
G36*
X175497Y0735D02*
Y07342D01*
Y07334*
Y07326*
X175577*
Y07318*
Y0731*
X175657*
Y07302*
X175737*
Y07294*
X174777*
Y07302*
Y0731*
Y07318*
X174857*
Y07326*
Y07334*
Y07342*
X175017*
Y0735*
X175257*
Y07358*
X175497*
Y0735*
G37*
G36*
X173817Y07366D02*
Y07358D01*
X173977*
Y0735*
X174217*
Y07342*
X174377*
Y07334*
Y07326*
Y07318*
Y0731*
X174457*
Y07302*
Y07294*
X174217*
Y07302*
X173977*
Y0731*
X173817*
Y07318*
X173737*
Y07326*
Y07334*
X173657*
Y07342*
Y0735*
Y07358*
X173737*
Y07366*
Y07374*
X173817*
Y07366*
G37*
G36*
X175977Y07238D02*
X176297D01*
Y0723*
X176217*
Y07222*
X175897*
Y07214*
X175497*
Y07222*
X175177*
Y0723*
X175097*
Y07238*
X175417*
Y07246*
X175977*
Y07238*
G37*
G36*
X174857Y07662D02*
X175017D01*
Y07654*
X175097*
Y07646*
X175177*
Y07638*
X175257*
Y0763*
Y07622*
X175337*
Y07614*
Y07606*
Y07598*
X175417*
Y0759*
Y07582*
Y07574*
Y07566*
Y07558*
X173977*
Y07566*
Y07574*
X173897*
Y07582*
Y0759*
X173977*
Y07598*
Y07606*
X174057*
Y07598*
Y0759*
X174137*
Y07582*
Y07574*
X174297*
Y07566*
X174777*
Y07574*
X174857*
Y07582*
X174937*
Y0759*
X175017*
Y07598*
Y07606*
Y07614*
Y07622*
Y0763*
Y07638*
X174937*
Y07646*
Y07654*
X174777*
Y07662*
X174617*
Y0767*
X174857*
Y07662*
G37*
G36*
X174377Y07622D02*
Y07614D01*
X174297*
Y07622*
Y0763*
X174377*
Y07622*
G37*
G36*
X176217Y0767D02*
Y07662D01*
X176137*
Y0767*
Y07678*
X176217*
Y0767*
G37*
G36*
X175977Y07366D02*
X175897D01*
Y07374*
X175977*
Y07366*
G37*
G36*
X176137Y07406D02*
X176217D01*
Y07398*
Y0739*
Y07382*
X176297*
Y07374*
Y07366*
Y07358*
X176217*
Y07366*
X176137*
Y07374*
X175977*
Y07382*
Y0739*
X176057*
Y07398*
Y07406*
Y07414*
X176137*
Y07406*
G37*
G36*
X176217Y07326D02*
X176137D01*
Y07334*
X176217*
Y07326*
G37*
G36*
X176297Y07334D02*
X176217D01*
Y07342*
X176297*
Y07334*
G37*
G36*
X174537Y07438D02*
X174457D01*
Y07446*
X174537*
Y07438*
G37*
G36*
X175257D02*
X175417D01*
Y0743*
Y07422*
Y07414*
Y07406*
Y07398*
Y0739*
Y07382*
X175177*
Y0739*
X174857*
Y07398*
Y07406*
Y07414*
X174777*
Y07422*
Y0743*
Y07438*
X174697*
Y07446*
X175257*
Y07438*
G37*
G36*
X174457Y0743D02*
Y07422D01*
Y07414*
X174377*
Y07406*
Y07398*
Y0739*
X174057*
Y07382*
X173817*
Y0739*
X173897*
Y07398*
Y07406*
X173977*
Y07414*
X174057*
Y07422*
X174137*
Y0743*
X174217*
Y07438*
X174457*
Y0743*
G37*
G36*
X171257Y07558D02*
X171337D01*
Y0755*
Y07542*
Y07534*
X171097*
Y07542*
X171017*
Y0755*
X171097*
Y07558*
X171177*
Y07566*
X171257*
Y07558*
G37*
G36*
X170697Y0755D02*
Y07542D01*
Y07534*
X170457*
Y07542*
Y0755*
Y07558*
X170697*
Y0755*
G37*
G36*
X170937Y07686D02*
Y07678D01*
Y0767*
Y07662*
Y07654*
X171017*
Y07646*
Y07638*
Y0763*
Y07622*
Y07614*
X170937*
Y07606*
Y07598*
Y0759*
Y07582*
Y07574*
X170857*
Y07582*
Y0759*
Y07598*
X170777*
Y07606*
Y07614*
Y07622*
Y0763*
Y07638*
Y07646*
Y07654*
Y07662*
Y0767*
X170857*
Y07678*
Y07686*
Y07694*
X170937*
Y07686*
G37*
G36*
X170857Y07478D02*
X170937D01*
Y0747*
Y07462*
Y07454*
Y07446*
Y07438*
Y0743*
Y07422*
X171017*
Y07414*
Y07406*
Y07398*
Y0739*
X170937*
Y07382*
Y07374*
Y07366*
Y07358*
Y0735*
X170857*
Y07342*
Y07334*
Y07326*
Y07318*
X170777*
Y07326*
Y07334*
Y07342*
Y0735*
Y07358*
Y07366*
Y07374*
X170697*
Y07382*
Y0739*
Y07398*
Y07406*
Y07414*
Y07422*
Y0743*
Y07438*
X170777*
Y07446*
Y07454*
Y07462*
Y0747*
Y07478*
Y07486*
X170857*
Y07478*
G37*
G36*
X157257Y07166D02*
X157177D01*
Y07174*
X157257*
Y07166*
G37*
G36*
X158137Y07302D02*
Y07294D01*
Y07286*
Y07278*
X158057*
Y0727*
Y07262*
Y07254*
Y07246*
Y07238*
Y0723*
X157977*
Y07222*
Y07214*
X157897*
Y07206*
X157737*
Y07198*
X157657*
Y0719*
X157497*
Y07182*
X157417*
Y07174*
X157257*
Y07182*
Y0719*
X157337*
Y07198*
X157417*
Y07206*
X157497*
Y07214*
X157577*
Y07222*
Y0723*
X157657*
Y07238*
X157737*
Y07246*
Y07254*
X157817*
Y07262*
X157897*
Y0727*
Y07278*
X157977*
Y07286*
Y07294*
X158057*
Y07302*
Y0731*
X158137*
Y07302*
G37*
G36*
X159097Y0755D02*
X159257D01*
Y07542*
X159337*
Y07534*
Y07526*
X159417*
Y07518*
Y0751*
Y07502*
Y07494*
Y07486*
Y07478*
Y0747*
Y07462*
Y07454*
Y07446*
Y07438*
Y0743*
Y07422*
Y07414*
X159337*
Y07422*
X159097*
Y0743*
X158937*
Y07438*
X158857*
Y07446*
X158777*
Y07454*
X158697*
Y07462*
X158617*
Y0747*
Y07478*
X158537*
Y07486*
Y07494*
X158457*
Y07502*
Y0751*
X158537*
Y07502*
X158617*
Y07494*
X158697*
Y07486*
X158937*
Y07494*
X159097*
Y07502*
Y0751*
X159177*
Y07518*
Y07526*
Y07534*
X159097*
Y07542*
X159017*
Y0755*
X158857*
Y07558*
X159097*
Y0755*
G37*
G36*
X158777D02*
X158617D01*
Y07542*
X158537*
Y07534*
X158457*
Y07526*
Y07518*
X158377*
Y07526*
Y07534*
Y07542*
X158457*
Y0755*
X158537*
Y07558*
X158777*
Y0755*
G37*
G36*
X160217Y07718D02*
X160297D01*
Y0771*
X160377*
Y07702*
Y07694*
Y07686*
Y07678*
X160217*
Y0767*
X160057*
Y07678*
X159977*
Y07686*
X159897*
Y07694*
Y07702*
Y0771*
X159977*
Y07718*
X160057*
Y07726*
X160217*
Y07718*
G37*
G36*
X158777Y07678D02*
X158697D01*
Y07686*
X158777*
Y07678*
G37*
G36*
X152377Y0731D02*
X152537D01*
Y07302*
X152377*
Y07294*
X152297*
Y07302*
Y0731*
Y07318*
X152377*
Y0731*
G37*
G36*
X150697Y07222D02*
Y07214D01*
Y07206*
Y07198*
X150457*
Y07206*
Y07214*
X150377*
Y07222*
X150457*
Y0723*
X150697*
Y07222*
G37*
G36*
X151577Y07198D02*
Y0719D01*
X151497*
Y07198*
Y07206*
X151577*
Y07198*
G37*
G36*
X151177Y07214D02*
Y07206D01*
Y07198*
X151017*
Y07206*
Y07214*
Y07222*
X151177*
Y07214*
G37*
G36*
X149417Y07198D02*
X149497D01*
Y0719*
X149577*
Y07182*
Y07174*
Y07166*
X149497*
Y07158*
X149417*
Y0715*
X149257*
Y07158*
X149177*
Y07166*
X149097*
Y07174*
Y07182*
Y0719*
X149177*
Y07198*
X149257*
Y07206*
X149417*
Y07198*
G37*
G36*
X149337Y0703D02*
Y07022D01*
X149177*
Y0703*
Y07038*
X149337*
Y0703*
G37*
G36*
X150057Y07222D02*
X150137D01*
Y07214*
Y07206*
Y07198*
Y0719*
X149817*
Y07198*
Y07206*
X149737*
Y07214*
X149817*
Y07222*
X149897*
Y0723*
X150057*
Y07222*
G37*
G36*
X149577Y07694D02*
Y07686D01*
Y07678*
Y0767*
Y07662*
Y07654*
Y07646*
Y07638*
Y0763*
Y07622*
Y07614*
Y07606*
X149417*
Y07598*
X149257*
Y0759*
X149097*
Y07582*
X149017*
Y07574*
X148937*
Y07566*
Y07558*
X148857*
Y0755*
Y07542*
Y07534*
Y07526*
Y07518*
Y0751*
Y07502*
Y07494*
X148937*
Y07486*
Y07478*
X149017*
Y0747*
X149097*
Y07462*
X149177*
Y07454*
X149337*
Y07446*
X149577*
Y07438*
Y0743*
X149497*
Y07422*
Y07414*
Y07406*
Y07398*
Y0739*
Y07382*
Y07374*
X149417*
Y07366*
Y07358*
Y0735*
Y07342*
Y07334*
Y07326*
Y07318*
X149577*
Y0731*
X149657*
Y07302*
X149817*
Y07294*
X149897*
Y07286*
X149977*
Y07278*
X150057*
Y0727*
X149657*
Y07262*
X149497*
Y07254*
X149417*
Y07262*
X149337*
Y0727*
X149177*
Y07278*
X149097*
Y07286*
X149017*
Y07294*
X148937*
Y07302*
Y0731*
X148857*
Y07318*
X148777*
Y07326*
X148697*
Y07334*
X148617*
Y07342*
Y0735*
X148537*
Y07358*
Y07366*
X148457*
Y07374*
Y07382*
Y0739*
X148377*
Y07398*
Y07406*
Y07414*
X148297*
Y07422*
Y0743*
Y07438*
Y07446*
Y07454*
Y07462*
Y0747*
Y07478*
Y07486*
Y07494*
Y07502*
Y0751*
Y07518*
Y07526*
Y07534*
Y07542*
Y0755*
Y07558*
X148377*
Y07566*
Y07574*
Y07582*
Y0759*
X148457*
Y07598*
Y07606*
X148537*
Y07614*
Y07622*
X148617*
Y0763*
Y07638*
X148697*
Y07646*
Y07654*
X148777*
Y07662*
X148857*
Y0767*
X148937*
Y07678*
X149017*
Y07686*
X149097*
Y07694*
X149177*
Y07702*
X149577*
Y07694*
G37*
G36*
X151417D02*
X151337D01*
Y07702*
X151417*
Y07694*
G37*
G36*
X151577Y07702D02*
X151417D01*
Y0771*
X151577*
Y07702*
G37*
G36*
X147897Y0763D02*
Y07622D01*
X147737*
Y0763*
Y07638*
X147897*
Y0763*
G37*
G36*
X152057Y07718D02*
X152137D01*
Y0771*
X152217*
Y07702*
X152297*
Y07694*
X152377*
Y07686*
X152457*
Y07678*
Y0767*
X152537*
Y07662*
Y07654*
X152617*
Y07646*
Y07638*
X152697*
Y0763*
Y07622*
Y07614*
Y07606*
X152777*
Y07598*
Y0759*
Y07582*
Y07574*
Y07566*
Y07558*
Y0755*
Y07542*
Y07534*
Y07526*
Y07518*
X152697*
Y0751*
Y07502*
Y07494*
X152617*
Y07486*
Y07478*
X152537*
Y0747*
Y07462*
X152457*
Y07454*
Y07446*
X152377*
Y07438*
X152297*
Y0743*
X152217*
Y07422*
Y07414*
X152137*
Y07406*
X152057*
Y07398*
X151977*
Y0739*
X151897*
Y07382*
X151737*
Y07374*
X151657*
Y07366*
X151577*
Y07358*
X151417*
Y0735*
X151257*
Y07358*
Y07366*
Y07374*
Y07382*
Y0739*
Y07398*
Y07406*
Y07414*
Y07422*
Y0743*
Y07438*
Y07446*
Y07454*
Y07462*
Y0747*
Y07478*
Y07486*
Y07494*
Y07502*
Y0751*
Y07518*
Y07526*
Y07534*
Y07542*
Y0755*
Y07558*
Y07566*
Y07574*
Y07582*
X151177*
Y0759*
Y07598*
Y07606*
Y07614*
Y07622*
Y0763*
Y07638*
Y07646*
Y07654*
Y07662*
X151257*
Y07654*
X151337*
Y07646*
Y07638*
Y0763*
X151417*
Y07622*
X151497*
Y07614*
X151737*
Y07606*
X151897*
Y07614*
X152057*
Y07622*
X152217*
Y0763*
Y07638*
X152297*
Y07646*
Y07654*
Y07662*
Y0767*
Y07678*
Y07686*
X152217*
Y07694*
X152137*
Y07702*
X152057*
Y0771*
X151577*
Y07718*
X151817*
Y07726*
X152057*
Y07718*
G37*
G36*
X151337Y07678D02*
Y0767D01*
X151257*
Y07678*
Y07686*
X151337*
Y07678*
G37*
G36*
X148137Y07662D02*
X148297D01*
Y07654*
X148057*
Y07662*
Y0767*
X148137*
Y07662*
G37*
G36*
X149817Y0759D02*
X149977D01*
Y07582*
X150137*
Y07574*
Y07566*
X150217*
Y07558*
X150297*
Y0755*
Y07542*
Y07534*
X150377*
Y07526*
Y07518*
Y0751*
X150297*
Y07502*
Y07494*
X150217*
Y07486*
Y07478*
X150137*
Y0747*
X150057*
Y07462*
X149897*
Y07454*
X149657*
Y07462*
X149737*
Y0747*
Y07478*
Y07486*
Y07494*
Y07502*
Y0751*
Y07518*
Y07526*
Y07534*
Y07542*
Y0755*
Y07558*
Y07566*
Y07574*
Y07582*
Y0759*
Y07598*
X149817*
Y0759*
G37*
G36*
X140617Y07302D02*
X140697D01*
Y07294*
Y07286*
Y07278*
Y0727*
X140617*
Y07262*
X140297*
Y0727*
X140217*
Y07278*
Y07286*
Y07294*
X140297*
Y07302*
X140377*
Y0731*
X140617*
Y07302*
G37*
G36*
X142697D02*
X142777D01*
Y07294*
Y07286*
X142697*
Y07294*
X142617*
Y07302*
Y0731*
X142697*
Y07302*
G37*
G36*
X145177D02*
X145097D01*
Y0731*
X145177*
Y07302*
G37*
G36*
X145257Y07318D02*
Y0731D01*
X145177*
Y07318*
Y07326*
X145257*
Y07318*
G37*
G36*
X139817Y07262D02*
X139897D01*
Y07254*
Y07246*
Y07238*
Y0723*
Y07222*
X139817*
Y07214*
X139657*
Y07206*
X139497*
Y07214*
X139417*
Y07222*
X139337*
Y0723*
Y07238*
Y07246*
Y07254*
Y07262*
X139417*
Y0727*
X139817*
Y07262*
G37*
G36*
X142777Y0723D02*
X142697D01*
Y07222*
Y07214*
X142617*
Y07222*
Y0723*
Y07238*
X142777*
Y0723*
G37*
G36*
X143257Y07262D02*
X143017D01*
Y07254*
X142937*
Y07262*
Y0727*
X143257*
Y07262*
G37*
G36*
X142457Y0727D02*
Y07262D01*
Y07254*
X142377*
Y07262*
X142137*
Y0727*
X142377*
Y07278*
X142457*
Y0727*
G37*
G36*
X145897Y07278D02*
X145977D01*
Y0727*
X146057*
Y07262*
Y07254*
Y07246*
X145977*
Y07238*
X145817*
Y0723*
X145737*
Y07238*
X145657*
Y07246*
X145577*
Y07254*
Y07262*
Y0727*
Y07278*
X145657*
Y07286*
X145897*
Y07278*
G37*
G36*
X138777Y07534D02*
Y07526D01*
X138697*
Y07534*
X138617*
Y07542*
X138777*
Y07534*
G37*
G36*
X138537Y07566D02*
Y07558D01*
X138377*
Y07566*
X138457*
Y07574*
X138537*
Y07566*
G37*
G36*
X139497Y07494D02*
X139337D01*
Y07502*
X139497*
Y07494*
G37*
G36*
X138777Y0759D02*
Y07582D01*
X138697*
Y0759*
Y07598*
X138777*
Y0759*
G37*
G36*
X145257Y07366D02*
Y07358D01*
X145177*
Y07366*
Y07374*
X145257*
Y07366*
G37*
G36*
X141177Y07358D02*
Y0735D01*
Y07342*
Y07334*
X141097*
Y07326*
X140937*
Y07334*
X140857*
Y07342*
X140777*
Y0735*
Y07358*
X140857*
Y07366*
X141177*
Y07358*
G37*
G36*
X145337Y07342D02*
Y07334D01*
X145257*
Y07342*
Y0735*
X145337*
Y07342*
G37*
G36*
X140937Y0743D02*
Y07422D01*
Y07414*
X140697*
Y07422*
Y0743*
X140777*
Y07438*
X140937*
Y0743*
G37*
G36*
X140697Y07478D02*
Y0747D01*
X140537*
Y07478*
X140457*
Y07486*
X140697*
Y07478*
G37*
G36*
X133897Y0731D02*
Y07302D01*
Y07294*
X133657*
Y07302*
Y0731*
Y07318*
X133897*
Y0731*
G37*
G36*
X134057Y07246D02*
Y07238D01*
Y0723*
X133977*
Y07238*
X133897*
Y07246*
Y07254*
X134057*
Y07246*
G37*
G36*
X134937Y0779D02*
X135257D01*
Y07782*
X135417*
Y07774*
X135577*
Y07766*
X135657*
Y07758*
Y0775*
Y07742*
Y07734*
Y07726*
Y07718*
Y0771*
Y07702*
Y07694*
Y07686*
Y07678*
Y0767*
Y07662*
Y07654*
Y07646*
Y07638*
Y0763*
Y07622*
Y07614*
Y07606*
Y07598*
Y0759*
Y07582*
Y07574*
Y07566*
Y07558*
Y0755*
Y07542*
Y07534*
Y07526*
X135577*
Y07534*
X135497*
Y07542*
X135417*
Y0755*
X135337*
Y07558*
X135257*
Y07566*
X135177*
Y07574*
X135017*
Y07582*
X134937*
Y0759*
X134857*
Y07598*
X134777*
Y07606*
X134697*
Y07614*
X134537*
Y07622*
X134457*
Y0763*
X134377*
Y07638*
X134057*
Y07646*
X134137*
Y07654*
X134217*
Y07662*
Y0767*
X134297*
Y07678*
Y07686*
Y07694*
X134217*
Y07702*
Y0771*
Y07718*
Y07726*
X134137*
Y07734*
Y07742*
X134057*
Y0775*
Y07758*
Y07766*
X134137*
Y07774*
X134297*
Y07782*
X134457*
Y0779*
X134697*
Y07798*
X134937*
Y0779*
G37*
G36*
X134617Y0755D02*
X134697D01*
Y07542*
Y07534*
X134777*
Y07526*
X134697*
Y07518*
X134617*
Y0751*
X134377*
Y07518*
X134297*
Y07526*
Y07534*
Y07542*
Y0755*
X134377*
Y07558*
X134617*
Y0755*
G37*
G36*
X133817Y07398D02*
X133897D01*
Y0739*
X133977*
Y07382*
Y07374*
X133897*
Y07366*
X133657*
Y07374*
X133577*
Y07382*
Y0739*
Y07398*
X133737*
Y07406*
X133817*
Y07398*
G37*
G36*
X134137Y07478D02*
X134217D01*
Y0747*
X134297*
Y07462*
Y07454*
X134217*
Y07446*
Y07438*
X133897*
Y07446*
X133817*
Y07454*
Y07462*
Y0747*
Y07478*
X133897*
Y07486*
X134137*
Y07478*
G37*
G36*
X136457Y07558D02*
Y0755D01*
X136537*
Y07542*
Y07534*
Y07526*
Y07518*
Y0751*
Y07502*
X136617*
Y07494*
Y07486*
Y07478*
Y0747*
Y07462*
Y07454*
X136537*
Y07446*
Y07438*
Y0743*
Y07422*
Y07414*
X136457*
Y07406*
Y07398*
Y0739*
Y07382*
Y07374*
X136377*
Y07382*
Y0739*
Y07398*
Y07406*
Y07414*
X136297*
Y07422*
Y0743*
Y07438*
Y07446*
Y07454*
Y07462*
X136217*
Y0747*
Y07478*
Y07486*
X136297*
Y07494*
Y07502*
Y0751*
Y07518*
Y07526*
X136377*
Y07534*
Y07542*
Y0755*
Y07558*
Y07566*
X136457*
Y07558*
G37*
G36*
X153526Y093281D02*
X153606D01*
Y093201*
X153526*
Y093121*
X153286*
Y093041*
X153126*
Y092961*
X153046*
Y092881*
X152966*
Y092801*
X152886*
Y092721*
Y092641*
Y092561*
Y092481*
Y092401*
X152726*
Y092481*
Y092561*
Y092641*
Y092721*
Y092801*
Y092881*
X152806*
Y092961*
X152886*
Y093041*
Y093121*
X152966*
Y093201*
X153126*
Y093281*
X153366*
Y093361*
X153526*
Y093281*
G37*
%LNpcb1-4*%
%LPC*%
G36*
X148697Y0747D02*
X148617D01*
Y07462*
X148697*
Y0747*
G37*
G36*
Y07454D02*
X148617D01*
Y07446*
X148697*
Y07438*
X148617*
Y0743*
X148697*
Y07422*
X148617*
Y07414*
X148697*
Y07406*
X148777*
Y07398*
X148857*
Y0739*
X148777*
Y07382*
X148857*
Y07374*
X148937*
Y07366*
X149017*
Y07358*
X149097*
Y07366*
X149177*
Y07374*
X149097*
Y07382*
X149177*
Y0739*
X149097*
Y07398*
X149177*
Y07406*
Y07414*
Y07422*
X148937*
Y0743*
X148857*
Y07438*
X148777*
Y07446*
X148697*
Y07454*
G37*
G36*
X149017Y0763D02*
X148937D01*
Y07622*
X149017*
Y0763*
G37*
G36*
Y07358D02*
X148937D01*
Y0735*
X149017*
Y07358*
G37*
G36*
X149337Y07662D02*
X149257D01*
Y07654*
X149337*
Y07662*
G37*
G36*
X149257Y07654D02*
X149177D01*
Y07646*
X149097*
Y07638*
X149017*
Y0763*
X149097*
Y07622*
X149177*
Y0763*
X149257*
Y07638*
X149337*
Y07646*
X149257*
Y07654*
G37*
G36*
X151657Y0743D02*
X151577D01*
Y07422*
X151657*
Y07414*
X151737*
Y07422*
X151657*
Y0743*
G37*
G36*
X152377Y07598D02*
X152297D01*
Y0759*
X152377*
Y07582*
X152457*
Y0759*
X152377*
Y07598*
G37*
G36*
Y07582D02*
X152137D01*
Y07574*
X152057*
Y07582*
X151977*
Y07574*
X151897*
Y07582*
X151817*
Y07574*
X151737*
Y07582*
X151657*
Y07574*
X151577*
Y07582*
X151497*
Y07574*
X151577*
Y07566*
X151497*
Y07558*
X151577*
Y0755*
X151657*
Y07542*
X151577*
Y0755*
X151497*
Y07542*
X151577*
Y07534*
Y07526*
Y07518*
X151657*
Y0751*
X151577*
Y07502*
X151657*
Y07494*
X151577*
Y07486*
X151657*
Y07478*
X151577*
Y0747*
X151657*
Y07462*
X151577*
Y07454*
X151657*
Y07446*
X151577*
Y07438*
X151657*
Y0743*
X151817*
Y07438*
Y07446*
X151897*
Y07454*
X151977*
Y07462*
X152057*
Y0747*
X152137*
Y07478*
X152217*
Y07486*
Y07494*
X152377*
Y07502*
X152297*
Y0751*
X152377*
Y07518*
X152297*
Y07526*
X152377*
Y07534*
X152457*
Y07542*
X152537*
Y0755*
X152457*
Y07558*
X152537*
Y07566*
X152457*
Y07574*
X152377*
Y07582*
G37*
G36*
X135097Y07758D02*
X134697D01*
Y0775*
X134617*
Y07758*
X134537*
Y0775*
X134457*
Y07742*
X134537*
Y07734*
X134617*
Y07726*
X134537*
Y07718*
X134617*
Y0771*
X134537*
Y07702*
X134617*
Y07694*
X134537*
Y07686*
X134617*
Y07678*
X134537*
Y0767*
X134617*
Y07662*
X134697*
Y07654*
X134777*
Y07646*
X134857*
Y07638*
X134937*
Y0763*
X135017*
Y07622*
X135097*
Y07614*
X135177*
Y07606*
X135257*
Y07614*
X135337*
Y07622*
X135417*
Y0763*
X135337*
Y07638*
X135257*
Y07646*
X135337*
Y07654*
X135417*
Y07662*
X135337*
Y0767*
Y07678*
Y07686*
X135417*
Y07694*
X135337*
Y07702*
Y0771*
Y07718*
X135417*
Y07726*
X135337*
Y07734*
X135257*
Y07742*
X135177*
Y0775*
X135097*
Y07758*
G37*
%LNpcb1-5*%
%LPD*%
G54D47*
X131656Y093504D02*
D01*
X131654Y093556*
X131648Y093608*
X131639Y093659*
X131626Y09371*
X13161Y09376*
X131591Y093809*
X131568Y093856*
X131542Y093901*
X131512Y093944*
X13148Y093986*
X131445Y094024*
X131407Y094061*
X131367Y094095*
X131325Y094125*
X131281Y094153*
X131234Y094178*
X131186Y094199*
X131137Y094217*
X131087Y094231*
X131036Y094242*
X130984Y094249*
X130932Y094253*
X130879*
X130827Y094249*
X130775Y094242*
X130724Y094231*
X130674Y094217*
X130625Y094199*
X130577Y094178*
X130531Y094153*
X130486Y094125*
X130444Y094095*
X130404Y094061*
X130366Y094024*
X130331Y093986*
X130299Y093944*
X130269Y093901*
X130243Y093856*
X13022Y093809*
X130201Y09376*
X130185Y09371*
X130172Y093659*
X130163Y093608*
X130157Y093556*
X130156Y093504*
X130157Y093451*
X130163Y093399*
X130172Y093348*
X130185Y093297*
X130201Y093247*
X13022Y093198*
X130243Y093151*
X130269Y093106*
X130299Y093063*
X130331Y093021*
X130366Y092983*
X130404Y092946*
X130444Y092912*
X130486Y092882*
X130531Y092854*
X130577Y092829*
X130625Y092808*
X130674Y09279*
X130724Y092776*
X130775Y092765*
X130827Y092758*
X130879Y092754*
X130932*
X130984Y092758*
X131036Y092765*
X131087Y092776*
X131137Y09279*
X131186Y092808*
X131234Y092829*
X131281Y092854*
X131325Y092882*
X131367Y092912*
X131407Y092946*
X131445Y092983*
X13148Y093021*
X131512Y093063*
X131542Y093106*
X131568Y093151*
X131591Y093198*
X13161Y093247*
X131626Y093297*
X131639Y093348*
X131648Y093399*
X131654Y093451*
X131656Y093504*
X132306D02*
D01*
X132302Y093601*
X132292Y093698*
X132275Y093795*
X132251Y093889*
X132221Y093982*
X132184Y094073*
X132142Y094161*
X132093Y094245*
X132038Y094326*
X131978Y094403*
X131913Y094476*
X131842Y094544*
X131767Y094607*
X131688Y094664*
X131606Y094716*
X131519Y094762*
X13143Y094802*
X131338Y094835*
X131244Y094862*
X131149Y094882*
X131052Y094896*
X130954Y094903*
X130857*
X130759Y094896*
X130662Y094882*
X130567Y094862*
X130473Y094835*
X130381Y094802*
X130292Y094762*
X130206Y094716*
X130123Y094664*
X130044Y094607*
X129969Y094544*
X129898Y094476*
X129833Y094403*
X129773Y094326*
X129718Y094245*
X129669Y094161*
X129627Y094073*
X12959Y093982*
X12956Y093889*
X129536Y093795*
X129519Y093698*
X129509Y093601*
X129506Y093504*
X129509Y093406*
X129519Y093309*
X129536Y093212*
X12956Y093118*
X12959Y093025*
X129627Y092934*
X129669Y092846*
X129718Y092762*
X129773Y092681*
X129833Y092604*
X129898Y092531*
X129969Y092463*
X130044Y0924*
X130123Y092343*
X130206Y092291*
X130292Y092245*
X130381Y092205*
X130473Y092172*
X130567Y092145*
X130662Y092125*
X130759Y092111*
X130857Y092104*
X130954*
X131052Y092111*
X131149Y092125*
X131244Y092145*
X131338Y092172*
X13143Y092205*
X131519Y092245*
X131606Y092291*
X131688Y092343*
X131767Y0924*
X131842Y092463*
X131913Y092531*
X131978Y092604*
X132038Y092681*
X132093Y092762*
X132142Y092846*
X132184Y092934*
X132221Y093025*
X132251Y093118*
X132275Y093212*
X132292Y093309*
X132302Y093406*
X132306Y093504*
X131656D02*
D01*
X131654Y093556*
X131648Y093608*
X131639Y093659*
X131626Y09371*
X13161Y09376*
X131591Y093809*
X131568Y093856*
X131542Y093901*
X131512Y093944*
X13148Y093986*
X131445Y094024*
X131407Y094061*
X131367Y094095*
X131325Y094125*
X131281Y094153*
X131234Y094178*
X131186Y094199*
X131137Y094217*
X131087Y094231*
X131036Y094242*
X130984Y094249*
X130932Y094253*
X130879*
X130827Y094249*
X130775Y094242*
X130724Y094231*
X130674Y094217*
X130625Y094199*
X130577Y094178*
X130531Y094153*
X130486Y094125*
X130444Y094095*
X130404Y094061*
X130366Y094024*
X130331Y093986*
X130299Y093944*
X130269Y093901*
X130243Y093856*
X13022Y093809*
X130201Y09376*
X130185Y09371*
X130172Y093659*
X130163Y093608*
X130157Y093556*
X130156Y093504*
X130157Y093451*
X130163Y093399*
X130172Y093348*
X130185Y093297*
X130201Y093247*
X13022Y093198*
X130243Y093151*
X130269Y093106*
X130299Y093063*
X130331Y093021*
X130366Y092983*
X130404Y092946*
X130444Y092912*
X130486Y092882*
X130531Y092854*
X130577Y092829*
X130625Y092808*
X130674Y09279*
X130724Y092776*
X130775Y092765*
X130827Y092758*
X130879Y092754*
X130932*
X130984Y092758*
X131036Y092765*
X131087Y092776*
X131137Y09279*
X131186Y092808*
X131234Y092829*
X131281Y092854*
X131325Y092882*
X131367Y092912*
X131407Y092946*
X131445Y092983*
X13148Y093021*
X131512Y093063*
X131542Y093106*
X131568Y093151*
X131591Y093198*
X13161Y093247*
X131626Y093297*
X131639Y093348*
X131648Y093399*
X131654Y093451*
X131656Y093504*
X132306D02*
D01*
X132302Y093601*
X132292Y093698*
X132275Y093795*
X132251Y093889*
X132221Y093982*
X132184Y094073*
X132142Y094161*
X132093Y094245*
X132038Y094326*
X131978Y094403*
X131913Y094476*
X131842Y094544*
X131767Y094607*
X131688Y094664*
X131606Y094716*
X131519Y094762*
X13143Y094802*
X131338Y094835*
X131244Y094862*
X131149Y094882*
X131052Y094896*
X130954Y094903*
X130857*
X130759Y094896*
X130662Y094882*
X130567Y094862*
X130473Y094835*
X130381Y094802*
X130292Y094762*
X130206Y094716*
X130123Y094664*
X130044Y094607*
X129969Y094544*
X129898Y094476*
X129833Y094403*
X129773Y094326*
X129718Y094245*
X129669Y094161*
X129627Y094073*
X12959Y093982*
X12956Y093889*
X129536Y093795*
X129519Y093698*
X129509Y093601*
X129506Y093504*
X129509Y093406*
X129519Y093309*
X129536Y093212*
X12956Y093118*
X12959Y093025*
X129627Y092934*
X129669Y092846*
X129718Y092762*
X129773Y092681*
X129833Y092604*
X129898Y092531*
X129969Y092463*
X130044Y0924*
X130123Y092343*
X130206Y092291*
X130292Y092245*
X130381Y092205*
X130473Y092172*
X130567Y092145*
X130662Y092125*
X130759Y092111*
X130857Y092104*
X130954*
X131052Y092111*
X131149Y092125*
X131244Y092145*
X131338Y092172*
X13143Y092205*
X131519Y092245*
X131606Y092291*
X131688Y092343*
X131767Y0924*
X131842Y092463*
X131913Y092531*
X131978Y092604*
X132038Y092681*
X132093Y092762*
X132142Y092846*
X132184Y092934*
X132221Y093025*
X132251Y093118*
X132275Y093212*
X132292Y093309*
X132302Y093406*
X132306Y093504*
X184018Y069094D02*
D01*
X184016Y069146*
X18401Y069198*
X184001Y069249*
X183988Y0693*
X183972Y06935*
X183953Y069399*
X18393Y069446*
X183904Y069491*
X183874Y069534*
X183842Y069576*
X183807Y069614*
X183769Y069651*
X183729Y069685*
X183687Y069715*
X183643Y069743*
X183596Y069768*
X183548Y069789*
X183499Y069807*
X183449Y069821*
X183398Y069832*
X183346Y069839*
X183294Y069843*
X183241*
X183189Y069839*
X183137Y069832*
X183086Y069821*
X183036Y069807*
X182987Y069789*
X182939Y069768*
X182893Y069743*
X182848Y069715*
X182806Y069685*
X182766Y069651*
X182728Y069614*
X182693Y069576*
X182661Y069534*
X182631Y069491*
X182605Y069446*
X182582Y069399*
X182563Y06935*
X182547Y0693*
X182534Y069249*
X182525Y069198*
X182519Y069146*
X182518Y069094*
X182519Y069041*
X182525Y068989*
X182534Y068938*
X182547Y068887*
X182563Y068837*
X182582Y068788*
X182605Y068741*
X182631Y068696*
X182661Y068653*
X182693Y068611*
X182728Y068573*
X182766Y068536*
X182806Y068502*
X182848Y068472*
X182893Y068444*
X182939Y068419*
X182987Y068398*
X183036Y06838*
X183086Y068366*
X183137Y068355*
X183189Y068348*
X183241Y068344*
X183294*
X183346Y068348*
X183398Y068355*
X183449Y068366*
X183499Y06838*
X183548Y068398*
X183596Y068419*
X183643Y068444*
X183687Y068472*
X183729Y068502*
X183769Y068536*
X183807Y068573*
X183842Y068611*
X183874Y068653*
X183904Y068696*
X18393Y068741*
X183953Y068788*
X183972Y068837*
X183988Y068887*
X184001Y068938*
X18401Y068989*
X184016Y069041*
X184018Y069094*
X184668D02*
D01*
X184664Y069191*
X184654Y069288*
X184637Y069385*
X184613Y069479*
X184583Y069572*
X184546Y069663*
X184504Y069751*
X184455Y069835*
X1844Y069916*
X18434Y069993*
X184275Y070066*
X184204Y070134*
X184129Y070197*
X18405Y070254*
X183968Y070306*
X183881Y070352*
X183792Y070392*
X1837Y070425*
X183606Y070452*
X183511Y070472*
X183414Y070486*
X183316Y070493*
X183219*
X183121Y070486*
X183024Y070472*
X182929Y070452*
X182835Y070425*
X182743Y070392*
X182654Y070352*
X182568Y070306*
X182485Y070254*
X182406Y070197*
X182331Y070134*
X18226Y070066*
X182195Y069993*
X182135Y069916*
X18208Y069835*
X182031Y069751*
X181989Y069663*
X181952Y069572*
X181922Y069479*
X181898Y069385*
X181881Y069288*
X181871Y069191*
X181868Y069094*
X181871Y068996*
X181881Y068899*
X181898Y068802*
X181922Y068708*
X181952Y068615*
X181989Y068524*
X182031Y068436*
X18208Y068352*
X182135Y068271*
X182195Y068194*
X18226Y068121*
X182331Y068053*
X182406Y06799*
X182485Y067933*
X182568Y067881*
X182654Y067835*
X182743Y067795*
X182835Y067762*
X182929Y067735*
X183024Y067715*
X183121Y067701*
X183219Y067694*
X183316*
X183414Y067701*
X183511Y067715*
X183606Y067735*
X1837Y067762*
X183792Y067795*
X183881Y067835*
X183968Y067881*
X18405Y067933*
X184129Y06799*
X184204Y068053*
X184275Y068121*
X18434Y068194*
X1844Y068271*
X184455Y068352*
X184504Y068436*
X184546Y068524*
X184583Y068615*
X184613Y068708*
X184637Y068802*
X184654Y068899*
X184664Y068996*
X184668Y069094*
X184018D02*
D01*
X184016Y069146*
X18401Y069198*
X184001Y069249*
X183988Y0693*
X183972Y06935*
X183953Y069399*
X18393Y069446*
X183904Y069491*
X183874Y069534*
X183842Y069576*
X183807Y069614*
X183769Y069651*
X183729Y069685*
X183687Y069715*
X183643Y069743*
X183596Y069768*
X183548Y069789*
X183499Y069807*
X183449Y069821*
X183398Y069832*
X183346Y069839*
X183294Y069843*
X183241*
X183189Y069839*
X183137Y069832*
X183086Y069821*
X183036Y069807*
X182987Y069789*
X182939Y069768*
X182893Y069743*
X182848Y069715*
X182806Y069685*
X182766Y069651*
X182728Y069614*
X182693Y069576*
X182661Y069534*
X182631Y069491*
X182605Y069446*
X182582Y069399*
X182563Y06935*
X182547Y0693*
X182534Y069249*
X182525Y069198*
X182519Y069146*
X182518Y069094*
X182519Y069041*
X182525Y068989*
X182534Y068938*
X182547Y068887*
X182563Y068837*
X182582Y068788*
X182605Y068741*
X182631Y068696*
X182661Y068653*
X182693Y068611*
X182728Y068573*
X182766Y068536*
X182806Y068502*
X182848Y068472*
X182893Y068444*
X182939Y068419*
X182987Y068398*
X183036Y06838*
X183086Y068366*
X183137Y068355*
X183189Y068348*
X183241Y068344*
X183294*
X183346Y068348*
X183398Y068355*
X183449Y068366*
X183499Y06838*
X183548Y068398*
X183596Y068419*
X183643Y068444*
X183687Y068472*
X183729Y068502*
X183769Y068536*
X183807Y068573*
X183842Y068611*
X183874Y068653*
X183904Y068696*
X18393Y068741*
X183953Y068788*
X183972Y068837*
X183988Y068887*
X184001Y068938*
X18401Y068989*
X184016Y069041*
X184018Y069094*
X184668D02*
D01*
X184664Y069191*
X184654Y069288*
X184637Y069385*
X184613Y069479*
X184583Y069572*
X184546Y069663*
X184504Y069751*
X184455Y069835*
X1844Y069916*
X18434Y069993*
X184275Y070066*
X184204Y070134*
X184129Y070197*
X18405Y070254*
X183968Y070306*
X183881Y070352*
X183792Y070392*
X1837Y070425*
X183606Y070452*
X183511Y070472*
X183414Y070486*
X183316Y070493*
X183219*
X183121Y070486*
X183024Y070472*
X182929Y070452*
X182835Y070425*
X182743Y070392*
X182654Y070352*
X182568Y070306*
X182485Y070254*
X182406Y070197*
X182331Y070134*
X18226Y070066*
X182195Y069993*
X182135Y069916*
X18208Y069835*
X182031Y069751*
X181989Y069663*
X181952Y069572*
X181922Y069479*
X181898Y069385*
X181881Y069288*
X181871Y069191*
X181868Y069094*
X181871Y068996*
X181881Y068899*
X181898Y068802*
X181922Y068708*
X181952Y068615*
X181989Y068524*
X182031Y068436*
X18208Y068352*
X182135Y068271*
X182195Y068194*
X18226Y068121*
X182331Y068053*
X182406Y06799*
X182485Y067933*
X182568Y067881*
X182654Y067835*
X182743Y067795*
X182835Y067762*
X182929Y067735*
X183024Y067715*
X183121Y067701*
X183219Y067694*
X183316*
X183414Y067701*
X183511Y067715*
X183606Y067735*
X1837Y067762*
X183792Y067795*
X183881Y067835*
X183968Y067881*
X18405Y067933*
X184129Y06799*
X184204Y068053*
X184275Y068121*
X18434Y068194*
X1844Y068271*
X184455Y068352*
X184504Y068436*
X184546Y068524*
X184583Y068615*
X184613Y068708*
X184637Y068802*
X184654Y068899*
X184664Y068996*
X184668Y069094*
X130868D02*
D01*
X130866Y069146*
X13086Y069198*
X130851Y069249*
X130838Y0693*
X130822Y06935*
X130803Y069399*
X13078Y069446*
X130754Y069491*
X130724Y069534*
X130692Y069576*
X130657Y069614*
X130619Y069651*
X130579Y069685*
X130537Y069715*
X130493Y069743*
X130446Y069768*
X130398Y069789*
X130349Y069807*
X130299Y069821*
X130248Y069832*
X130196Y069839*
X130144Y069843*
X130091*
X130039Y069839*
X129987Y069832*
X129936Y069821*
X129886Y069807*
X129837Y069789*
X129789Y069768*
X129743Y069743*
X129698Y069715*
X129656Y069685*
X129616Y069651*
X129578Y069614*
X129543Y069576*
X129511Y069534*
X129481Y069491*
X129455Y069446*
X129432Y069399*
X129413Y06935*
X129397Y0693*
X129384Y069249*
X129375Y069198*
X129369Y069146*
X129368Y069094*
X129369Y069041*
X129375Y068989*
X129384Y068938*
X129397Y068887*
X129413Y068837*
X129432Y068788*
X129455Y068741*
X129481Y068696*
X129511Y068653*
X129543Y068611*
X129578Y068573*
X129616Y068536*
X129656Y068502*
X129698Y068472*
X129743Y068444*
X129789Y068419*
X129837Y068398*
X129886Y06838*
X129936Y068366*
X129987Y068355*
X130039Y068348*
X130091Y068344*
X130144*
X130196Y068348*
X130248Y068355*
X130299Y068366*
X130349Y06838*
X130398Y068398*
X130446Y068419*
X130493Y068444*
X130537Y068472*
X130579Y068502*
X130619Y068536*
X130657Y068573*
X130692Y068611*
X130724Y068653*
X130754Y068696*
X13078Y068741*
X130803Y068788*
X130822Y068837*
X130838Y068887*
X130851Y068938*
X13086Y068989*
X130866Y069041*
X130868Y069094*
X131518D02*
D01*
X131514Y069191*
X131504Y069288*
X131487Y069385*
X131463Y069479*
X131433Y069572*
X131396Y069663*
X131354Y069751*
X131305Y069835*
X13125Y069916*
X13119Y069993*
X131125Y070066*
X131054Y070134*
X130979Y070197*
X1309Y070254*
X130818Y070306*
X130731Y070352*
X130642Y070392*
X13055Y070425*
X130456Y070452*
X130361Y070472*
X130264Y070486*
X130166Y070493*
X130069*
X129971Y070486*
X129874Y070472*
X129779Y070452*
X129685Y070425*
X129593Y070392*
X129504Y070352*
X129418Y070306*
X129335Y070254*
X129256Y070197*
X129181Y070134*
X12911Y070066*
X129045Y069993*
X128985Y069916*
X12893Y069835*
X128881Y069751*
X128839Y069663*
X128802Y069572*
X128772Y069479*
X128748Y069385*
X128731Y069288*
X128721Y069191*
X128718Y069094*
X128721Y068996*
X128731Y068899*
X128748Y068802*
X128772Y068708*
X128802Y068615*
X128839Y068524*
X128881Y068436*
X12893Y068352*
X128985Y068271*
X129045Y068194*
X12911Y068121*
X129181Y068053*
X129256Y06799*
X129335Y067933*
X129418Y067881*
X129504Y067835*
X129593Y067795*
X129685Y067762*
X129779Y067735*
X129874Y067715*
X129971Y067701*
X130069Y067694*
X130166*
X130264Y067701*
X130361Y067715*
X130456Y067735*
X13055Y067762*
X130642Y067795*
X130731Y067835*
X130818Y067881*
X1309Y067933*
X130979Y06799*
X131054Y068053*
X131125Y068121*
X13119Y068194*
X13125Y068271*
X131305Y068352*
X131354Y068436*
X131396Y068524*
X131433Y068615*
X131463Y068708*
X131487Y068802*
X131504Y068899*
X131514Y068996*
X131518Y069094*
X130868D02*
D01*
X130866Y069146*
X13086Y069198*
X130851Y069249*
X130838Y0693*
X130822Y06935*
X130803Y069399*
X13078Y069446*
X130754Y069491*
X130724Y069534*
X130692Y069576*
X130657Y069614*
X130619Y069651*
X130579Y069685*
X130537Y069715*
X130493Y069743*
X130446Y069768*
X130398Y069789*
X130349Y069807*
X130299Y069821*
X130248Y069832*
X130196Y069839*
X130144Y069843*
X130091*
X130039Y069839*
X129987Y069832*
X129936Y069821*
X129886Y069807*
X129837Y069789*
X129789Y069768*
X129743Y069743*
X129698Y069715*
X129656Y069685*
X129616Y069651*
X129578Y069614*
X129543Y069576*
X129511Y069534*
X129481Y069491*
X129455Y069446*
X129432Y069399*
X129413Y06935*
X129397Y0693*
X129384Y069249*
X129375Y069198*
X129369Y069146*
X129368Y069094*
X129369Y069041*
X129375Y068989*
X129384Y068938*
X129397Y068887*
X129413Y068837*
X129432Y068788*
X129455Y068741*
X129481Y068696*
X129511Y068653*
X129543Y068611*
X129578Y068573*
X129616Y068536*
X129656Y068502*
X129698Y068472*
X129743Y068444*
X129789Y068419*
X129837Y068398*
X129886Y06838*
X129936Y068366*
X129987Y068355*
X130039Y068348*
X130091Y068344*
X130144*
X130196Y068348*
X130248Y068355*
X130299Y068366*
X130349Y06838*
X130398Y068398*
X130446Y068419*
X130493Y068444*
X130537Y068472*
X130579Y068502*
X130619Y068536*
X130657Y068573*
X130692Y068611*
X130724Y068653*
X130754Y068696*
X13078Y068741*
X130803Y068788*
X130822Y068837*
X130838Y068887*
X130851Y068938*
X13086Y068989*
X130866Y069041*
X130868Y069094*
X131518D02*
D01*
X131514Y069191*
X131504Y069288*
X131487Y069385*
X131463Y069479*
X131433Y069572*
X131396Y069663*
X131354Y069751*
X131305Y069835*
X13125Y069916*
X13119Y069993*
X131125Y070066*
X131054Y070134*
X130979Y070197*
X1309Y070254*
X130818Y070306*
X130731Y070352*
X130642Y070392*
X13055Y070425*
X130456Y070452*
X130361Y070472*
X130264Y070486*
X130166Y070493*
X130069*
X129971Y070486*
X129874Y070472*
X129779Y070452*
X129685Y070425*
X129593Y070392*
X129504Y070352*
X129418Y070306*
X129335Y070254*
X129256Y070197*
X129181Y070134*
X12911Y070066*
X129045Y069993*
X128985Y069916*
X12893Y069835*
X128881Y069751*
X128839Y069663*
X128802Y069572*
X128772Y069479*
X128748Y069385*
X128731Y069288*
X128721Y069191*
X128718Y069094*
X128721Y068996*
X128731Y068899*
X128748Y068802*
X128772Y068708*
X128802Y068615*
X128839Y068524*
X128881Y068436*
X12893Y068352*
X128985Y068271*
X129045Y068194*
X12911Y068121*
X129181Y068053*
X129256Y06799*
X129335Y067933*
X129418Y067881*
X129504Y067835*
X129593Y067795*
X129685Y067762*
X129779Y067735*
X129874Y067715*
X129971Y067701*
X130069Y067694*
X130166*
X130264Y067701*
X130361Y067715*
X130456Y067735*
X13055Y067762*
X130642Y067795*
X130731Y067835*
X130818Y067881*
X1309Y067933*
X130979Y06799*
X131054Y068053*
X131125Y068121*
X13119Y068194*
X13125Y068271*
X131305Y068352*
X131354Y068436*
X131396Y068524*
X131433Y068615*
X131463Y068708*
X131487Y068802*
X131504Y068899*
X131514Y068996*
X131518Y069094*
X184018Y093504D02*
D01*
X184016Y093556*
X18401Y093608*
X184001Y093659*
X183988Y09371*
X183972Y09376*
X183953Y093809*
X18393Y093856*
X183904Y093901*
X183874Y093944*
X183842Y093986*
X183807Y094024*
X183769Y094061*
X183729Y094095*
X183687Y094125*
X183643Y094153*
X183596Y094178*
X183548Y094199*
X183499Y094217*
X183449Y094231*
X183398Y094242*
X183346Y094249*
X183294Y094253*
X183241*
X183189Y094249*
X183137Y094242*
X183086Y094231*
X183036Y094217*
X182987Y094199*
X182939Y094178*
X182893Y094153*
X182848Y094125*
X182806Y094095*
X182766Y094061*
X182728Y094024*
X182693Y093986*
X182661Y093944*
X182631Y093901*
X182605Y093856*
X182582Y093809*
X182563Y09376*
X182547Y09371*
X182534Y093659*
X182525Y093608*
X182519Y093556*
X182518Y093504*
X182519Y093451*
X182525Y093399*
X182534Y093348*
X182547Y093297*
X182563Y093247*
X182582Y093198*
X182605Y093151*
X182631Y093106*
X182661Y093063*
X182693Y093021*
X182728Y092983*
X182766Y092946*
X182806Y092912*
X182848Y092882*
X182893Y092854*
X182939Y092829*
X182987Y092808*
X183036Y09279*
X183086Y092776*
X183137Y092765*
X183189Y092758*
X183241Y092754*
X183294*
X183346Y092758*
X183398Y092765*
X183449Y092776*
X183499Y09279*
X183548Y092808*
X183596Y092829*
X183643Y092854*
X183687Y092882*
X183729Y092912*
X183769Y092946*
X183807Y092983*
X183842Y093021*
X183874Y093063*
X183904Y093106*
X18393Y093151*
X183953Y093198*
X183972Y093247*
X183988Y093297*
X184001Y093348*
X18401Y093399*
X184016Y093451*
X184018Y093504*
X184668D02*
D01*
X184664Y093601*
X184654Y093698*
X184637Y093795*
X184613Y093889*
X184583Y093982*
X184546Y094073*
X184504Y094161*
X184455Y094245*
X1844Y094326*
X18434Y094403*
X184275Y094476*
X184204Y094544*
X184129Y094607*
X18405Y094664*
X183968Y094716*
X183881Y094762*
X183792Y094802*
X1837Y094835*
X183606Y094862*
X183511Y094882*
X183414Y094896*
X183316Y094903*
X183219*
X183121Y094896*
X183024Y094882*
X182929Y094862*
X182835Y094835*
X182743Y094802*
X182654Y094762*
X182568Y094716*
X182485Y094664*
X182406Y094607*
X182331Y094544*
X18226Y094476*
X182195Y094403*
X182135Y094326*
X18208Y094245*
X182031Y094161*
X181989Y094073*
X181952Y093982*
X181922Y093889*
X181898Y093795*
X181881Y093698*
X181871Y093601*
X181868Y093504*
X181871Y093406*
X181881Y093309*
X181898Y093212*
X181922Y093118*
X181952Y093025*
X181989Y092934*
X182031Y092846*
X18208Y092762*
X182135Y092681*
X182195Y092604*
X18226Y092531*
X182331Y092463*
X182406Y0924*
X182485Y092343*
X182568Y092291*
X182654Y092245*
X182743Y092205*
X182835Y092172*
X182929Y092145*
X183024Y092125*
X183121Y092111*
X183219Y092104*
X183316*
X183414Y092111*
X183511Y092125*
X183606Y092145*
X1837Y092172*
X183792Y092205*
X183881Y092245*
X183968Y092291*
X18405Y092343*
X184129Y0924*
X184204Y092463*
X184275Y092531*
X18434Y092604*
X1844Y092681*
X184455Y092762*
X184504Y092846*
X184546Y092934*
X184583Y093025*
X184613Y093118*
X184637Y093212*
X184654Y093309*
X184664Y093406*
X184668Y093504*
X184018D02*
D01*
X184016Y093556*
X18401Y093608*
X184001Y093659*
X183988Y09371*
X183972Y09376*
X183953Y093809*
X18393Y093856*
X183904Y093901*
X183874Y093944*
X183842Y093986*
X183807Y094024*
X183769Y094061*
X183729Y094095*
X183687Y094125*
X183643Y094153*
X183596Y094178*
X183548Y094199*
X183499Y094217*
X183449Y094231*
X183398Y094242*
X183346Y094249*
X183294Y094253*
X183241*
X183189Y094249*
X183137Y094242*
X183086Y094231*
X183036Y094217*
X182987Y094199*
X182939Y094178*
X182893Y094153*
X182848Y094125*
X182806Y094095*
X182766Y094061*
X182728Y094024*
X182693Y093986*
X182661Y093944*
X182631Y093901*
X182605Y093856*
X182582Y093809*
X182563Y09376*
X182547Y09371*
X182534Y093659*
X182525Y093608*
X182519Y093556*
X182518Y093504*
X182519Y093451*
X182525Y093399*
X182534Y093348*
X182547Y093297*
X182563Y093247*
X182582Y093198*
X182605Y093151*
X182631Y093106*
X182661Y093063*
X182693Y093021*
X182728Y092983*
X182766Y092946*
X182806Y092912*
X182848Y092882*
X182893Y092854*
X182939Y092829*
X182987Y092808*
X183036Y09279*
X183086Y092776*
X183137Y092765*
X183189Y092758*
X183241Y092754*
X183294*
X183346Y092758*
X183398Y092765*
X183449Y092776*
X183499Y09279*
X183548Y092808*
X183596Y092829*
X183643Y092854*
X183687Y092882*
X183729Y092912*
X183769Y092946*
X183807Y092983*
X183842Y093021*
X183874Y093063*
X183904Y093106*
X18393Y093151*
X183953Y093198*
X183972Y093247*
X183988Y093297*
X184001Y093348*
X18401Y093399*
X184016Y093451*
X184018Y093504*
X184668D02*
D01*
X184664Y093601*
X184654Y093698*
X184637Y093795*
X184613Y093889*
X184583Y093982*
X184546Y094073*
X184504Y094161*
X184455Y094245*
X1844Y094326*
X18434Y094403*
X184275Y094476*
X184204Y094544*
X184129Y094607*
X18405Y094664*
X183968Y094716*
X183881Y094762*
X183792Y094802*
X1837Y094835*
X183606Y094862*
X183511Y094882*
X183414Y094896*
X183316Y094903*
X183219*
X183121Y094896*
X183024Y094882*
X182929Y094862*
X182835Y094835*
X182743Y094802*
X182654Y094762*
X182568Y094716*
X182485Y094664*
X182406Y094607*
X182331Y094544*
X18226Y094476*
X182195Y094403*
X182135Y094326*
X18208Y094245*
X182031Y094161*
X181989Y094073*
X181952Y093982*
X181922Y093889*
X181898Y093795*
X181881Y093698*
X181871Y093601*
X181868Y093504*
X181871Y093406*
X181881Y093309*
X181898Y093212*
X181922Y093118*
X181952Y093025*
X181989Y092934*
X182031Y092846*
X18208Y092762*
X182135Y092681*
X182195Y092604*
X18226Y092531*
X182331Y092463*
X182406Y0924*
X182485Y092343*
X182568Y092291*
X182654Y092245*
X182743Y092205*
X182835Y092172*
X182929Y092145*
X183024Y092125*
X183121Y092111*
X183219Y092104*
X183316*
X183414Y092111*
X183511Y092125*
X183606Y092145*
X1837Y092172*
X183792Y092205*
X183881Y092245*
X183968Y092291*
X18405Y092343*
X184129Y0924*
X184204Y092463*
X184275Y092531*
X18434Y092604*
X1844Y092681*
X184455Y092762*
X184504Y092846*
X184546Y092934*
X184583Y093025*
X184613Y093118*
X184637Y093212*
X184654Y093309*
X184664Y093406*
X184668Y093504*
M02*