%FSTAX24Y24*%
%MOIN*%
%SFA1B1*%

%IPPOS*%
%AMD49*
4,1,8,0.016700,0.035400,-0.016700,0.035400,-0.033400,0.018700,-0.033400,-0.018700,-0.016700,-0.035400,0.016700,-0.035400,0.033400,-0.018700,0.033400,0.018700,0.016700,0.035400,0.0*
1,1,0.033400,0.016700,0.018700*
1,1,0.033400,-0.016700,0.018700*
1,1,0.033400,-0.016700,-0.018700*
1,1,0.033400,0.016700,-0.018700*
%
%AMD50*
4,1,8,0.013700,0.035400,-0.013700,0.035400,-0.027500,0.021600,-0.027500,-0.021600,-0.013700,-0.035400,0.013700,-0.035400,0.027500,-0.021600,0.027500,0.021600,0.013700,0.035400,0.0*
1,1,0.027600,0.013700,0.021600*
1,1,0.027600,-0.013700,0.021600*
1,1,0.027600,-0.013700,-0.021600*
1,1,0.027600,0.013700,-0.021600*
%
%AMD51*
4,1,8,0.015800,0.035400,-0.015800,0.035400,-0.031500,0.019700,-0.031500,-0.019700,-0.015800,-0.035400,0.015800,-0.035400,0.031500,-0.019700,0.031500,0.019700,0.015800,0.035400,0.0*
1,1,0.031400,0.015800,0.019700*
1,1,0.031400,-0.015800,0.019700*
1,1,0.031400,-0.015800,-0.019700*
1,1,0.031400,0.015800,-0.019700*
%
%AMD57*
4,1,8,0.015800,0.031500,-0.015800,0.031500,-0.031500,0.015800,-0.031500,-0.015800,-0.015800,-0.031500,0.015800,-0.031500,0.031500,-0.015800,0.031500,0.015800,0.015800,0.031500,0.0*
1,1,0.031400,0.015800,0.015800*
1,1,0.031400,-0.015800,0.015800*
1,1,0.031400,-0.015800,-0.015800*
1,1,0.031400,0.015800,-0.015800*
%
%AMD66*
4,1,8,0.025000,-0.087500,0.025000,0.087500,0.012500,0.100000,-0.012500,0.100000,-0.025000,0.087500,-0.025000,-0.087500,-0.012500,-0.100000,0.012500,-0.100000,0.025000,-0.087500,0.0*
%
%ADD24R,0.050000X0.200000*%
G04~CAMADD=49~8~0.0~0.0~669.0~709.0~167.0~0.0~15~0.0~0.0~0.0~0.0~0~0.0~0.0~0.0~0.0~0~0.0~0.0~0.0~0.0~669.0~709.0*
%ADD49D49*%
G04~CAMADD=50~8~0.0~0.0~551.0~709.0~138.0~0.0~15~0.0~0.0~0.0~0.0~0~0.0~0.0~0.0~0.0~0~0.0~0.0~0.0~0.0~551.0~709.0*
%ADD50D50*%
G04~CAMADD=51~8~0.0~0.0~630.0~709.0~157.0~0.0~15~0.0~0.0~0.0~0.0~0~0.0~0.0~0.0~0.0~0~0.0~0.0~0.0~0.0~630.0~709.0*
%ADD51D51*%
%ADD52C,0.240000*%
%ADD53C,0.070000*%
%ADD54R,0.070000X0.070000*%
%ADD55R,0.059100X0.059100*%
%ADD56C,0.059100*%
G04~CAMADD=57~8~0.0~0.0~630.0~630.0~157.0~0.0~15~0.0~0.0~0.0~0.0~0~0.0~0.0~0.0~0.0~0~0.0~0.0~0.0~0.0~630.0~630.0*
%ADD57D57*%
%ADD58O,0.078700X0.059100*%
%ADD59R,0.078700X0.059100*%
%ADD60C,0.120000*%
%ADD61C,0.063000*%
%ADD62C,0.160000*%
%ADD63C,0.180000*%
G04~CAMADD=66~4~0.0~0.0~2000.0~500.0~0.0~125.0~0~0.0~0.0~0.0~0.0~0~0.0~0.0~0.0~0.0~0~0.0~0.0~0.0~270.0~500.0~2000.0*
%ADD66D66*%
%LNpcb1-1*%
%LPD*%
G54D24*
X161992Y094094D03*
X160992D03*
X159992D03*
X158992D03*
X157992D03*
X156992D03*
G54D49*
X165741Y088384D03*
X164741D03*
X162741D03*
X161741D03*
X166741D03*
X167741D03*
X168741D03*
X170698D03*
X172284Y069486D03*
X171284D03*
X170284D03*
X169284D03*
X168284D03*
X167284D03*
X166284D03*
X165284D03*
X174261D03*
X175261D03*
X176261D03*
X177261D03*
X178261D03*
X179261D03*
X179316Y088384D03*
X178316D03*
X177316D03*
X176316D03*
X175316D03*
X174316D03*
X173316D03*
G54D50*
X163741Y088384D03*
G54D51*
X169713Y088384D03*
X172316D03*
G54D52*
X130906Y093504D03*
X183268Y069094D03*
X130118D03*
X183268Y093504D03*
G54D53*
X182472Y081543D03*
X183472D03*
X182472Y080543D03*
X183472D03*
X182472Y079543D03*
X183472D03*
X182472Y078543D03*
X183472D03*
X182472Y077543D03*
X183472D03*
X182472Y076543D03*
X183472D03*
X182472Y075543D03*
G54D54*
X183472Y075543D03*
G54D55*
X183465Y084941D03*
G54D56*
X182465Y084941D03*
G54D57*
X168209Y085205D03*
X170709Y087205D03*
X168209D03*
X170709Y085205D03*
G54D58*
X166732Y090701D03*
Y091701D03*
Y092701D03*
G54D59*
X166732Y093701D03*
G54D60*
X148665Y088348D03*
Y090748D03*
Y093148D03*
X155665Y088348D03*
Y090748D03*
Y093148D03*
X14661Y074447D03*
Y072047D03*
Y069647D03*
X13961Y074447D03*
Y072047D03*
Y069647D03*
X155665Y074447D03*
Y072047D03*
Y069647D03*
X148665Y074447D03*
Y072047D03*
Y069647D03*
G54D61*
X14311Y093504D03*
Y091535D03*
G54D62*
X131644Y082047D03*
X132924Y080157D03*
G54D63*
X134104Y082047D03*
G54D66*
X162992Y094094D03*
M02*