%FSTAX24Y24*%
%MOIN*%
%SFA1B1*%

%IPPOS*%
%ADD47C,0.010000*%
%ADD118C,0.008000*%
%ADD119C,0.001000*%
%ADD120C,0.005000*%
%ADD121C,0.004000*%
%LNpcb1-1*%
%LPD*%
G36*
X130118Y070502D02*
X130119D01*
X130303Y070487*
X130304*
X130525Y070434*
X130526*
X130735Y070347*
X130736*
Y070346*
X13093Y070228*
Y070227*
X131103Y07008*
X131104Y070079*
X131251Y069907*
Y069906*
X13137Y069712*
X131457Y069502*
X131458Y069501*
X131511Y06928*
X131525Y069095*
Y069093*
X131524Y069091*
X131522Y06909*
X13152Y069089*
X131518*
X13087*
X130869Y06909*
X130867*
Y069091*
X130866Y069092*
X130865Y069094*
X130852Y069227*
X130808Y069371*
X130738Y069503*
X130642Y069619*
X130527Y069714*
X130394Y069785*
X130251Y069828*
X130122Y069841*
X13012Y06984*
X130118Y069839*
X130116Y06984*
X130114Y069841*
X130113Y069843*
Y069844*
Y070496*
Y070497*
X130114Y070498*
Y0705*
X130115*
X130116Y070501*
X130118Y070502*
G37*
G36*
X183268D02*
D01*
X183453Y070487*
X183454*
X183674Y070434*
X183675*
X183885Y070347*
X183886Y070346*
X184079Y070228*
X18408Y070227*
X184253Y07008*
Y070079*
X184401Y069907*
Y069906*
X18452Y069712*
X184607Y069502*
Y069501*
X18466Y06928*
X184675Y069095*
X184674Y069093*
Y069091*
X184673*
X184672Y06909*
X18467Y069089*
X184668*
X18402*
X184018Y06909*
X184017*
X184016Y069091*
X184015Y069092*
Y069094*
X184001Y069227*
X183958Y069371*
X183887Y069503*
X183792Y069619*
X183676Y069714*
X183544Y069785*
X1834Y069828*
X183272Y069841*
X183271*
X18327Y06984*
X183268Y069839*
X183266Y06984*
X183264Y069841*
X183263Y069843*
X183262Y069844*
Y070496*
Y070497*
X183263Y070498*
X183264Y0705*
X183266Y070501*
X183268Y070502*
G37*
G36*
X12936Y069091D02*
X129361Y06909D01*
X129363*
Y069089*
X129364Y069088*
X129365Y069086*
X129364Y069084*
Y069082*
X129363*
X129376Y068953*
X129419Y06881*
X12949Y068677*
X129585Y068561*
X129701Y068466*
X129833Y068395*
X129977Y068352*
X130106Y068339*
Y06834*
X130108*
X13011Y068341*
X130112Y06834*
X130113Y068339*
X130114*
Y068338*
X130115Y068336*
Y067703*
Y0677*
X130114Y067698*
Y067696*
X130112Y067695*
X13011*
X130094Y067693*
X129879Y06771*
X129878*
X129669Y067761*
X129668*
X129469Y067843*
Y067844*
X129285Y067956*
X129284*
X129121Y068096*
Y068097*
X12912*
X12898Y06826*
Y068261*
X128867Y068445*
X128785Y068644*
Y068645*
X128784*
X128734Y068854*
Y068855*
X128717Y06907*
X128718Y069086*
X128719Y069088*
X12872Y06909*
X128722*
X128724Y069091*
X12936*
G37*
G36*
X182509D02*
X182511Y06909D01*
X182513*
Y069089*
X182514Y069088*
X182515Y069086*
X182514Y069084*
X182513Y069082*
X182525Y068953*
X182569Y06881*
X18264Y068677*
X182735Y068561*
X182851Y068466*
X182983Y068395*
X183127Y068352*
X183255Y068339*
Y06834*
X183257*
X183259Y068341*
X183261Y06834*
X183263Y068339*
X183264Y068338*
X183265Y068336*
Y067703*
Y0677*
X183264Y067698*
X183263Y067696*
X183261Y067695*
X18326*
X183244Y067693*
X183243*
X183029Y06771*
X183028*
X182819Y067761*
X182818*
X182619Y067843*
X182618Y067844*
X182435Y067956*
X182434*
X18227Y068096*
Y068097*
X18213Y06826*
Y068261*
X182017Y068445*
X181934Y068644*
Y068645*
X181884Y068854*
Y068855*
X181867Y06907*
X181868Y069086*
X181869Y069088*
X18187Y06909*
X181872*
X181873Y069091*
X182509*
G37*
G36*
X15187Y082972D02*
X150985D01*
Y083862*
X15187*
Y082972*
G37*
G36*
X130906Y094911D02*
D01*
X131091Y094897*
Y094896*
X131312Y094843*
X131313*
X131523Y094756*
X131717Y094637*
X131718*
X13189Y094489*
X131891*
X132038Y094316*
X132039*
Y094315*
X132158Y094122*
Y094121*
X132245Y093911*
X132298Y09369*
Y093689*
X132313Y093504*
X132312Y093502*
X132311Y0935*
X132309Y093499*
X132308*
X132307*
X132306*
X131658*
X131656*
X131654Y0935*
X131653Y093502*
X131652Y093503*
X131639Y093637*
X131596Y09378*
X131525Y093912*
X13143Y094028*
X131314Y094123*
X131182Y094194*
X131038Y094238*
X130909Y09425*
X130907Y094249*
X130906*
X130905*
X130904*
X130902Y09425*
X130901Y094252*
X1309Y094254*
Y094906*
X130901Y094908*
X130902Y09491*
X130904*
X130906Y094911*
G37*
G36*
X183268D02*
D01*
X183453Y094897*
Y094896*
X183454*
X183674Y094843*
X183675*
X183885Y094756*
X183886*
X184079Y094637*
X18408*
X184253Y094489*
X184401Y094316*
Y094315*
X18452Y094122*
Y094121*
X184607Y093911*
X18466Y09369*
Y093689*
X184675Y093504*
X184674Y093502*
Y0935*
X184673*
X184672Y093499*
X18467*
X184668*
X18402*
X184018*
X184017Y0935*
X184016*
X184015Y093502*
Y093503*
X184001Y093637*
X183958Y09378*
X183887Y093912*
X183792Y094028*
X183676Y094123*
X183544Y094194*
X1834Y094238*
X183272Y09425*
X183271*
X18327Y094249*
X183268*
X183266*
X183264Y09425*
X183263Y094252*
X183262Y094254*
Y094906*
X183263Y094908*
X183264Y09491*
X183266*
X183268Y094911*
G37*
G36*
X130147Y093501D02*
X130149Y0935D01*
X130151Y093499*
X130152Y093497*
Y093495*
Y093493*
X130151Y093491*
X130163Y093363*
X130207Y093219*
X130278Y093087*
X130373Y092971*
X130489Y092876*
X130621Y092805*
X130764Y092761*
X130893Y092749*
X130895Y09275*
X130897Y092751*
Y09275*
Y092751*
X130899Y09275*
X130901Y092749*
X130902Y092747*
Y092745*
Y092113*
Y092109*
Y092108*
X130901Y092106*
X130899Y092105*
X130897Y092104*
X130882Y092103*
X130881*
X130666Y09212*
X130456Y09217*
X130257Y092253*
X130256*
X130072Y092365*
Y092366*
X129908Y092506*
X129768Y09267*
X129767Y092671*
X129655Y092854*
X129654Y092855*
X129572Y093054*
X129522Y093264*
X129505Y093479*
Y09348*
X129506Y093496*
X129507Y093497*
Y093499*
X129508*
X12951Y0935*
X129511Y093501*
X130147*
G37*
G36*
X182509D02*
X182511Y0935D01*
X182513Y093499*
X182514Y093497*
X182515Y093495*
X182514Y093493*
X182513Y093491*
X182525Y093363*
X182569Y093219*
X18264Y093087*
X182735Y092971*
X182851Y092876*
X182983Y092805*
X183127Y092761*
X183255Y092749*
X183257Y09275*
X183259Y092751*
Y09275*
Y092751*
X183261Y09275*
X183263Y092749*
X183264Y092747*
X183265Y092745*
Y092113*
Y092109*
X183264Y092108*
X183263Y092106*
X183261Y092105*
X18326Y092104*
X183244Y092103*
X183243*
X183029Y09212*
X183028*
X182819Y09217*
X182818*
X182619Y092253*
X182618*
X182435Y092365*
X182434Y092366*
X18227Y092506*
X18213Y09267*
Y092671*
X182017Y092854*
Y092855*
X181934Y093054*
X181884Y093264*
X181867Y093479*
Y09348*
X181868Y093496*
X181869Y093497*
X18187Y093499*
X181872Y0935*
X181873Y093501*
X182509*
G37*
G54D47*
X131656Y093504D02*
D01*
X131654Y093556*
X131648Y093608*
X131639Y093659*
X131626Y09371*
X13161Y09376*
X131591Y093809*
X131568Y093856*
X131542Y093901*
X131512Y093944*
X13148Y093986*
X131445Y094024*
X131407Y094061*
X131367Y094095*
X131325Y094125*
X131281Y094153*
X131234Y094178*
X131186Y094199*
X131137Y094217*
X131087Y094231*
X131036Y094242*
X130984Y094249*
X130932Y094253*
X130879*
X130827Y094249*
X130775Y094242*
X130724Y094231*
X130674Y094217*
X130625Y094199*
X130577Y094178*
X130531Y094153*
X130486Y094125*
X130444Y094095*
X130404Y094061*
X130366Y094024*
X130331Y093986*
X130299Y093944*
X130269Y093901*
X130243Y093856*
X13022Y093809*
X130201Y09376*
X130185Y09371*
X130172Y093659*
X130163Y093608*
X130157Y093556*
X130156Y093504*
X130157Y093451*
X130163Y093399*
X130172Y093348*
X130185Y093297*
X130201Y093247*
X13022Y093198*
X130243Y093151*
X130269Y093106*
X130299Y093063*
X130331Y093021*
X130366Y092983*
X130404Y092946*
X130444Y092912*
X130486Y092882*
X130531Y092854*
X130577Y092829*
X130625Y092808*
X130674Y09279*
X130724Y092776*
X130775Y092765*
X130827Y092758*
X130879Y092754*
X130932*
X130984Y092758*
X131036Y092765*
X131087Y092776*
X131137Y09279*
X131186Y092808*
X131234Y092829*
X131281Y092854*
X131325Y092882*
X131367Y092912*
X131407Y092946*
X131445Y092983*
X13148Y093021*
X131512Y093063*
X131542Y093106*
X131568Y093151*
X131591Y093198*
X13161Y093247*
X131626Y093297*
X131639Y093348*
X131648Y093399*
X131654Y093451*
X131656Y093504*
X132306D02*
D01*
X132302Y093601*
X132292Y093698*
X132275Y093795*
X132251Y093889*
X132221Y093982*
X132184Y094073*
X132142Y094161*
X132093Y094245*
X132038Y094326*
X131978Y094403*
X131913Y094476*
X131842Y094544*
X131767Y094607*
X131688Y094664*
X131606Y094716*
X131519Y094762*
X13143Y094802*
X131338Y094835*
X131244Y094862*
X131149Y094882*
X131052Y094896*
X130954Y094903*
X130857*
X130759Y094896*
X130662Y094882*
X130567Y094862*
X130473Y094835*
X130381Y094802*
X130292Y094762*
X130206Y094716*
X130123Y094664*
X130044Y094607*
X129969Y094544*
X129898Y094476*
X129833Y094403*
X129773Y094326*
X129718Y094245*
X129669Y094161*
X129627Y094073*
X12959Y093982*
X12956Y093889*
X129536Y093795*
X129519Y093698*
X129509Y093601*
X129506Y093504*
X129509Y093406*
X129519Y093309*
X129536Y093212*
X12956Y093118*
X12959Y093025*
X129627Y092934*
X129669Y092846*
X129718Y092762*
X129773Y092681*
X129833Y092604*
X129898Y092531*
X129969Y092463*
X130044Y0924*
X130123Y092343*
X130206Y092291*
X130292Y092245*
X130381Y092205*
X130473Y092172*
X130567Y092145*
X130662Y092125*
X130759Y092111*
X130857Y092104*
X130954*
X131052Y092111*
X131149Y092125*
X131244Y092145*
X131338Y092172*
X13143Y092205*
X131519Y092245*
X131606Y092291*
X131688Y092343*
X131767Y0924*
X131842Y092463*
X131913Y092531*
X131978Y092604*
X132038Y092681*
X132093Y092762*
X132142Y092846*
X132184Y092934*
X132221Y093025*
X132251Y093118*
X132275Y093212*
X132292Y093309*
X132302Y093406*
X132306Y093504*
X184018Y069094D02*
D01*
X184016Y069146*
X18401Y069198*
X184001Y069249*
X183988Y0693*
X183972Y06935*
X183953Y069399*
X18393Y069446*
X183904Y069491*
X183874Y069534*
X183842Y069576*
X183807Y069614*
X183769Y069651*
X183729Y069685*
X183687Y069715*
X183643Y069743*
X183596Y069768*
X183548Y069789*
X183499Y069807*
X183449Y069821*
X183398Y069832*
X183346Y069839*
X183294Y069843*
X183241*
X183189Y069839*
X183137Y069832*
X183086Y069821*
X183036Y069807*
X182987Y069789*
X182939Y069768*
X182893Y069743*
X182848Y069715*
X182806Y069685*
X182766Y069651*
X182728Y069614*
X182693Y069576*
X182661Y069534*
X182631Y069491*
X182605Y069446*
X182582Y069399*
X182563Y06935*
X182547Y0693*
X182534Y069249*
X182525Y069198*
X182519Y069146*
X182518Y069094*
X182519Y069041*
X182525Y068989*
X182534Y068938*
X182547Y068887*
X182563Y068837*
X182582Y068788*
X182605Y068741*
X182631Y068696*
X182661Y068653*
X182693Y068611*
X182728Y068573*
X182766Y068536*
X182806Y068502*
X182848Y068472*
X182893Y068444*
X182939Y068419*
X182987Y068398*
X183036Y06838*
X183086Y068366*
X183137Y068355*
X183189Y068348*
X183241Y068344*
X183294*
X183346Y068348*
X183398Y068355*
X183449Y068366*
X183499Y06838*
X183548Y068398*
X183596Y068419*
X183643Y068444*
X183687Y068472*
X183729Y068502*
X183769Y068536*
X183807Y068573*
X183842Y068611*
X183874Y068653*
X183904Y068696*
X18393Y068741*
X183953Y068788*
X183972Y068837*
X183988Y068887*
X184001Y068938*
X18401Y068989*
X184016Y069041*
X184018Y069094*
X184668D02*
D01*
X184664Y069191*
X184654Y069288*
X184637Y069385*
X184613Y069479*
X184583Y069572*
X184546Y069663*
X184504Y069751*
X184455Y069835*
X1844Y069916*
X18434Y069993*
X184275Y070066*
X184204Y070134*
X184129Y070197*
X18405Y070254*
X183968Y070306*
X183881Y070352*
X183792Y070392*
X1837Y070425*
X183606Y070452*
X183511Y070472*
X183414Y070486*
X183316Y070493*
X183219*
X183121Y070486*
X183024Y070472*
X182929Y070452*
X182835Y070425*
X182743Y070392*
X182654Y070352*
X182568Y070306*
X182485Y070254*
X182406Y070197*
X182331Y070134*
X18226Y070066*
X182195Y069993*
X182135Y069916*
X18208Y069835*
X182031Y069751*
X181989Y069663*
X181952Y069572*
X181922Y069479*
X181898Y069385*
X181881Y069288*
X181871Y069191*
X181868Y069094*
X181871Y068996*
X181881Y068899*
X181898Y068802*
X181922Y068708*
X181952Y068615*
X181989Y068524*
X182031Y068436*
X18208Y068352*
X182135Y068271*
X182195Y068194*
X18226Y068121*
X182331Y068053*
X182406Y06799*
X182485Y067933*
X182568Y067881*
X182654Y067835*
X182743Y067795*
X182835Y067762*
X182929Y067735*
X183024Y067715*
X183121Y067701*
X183219Y067694*
X183316*
X183414Y067701*
X183511Y067715*
X183606Y067735*
X1837Y067762*
X183792Y067795*
X183881Y067835*
X183968Y067881*
X18405Y067933*
X184129Y06799*
X184204Y068053*
X184275Y068121*
X18434Y068194*
X1844Y068271*
X184455Y068352*
X184504Y068436*
X184546Y068524*
X184583Y068615*
X184613Y068708*
X184637Y068802*
X184654Y068899*
X184664Y068996*
X184668Y069094*
X130868D02*
D01*
X130866Y069146*
X13086Y069198*
X130851Y069249*
X130838Y0693*
X130822Y06935*
X130803Y069399*
X13078Y069446*
X130754Y069491*
X130724Y069534*
X130692Y069576*
X130657Y069614*
X130619Y069651*
X130579Y069685*
X130537Y069715*
X130493Y069743*
X130446Y069768*
X130398Y069789*
X130349Y069807*
X130299Y069821*
X130248Y069832*
X130196Y069839*
X130144Y069843*
X130091*
X130039Y069839*
X129987Y069832*
X129936Y069821*
X129886Y069807*
X129837Y069789*
X129789Y069768*
X129743Y069743*
X129698Y069715*
X129656Y069685*
X129616Y069651*
X129578Y069614*
X129543Y069576*
X129511Y069534*
X129481Y069491*
X129455Y069446*
X129432Y069399*
X129413Y06935*
X129397Y0693*
X129384Y069249*
X129375Y069198*
X129369Y069146*
X129368Y069094*
X129369Y069041*
X129375Y068989*
X129384Y068938*
X129397Y068887*
X129413Y068837*
X129432Y068788*
X129455Y068741*
X129481Y068696*
X129511Y068653*
X129543Y068611*
X129578Y068573*
X129616Y068536*
X129656Y068502*
X129698Y068472*
X129743Y068444*
X129789Y068419*
X129837Y068398*
X129886Y06838*
X129936Y068366*
X129987Y068355*
X130039Y068348*
X130091Y068344*
X130144*
X130196Y068348*
X130248Y068355*
X130299Y068366*
X130349Y06838*
X130398Y068398*
X130446Y068419*
X130493Y068444*
X130537Y068472*
X130579Y068502*
X130619Y068536*
X130657Y068573*
X130692Y068611*
X130724Y068653*
X130754Y068696*
X13078Y068741*
X130803Y068788*
X130822Y068837*
X130838Y068887*
X130851Y068938*
X13086Y068989*
X130866Y069041*
X130868Y069094*
X131518D02*
D01*
X131514Y069191*
X131504Y069288*
X131487Y069385*
X131463Y069479*
X131433Y069572*
X131396Y069663*
X131354Y069751*
X131305Y069835*
X13125Y069916*
X13119Y069993*
X131125Y070066*
X131054Y070134*
X130979Y070197*
X1309Y070254*
X130818Y070306*
X130731Y070352*
X130642Y070392*
X13055Y070425*
X130456Y070452*
X130361Y070472*
X130264Y070486*
X130166Y070493*
X130069*
X129971Y070486*
X129874Y070472*
X129779Y070452*
X129685Y070425*
X129593Y070392*
X129504Y070352*
X129418Y070306*
X129335Y070254*
X129256Y070197*
X129181Y070134*
X12911Y070066*
X129045Y069993*
X128985Y069916*
X12893Y069835*
X128881Y069751*
X128839Y069663*
X128802Y069572*
X128772Y069479*
X128748Y069385*
X128731Y069288*
X128721Y069191*
X128718Y069094*
X128721Y068996*
X128731Y068899*
X128748Y068802*
X128772Y068708*
X128802Y068615*
X128839Y068524*
X128881Y068436*
X12893Y068352*
X128985Y068271*
X129045Y068194*
X12911Y068121*
X129181Y068053*
X129256Y06799*
X129335Y067933*
X129418Y067881*
X129504Y067835*
X129593Y067795*
X129685Y067762*
X129779Y067735*
X129874Y067715*
X129971Y067701*
X130069Y067694*
X130166*
X130264Y067701*
X130361Y067715*
X130456Y067735*
X13055Y067762*
X130642Y067795*
X130731Y067835*
X130818Y067881*
X1309Y067933*
X130979Y06799*
X131054Y068053*
X131125Y068121*
X13119Y068194*
X13125Y068271*
X131305Y068352*
X131354Y068436*
X131396Y068524*
X131433Y068615*
X131463Y068708*
X131487Y068802*
X131504Y068899*
X131514Y068996*
X131518Y069094*
X184018Y093504D02*
D01*
X184016Y093556*
X18401Y093608*
X184001Y093659*
X183988Y09371*
X183972Y09376*
X183953Y093809*
X18393Y093856*
X183904Y093901*
X183874Y093944*
X183842Y093986*
X183807Y094024*
X183769Y094061*
X183729Y094095*
X183687Y094125*
X183643Y094153*
X183596Y094178*
X183548Y094199*
X183499Y094217*
X183449Y094231*
X183398Y094242*
X183346Y094249*
X183294Y094253*
X183241*
X183189Y094249*
X183137Y094242*
X183086Y094231*
X183036Y094217*
X182987Y094199*
X182939Y094178*
X182893Y094153*
X182848Y094125*
X182806Y094095*
X182766Y094061*
X182728Y094024*
X182693Y093986*
X182661Y093944*
X182631Y093901*
X182605Y093856*
X182582Y093809*
X182563Y09376*
X182547Y09371*
X182534Y093659*
X182525Y093608*
X182519Y093556*
X182518Y093504*
X182519Y093451*
X182525Y093399*
X182534Y093348*
X182547Y093297*
X182563Y093247*
X182582Y093198*
X182605Y093151*
X182631Y093106*
X182661Y093063*
X182693Y093021*
X182728Y092983*
X182766Y092946*
X182806Y092912*
X182848Y092882*
X182893Y092854*
X182939Y092829*
X182987Y092808*
X183036Y09279*
X183086Y092776*
X183137Y092765*
X183189Y092758*
X183241Y092754*
X183294*
X183346Y092758*
X183398Y092765*
X183449Y092776*
X183499Y09279*
X183548Y092808*
X183596Y092829*
X183643Y092854*
X183687Y092882*
X183729Y092912*
X183769Y092946*
X183807Y092983*
X183842Y093021*
X183874Y093063*
X183904Y093106*
X18393Y093151*
X183953Y093198*
X183972Y093247*
X183988Y093297*
X184001Y093348*
X18401Y093399*
X184016Y093451*
X184018Y093504*
X184668D02*
D01*
X184664Y093601*
X184654Y093698*
X184637Y093795*
X184613Y093889*
X184583Y093982*
X184546Y094073*
X184504Y094161*
X184455Y094245*
X1844Y094326*
X18434Y094403*
X184275Y094476*
X184204Y094544*
X184129Y094607*
X18405Y094664*
X183968Y094716*
X183881Y094762*
X183792Y094802*
X1837Y094835*
X183606Y094862*
X183511Y094882*
X183414Y094896*
X183316Y094903*
X183219*
X183121Y094896*
X183024Y094882*
X182929Y094862*
X182835Y094835*
X182743Y094802*
X182654Y094762*
X182568Y094716*
X182485Y094664*
X182406Y094607*
X182331Y094544*
X18226Y094476*
X182195Y094403*
X182135Y094326*
X18208Y094245*
X182031Y094161*
X181989Y094073*
X181952Y093982*
X181922Y093889*
X181898Y093795*
X181881Y093698*
X181871Y093601*
X181868Y093504*
X181871Y093406*
X181881Y093309*
X181898Y093212*
X181922Y093118*
X181952Y093025*
X181989Y092934*
X182031Y092846*
X18208Y092762*
X182135Y092681*
X182195Y092604*
X18226Y092531*
X182331Y092463*
X182406Y0924*
X182485Y092343*
X182568Y092291*
X182654Y092245*
X182743Y092205*
X182835Y092172*
X182929Y092145*
X183024Y092125*
X183121Y092111*
X183219Y092104*
X183316*
X183414Y092111*
X183511Y092125*
X183606Y092145*
X1837Y092172*
X183792Y092205*
X183881Y092245*
X183968Y092291*
X18405Y092343*
X184129Y0924*
X184204Y092463*
X184275Y092531*
X18434Y092604*
X1844Y092681*
X184455Y092762*
X184504Y092846*
X184546Y092934*
X184583Y093025*
X184613Y093118*
X184637Y093212*
X184654Y093309*
X184664Y093406*
X184668Y093504*
X132459Y085453D02*
X132769D01*
G54D118*
X172834Y068986D02*
Y069986D01*
X164734D02*
X172834D01*
X164734Y068986D02*
Y069986D01*
Y068986D02*
X165284D01*
X166284*
X167284*
X168284*
X169284*
X171284*
X172834*
X179866Y087884D02*
Y088884D01*
X171766D02*
X179866D01*
X171766Y087884D02*
Y088884D01*
Y087884D02*
X172316D01*
X173316*
X174316*
X175316*
X176316*
X178316*
X179866*
X182779Y08389D02*
Y084015D01*
Y083953*
X182404*
X182466Y08389*
X182779Y08439D02*
X182404D01*
X182591Y084203*
Y084453*
X183779Y08389D02*
Y084015D01*
Y083953*
X183404*
X183466Y08389*
Y084203D02*
X183404Y084265D01*
Y08439*
X183466Y084453*
X183529*
X183591Y08439*
Y084328*
Y08439*
X183654Y084453*
X183716*
X183779Y08439*
Y084265*
X183716Y084203*
X182779Y073154D02*
Y072904D01*
X182529Y073154*
X182466*
X182404Y073092*
Y072967*
X182466Y072904*
X183779Y072954D02*
Y073079D01*
Y073017*
X183404*
X183466Y072954*
G54D119*
X164244Y07219D02*
Y07464D01*
Y07219D02*
X166464D01*
Y07464*
X164244D02*
X166464D01*
X164244Y085281D02*
Y087731D01*
Y085281D02*
X166464D01*
Y087731*
X164244D02*
X166464D01*
X145008Y087958D02*
Y090408D01*
X142788D02*
X145008D01*
X142788Y087958D02*
Y090408D01*
Y087958D02*
X145008D01*
X143236Y078411D02*
Y080861D01*
X141016D02*
X143236D01*
X141016Y078411D02*
Y080861D01*
Y078411D02*
X143236D01*
X145598D02*
Y080861D01*
X143378D02*
X145598D01*
X143378D02*
Y078411D01*
X145598*
X14574Y078293D02*
Y080743D01*
Y078293D02*
X14796D01*
Y080743*
X14574D02*
X14796D01*
X148103Y078293D02*
Y080743D01*
Y078293D02*
X150323D01*
Y080743*
X148103D02*
X150323D01*
G54D120*
X144882Y090748D02*
Y094685D01*
X141339Y090748D02*
X144882D01*
X141339D02*
Y094685D01*
X142323*
X143898*
X144882*
X143898D02*
Y095472D01*
X142323D02*
X143898D01*
X142323Y094685D02*
Y095472D01*
G54D121*
X149921Y083839D02*
X15185D01*
X149921Y081909D02*
Y083839D01*
Y081909D02*
X15185D01*
Y083839*
M02*