%FSTAX24Y24*%
%MOIN*%
%SFA1B1*%

%IPPOS*%
%AMD102*
4,1,8,0.016700,0.039400,-0.016700,0.039400,-0.037400,0.018700,-0.037400,-0.018700,-0.016700,-0.039400,0.016700,-0.039400,0.037400,-0.018700,0.037400,0.018700,0.016700,0.039400,0.0*
1,1,0.041400,0.016700,0.018700*
1,1,0.041400,-0.016700,0.018700*
1,1,0.041400,-0.016700,-0.018700*
1,1,0.041400,0.016700,-0.018700*
%
%AMD103*
4,1,8,0.013700,0.039400,-0.013700,0.039400,-0.031500,0.021600,-0.031500,-0.021600,-0.013700,-0.039400,0.013700,-0.039400,0.031500,-0.021600,0.031500,0.021600,0.013700,0.039400,0.0*
1,1,0.035600,0.013700,0.021600*
1,1,0.035600,-0.013700,0.021600*
1,1,0.035600,-0.013700,-0.021600*
1,1,0.035600,0.013700,-0.021600*
%
%AMD104*
4,1,8,0.015800,0.039400,-0.015800,0.039400,-0.035500,0.019700,-0.035500,-0.019700,-0.015800,-0.039400,0.015800,-0.039400,0.035500,-0.019700,0.035500,0.019700,0.015800,0.039400,0.0*
1,1,0.039400,0.015800,0.019700*
1,1,0.039400,-0.015800,0.019700*
1,1,0.039400,-0.015800,-0.019700*
1,1,0.039400,0.015800,-0.019700*
%
%AMD110*
4,1,8,0.015800,0.035500,-0.015800,0.035500,-0.035500,0.015800,-0.035500,-0.015800,-0.015800,-0.035500,0.015800,-0.035500,0.035500,-0.015800,0.035500,0.015800,0.015800,0.035500,0.0*
1,1,0.039400,0.015800,0.015800*
1,1,0.039400,-0.015800,0.015800*
1,1,0.039400,-0.015800,-0.015800*
1,1,0.039400,0.015800,-0.015800*
%
%AMD117*
4,1,8,0.029000,-0.089500,0.029000,0.089500,0.014500,0.104000,-0.014500,0.104000,-0.029000,0.089500,-0.029000,-0.089500,-0.014500,-0.104000,0.014500,-0.104000,0.029000,-0.089500,0.0*
%
%ADD87R,0.058000X0.208000*%
G04~CAMADD=102~8~0.0~0.0~749.0~789.0~207.0~0.0~15~0.0~0.0~0.0~0.0~0~0.0~0.0~0.0~0.0~0~0.0~0.0~0.0~0.0~749.0~789.0*
%ADD102D102*%
G04~CAMADD=103~8~0.0~0.0~631.0~789.0~178.0~0.0~15~0.0~0.0~0.0~0.0~0~0.0~0.0~0.0~0.0~0~0.0~0.0~0.0~0.0~631.0~789.0*
%ADD103D103*%
G04~CAMADD=104~8~0.0~0.0~710.0~789.0~197.0~0.0~15~0.0~0.0~0.0~0.0~0~0.0~0.0~0.0~0.0~0~0.0~0.0~0.0~0.0~710.0~789.0*
%ADD104D104*%
%ADD105C,0.248000*%
%ADD106C,0.078000*%
%ADD107R,0.078000X0.078000*%
%ADD108R,0.067100X0.067100*%
%ADD109C,0.067100*%
G04~CAMADD=110~8~0.0~0.0~710.0~710.0~197.0~0.0~15~0.0~0.0~0.0~0.0~0~0.0~0.0~0.0~0.0~0~0.0~0.0~0.0~0.0~710.0~710.0*
%ADD110D110*%
%ADD111O,0.086700X0.067100*%
%ADD112R,0.086700X0.067100*%
%ADD113C,0.128000*%
%ADD114C,0.071000*%
%ADD115C,0.168000*%
%ADD116C,0.188000*%
G04~CAMADD=117~4~0.0~0.0~2080.0~580.0~0.0~145.0~0~0.0~0.0~0.0~0.0~0~0.0~0.0~0.0~0.0~0~0.0~0.0~0.0~270.0~580.0~2080.0*
%ADD117D117*%
%LNpcb1-1*%
%LPD*%
G54D87*
X161992Y094094D03*
X160992D03*
X159992D03*
X158992D03*
X157992D03*
X156992D03*
G54D102*
X165741Y088384D03*
X164741D03*
X162741D03*
X161741D03*
X166741D03*
X167741D03*
X168741D03*
X170698D03*
X172284Y069486D03*
X171284D03*
X170284D03*
X169284D03*
X168284D03*
X167284D03*
X166284D03*
X165284D03*
X174261D03*
X175261D03*
X176261D03*
X177261D03*
X178261D03*
X179261D03*
X179316Y088384D03*
X178316D03*
X177316D03*
X176316D03*
X175316D03*
X174316D03*
X173316D03*
G54D103*
X163741Y088384D03*
G54D104*
X169713Y088384D03*
X172316D03*
G54D105*
X130906Y093504D03*
X183268Y069094D03*
X130118D03*
X183268Y093504D03*
G54D106*
X182472Y081543D03*
X183472D03*
X182472Y080543D03*
X183472D03*
X182472Y079543D03*
X183472D03*
X182472Y078543D03*
X183472D03*
X182472Y077543D03*
X183472D03*
X182472Y076543D03*
X183472D03*
X182472Y075543D03*
G54D107*
X183472Y075543D03*
G54D108*
X183465Y084941D03*
G54D109*
X182465Y084941D03*
G54D110*
X168209Y085205D03*
X170709Y087205D03*
X168209D03*
X170709Y085205D03*
G54D111*
X166732Y090701D03*
Y091701D03*
Y092701D03*
G54D112*
X166732Y093701D03*
G54D113*
X148665Y088348D03*
Y090748D03*
Y093148D03*
X155665Y088348D03*
Y090748D03*
Y093148D03*
X14661Y074447D03*
Y072047D03*
Y069647D03*
X13961Y074447D03*
Y072047D03*
Y069647D03*
X155665Y074447D03*
Y072047D03*
Y069647D03*
X148665Y074447D03*
Y072047D03*
Y069647D03*
G54D114*
X14311Y093504D03*
Y091535D03*
G54D115*
X131644Y082047D03*
X132924Y080157D03*
G54D116*
X134104Y082047D03*
G54D117*
X162992Y094094D03*
M02*