M48
;Layer_Color=9474304
;FILE_FORMAT=2:4
INCH,LZ
;TYPE=PLATED
T1F00S00C0.0118
T2F00S00C0.0197
T3F00S00C0.0354
T4F00S00C0.0390
T5F00S00C0.0394
T6F00S00C0.0800
T7F00S00C0.1200
T8F00S00C0.1400
T9F00S00C0.1420
;TYPE=NON_PLATED
T10F00S00C0.0630
%
T01
X130413Y072835
X129921Y073819
X130413Y074803
Y076772
X131398
X133366
X13435
X135335
X136319
X137303
X137402Y076083
Y075591
X137795Y075787
X136811
Y077756
X137795
X138287Y076772
X140256
X139764Y077756
Y075787
X138287Y074803
Y072835
X140256
X136122Y072933
X13563
X135236
X135039Y072539
X135433
X135827
X136811Y073819
Y069882
X137795
X135827
X134843
X133858
X133563Y072244
Y072933
X133366Y074803
X135827Y077756
X140748
X141732
X142224Y076772
X14124
X141732Y075787
X142717
X143209Y074803
X142224
X14124
X141732Y073819
X142717
X143701
X144193Y072835
X145177
X145669Y07185
X144685
X143701
X142717
X141732
X140748
X14124Y072835
X142224
X143209
X143701Y069882
X144685
X145669
X147638
X149606
X150591
X151575
X152559
X153543
X154528
Y07185
X153543
X152559
X151575
X150591
X149606
X150098Y072835
X151083
X152067
X153051
X154035
X153543Y073819
X152559
X151575
X150591
X149606
X150098Y074803
X151083
X152067
X151575Y075787
X150591
X149606
X148622
X147638
X146654
X145669
X144685
X145177Y076772
X146161
X147146
X14813
X149114
X150098
X152559Y077756
X153543
X154528
X155512
Y075787
X154528
X153543
X156004Y072835
X149114
X14813
X147146
X147638Y073819
Y07185
X146654Y077756
X145669
X144685
X144193Y076772
X140748Y075787
Y073819
Y069882
X141732
X142717
X15748
X158465
X15876Y070177
Y071358
X158465Y071752
X15748Y07185
X156988Y072835
X15748Y073819
X156988Y074803
X15748Y075787
X156988Y076772
X15748Y077756
X156496
X158465Y075197
X159449Y075787
X159941Y074803
X160433Y073819
X161417
X162402
X163386
X16437
X164862Y072835
X163878
X162894
X161909
X160925
X159941
X160433Y07185
X161417
X162402
X163386
X16437
X166339
X167224Y071555
X16752Y07126
X167913Y070965
X166831Y070866
X165846
X165945Y073524
Y074114
X165846Y074606
Y076083
X165059Y076476
X165846Y077559
X166929Y077264
X167815Y077461
X16811Y077264
X168701Y07628
X16939Y075925
X168986Y075295
X168504Y074803
Y074508
Y074213
Y073425
Y072835
X169193
X169685Y072736
X170177Y072835
X170866
X170177Y073917
X169685Y074016
X170472Y075591
X170768Y075394
X171063Y075591
X171358Y075394
X17185Y075
X171654Y074803
X171457Y078051
X170472Y077953
X169783Y077854
Y077362
X16437Y077756
X163386
X162894Y077067
X162894Y076772
X162167Y077695
X161417Y077756
X159449Y073819
Y07185
X166929Y072736
X168799Y070374
X169783
X170768
X171949
X173228Y069882
X17372Y068898
X174705
X175689
X176673
X177657
X178642
X179626
X18061
X181594
X182087Y067913
X181102
X180118
X179134
X17815
X177165
X176181
X175197
X174213
X173228
X176181Y07185
X177165
X17815
X179134
X180118
X181102
X182087
X183071
X184055
X183563Y070866
X182579
X181594
X18061
X179626
X178642
X177657
X180118Y069882
X181102
Y073819
X182087
X183071
X183563Y074803
X182579
X181594
X18061
X180709Y074409
X181102Y075787
X180118
X179134
X17815
X177165
X176181
X176673Y076772
X177657
X178642
X179626
X18061
X181594
X179134Y077756
X179331Y077953
X178642
X17815Y077756
X178642Y074803
X177657
X174114Y074803
X174409Y074409
X173327Y075295
Y075787
X172736
X172047Y075591
X173022Y078218
Y07876
X17372Y080118
X173022Y081191
X174803Y08189
X175197Y082185
X175197Y083661
X176181
X177165
X180118
X181102
X182087
X183071
X183563Y082677
X182579
X181594
X18061
X179626
X180118Y081693
X181102
X18061Y080709
X18061Y080217
X179626Y080709
X178642
X177657
X176673
X175984Y081004
Y080217
X176181Y079724
X177165
X179134Y081693
X179626Y084646
X18061
X181594
X182087Y08563
X183071
X182579Y086614
X181594
X181102Y08563
X180118Y087303
X18061Y088583
X181594
X182579
X183563
X183071Y089567
X182087
X181102
X180118
X179134
X17815
X177165
X176181
X175197
X174213
X173228
X172244
X172736Y090551
X17372
X174705
X175689
X176673
X177657
X178642
X179626
X18061
X181594
X182579
X183563
X184055Y091535
X181594Y09252
X18061
X179626
X178642
X177657
X176673
X175689
X174705
X17372
X172736
X173228Y093504
X174213
X175197
X176181
X177165
X17815
X179134
X180118
X181102
X172244
X173228Y087598
X174213
X175197
X176181
X177256Y087303
X175197Y08563
X174705Y084646
X174213Y086516
X17372Y086614
X172736
X173228Y08563
X172244Y084055
Y08376
Y083169
X171457Y083366
X17126Y083071
X170768Y083465
X170472Y08376
Y083169
X169783Y083366
X169488Y083169
X168799Y083366
Y081988
X169783Y081102
X170177Y081004
X170669
X171063Y080177
X170866Y079035
X171476Y079055
X171457Y078642
X170472Y078445
X168504Y079823
X168209Y079626
X167028Y079134
X167323Y080512
X165945Y080315
X165453
X164862Y080413
X164665Y080807
X164173
X16378Y079921
X163386Y079724
X162402
X161417
X162894Y07874
X164961Y079134
X166831Y082087
X166831Y082677
X166634Y082874
X166732Y083465
X167323Y085827
X167323Y087598
X166339
X165846Y086614
X164862
X163878
X162894
X161909
X160925
X159941
X160433Y087598
X161417
X160925Y088583
X162402Y089567
X162894Y090551
X164862
X165846
X166339Y089567
X165354
X16437
Y087598
X163386
Y08563
X16378Y085335
X16437Y08563
X162402
X161417
X160433
X159449
X159941Y084646
X160925
X161909
X162894
Y082677
X163287Y082677
X161417Y083661
X160433
X159449
X158465
X15876Y083268
X158957Y084646
X15748Y08563
X156496
X157972Y086614
X156988Y088583
Y090551
X15748Y091535
X156496
X156988Y09252
X158465Y09252
X158957Y09252
X159449Y091535
X158957Y090551
X158465Y089567
X160433Y092421
X168799Y09252
X169783
X170768
X171752
X17126Y093504
X170276
X169291
X168307
X168799Y087697
X169783Y085532
X171752Y090551
X160433Y081693
X15876Y080315
X158366Y079134
X156988Y07874
X156004
X15502
X154035
X153051
X152067
X151083
X150098
Y080709
X149606Y081693
X149601Y082087
X149213
X148622Y081693
X147638
X147638Y082087
X14813Y08248
X14813Y080709
X148622Y079724
X147638
X14813Y07874
X146161
X145177
X145669Y079724
X146161Y080709
X14685Y080906
X147146Y081201
X145669Y081693
X14498Y081693
X143996
X144193Y082677
X143209
X142224
X142717Y083661
X143701
X144685
X145669
X146063Y082874
X146457Y083169
X145177Y084646
X144193
X143209
X142224
X141732Y08563
X140748
X14124Y086614
X141732Y087598
X140748
X14124Y088583
X140748Y089567
X14124Y090551
X143209
X143701Y091535
X144685
X145669
X146654
X147146Y09252
X146161
X146654Y093504
X147638
X149606
X150591
X151083Y09252
X150098
X150591Y091535
X151575
X152067Y090551
X153051
X154035
X154528Y091535
X153543
X154035Y09252
X15502
X154528Y093504
X153543
X152559
X153051Y09252
Y088583
X154035
X152067
X151083Y090551
X150098
X149606Y091535
X147146Y090551
X146161
X145177
X145669Y089567
X144685
X145177Y088583
X145669Y087598
X144685
X145177Y086614
X144193
X143209Y088583
X142717Y089567
X143209Y09252
X144193
X143701Y093504
X141732
X142224Y09252
X147146Y088583
X147638Y087598
X148228Y085039
X14813Y084646
X149213Y084449
X149606
X150197Y084154
X150689Y084449
X15064Y08502
X15063Y086348
X152559Y08563
X153543
X154528
X155512
X154528Y083661
X154429Y083366
X153839Y083957
X152657Y084055
X151772Y084203
X152067Y084755
X152264Y083366
X15128Y083268
X150886Y082874
X150591Y082382
X15128
X152264Y081693
X15315Y082283
Y080512
X152657Y08002
X145177Y080709
X143209
X143701Y079724
X142717
X143209Y07874
X14124
X140748Y079724
X14124Y080709
X141732Y081693
X140748
X141732Y083661
X139764
Y08563
X13878
X137795
X136811
X13622Y085532
Y085925
X135827Y08563
X136319Y084646
X137303
X138287
X137795Y083661
X136811
X135827
X134843
X133858
X13435Y084646
X135335
Y082677
X136319
X137303
X138287
X13878Y081693
X139764
X139272Y080709
X138287
X137303
X136319
X135335
X13435
X134843Y079724
X135827
X136811
X137795
X13878
X138287Y07874
X137303
X136319
X135335
X13435
X133366
X132382
X133858Y079724
X135827Y081693
X136811
X137795
X140256Y07874
X139272Y086614
X138287
X137303
Y088583
X138287
X13878Y089567
X139764
Y091535
X13878
X137795
X138287Y09252
X137303
X137795Y093504
X13878
X139764
X138287Y090551
X137303
X137795Y089567
X139764Y087598
X135335Y086614
X134843
X133366Y086614
X133268Y086909
X133661
X133858Y08563
X133366Y084646
Y088583
Y090551
X131594Y09065
Y090256
X130709Y089862
X131398Y086614
X133957Y09311
X13435
X134941Y093799
T02
X179823Y084154
X177165
X173032
X168012Y086516
X167618
X167224
X169291Y091732
X162992Y09252
X162008Y092421
Y091437
X161024Y092717
X156594Y093504
X156988Y086122
X15748
X159449
X159941
X157972Y083366
Y080217
X156791Y080315
X155512
X154035
X154528Y087894
X145374Y092224
Y092717
X137205Y09311
X129035Y086319
Y08563
Y085039
Y08435
X156594Y094094
Y094685
T03
X171284Y069486
X170284
X169284
X168284
X167284
X166284
X165284
X172284
X174261
X175261
X176261
X177261
X178261
X179261
X182465Y084941
X183465
X179316Y088384
X178316
X177316
X176316
X175316
X174316
X173316
X172316
X170698
X169713
X168741
X167741
X166741
X165741
X164741
X163741
X162741
X161741
X166732Y090701
Y091701
Y092701
Y093701
T04
X183472Y075543
Y076543
Y077543
X182472
Y076543
Y075543
Y078543
Y079543
Y080543
Y081543
X183472
Y080543
Y079543
Y078543
T05
X170709Y085205
Y087205
X168209
Y085205
T06
X13961Y069647
Y072047
Y074447
X14661
X148665
Y072047
X14661Y072047
Y069647
X148665Y069647
X155665
Y072047
Y074447
X155665Y088348
Y090748
Y093148
X148665
Y090748
Y088348
T07
X132924Y080157
X131644Y082047
T08
X134104Y082047
T09
X130118Y069094
X183268
Y093504
X130906
T10
X14311Y091535
Y093504
M30
