G04 Layer_Color=16711935*
%FSLAX24Y24*%
%MOIN*%
G70*
G01*
G75*
%ADD87R,0.0580X0.2080*%
G04:AMPARAMS|DCode=102|XSize=74.9mil|YSize=78.9mil|CornerRadius=20.7mil|HoleSize=0mil|Usage=FLASHONLY|Rotation=0.000|XOffset=0mil|YOffset=0mil|HoleType=Round|Shape=RoundedRectangle|*
%AMROUNDEDRECTD102*
21,1,0.0749,0.0374,0,0,0.0*
21,1,0.0335,0.0789,0,0,0.0*
1,1,0.0415,0.0167,-0.0187*
1,1,0.0415,-0.0167,-0.0187*
1,1,0.0415,-0.0167,0.0187*
1,1,0.0415,0.0167,0.0187*
%
%ADD102ROUNDEDRECTD102*%
G04:AMPARAMS|DCode=103|XSize=63.1mil|YSize=78.9mil|CornerRadius=17.8mil|HoleSize=0mil|Usage=FLASHONLY|Rotation=0.000|XOffset=0mil|YOffset=0mil|HoleType=Round|Shape=RoundedRectangle|*
%AMROUNDEDRECTD103*
21,1,0.0631,0.0433,0,0,0.0*
21,1,0.0276,0.0789,0,0,0.0*
1,1,0.0356,0.0138,-0.0217*
1,1,0.0356,-0.0138,-0.0217*
1,1,0.0356,-0.0138,0.0217*
1,1,0.0356,0.0138,0.0217*
%
%ADD103ROUNDEDRECTD103*%
G04:AMPARAMS|DCode=104|XSize=71mil|YSize=78.9mil|CornerRadius=19.7mil|HoleSize=0mil|Usage=FLASHONLY|Rotation=0.000|XOffset=0mil|YOffset=0mil|HoleType=Round|Shape=RoundedRectangle|*
%AMROUNDEDRECTD104*
21,1,0.0710,0.0394,0,0,0.0*
21,1,0.0315,0.0789,0,0,0.0*
1,1,0.0395,0.0157,-0.0197*
1,1,0.0395,-0.0157,-0.0197*
1,1,0.0395,-0.0157,0.0197*
1,1,0.0395,0.0157,0.0197*
%
%ADD104ROUNDEDRECTD104*%
%ADD105C,0.2480*%
%ADD106C,0.0780*%
%ADD107R,0.0780X0.0780*%
%ADD108R,0.0671X0.0671*%
%ADD109C,0.0671*%
G04:AMPARAMS|DCode=110|XSize=71mil|YSize=71mil|CornerRadius=19.7mil|HoleSize=0mil|Usage=FLASHONLY|Rotation=0.000|XOffset=0mil|YOffset=0mil|HoleType=Round|Shape=RoundedRectangle|*
%AMROUNDEDRECTD110*
21,1,0.0710,0.0315,0,0,0.0*
21,1,0.0315,0.0710,0,0,0.0*
1,1,0.0395,0.0157,-0.0157*
1,1,0.0395,-0.0157,-0.0157*
1,1,0.0395,-0.0157,0.0157*
1,1,0.0395,0.0157,0.0157*
%
%ADD110ROUNDEDRECTD110*%
%ADD111O,0.0867X0.0671*%
%ADD112R,0.0867X0.0671*%
%ADD113C,0.1280*%
%ADD114C,0.0710*%
%ADD115C,0.1680*%
%ADD116C,0.1880*%
G04:AMPARAMS|DCode=117|XSize=208mil|YSize=58mil|CornerRadius=0mil|HoleSize=0mil|Usage=FLASHONLY|Rotation=270.000|XOffset=0mil|YOffset=0mil|HoleType=Round|Shape=Octagon|*
%AMOCTAGOND117*
4,1,8,-0.0145,-0.1040,0.0145,-0.1040,0.0290,-0.0895,0.0290,0.0895,0.0145,0.1040,-0.0145,0.1040,-0.0290,0.0895,-0.0290,-0.0895,-0.0145,-0.1040,0.0*
%
%ADD117OCTAGOND117*%

D87*
X161992Y94094D02*
D03*
X160992D02*
D03*
X159992D02*
D03*
X158992D02*
D03*
X157992D02*
D03*
X156992D02*
D03*
D102*
X165741Y88384D02*
D03*
X164741D02*
D03*
X162741D02*
D03*
X161741D02*
D03*
X166741D02*
D03*
X167741D02*
D03*
X168741D02*
D03*
X170698D02*
D03*
X172284Y69486D02*
D03*
X171284D02*
D03*
X170284D02*
D03*
X169284D02*
D03*
X168284D02*
D03*
X167284D02*
D03*
X166284D02*
D03*
X165284D02*
D03*
X174261D02*
D03*
X175261D02*
D03*
X176261D02*
D03*
X177261D02*
D03*
X178261D02*
D03*
X179261D02*
D03*
X179316Y88384D02*
D03*
X178316D02*
D03*
X177316D02*
D03*
X176316D02*
D03*
X175316D02*
D03*
X174316D02*
D03*
X173316D02*
D03*
D103*
X163741D02*
D03*
D104*
X169713D02*
D03*
X172316D02*
D03*
D105*
X130906Y93504D02*
D03*
X183268Y69094D02*
D03*
X130118D02*
D03*
X183268Y93504D02*
D03*
D106*
X182472Y81543D02*
D03*
X183472D02*
D03*
X182472Y80543D02*
D03*
X183472D02*
D03*
X182472Y79543D02*
D03*
X183472D02*
D03*
X182472Y78543D02*
D03*
X183472D02*
D03*
X182472Y77543D02*
D03*
X183472D02*
D03*
X182472Y76543D02*
D03*
X183472D02*
D03*
X182472Y75543D02*
D03*
D107*
X183472D02*
D03*
D108*
X183465Y84941D02*
D03*
D109*
X182465D02*
D03*
D110*
X168209Y85205D02*
D03*
X170709Y87205D02*
D03*
X168209D02*
D03*
X170709Y85205D02*
D03*
D111*
X166732Y90701D02*
D03*
Y91701D02*
D03*
Y92701D02*
D03*
D112*
Y93701D02*
D03*
D113*
X148665Y88348D02*
D03*
Y90748D02*
D03*
Y93148D02*
D03*
X155665Y88348D02*
D03*
Y90748D02*
D03*
Y93148D02*
D03*
X146610Y74447D02*
D03*
Y72047D02*
D03*
Y69647D02*
D03*
X139610Y74447D02*
D03*
Y72047D02*
D03*
Y69647D02*
D03*
X155665Y74447D02*
D03*
Y72047D02*
D03*
Y69647D02*
D03*
X148665Y74447D02*
D03*
Y72047D02*
D03*
Y69647D02*
D03*
D114*
X143110Y93504D02*
D03*
Y91535D02*
D03*
D115*
X131644Y82047D02*
D03*
X132924Y80157D02*
D03*
D116*
X134104Y82047D02*
D03*
D117*
X162992Y94094D02*
D03*
M02*
