G04 Layer_Color=16711935*
%FSLAX24Y24*%
%MOIN*%
G70*
G01*
G75*
%ADD47C,0.0100*%
%ADD118C,0.0080*%
%ADD119C,0.0010*%
%ADD120C,0.0050*%
%ADD121C,0.0040*%
G36*
X130118Y70502D02*
X130119Y70502D01*
X130303Y70487D01*
X130304Y70487D01*
X130304Y70487D01*
X130525Y70434D01*
X130525Y70434D01*
X130526D01*
X130735Y70347D01*
X130736Y70347D01*
X130736Y70346D01*
X130930Y70228D01*
X130930Y70227D01*
X130930Y70227D01*
X131103Y70080D01*
X131103Y70080D01*
X131104Y70079D01*
X131251Y69907D01*
X131251Y69906D01*
X131251Y69906D01*
X131370Y69712D01*
X131370Y69712D01*
X131370Y69712D01*
X131457Y69502D01*
Y69502D01*
X131458Y69501D01*
X131511Y69280D01*
X131511Y69280D01*
X131511Y69280D01*
X131525Y69095D01*
X131525Y69095D01*
X131525Y69095D01*
X131525Y69093D01*
X131524Y69091D01*
X131524Y69091D01*
X131524Y69091D01*
X131522Y69090D01*
X131520Y69089D01*
X131520Y69089D01*
X131520Y69089D01*
X131518Y69089D01*
X131518Y69089D01*
X131518Y69089D01*
X130870Y69089D01*
X130869Y69090D01*
X130867Y69090D01*
X130867Y69091D01*
X130867Y69091D01*
X130866Y69092D01*
X130865Y69094D01*
X130852Y69227D01*
X130808Y69371D01*
X130738Y69503D01*
X130642Y69619D01*
X130527Y69714D01*
X130394Y69785D01*
X130251Y69828D01*
X130122Y69841D01*
X130122Y69841D01*
X130122Y69841D01*
X130122Y69841D01*
X130120Y69840D01*
X130118Y69839D01*
X130118Y69839D01*
X130118Y69839D01*
X130116Y69840D01*
X130114Y69841D01*
X130114Y69841D01*
X130114Y69841D01*
X130113Y69843D01*
X130113Y69844D01*
X130113Y70496D01*
X130113Y70496D01*
X130113Y70497D01*
X130114Y70498D01*
X130114Y70500D01*
X130115Y70500D01*
X130115Y70500D01*
X130116Y70501D01*
X130118Y70502D01*
X130118Y70502D01*
D02*
G37*
G36*
X183268D02*
X183268Y70502D01*
X183453Y70487D01*
X183453Y70487D01*
X183454Y70487D01*
X183674Y70434D01*
X183675Y70434D01*
X183675D01*
X183885Y70347D01*
X183885Y70347D01*
X183886Y70346D01*
X184079Y70228D01*
X184080Y70227D01*
X184080Y70227D01*
X184253Y70080D01*
X184253Y70080D01*
X184253Y70079D01*
X184401Y69907D01*
X184401Y69906D01*
X184401Y69906D01*
X184520Y69712D01*
X184520Y69712D01*
X184520Y69712D01*
X184607Y69502D01*
Y69502D01*
X184607Y69501D01*
X184660Y69280D01*
X184660Y69280D01*
X184660Y69280D01*
X184675Y69095D01*
X184675Y69095D01*
X184675Y69095D01*
X184674Y69093D01*
X184674Y69091D01*
X184673Y69091D01*
X184673Y69091D01*
X184672Y69090D01*
X184670Y69089D01*
X184670Y69089D01*
X184670Y69089D01*
X184668Y69089D01*
X184668Y69089D01*
X184668Y69089D01*
X184020Y69089D01*
X184018Y69090D01*
X184017Y69090D01*
X184016Y69091D01*
X184016Y69091D01*
X184015Y69092D01*
X184015Y69094D01*
X184001Y69227D01*
X183958Y69371D01*
X183887Y69503D01*
X183792Y69619D01*
X183676Y69714D01*
X183544Y69785D01*
X183400Y69828D01*
X183272Y69841D01*
X183272Y69841D01*
X183271Y69841D01*
X183271Y69841D01*
X183270Y69840D01*
X183268Y69839D01*
X183268Y69839D01*
X183268Y69839D01*
X183266Y69840D01*
X183264Y69841D01*
X183264Y69841D01*
X183264Y69841D01*
X183263Y69843D01*
X183262Y69844D01*
X183262Y70496D01*
X183262Y70496D01*
X183262Y70497D01*
X183263Y70498D01*
X183264Y70500D01*
X183264Y70500D01*
X183264Y70500D01*
X183266Y70501D01*
X183268Y70502D01*
X183268Y70502D01*
D02*
G37*
G36*
X129360Y69091D02*
X129361Y69090D01*
X129363Y69090D01*
X129363Y69089D01*
X129363Y69089D01*
X129364Y69088D01*
X129365Y69086D01*
X129365Y69086D01*
X129365Y69086D01*
X129364Y69084D01*
X129364Y69082D01*
X129363Y69082D01*
X129363Y69082D01*
X129363Y69082D01*
X129376Y68953D01*
X129419Y68810D01*
X129490Y68677D01*
X129585Y68561D01*
X129701Y68466D01*
X129833Y68395D01*
X129977Y68352D01*
X130106Y68339D01*
X130106Y68339D01*
X130106Y68340D01*
X130106Y68340D01*
X130108Y68340D01*
X130110Y68341D01*
X130110Y68341D01*
X130110Y68341D01*
X130112Y68340D01*
X130113Y68339D01*
X130113Y68339D01*
X130114Y68339D01*
X130114Y68338D01*
X130115Y68336D01*
Y67703D01*
X130115Y67700D01*
X130114Y67698D01*
X130114Y67696D01*
X130114Y67696D01*
X130114Y67696D01*
X130112Y67695D01*
X130110Y67695D01*
X130094Y67693D01*
X130094Y67693D01*
X130094Y67693D01*
X129879Y67710D01*
X129879Y67710D01*
X129878Y67710D01*
X129669Y67761D01*
X129669Y67761D01*
X129668D01*
X129469Y67843D01*
X129469Y67843D01*
X129469Y67844D01*
X129285Y67956D01*
X129285Y67956D01*
X129284Y67956D01*
X129121Y68096D01*
X129121Y68097D01*
X129120Y68097D01*
X128980Y68260D01*
X128980Y68261D01*
X128980Y68261D01*
X128867Y68445D01*
X128867Y68445D01*
X128867Y68445D01*
X128785Y68644D01*
Y68645D01*
X128784Y68645D01*
X128734Y68854D01*
X128734Y68855D01*
X128734Y68855D01*
X128717Y69070D01*
X128717Y69070D01*
X128717Y69070D01*
X128718Y69086D01*
X128719Y69088D01*
X128720Y69090D01*
X128720Y69090D01*
X128720Y69090D01*
X128722Y69090D01*
X128724Y69091D01*
X129360Y69091D01*
D02*
G37*
G36*
X182509D02*
X182511Y69090D01*
X182513Y69090D01*
X182513Y69089D01*
X182513Y69089D01*
X182514Y69088D01*
X182515Y69086D01*
X182515Y69086D01*
X182515Y69086D01*
X182514Y69084D01*
X182513Y69082D01*
X182513Y69082D01*
X182513Y69082D01*
X182513Y69082D01*
X182525Y68953D01*
X182569Y68810D01*
X182640Y68677D01*
X182735Y68561D01*
X182851Y68466D01*
X182983Y68395D01*
X183127Y68352D01*
X183255Y68339D01*
X183255Y68339D01*
X183255Y68340D01*
X183255Y68340D01*
X183257Y68340D01*
X183259Y68341D01*
X183259Y68341D01*
X183259Y68341D01*
X183261Y68340D01*
X183263Y68339D01*
X183263Y68339D01*
X183263Y68339D01*
X183264Y68338D01*
X183265Y68336D01*
Y67703D01*
X183265Y67700D01*
X183264Y67698D01*
X183263Y67696D01*
X183263Y67696D01*
X183263Y67696D01*
X183261Y67695D01*
X183260Y67695D01*
X183244Y67693D01*
X183244Y67693D01*
X183243Y67693D01*
X183029Y67710D01*
X183028Y67710D01*
X183028Y67710D01*
X182819Y67761D01*
X182818Y67761D01*
X182818D01*
X182619Y67843D01*
X182619Y67843D01*
X182618Y67844D01*
X182435Y67956D01*
X182434Y67956D01*
X182434Y67956D01*
X182270Y68096D01*
X182270Y68097D01*
X182270Y68097D01*
X182130Y68260D01*
X182130Y68261D01*
X182130Y68261D01*
X182017Y68445D01*
X182017Y68445D01*
X182017Y68445D01*
X181934Y68644D01*
Y68645D01*
X181934Y68645D01*
X181884Y68854D01*
X181884Y68855D01*
X181884Y68855D01*
X181867Y69070D01*
X181867Y69070D01*
X181867Y69070D01*
X181868Y69086D01*
X181869Y69088D01*
X181870Y69090D01*
X181870Y69090D01*
X181870Y69090D01*
X181872Y69090D01*
X181873Y69091D01*
X182509Y69091D01*
D02*
G37*
G36*
X151870Y82972D02*
X150985D01*
Y83862D01*
X151870D01*
Y82972D01*
D02*
G37*
G36*
X130906Y94911D02*
X130906Y94911D01*
X131091Y94897D01*
X131091Y94896D01*
X131091Y94896D01*
X131312Y94843D01*
X131313Y94843D01*
X131313D01*
X131523Y94756D01*
X131523Y94756D01*
X131523Y94756D01*
X131717Y94637D01*
X131717Y94637D01*
X131718Y94637D01*
X131890Y94489D01*
X131891Y94489D01*
X131891Y94489D01*
X132038Y94316D01*
X132039Y94316D01*
X132039Y94315D01*
X132158Y94122D01*
X132158Y94121D01*
X132158Y94121D01*
X132245Y93911D01*
Y93911D01*
X132245Y93911D01*
X132298Y93690D01*
X132298Y93689D01*
X132298Y93689D01*
X132313Y93504D01*
X132313Y93504D01*
X132313Y93504D01*
X132312Y93502D01*
X132311Y93500D01*
X132311Y93500D01*
X132311Y93500D01*
X132309Y93499D01*
X132308Y93499D01*
X132308Y93499D01*
X132307Y93499D01*
X132306Y93499D01*
X132306Y93499D01*
X132306Y93499D01*
X131658Y93499D01*
X131656Y93499D01*
X131654Y93500D01*
X131654Y93500D01*
X131654Y93500D01*
X131653Y93502D01*
X131652Y93503D01*
X131639Y93637D01*
X131596Y93780D01*
X131525Y93912D01*
X131430Y94028D01*
X131314Y94123D01*
X131182Y94194D01*
X131038Y94238D01*
X130909Y94250D01*
X130909Y94250D01*
X130909Y94250D01*
X130909Y94250D01*
X130907Y94249D01*
X130906Y94249D01*
X130905Y94249D01*
X130905Y94249D01*
X130904Y94249D01*
X130902Y94250D01*
X130902Y94250D01*
X130902Y94250D01*
X130901Y94252D01*
X130900Y94254D01*
X130900Y94906D01*
X130900Y94906D01*
X130900Y94906D01*
X130901Y94908D01*
X130902Y94910D01*
X130902Y94910D01*
X130902Y94910D01*
X130904Y94910D01*
X130906Y94911D01*
X130906Y94911D01*
D02*
G37*
G36*
X183268D02*
X183268Y94911D01*
X183453Y94897D01*
X183453Y94896D01*
X183454Y94896D01*
X183674Y94843D01*
X183675Y94843D01*
X183675D01*
X183885Y94756D01*
X183885Y94756D01*
X183886Y94756D01*
X184079Y94637D01*
X184080Y94637D01*
X184080Y94637D01*
X184253Y94489D01*
X184253Y94489D01*
X184253Y94489D01*
X184401Y94316D01*
X184401Y94316D01*
X184401Y94315D01*
X184520Y94122D01*
X184520Y94121D01*
X184520Y94121D01*
X184607Y93911D01*
Y93911D01*
X184607Y93911D01*
X184660Y93690D01*
X184660Y93689D01*
X184660Y93689D01*
X184675Y93504D01*
X184675Y93504D01*
X184675Y93504D01*
X184674Y93502D01*
X184674Y93500D01*
X184673Y93500D01*
X184673Y93500D01*
X184672Y93499D01*
X184670Y93499D01*
X184670Y93499D01*
X184670Y93499D01*
X184668Y93499D01*
X184668Y93499D01*
X184668Y93499D01*
X184020Y93499D01*
X184018Y93499D01*
X184017Y93500D01*
X184016Y93500D01*
X184016Y93500D01*
X184015Y93502D01*
X184015Y93503D01*
X184001Y93637D01*
X183958Y93780D01*
X183887Y93912D01*
X183792Y94028D01*
X183676Y94123D01*
X183544Y94194D01*
X183400Y94238D01*
X183272Y94250D01*
X183272Y94250D01*
X183271Y94250D01*
X183271Y94250D01*
X183270Y94249D01*
X183268Y94249D01*
X183268Y94249D01*
X183268Y94249D01*
X183266Y94249D01*
X183264Y94250D01*
X183264Y94250D01*
X183264Y94250D01*
X183263Y94252D01*
X183262Y94254D01*
X183262Y94906D01*
X183262Y94906D01*
X183262Y94906D01*
X183263Y94908D01*
X183264Y94910D01*
X183264Y94910D01*
X183264Y94910D01*
X183266Y94910D01*
X183268Y94911D01*
X183268Y94911D01*
D02*
G37*
G36*
X130147Y93501D02*
X130149Y93500D01*
X130151Y93499D01*
X130151Y93499D01*
X130151Y93499D01*
X130152Y93497D01*
X130152Y93495D01*
X130152Y93495D01*
X130152Y93495D01*
X130152Y93493D01*
X130151Y93491D01*
X130151Y93491D01*
X130151Y93491D01*
X130151Y93491D01*
X130163Y93363D01*
X130207Y93219D01*
X130278Y93087D01*
X130373Y92971D01*
X130489Y92876D01*
X130621Y92805D01*
X130764Y92761D01*
X130893Y92749D01*
X130893Y92749D01*
X130893Y92749D01*
X130893Y92749D01*
X130895Y92750D01*
X130897Y92751D01*
X130897Y92750D01*
X130897Y92751D01*
X130899Y92750D01*
X130901Y92749D01*
X130901Y92749D01*
X130901Y92749D01*
X130902Y92747D01*
X130902Y92745D01*
Y92113D01*
X130902Y92109D01*
X130902Y92108D01*
X130901Y92106D01*
X130901Y92106D01*
X130901Y92106D01*
X130899Y92105D01*
X130897Y92104D01*
X130882Y92103D01*
X130881Y92103D01*
X130881Y92103D01*
X130666Y92120D01*
X130666Y92120D01*
X130666Y92120D01*
X130456Y92170D01*
X130456Y92170D01*
X130456D01*
X130257Y92253D01*
X130256Y92253D01*
X130256Y92253D01*
X130072Y92365D01*
X130072Y92366D01*
X130072Y92366D01*
X129908Y92506D01*
X129908Y92506D01*
X129908Y92506D01*
X129768Y92670D01*
X129768Y92670D01*
X129767Y92671D01*
X129655Y92854D01*
X129655Y92854D01*
X129654Y92855D01*
X129572Y93054D01*
Y93054D01*
X129572Y93054D01*
X129522Y93264D01*
X129522Y93264D01*
X129522Y93264D01*
X129505Y93479D01*
X129505Y93479D01*
X129505Y93480D01*
X129506Y93496D01*
X129507Y93497D01*
X129507Y93499D01*
X129508Y93499D01*
X129508Y93499D01*
X129510Y93500D01*
X129511Y93501D01*
X130147Y93501D01*
D02*
G37*
G36*
X182509D02*
X182511Y93500D01*
X182513Y93499D01*
X182513Y93499D01*
X182513Y93499D01*
X182514Y93497D01*
X182515Y93495D01*
X182515Y93495D01*
X182515Y93495D01*
X182514Y93493D01*
X182513Y93491D01*
X182513Y93491D01*
X182513Y93491D01*
X182513Y93491D01*
X182525Y93363D01*
X182569Y93219D01*
X182640Y93087D01*
X182735Y92971D01*
X182851Y92876D01*
X182983Y92805D01*
X183127Y92761D01*
X183255Y92749D01*
X183255Y92749D01*
X183255Y92749D01*
X183255Y92749D01*
X183257Y92750D01*
X183259Y92751D01*
X183259Y92750D01*
X183259Y92751D01*
X183261Y92750D01*
X183263Y92749D01*
X183263Y92749D01*
X183263Y92749D01*
X183264Y92747D01*
X183265Y92745D01*
Y92113D01*
X183265Y92109D01*
X183264Y92108D01*
X183263Y92106D01*
X183263Y92106D01*
X183263Y92106D01*
X183261Y92105D01*
X183260Y92104D01*
X183244Y92103D01*
X183244Y92103D01*
X183243Y92103D01*
X183029Y92120D01*
X183028Y92120D01*
X183028Y92120D01*
X182819Y92170D01*
X182818Y92170D01*
X182818D01*
X182619Y92253D01*
X182619Y92253D01*
X182618Y92253D01*
X182435Y92365D01*
X182434Y92366D01*
X182434Y92366D01*
X182270Y92506D01*
X182270Y92506D01*
X182270Y92506D01*
X182130Y92670D01*
X182130Y92670D01*
X182130Y92671D01*
X182017Y92854D01*
X182017Y92854D01*
X182017Y92855D01*
X181934Y93054D01*
Y93054D01*
X181934Y93054D01*
X181884Y93264D01*
X181884Y93264D01*
X181884Y93264D01*
X181867Y93479D01*
X181867Y93479D01*
X181867Y93480D01*
X181868Y93496D01*
X181869Y93497D01*
X181870Y93499D01*
X181870Y93499D01*
X181870Y93499D01*
X181872Y93500D01*
X181873Y93501D01*
X182509Y93501D01*
D02*
G37*
D47*
X131656Y93504D02*
G03*
X131656Y93504I-750J0D01*
G01*
X132306D02*
G03*
X132306Y93504I-1400J0D01*
G01*
X184018Y69094D02*
G03*
X184018Y69094I-750J0D01*
G01*
X184668D02*
G03*
X184668Y69094I-1400J0D01*
G01*
X130868D02*
G03*
X130868Y69094I-750J0D01*
G01*
X131518D02*
G03*
X131518Y69094I-1400J0D01*
G01*
X184018Y93504D02*
G03*
X184018Y93504I-750J0D01*
G01*
X184668D02*
G03*
X184668Y93504I-1400J0D01*
G01*
X132459Y85453D02*
X132769D01*
D118*
X172834Y68986D02*
Y69986D01*
X164734D02*
X172834D01*
X164734Y68986D02*
Y69986D01*
Y68986D02*
X165284D01*
X166284D01*
X167284D01*
X168284D01*
X169284D01*
X171284D01*
X172834D01*
X179866Y87884D02*
Y88884D01*
X171766D02*
X179866D01*
X171766Y87884D02*
Y88884D01*
Y87884D02*
X172316D01*
X173316D01*
X174316D01*
X175316D01*
X176316D01*
X178316D01*
X179866D01*
X182779Y83890D02*
Y84015D01*
Y83953D01*
X182404D01*
X182466Y83890D01*
X182779Y84390D02*
X182404D01*
X182591Y84203D01*
Y84453D01*
X183779Y83890D02*
Y84015D01*
Y83953D01*
X183404D01*
X183466Y83890D01*
Y84203D02*
X183404Y84265D01*
Y84390D01*
X183466Y84453D01*
X183529D01*
X183591Y84390D01*
Y84328D01*
Y84390D01*
X183654Y84453D01*
X183716D01*
X183779Y84390D01*
Y84265D01*
X183716Y84203D01*
X182779Y73154D02*
Y72904D01*
X182529Y73154D01*
X182466D01*
X182404Y73092D01*
Y72967D01*
X182466Y72904D01*
X183779Y72954D02*
Y73079D01*
Y73017D01*
X183404D01*
X183466Y72954D01*
D119*
X164244Y72190D02*
Y74640D01*
Y72190D02*
X166464D01*
Y74640D01*
X164244D02*
X166464D01*
X164244Y85281D02*
Y87731D01*
Y85281D02*
X166464D01*
Y87731D01*
X164244D02*
X166464D01*
X145008Y87958D02*
Y90408D01*
X142788D02*
X145008D01*
X142788Y87958D02*
Y90408D01*
Y87958D02*
X145008D01*
X143236Y78411D02*
Y80861D01*
X141016D02*
X143236D01*
X141016Y78411D02*
Y80861D01*
Y78411D02*
X143236D01*
X145598D02*
Y80861D01*
X143378Y80861D02*
X145598Y80861D01*
X143378Y80861D02*
X143378Y78411D01*
X145598D01*
X145740Y78293D02*
Y80743D01*
Y78293D02*
X147960D01*
Y80743D01*
X145740D02*
X147960D01*
X148103Y78293D02*
Y80743D01*
Y78293D02*
X150323D01*
Y80743D01*
X148103D02*
X150323D01*
D120*
X144882Y90748D02*
Y94685D01*
X141339Y90748D02*
X144882D01*
X141339D02*
Y94685D01*
X142323D01*
X143898D01*
X144882D01*
X143898D02*
Y95472D01*
X142323D02*
X143898D01*
X142323Y94685D02*
Y95472D01*
D121*
X149921Y83839D02*
X151850Y83839D01*
X149921Y81909D02*
Y83839D01*
Y81909D02*
X151850Y81909D01*
Y83839D01*
M02*
