G04 Layer_Color=32896*
%FSLAX24Y24*%
%MOIN*%
G70*
G01*
G75*
%ADD47C,0.0100*%
G36*
X156006Y91601D02*
X156246D01*
Y91521D01*
X156326D01*
Y91441D01*
X156406D01*
Y91361D01*
X156486D01*
Y91281D01*
X156566D01*
Y91201D01*
X156646D01*
Y91121D01*
Y91041D01*
Y90961D01*
Y90881D01*
Y90801D01*
Y90721D01*
X156726D01*
Y90641D01*
X156646D01*
Y90561D01*
Y90481D01*
Y90401D01*
Y90321D01*
X156566D01*
Y90241D01*
Y90161D01*
X156486D01*
Y90081D01*
X156406D01*
Y90001D01*
X156246D01*
Y89921D01*
X156166D01*
Y89841D01*
X155846D01*
Y89761D01*
X155606D01*
Y89841D01*
X155286D01*
Y89921D01*
X155206D01*
Y90001D01*
X155126D01*
Y90081D01*
X154966D01*
Y90161D01*
Y90241D01*
X154886D01*
Y90321D01*
Y90401D01*
X154806D01*
Y90481D01*
Y90561D01*
Y90641D01*
Y90721D01*
Y90801D01*
Y90881D01*
Y90961D01*
Y91041D01*
Y91121D01*
X154886D01*
Y91201D01*
X154966D01*
Y91281D01*
Y91361D01*
X155046D01*
Y91441D01*
X155126D01*
Y91521D01*
X155206D01*
Y91601D01*
X155446D01*
Y91681D01*
X156006D01*
Y91601D01*
D02*
G37*
G36*
X133977Y70220D02*
X133897D01*
Y70300D01*
X133977D01*
Y70220D01*
D02*
G37*
G36*
X163577Y76460D02*
X163497D01*
Y76540D01*
X163577D01*
Y76460D01*
D02*
G37*
G36*
X152057Y70700D02*
X151977D01*
Y70780D01*
X152057D01*
Y70700D01*
D02*
G37*
G36*
X156857Y70060D02*
X156777D01*
Y70140D01*
X156857D01*
Y70060D01*
D02*
G37*
G36*
X154486Y89361D02*
X154566D01*
Y89281D01*
X154646D01*
Y89201D01*
X154726D01*
Y89121D01*
X154806D01*
Y89041D01*
Y88961D01*
Y88881D01*
X154726D01*
Y88961D01*
Y89041D01*
X154646D01*
Y89121D01*
Y89201D01*
X154566D01*
Y89281D01*
X154406D01*
Y89361D01*
X153926D01*
Y89281D01*
X153766D01*
Y89201D01*
X153686D01*
Y89121D01*
X153606D01*
Y89201D01*
Y89281D01*
X153686D01*
Y89361D01*
X153846D01*
Y89441D01*
X154486D01*
Y89361D01*
D02*
G37*
G36*
X171257Y70060D02*
X171177D01*
Y70140D01*
X171257D01*
Y70060D01*
D02*
G37*
G36*
X144697Y76780D02*
X144617D01*
Y76860D01*
X144697D01*
Y76780D01*
D02*
G37*
G36*
X148377Y71180D02*
X148297D01*
Y71260D01*
X148377D01*
Y71180D01*
D02*
G37*
G36*
X135737Y71660D02*
X135657D01*
Y71740D01*
X135737D01*
Y71660D01*
D02*
G37*
G36*
X141977Y71500D02*
X141897D01*
Y71580D01*
X141977D01*
Y71500D01*
D02*
G37*
G36*
X143897Y71820D02*
X143817D01*
Y71900D01*
X143897D01*
Y71820D01*
D02*
G37*
G36*
X135577D02*
X135497D01*
Y71900D01*
X135577D01*
Y71820D01*
D02*
G37*
G36*
X135737Y71340D02*
X135657D01*
Y71420D01*
X135737D01*
Y71340D01*
D02*
G37*
G36*
X133817D02*
X133737D01*
Y71420D01*
X133817D01*
Y71340D01*
D02*
G37*
G36*
X161977D02*
X161897D01*
Y71420D01*
X161977D01*
Y71340D01*
D02*
G37*
G36*
X144697D02*
X144617D01*
Y71420D01*
X144697D01*
Y71340D01*
D02*
G37*
G36*
X161017Y77740D02*
X160937D01*
Y77820D01*
X161017D01*
Y77740D01*
D02*
G37*
G36*
X137337D02*
X137257D01*
Y77820D01*
X137337D01*
Y77740D01*
D02*
G37*
G36*
X183268Y70502D02*
X183268Y70502D01*
X183453Y70487D01*
X183453Y70487D01*
X183454Y70487D01*
X183674Y70434D01*
X183675Y70434D01*
X183675D01*
X183885Y70347D01*
X183885Y70347D01*
X183886Y70346D01*
X184079Y70228D01*
X184080Y70227D01*
X184080Y70227D01*
X184253Y70080D01*
X184253Y70080D01*
X184253Y70079D01*
X184401Y69907D01*
X184401Y69906D01*
X184401Y69906D01*
X184520Y69712D01*
X184520Y69712D01*
X184520Y69712D01*
X184607Y69502D01*
Y69502D01*
X184607Y69501D01*
X184660Y69280D01*
X184660Y69280D01*
X184660Y69280D01*
X184675Y69095D01*
X184675Y69095D01*
X184675Y69095D01*
X184674Y69093D01*
X184674Y69091D01*
X184673Y69091D01*
X184673Y69091D01*
X184672Y69090D01*
X184670Y69089D01*
X184670Y69089D01*
X184670Y69089D01*
X184668Y69089D01*
X184668Y69089D01*
X184668Y69089D01*
X184020Y69089D01*
X184018Y69090D01*
X184017Y69090D01*
X184016Y69091D01*
X184016Y69091D01*
X184015Y69092D01*
X184015Y69094D01*
X184001Y69227D01*
X183958Y69371D01*
X183887Y69503D01*
X183792Y69619D01*
X183676Y69714D01*
X183544Y69785D01*
X183400Y69828D01*
X183272Y69841D01*
X183272Y69841D01*
X183271Y69841D01*
X183271Y69841D01*
X183270Y69840D01*
X183268Y69839D01*
X183268Y69839D01*
X183268Y69839D01*
X183266Y69840D01*
X183264Y69841D01*
X183264Y69841D01*
X183264Y69841D01*
X183263Y69843D01*
X183262Y69844D01*
X183262Y70496D01*
X183262Y70496D01*
X183262Y70497D01*
X183263Y70498D01*
X183264Y70500D01*
X183264Y70500D01*
X183264Y70500D01*
X183266Y70501D01*
X183268Y70502D01*
X183268Y70502D01*
D02*
G37*
G36*
X177017Y77740D02*
X176937D01*
Y77820D01*
X177017D01*
Y77740D01*
D02*
G37*
G36*
X177337Y77420D02*
X177257D01*
Y77500D01*
X177337D01*
Y77420D01*
D02*
G37*
G36*
X130118Y70502D02*
X130119Y70502D01*
X130303Y70487D01*
X130304Y70487D01*
X130304Y70487D01*
X130525Y70434D01*
X130525Y70434D01*
X130526D01*
X130735Y70347D01*
X130736Y70347D01*
X130736Y70346D01*
X130930Y70228D01*
X130930Y70227D01*
X130930Y70227D01*
X131103Y70080D01*
X131103Y70080D01*
X131104Y70079D01*
X131251Y69907D01*
X131251Y69906D01*
X131251Y69906D01*
X131370Y69712D01*
X131370Y69712D01*
X131370Y69712D01*
X131457Y69502D01*
Y69502D01*
X131458Y69501D01*
X131511Y69280D01*
X131511Y69280D01*
X131511Y69280D01*
X131525Y69095D01*
X131525Y69095D01*
X131525Y69095D01*
X131525Y69093D01*
X131524Y69091D01*
X131524Y69091D01*
X131524Y69091D01*
X131522Y69090D01*
X131520Y69089D01*
X131520Y69089D01*
X131520Y69089D01*
X131518Y69089D01*
X131518Y69089D01*
X131518Y69089D01*
X130870Y69089D01*
X130869Y69090D01*
X130867Y69090D01*
X130867Y69091D01*
X130867Y69091D01*
X130866Y69092D01*
X130865Y69094D01*
X130852Y69227D01*
X130808Y69371D01*
X130738Y69503D01*
X130642Y69619D01*
X130527Y69714D01*
X130394Y69785D01*
X130251Y69828D01*
X130122Y69841D01*
X130122Y69841D01*
X130122Y69841D01*
X130122Y69841D01*
X130120Y69840D01*
X130118Y69839D01*
X130118Y69839D01*
X130118Y69839D01*
X130116Y69840D01*
X130114Y69841D01*
X130114Y69841D01*
X130114Y69841D01*
X130113Y69843D01*
X130113Y69844D01*
X130113Y70496D01*
X130113Y70496D01*
X130113Y70497D01*
X130114Y70498D01*
X130114Y70500D01*
X130115Y70500D01*
X130115Y70500D01*
X130116Y70501D01*
X130118Y70502D01*
X130118Y70502D01*
D02*
G37*
G36*
X161177Y77580D02*
X161097D01*
Y77660D01*
X161177D01*
Y77580D01*
D02*
G37*
G36*
X153337Y77420D02*
X153257D01*
Y77500D01*
X153337D01*
Y77420D01*
D02*
G37*
G36*
X149497Y78060D02*
X149417D01*
Y78140D01*
X149497D01*
Y78060D01*
D02*
G37*
G36*
X158886Y87121D02*
X159126D01*
Y87041D01*
X159206D01*
Y86961D01*
Y86881D01*
Y86801D01*
Y86721D01*
Y86641D01*
Y86561D01*
Y86481D01*
Y86401D01*
X159046D01*
Y86321D01*
X158966D01*
Y86241D01*
X158006D01*
Y86161D01*
Y86081D01*
X158166D01*
Y86001D01*
X158326D01*
Y85921D01*
X158486D01*
Y85841D01*
X158646D01*
Y85761D01*
X158726D01*
Y85681D01*
X158806D01*
Y85601D01*
X158886D01*
Y85521D01*
X159046D01*
Y85441D01*
X159126D01*
Y85361D01*
X159206D01*
Y85281D01*
Y85201D01*
X159286D01*
Y85121D01*
X159366D01*
Y85041D01*
X159446D01*
Y84961D01*
X159526D01*
Y84881D01*
Y84801D01*
X159606D01*
Y84721D01*
Y84641D01*
X159686D01*
Y84561D01*
Y84481D01*
X159766D01*
Y84401D01*
Y84321D01*
Y84241D01*
X159846D01*
Y84161D01*
Y84081D01*
Y84001D01*
X159926D01*
Y83921D01*
Y83841D01*
Y83761D01*
Y83681D01*
Y83601D01*
Y83521D01*
X160006D01*
Y83441D01*
Y83361D01*
Y83281D01*
Y83201D01*
Y83121D01*
Y83041D01*
Y82961D01*
Y82881D01*
X160086D01*
Y82801D01*
X160006D01*
Y82721D01*
Y82641D01*
Y82561D01*
Y82481D01*
Y82401D01*
Y82321D01*
Y82241D01*
X159926D01*
Y82161D01*
Y82081D01*
Y82001D01*
Y81921D01*
Y81841D01*
X159846D01*
Y81761D01*
Y81681D01*
X159766D01*
Y81601D01*
Y81521D01*
Y81441D01*
X159686D01*
Y81361D01*
Y81281D01*
X159606D01*
Y81201D01*
X159526D01*
Y81121D01*
Y81041D01*
X159446D01*
Y80961D01*
X159366D01*
Y80881D01*
Y80801D01*
X159286D01*
Y80721D01*
X159206D01*
Y80641D01*
X159126D01*
Y80561D01*
Y80481D01*
X158966D01*
Y80401D01*
Y80321D01*
X158806D01*
Y80241D01*
Y80161D01*
X158646D01*
Y80081D01*
X158566D01*
Y80001D01*
Y79921D01*
Y79841D01*
Y79761D01*
Y79681D01*
Y79601D01*
Y79521D01*
Y79441D01*
Y79361D01*
Y79281D01*
Y79201D01*
Y79121D01*
Y79041D01*
X158486D01*
Y79020D01*
X158537D01*
Y78940D01*
X158777D01*
Y78860D01*
X158857D01*
Y78940D01*
X158937D01*
Y78860D01*
X159017D01*
Y78780D01*
X159257D01*
Y78700D01*
X159337D01*
Y78620D01*
X159577D01*
Y78540D01*
X159657D01*
Y78460D01*
X159897D01*
Y78380D01*
X159977D01*
Y78300D01*
X160217D01*
Y78220D01*
X160297D01*
Y78140D01*
X160377D01*
Y78060D01*
X160457D01*
Y77980D01*
X160697D01*
Y77900D01*
X160777D01*
Y77820D01*
X160857D01*
Y77740D01*
X160937D01*
Y77660D01*
X161017D01*
Y77580D01*
X161097D01*
Y77500D01*
X161337D01*
Y77420D01*
X161417D01*
Y77340D01*
X161497D01*
Y77260D01*
X161577D01*
Y77180D01*
X161657D01*
Y77100D01*
Y77020D01*
Y76940D01*
X161737D01*
Y76860D01*
X161657D01*
Y76780D01*
X161737D01*
Y76700D01*
X161817D01*
Y76780D01*
X161897D01*
Y76860D01*
X161977D01*
Y76780D01*
X162057D01*
Y76860D01*
X162137D01*
Y76780D01*
X162217D01*
Y76860D01*
X162297D01*
Y76780D01*
X162377D01*
Y76860D01*
X162457D01*
Y76780D01*
X162537D01*
Y76860D01*
X162617D01*
Y76780D01*
X162697D01*
Y76700D01*
X162777D01*
Y76780D01*
X162697D01*
Y76860D01*
X162777D01*
Y76780D01*
X162857D01*
Y76700D01*
X163097D01*
Y76620D01*
X163177D01*
Y76540D01*
X163257D01*
Y76620D01*
X163337D01*
Y76540D01*
X163417D01*
Y76460D01*
X163497D01*
Y76380D01*
X163737D01*
Y76300D01*
X163817D01*
Y76220D01*
X163897D01*
Y76140D01*
X163977D01*
Y76060D01*
X164057D01*
Y75980D01*
X164137D01*
Y75900D01*
X164217D01*
Y75820D01*
X164297D01*
Y75740D01*
X164377D01*
Y75660D01*
Y75580D01*
X164537D01*
Y75500D01*
X164457D01*
Y75420D01*
X164537D01*
Y75340D01*
X164617D01*
Y75260D01*
X164697D01*
Y75180D01*
X164617D01*
Y75100D01*
X164697D01*
Y75020D01*
X164777D01*
Y74940D01*
X164857D01*
Y74860D01*
X164777D01*
Y74780D01*
X164857D01*
Y74700D01*
X164777D01*
Y74620D01*
X164857D01*
Y74540D01*
X164937D01*
Y74460D01*
Y74380D01*
Y74300D01*
X165017D01*
Y74380D01*
X165097D01*
Y74460D01*
Y74540D01*
Y74620D01*
X165177D01*
Y74700D01*
X165257D01*
Y74780D01*
Y74860D01*
Y74940D01*
X165337D01*
Y75020D01*
X165257D01*
Y75100D01*
X165337D01*
Y75180D01*
X165417D01*
Y75260D01*
X165497D01*
Y75340D01*
Y75420D01*
Y75500D01*
X165577D01*
Y75580D01*
X165657D01*
Y75660D01*
X165577D01*
Y75740D01*
X165657D01*
Y75820D01*
X165737D01*
Y75900D01*
X165817D01*
Y75980D01*
Y76060D01*
X165897D01*
Y76140D01*
Y76220D01*
X165977D01*
Y76300D01*
X166057D01*
Y76380D01*
X166137D01*
Y76460D01*
X166217D01*
Y76540D01*
X166297D01*
Y76620D01*
X166377D01*
Y76700D01*
X166617D01*
Y76780D01*
X166697D01*
Y76860D01*
X166777D01*
Y76780D01*
X166857D01*
Y76860D01*
X166937D01*
Y76780D01*
X167017D01*
Y76860D01*
X167097D01*
Y76780D01*
X167177D01*
Y76860D01*
X167257D01*
Y76780D01*
X167337D01*
Y76860D01*
X167417D01*
Y76780D01*
X167497D01*
Y76700D01*
X167737D01*
Y76620D01*
X167817D01*
Y76540D01*
X168057D01*
Y76460D01*
X167977D01*
Y76380D01*
X168217D01*
Y76300D01*
Y76220D01*
X168377D01*
Y76140D01*
X168457D01*
Y76060D01*
X168537D01*
Y75980D01*
Y75900D01*
X168697D01*
Y75820D01*
Y75740D01*
X168857D01*
Y75660D01*
Y75580D01*
X169017D01*
Y75500D01*
X168937D01*
Y75420D01*
X169017D01*
Y75340D01*
X168937D01*
Y75260D01*
X169017D01*
Y75180D01*
X168937D01*
Y75100D01*
X169017D01*
Y75020D01*
X168937D01*
Y74940D01*
X169017D01*
Y74860D01*
X168937D01*
Y74780D01*
X169017D01*
Y74700D01*
X168937D01*
Y74620D01*
X169017D01*
Y74540D01*
X168937D01*
Y74460D01*
X169017D01*
Y74380D01*
X168937D01*
Y74300D01*
Y74220D01*
Y74140D01*
X169017D01*
Y74060D01*
X169097D01*
Y73980D01*
X169177D01*
Y73900D01*
X169257D01*
Y73820D01*
X169497D01*
Y73900D01*
X169577D01*
Y73820D01*
X169657D01*
Y73900D01*
X169577D01*
Y73980D01*
X169657D01*
Y73900D01*
X169737D01*
Y73820D01*
X169817D01*
Y73900D01*
X169737D01*
Y73980D01*
X169817D01*
Y74060D01*
X169737D01*
Y74140D01*
X169817D01*
Y74220D01*
X169737D01*
Y74300D01*
X169817D01*
Y74380D01*
X169737D01*
Y74460D01*
X169817D01*
Y74540D01*
X169737D01*
Y74620D01*
X169817D01*
Y74700D01*
X169737D01*
Y74780D01*
X169817D01*
Y74860D01*
X169737D01*
Y74940D01*
X169817D01*
Y75020D01*
X169737D01*
Y75100D01*
X169817D01*
Y75180D01*
X169737D01*
Y75260D01*
X169817D01*
Y75340D01*
X169737D01*
Y75420D01*
X169817D01*
Y75500D01*
X169737D01*
Y75580D01*
X169817D01*
Y75660D01*
X169737D01*
Y75740D01*
X169817D01*
Y75820D01*
X169737D01*
Y75900D01*
X169817D01*
Y75980D01*
X169737D01*
Y76060D01*
X169817D01*
Y76140D01*
X169737D01*
Y76220D01*
X169817D01*
Y76300D01*
X169737D01*
Y76380D01*
X169817D01*
Y76460D01*
X169737D01*
Y76540D01*
X169817D01*
Y76620D01*
X169737D01*
Y76700D01*
X169817D01*
Y76780D01*
X169737D01*
Y76860D01*
X169817D01*
Y76940D01*
X169737D01*
Y77020D01*
X169817D01*
Y77100D01*
X169737D01*
Y77180D01*
X169817D01*
Y77260D01*
X169737D01*
Y77340D01*
X169817D01*
Y77420D01*
Y77500D01*
Y77580D01*
X169897D01*
Y77660D01*
Y77740D01*
Y77820D01*
X169977D01*
Y77900D01*
X170057D01*
Y77980D01*
X170137D01*
Y78060D01*
X170057D01*
Y78140D01*
X170137D01*
Y78220D01*
X170217D01*
Y78300D01*
X170457D01*
Y78380D01*
X170537D01*
Y78300D01*
X170617D01*
Y78380D01*
X170537D01*
Y78460D01*
X170617D01*
Y78380D01*
X170697D01*
Y78300D01*
X170777D01*
Y78380D01*
X170857D01*
Y78300D01*
X171097D01*
Y78220D01*
X171177D01*
Y78140D01*
X171257D01*
Y78060D01*
X171337D01*
Y77980D01*
X171417D01*
Y77900D01*
X171497D01*
Y77820D01*
X171577D01*
Y77740D01*
X171657D01*
Y77660D01*
X171737D01*
Y77580D01*
X171817D01*
Y77500D01*
X172057D01*
Y77420D01*
X172137D01*
Y77340D01*
X172217D01*
Y77260D01*
X172297D01*
Y77180D01*
X172377D01*
Y77100D01*
X172457D01*
Y77020D01*
X172537D01*
Y76940D01*
X172617D01*
Y77020D01*
X172697D01*
Y77100D01*
X172617D01*
Y77180D01*
X172697D01*
Y77260D01*
X172777D01*
Y77340D01*
X172857D01*
Y77420D01*
X172777D01*
Y77500D01*
X172857D01*
Y77580D01*
X172937D01*
Y77660D01*
X173017D01*
Y77740D01*
X173097D01*
Y77820D01*
X173177D01*
Y77900D01*
X173257D01*
Y77980D01*
X173337D01*
Y77900D01*
X173417D01*
Y77980D01*
X173497D01*
Y78060D01*
X173577D01*
Y78140D01*
X173817D01*
Y78220D01*
X173897D01*
Y78140D01*
X173977D01*
Y78220D01*
X173897D01*
Y78300D01*
X173977D01*
Y78220D01*
X174057D01*
Y78300D01*
X174137D01*
Y78220D01*
X174217D01*
Y78300D01*
X174297D01*
Y78220D01*
X174377D01*
Y78300D01*
X174457D01*
Y78220D01*
X174537D01*
Y78300D01*
X174617D01*
Y78220D01*
X174697D01*
Y78140D01*
X174937D01*
Y78060D01*
X175017D01*
Y77980D01*
X175257D01*
Y77900D01*
X175337D01*
Y77820D01*
X175417D01*
Y77900D01*
X175337D01*
Y77980D01*
X175417D01*
Y78060D01*
X175497D01*
Y78140D01*
X175737D01*
Y78220D01*
X175817D01*
Y78300D01*
X175897D01*
Y78220D01*
X175977D01*
Y78300D01*
X176377D01*
Y78220D01*
X176457D01*
Y78140D01*
X176697D01*
Y78060D01*
X176617D01*
Y77980D01*
X176697D01*
Y77900D01*
X176777D01*
Y77820D01*
X176857D01*
Y77740D01*
X176937D01*
Y77660D01*
X177017D01*
Y77580D01*
X177097D01*
Y77500D01*
X177177D01*
Y77420D01*
X177257D01*
Y77340D01*
X177337D01*
Y77260D01*
X177417D01*
Y77180D01*
X177497D01*
Y77100D01*
X177577D01*
Y77020D01*
X177657D01*
Y76940D01*
X177577D01*
Y76860D01*
X177657D01*
Y76780D01*
X177577D01*
Y76700D01*
X177657D01*
Y76620D01*
X177577D01*
Y76540D01*
X177657D01*
Y76460D01*
Y76380D01*
Y76300D01*
X177577D01*
Y76220D01*
X177657D01*
Y76140D01*
Y76060D01*
Y75980D01*
X177577D01*
Y75900D01*
X177657D01*
Y75820D01*
X177577D01*
Y75740D01*
X177497D01*
Y75820D01*
X177417D01*
Y75740D01*
X177337D01*
Y75660D01*
X177257D01*
Y75740D01*
X177177D01*
Y75660D01*
X177097D01*
Y75580D01*
X177177D01*
Y75500D01*
X177097D01*
Y75420D01*
X177177D01*
Y75340D01*
X177097D01*
Y75260D01*
X177177D01*
Y75180D01*
X177097D01*
Y75100D01*
X177177D01*
Y75020D01*
X177097D01*
Y74940D01*
X177177D01*
Y74860D01*
X177097D01*
Y74780D01*
X177177D01*
Y74700D01*
X177097D01*
Y74620D01*
X177177D01*
Y74540D01*
X177097D01*
Y74460D01*
X177177D01*
Y74380D01*
X177097D01*
Y74300D01*
X177177D01*
Y74220D01*
X177097D01*
Y74140D01*
X177177D01*
Y74060D01*
X177097D01*
Y73980D01*
X177177D01*
Y73900D01*
X177097D01*
Y73820D01*
X177177D01*
Y73740D01*
X177097D01*
Y73660D01*
X177177D01*
Y73580D01*
X177097D01*
Y73500D01*
X177177D01*
Y73420D01*
X177097D01*
Y73340D01*
X177177D01*
Y73260D01*
X177097D01*
Y73180D01*
X177177D01*
Y73100D01*
X177097D01*
Y73020D01*
X177177D01*
Y72940D01*
X177097D01*
Y72860D01*
X177177D01*
Y72780D01*
Y72700D01*
X177337D01*
Y72620D01*
X177257D01*
Y72540D01*
X177337D01*
Y72460D01*
X177417D01*
Y72380D01*
X177497D01*
Y72300D01*
X177577D01*
Y72220D01*
X177497D01*
Y72300D01*
X177417D01*
Y72220D01*
X177497D01*
Y72140D01*
X177577D01*
Y72060D01*
X177657D01*
Y71980D01*
Y71900D01*
Y71820D01*
X177577D01*
Y71740D01*
X177657D01*
Y71660D01*
X177577D01*
Y71580D01*
Y71500D01*
Y71420D01*
X177497D01*
Y71340D01*
X177417D01*
Y71260D01*
X177337D01*
Y71180D01*
X177097D01*
Y71100D01*
X177017D01*
Y71180D01*
X176617D01*
Y71260D01*
X176537D01*
Y71180D01*
X176457D01*
Y71260D01*
X176377D01*
Y71180D01*
X176297D01*
Y71260D01*
X176217D01*
Y71340D01*
X176137D01*
Y71260D01*
X176217D01*
Y71180D01*
X176137D01*
Y71260D01*
X176057D01*
Y71340D01*
X175977D01*
Y71260D01*
X175897D01*
Y71340D01*
X175817D01*
Y71260D01*
X175737D01*
Y71340D01*
X175657D01*
Y71260D01*
X175577D01*
Y71340D01*
X175497D01*
Y71260D01*
X175417D01*
Y71340D01*
X175337D01*
Y71260D01*
X175257D01*
Y71340D01*
X175017D01*
Y71260D01*
X174937D01*
Y71340D01*
X174697D01*
Y71260D01*
X174617D01*
Y71340D01*
X173737D01*
Y71420D01*
X173657D01*
Y71500D01*
X173577D01*
Y71580D01*
X173497D01*
Y71660D01*
X173417D01*
Y71740D01*
X173337D01*
Y71820D01*
X173257D01*
Y71900D01*
X173337D01*
Y71980D01*
X173097D01*
Y72060D01*
X173177D01*
Y72140D01*
X173097D01*
Y72220D01*
X173017D01*
Y72300D01*
X172777D01*
Y72380D01*
X172857D01*
Y72460D01*
X172617D01*
Y72540D01*
X172537D01*
Y72620D01*
X172457D01*
Y72700D01*
X172377D01*
Y72780D01*
X172297D01*
Y72860D01*
X172377D01*
Y72940D01*
X172297D01*
Y73020D01*
X172217D01*
Y73100D01*
X172137D01*
Y73180D01*
X172217D01*
Y73260D01*
X172137D01*
Y73340D01*
Y73420D01*
Y73500D01*
X172057D01*
Y73580D01*
X171977D01*
Y73500D01*
X172057D01*
Y73420D01*
X171977D01*
Y73340D01*
X172057D01*
Y73260D01*
X171977D01*
Y73180D01*
X172057D01*
Y73100D01*
X171977D01*
Y73020D01*
X172057D01*
Y72940D01*
X171977D01*
Y72860D01*
X172057D01*
Y72780D01*
X171977D01*
Y72700D01*
Y72620D01*
Y72540D01*
Y72460D01*
Y72380D01*
X171897D01*
Y72300D01*
X171817D01*
Y72220D01*
X171897D01*
Y72140D01*
X171817D01*
Y72060D01*
X171897D01*
Y71980D01*
X171817D01*
Y71900D01*
X171737D01*
Y71820D01*
X171657D01*
Y71740D01*
Y71660D01*
Y71580D01*
X171737D01*
Y71500D01*
X171657D01*
Y71420D01*
X171737D01*
Y71340D01*
X171817D01*
Y71260D01*
X171737D01*
Y71180D01*
X171817D01*
Y71100D01*
Y71020D01*
Y70940D01*
Y70860D01*
Y70780D01*
Y70700D01*
Y70620D01*
X171737D01*
Y70540D01*
X171657D01*
Y70460D01*
X171737D01*
Y70380D01*
X171657D01*
Y70300D01*
X171577D01*
Y70220D01*
X171497D01*
Y70300D01*
X171417D01*
Y70220D01*
X171337D01*
Y70140D01*
X171257D01*
Y70220D01*
X171017D01*
Y70140D01*
X170937D01*
Y70220D01*
X170857D01*
Y70300D01*
X170777D01*
Y70220D01*
X170697D01*
Y70300D01*
X170617D01*
Y70380D01*
X170537D01*
Y70460D01*
X170617D01*
Y70540D01*
X170537D01*
Y70620D01*
X170457D01*
Y70700D01*
Y70780D01*
Y70860D01*
Y70940D01*
Y71020D01*
Y71100D01*
Y71180D01*
X170537D01*
Y71260D01*
X170457D01*
Y71340D01*
X170537D01*
Y71420D01*
X170617D01*
Y71500D01*
X170537D01*
Y71580D01*
X170617D01*
Y71660D01*
X170377D01*
Y71740D01*
X170297D01*
Y71820D01*
X170217D01*
Y71900D01*
X170137D01*
Y71980D01*
X170057D01*
Y72060D01*
X169977D01*
Y72140D01*
X169897D01*
Y72220D01*
X169817D01*
Y72300D01*
X169737D01*
Y72380D01*
X169657D01*
Y72460D01*
X169577D01*
Y72380D01*
X169657D01*
Y72300D01*
X169577D01*
Y72220D01*
X169657D01*
Y72140D01*
X169577D01*
Y72060D01*
X169497D01*
Y71980D01*
X169417D01*
Y71900D01*
X169497D01*
Y71820D01*
X169417D01*
Y71740D01*
X169337D01*
Y71660D01*
X169257D01*
Y71580D01*
X169177D01*
Y71500D01*
X168937D01*
Y71420D01*
X168857D01*
Y71340D01*
X168777D01*
Y71420D01*
X168697D01*
Y71340D01*
X167657D01*
Y71420D01*
X167577D01*
Y71340D01*
X167497D01*
Y71420D01*
X167417D01*
Y71500D01*
X167177D01*
Y71580D01*
X167097D01*
Y71660D01*
X166857D01*
Y71740D01*
X166777D01*
Y71820D01*
X166697D01*
Y71900D01*
X166617D01*
Y71980D01*
X166537D01*
Y71900D01*
X166457D01*
Y71820D01*
X166377D01*
Y71740D01*
X166457D01*
Y71660D01*
X166217D01*
Y71580D01*
X166297D01*
Y71500D01*
X166057D01*
Y71420D01*
X165977D01*
Y71340D01*
X165737D01*
Y71260D01*
X165657D01*
Y71180D01*
X165577D01*
Y71260D01*
X165497D01*
Y71180D01*
X165417D01*
Y71260D01*
X165337D01*
Y71180D01*
X165257D01*
Y71260D01*
X165177D01*
Y71340D01*
X164937D01*
Y71420D01*
X164857D01*
Y71500D01*
X164777D01*
Y71580D01*
X164697D01*
Y71660D01*
X164617D01*
Y71740D01*
X164537D01*
Y71820D01*
X164457D01*
Y71900D01*
X164377D01*
Y71980D01*
X164297D01*
Y71900D01*
X164217D01*
Y71820D01*
X164137D01*
Y71740D01*
X164057D01*
Y71660D01*
X163977D01*
Y71580D01*
X163897D01*
Y71500D01*
X163817D01*
Y71580D01*
X163737D01*
Y71500D01*
X163657D01*
Y71420D01*
X163577D01*
Y71500D01*
X163497D01*
Y71420D01*
X163577D01*
Y71340D01*
X163177D01*
Y71260D01*
X163097D01*
Y71340D01*
X163017D01*
Y71260D01*
X162937D01*
Y71340D01*
X162857D01*
Y71260D01*
X162777D01*
Y71340D01*
X162697D01*
Y71260D01*
X162777D01*
Y71180D01*
X162697D01*
Y71260D01*
X162617D01*
Y71340D01*
X162537D01*
Y71260D01*
X162457D01*
Y71340D01*
X162057D01*
Y71420D01*
X161977D01*
Y71500D01*
X161737D01*
Y71580D01*
X161657D01*
Y71660D01*
X161417D01*
Y71740D01*
X161497D01*
Y71820D01*
X161337D01*
Y71900D01*
Y71980D01*
X161177D01*
Y72060D01*
Y72140D01*
X161097D01*
Y72220D01*
X161017D01*
Y72300D01*
X160937D01*
Y72220D01*
Y72140D01*
Y72060D01*
X161017D01*
Y71980D01*
X160937D01*
Y71900D01*
X160857D01*
Y71820D01*
X160777D01*
Y71740D01*
X160857D01*
Y71660D01*
X160777D01*
Y71580D01*
X160697D01*
Y71500D01*
X160617D01*
Y71420D01*
X160697D01*
Y71340D01*
X160457D01*
Y71260D01*
X160377D01*
Y71180D01*
X160137D01*
Y71100D01*
X160057D01*
Y71020D01*
X159977D01*
Y70940D01*
X159897D01*
Y71020D01*
X159817D01*
Y70940D01*
X159737D01*
Y70860D01*
X159657D01*
Y70780D01*
X159737D01*
Y70700D01*
X159657D01*
Y70620D01*
X159577D01*
Y70540D01*
X159497D01*
Y70460D01*
X159417D01*
Y70380D01*
X159017D01*
Y70460D01*
X158937D01*
Y70540D01*
X158857D01*
Y70460D01*
X158937D01*
Y70380D01*
X158857D01*
Y70460D01*
X158777D01*
Y70540D01*
Y70620D01*
Y70700D01*
X158697D01*
Y70780D01*
X158777D01*
Y70860D01*
X158697D01*
Y70940D01*
X158617D01*
Y71020D01*
X158217D01*
Y70940D01*
X158297D01*
Y70860D01*
X158217D01*
Y70780D01*
X158137D01*
Y70700D01*
X158057D01*
Y70620D01*
X157977D01*
Y70540D01*
X157897D01*
Y70460D01*
X157977D01*
Y70380D01*
X157897D01*
Y70300D01*
X157817D01*
Y70220D01*
X157737D01*
Y70140D01*
X157657D01*
Y70060D01*
X157417D01*
Y69980D01*
X157337D01*
Y70060D01*
X157257D01*
Y69980D01*
X157337D01*
Y69900D01*
X157257D01*
Y69980D01*
X157017D01*
Y70060D01*
X156937D01*
Y70140D01*
X156857D01*
Y70220D01*
X156617D01*
Y70300D01*
X156697D01*
Y70380D01*
X156457D01*
Y70460D01*
X156377D01*
Y70540D01*
X156297D01*
Y70620D01*
X156217D01*
Y70700D01*
X156137D01*
Y70780D01*
X156057D01*
Y70860D01*
X155817D01*
Y70940D01*
X155737D01*
Y71020D01*
X155657D01*
Y71100D01*
Y71180D01*
X155577D01*
Y71260D01*
Y71340D01*
X155497D01*
Y71420D01*
X155577D01*
Y71500D01*
X155497D01*
Y71580D01*
X155577D01*
Y71660D01*
X155657D01*
Y71740D01*
Y71820D01*
Y71900D01*
X155897D01*
Y71980D01*
X155977D01*
Y71900D01*
X156057D01*
Y71980D01*
Y72060D01*
X156217D01*
Y72140D01*
Y72220D01*
X156377D01*
Y72300D01*
X156297D01*
Y72380D01*
X156537D01*
Y72460D01*
X156457D01*
Y72540D01*
X156537D01*
Y72620D01*
X156617D01*
Y72700D01*
X156697D01*
Y72780D01*
X156777D01*
Y72860D01*
Y72940D01*
Y73020D01*
X156857D01*
Y73100D01*
X156937D01*
Y73180D01*
X157017D01*
Y73260D01*
Y73340D01*
X157177D01*
Y73420D01*
X157097D01*
Y73500D01*
X157177D01*
Y73580D01*
X157257D01*
Y73660D01*
Y73740D01*
Y73820D01*
X157337D01*
Y73900D01*
Y73980D01*
X157417D01*
Y74060D01*
Y74140D01*
X157497D01*
Y74220D01*
X157417D01*
Y74300D01*
X157337D01*
Y74380D01*
X157257D01*
Y74460D01*
X157177D01*
Y74540D01*
X157097D01*
Y74620D01*
X157177D01*
Y74700D01*
X157097D01*
Y74780D01*
X157017D01*
Y74860D01*
X156937D01*
Y74940D01*
X157017D01*
Y75020D01*
X156937D01*
Y75100D01*
X156857D01*
Y75180D01*
X156777D01*
Y75260D01*
X156857D01*
Y75340D01*
X156777D01*
Y75420D01*
X156857D01*
Y75500D01*
X156777D01*
Y75580D01*
X156857D01*
Y75660D01*
X156777D01*
Y75740D01*
X156857D01*
Y75820D01*
X156777D01*
Y75900D01*
X156857D01*
Y75980D01*
X156777D01*
Y76060D01*
X156857D01*
Y76140D01*
X156777D01*
Y76220D01*
X156857D01*
Y76300D01*
X156937D01*
Y76380D01*
X157017D01*
Y76460D01*
X156937D01*
Y76540D01*
X157177D01*
Y76620D01*
X157097D01*
Y76700D01*
X157337D01*
Y76780D01*
X157417D01*
Y76860D01*
X157657D01*
Y76940D01*
X157737D01*
Y76860D01*
X157817D01*
Y76940D01*
X157897D01*
Y76860D01*
X157977D01*
Y76940D01*
X157897D01*
Y77020D01*
X157977D01*
Y76940D01*
X158057D01*
Y76860D01*
X158137D01*
Y76940D01*
X158217D01*
Y76860D01*
X158297D01*
Y76940D01*
X158217D01*
Y77020D01*
X158137D01*
Y77100D01*
X157897D01*
Y77180D01*
X157817D01*
Y77260D01*
X157737D01*
Y77340D01*
X157657D01*
Y77420D01*
X157417D01*
Y77500D01*
X157337D01*
Y77580D01*
X157257D01*
Y77660D01*
X157177D01*
Y77740D01*
X156937D01*
Y77820D01*
Y77900D01*
Y77980D01*
X156857D01*
Y78060D01*
X156777D01*
Y78140D01*
X156857D01*
Y78220D01*
X156777D01*
Y78300D01*
X156857D01*
Y78380D01*
X156937D01*
Y78460D01*
Y78540D01*
Y78620D01*
X157017D01*
Y78700D01*
X157097D01*
Y78780D01*
X157177D01*
Y78860D01*
X157257D01*
Y78940D01*
X157337D01*
Y78860D01*
X157417D01*
Y78940D01*
X157497D01*
Y79020D01*
X157577D01*
Y78940D01*
X157657D01*
Y78961D01*
X157606D01*
Y79041D01*
X157526D01*
Y79121D01*
X157606D01*
Y79201D01*
Y79281D01*
X157526D01*
Y79361D01*
Y79441D01*
X157446D01*
Y79361D01*
X157286D01*
Y79281D01*
X157046D01*
Y79201D01*
X156886D01*
Y79121D01*
X156566D01*
Y79041D01*
X156166D01*
Y78961D01*
X155766D01*
Y78881D01*
X153526D01*
Y78961D01*
X153126D01*
Y79041D01*
X152806D01*
Y79121D01*
X152486D01*
Y79201D01*
X152326D01*
Y79281D01*
X152086D01*
Y79361D01*
X151926D01*
Y79441D01*
X151846D01*
Y79361D01*
X151766D01*
Y79281D01*
Y79201D01*
Y79121D01*
Y79041D01*
X151686D01*
Y78961D01*
Y78881D01*
Y78801D01*
X151606D01*
Y78721D01*
X151046D01*
Y78801D01*
X150966D01*
Y78881D01*
X150886D01*
Y78961D01*
Y79041D01*
X150806D01*
Y79121D01*
Y79201D01*
Y79281D01*
Y79361D01*
Y79441D01*
Y79521D01*
Y79601D01*
Y79681D01*
Y79761D01*
Y79841D01*
Y79921D01*
Y80001D01*
Y80081D01*
X150726D01*
Y80161D01*
X150566D01*
Y80241D01*
Y80321D01*
X150406D01*
Y80401D01*
Y80481D01*
X150246D01*
Y80561D01*
Y80641D01*
X150086D01*
Y80721D01*
Y80801D01*
X150006D01*
Y80881D01*
X149926D01*
Y80961D01*
Y81041D01*
X149846D01*
Y81121D01*
Y81201D01*
X149766D01*
Y81281D01*
X149686D01*
Y81361D01*
X149606D01*
Y81441D01*
Y81521D01*
Y81601D01*
X149526D01*
Y81681D01*
Y81761D01*
X149446D01*
Y81841D01*
Y81921D01*
Y82001D01*
Y82081D01*
Y82161D01*
X149366D01*
Y82241D01*
Y82321D01*
Y82401D01*
X149286D01*
Y82481D01*
X149366D01*
Y82561D01*
Y82641D01*
Y82721D01*
Y82801D01*
Y82881D01*
Y82961D01*
Y83041D01*
Y83121D01*
X149286D01*
Y83201D01*
X149366D01*
Y83281D01*
Y83361D01*
Y83441D01*
Y83521D01*
Y83601D01*
X149446D01*
Y83681D01*
Y83761D01*
Y83841D01*
Y83921D01*
Y84001D01*
Y84081D01*
X149526D01*
Y84161D01*
Y84241D01*
X149606D01*
Y84321D01*
Y84401D01*
Y84481D01*
X149686D01*
Y84561D01*
Y84641D01*
Y84721D01*
X149766D01*
Y84801D01*
X149846D01*
Y84881D01*
X149926D01*
Y84961D01*
Y85041D01*
X150006D01*
Y85121D01*
Y85201D01*
X150086D01*
Y85281D01*
X150166D01*
Y85361D01*
X150246D01*
Y85441D01*
X150326D01*
Y85521D01*
X150406D01*
Y85601D01*
X150486D01*
Y85681D01*
X150646D01*
Y85761D01*
X150726D01*
Y85841D01*
X150886D01*
Y85921D01*
X151046D01*
Y86001D01*
X151126D01*
Y86081D01*
X151366D01*
Y86161D01*
Y86241D01*
Y86321D01*
X151286D01*
Y86241D01*
X150406D01*
Y86321D01*
X150246D01*
Y86401D01*
X150166D01*
Y86481D01*
Y86561D01*
X150086D01*
Y86641D01*
Y86721D01*
Y86801D01*
Y86881D01*
X150166D01*
Y86961D01*
Y87041D01*
X150246D01*
Y87121D01*
X150486D01*
Y87201D01*
X150566D01*
Y87121D01*
X150646D01*
Y87201D01*
X151206D01*
Y87121D01*
X151286D01*
Y87201D01*
X151766D01*
Y87121D01*
X151846D01*
Y87201D01*
X152406D01*
Y87121D01*
X152486D01*
Y87201D01*
X152966D01*
Y87121D01*
X153126D01*
Y87201D01*
X153606D01*
Y87121D01*
X153686D01*
Y87201D01*
X154246D01*
Y87121D01*
X154326D01*
Y87201D01*
X154806D01*
Y87121D01*
X154886D01*
Y87201D01*
X155206D01*
Y87121D01*
X155286D01*
Y87201D01*
X155766D01*
Y87121D01*
X155846D01*
Y87201D01*
X156166D01*
Y87121D01*
X156246D01*
Y87201D01*
X156566D01*
Y87121D01*
X156646D01*
Y87201D01*
X156966D01*
Y87121D01*
X157046D01*
Y87201D01*
X157206D01*
Y87121D01*
X157366D01*
Y87201D01*
X157846D01*
Y87121D01*
X157926D01*
Y87201D01*
X158486D01*
Y87121D01*
X158566D01*
Y87201D01*
X158886D01*
Y87121D01*
D02*
G37*
G36*
X134137Y70060D02*
X134057D01*
Y70140D01*
X134137D01*
Y70060D01*
D02*
G37*
G36*
X138750Y94463D02*
Y94383D01*
Y94303D01*
Y94223D01*
Y94143D01*
Y94063D01*
Y93983D01*
Y93903D01*
Y93823D01*
Y93743D01*
Y93663D01*
Y93583D01*
Y93503D01*
Y93423D01*
Y93343D01*
Y93263D01*
Y93183D01*
Y93103D01*
Y93023D01*
Y92943D01*
Y92863D01*
Y92783D01*
Y92703D01*
Y92623D01*
Y92543D01*
Y92463D01*
Y92383D01*
Y92303D01*
Y92223D01*
Y92143D01*
Y92063D01*
Y91983D01*
Y91903D01*
Y91823D01*
Y91743D01*
Y91663D01*
Y91583D01*
Y91503D01*
Y91423D01*
Y91343D01*
Y91263D01*
Y91183D01*
Y91103D01*
Y91023D01*
Y90943D01*
Y90863D01*
Y90783D01*
Y90703D01*
Y90623D01*
Y90543D01*
Y90463D01*
Y90383D01*
Y90303D01*
Y90223D01*
Y90143D01*
Y90063D01*
Y89983D01*
Y89903D01*
Y89823D01*
Y89743D01*
Y89663D01*
Y89583D01*
Y89503D01*
Y89423D01*
Y89343D01*
Y89263D01*
Y89183D01*
Y89103D01*
Y89023D01*
Y88943D01*
Y88863D01*
Y88783D01*
Y88703D01*
Y88623D01*
Y88543D01*
X132750D01*
Y88623D01*
Y88703D01*
Y88783D01*
Y88863D01*
Y88943D01*
Y89023D01*
Y89103D01*
Y89183D01*
Y89263D01*
Y89343D01*
Y89423D01*
Y89503D01*
Y89583D01*
Y89663D01*
Y89743D01*
Y89823D01*
Y89903D01*
Y89983D01*
Y90063D01*
Y90143D01*
Y90223D01*
Y90303D01*
Y90383D01*
Y90463D01*
Y90543D01*
Y90623D01*
Y90703D01*
Y90783D01*
Y90863D01*
Y90943D01*
Y91023D01*
Y91103D01*
Y91183D01*
Y91263D01*
Y91343D01*
Y91423D01*
Y91503D01*
Y91583D01*
Y91663D01*
Y91743D01*
Y91823D01*
Y91903D01*
Y91983D01*
Y92063D01*
Y92143D01*
Y92223D01*
Y92303D01*
Y92383D01*
Y92463D01*
Y92543D01*
Y92623D01*
Y92703D01*
Y92783D01*
Y92863D01*
Y92943D01*
Y93023D01*
Y93103D01*
Y93183D01*
Y93263D01*
Y93343D01*
Y93423D01*
Y93503D01*
Y93583D01*
Y93663D01*
Y93743D01*
Y93823D01*
Y93903D01*
Y93983D01*
Y94063D01*
Y94143D01*
Y94223D01*
Y94303D01*
Y94383D01*
Y94463D01*
Y94543D01*
X138750D01*
Y94463D01*
D02*
G37*
G36*
X153606Y89041D02*
Y88961D01*
Y88881D01*
X153526D01*
Y88801D01*
Y88721D01*
Y88641D01*
X153606D01*
Y88561D01*
Y88481D01*
Y88401D01*
X153766D01*
Y88321D01*
Y88241D01*
X154006D01*
Y88161D01*
X154246D01*
Y88241D01*
X154486D01*
Y88321D01*
X154566D01*
Y88401D01*
X154646D01*
Y88481D01*
Y88561D01*
X154726D01*
Y88641D01*
Y88721D01*
X154806D01*
Y88641D01*
Y88561D01*
Y88481D01*
Y88401D01*
X154726D01*
Y88321D01*
X154646D01*
Y88241D01*
X154566D01*
Y88161D01*
X154326D01*
Y88081D01*
X153926D01*
Y88161D01*
X153686D01*
Y88241D01*
X153606D01*
Y88321D01*
Y88401D01*
X153526D01*
Y88481D01*
Y88561D01*
X153446D01*
Y88641D01*
Y88721D01*
Y88801D01*
Y88881D01*
Y88961D01*
Y89041D01*
X153526D01*
Y89121D01*
X153606D01*
Y89041D01*
D02*
G37*
G36*
X151577Y78380D02*
X151657D01*
Y78300D01*
X151897D01*
Y78220D01*
X151977D01*
Y78140D01*
X152217D01*
Y78060D01*
X152297D01*
Y77980D01*
X152377D01*
Y77900D01*
X152457D01*
Y77980D01*
X152537D01*
Y77900D01*
X152617D01*
Y77820D01*
X152697D01*
Y77740D01*
X152777D01*
Y77660D01*
X153017D01*
Y77580D01*
X153097D01*
Y77500D01*
X153177D01*
Y77420D01*
X153257D01*
Y77340D01*
X153497D01*
Y77260D01*
Y77180D01*
X153657D01*
Y77100D01*
Y77020D01*
X153817D01*
Y76940D01*
X153737D01*
Y76860D01*
X153817D01*
Y76780D01*
X153897D01*
Y76700D01*
X153977D01*
Y76620D01*
X154057D01*
Y76540D01*
Y76460D01*
Y76380D01*
X154137D01*
Y76300D01*
Y76220D01*
X154297D01*
Y76140D01*
X154217D01*
Y76060D01*
X154297D01*
Y75980D01*
X154217D01*
Y75900D01*
X154297D01*
Y75820D01*
X154377D01*
Y75740D01*
X154457D01*
Y75660D01*
X154377D01*
Y75580D01*
X154457D01*
Y75500D01*
X154377D01*
Y75420D01*
X154457D01*
Y75340D01*
X154377D01*
Y75260D01*
X154457D01*
Y75180D01*
X154377D01*
Y75100D01*
X154457D01*
Y75020D01*
Y74940D01*
Y74860D01*
X154377D01*
Y74780D01*
X154457D01*
Y74700D01*
X154377D01*
Y74620D01*
X154457D01*
Y74540D01*
X154377D01*
Y74460D01*
X154457D01*
Y74380D01*
X154377D01*
Y74300D01*
Y74220D01*
Y74140D01*
X154297D01*
Y74060D01*
X154217D01*
Y73980D01*
X154297D01*
Y73900D01*
X154217D01*
Y73820D01*
X154137D01*
Y73740D01*
Y73660D01*
Y73580D01*
X154057D01*
Y73500D01*
X153977D01*
Y73420D01*
X153897D01*
Y73340D01*
X153977D01*
Y73260D01*
X153737D01*
Y73180D01*
X153817D01*
Y73100D01*
X153737D01*
Y73020D01*
X153657D01*
Y72940D01*
X153577D01*
Y72860D01*
X153497D01*
Y72780D01*
X153417D01*
Y72700D01*
X153337D01*
Y72620D01*
X153257D01*
Y72540D01*
X153177D01*
Y72460D01*
X153097D01*
Y72380D01*
X153017D01*
Y72300D01*
X152937D01*
Y72220D01*
X152857D01*
Y72140D01*
X152777D01*
Y72060D01*
X152857D01*
Y71980D01*
X152777D01*
Y71900D01*
X152937D01*
Y71820D01*
Y71740D01*
X153017D01*
Y71660D01*
X153097D01*
Y71580D01*
X153177D01*
Y71500D01*
X153097D01*
Y71420D01*
X153177D01*
Y71340D01*
X153257D01*
Y71260D01*
X153177D01*
Y71180D01*
X153257D01*
Y71100D01*
X153337D01*
Y71020D01*
X153257D01*
Y70940D01*
Y70860D01*
Y70780D01*
X153337D01*
Y70700D01*
X153257D01*
Y70620D01*
X153177D01*
Y70540D01*
X153097D01*
Y70460D01*
X153017D01*
Y70540D01*
X152937D01*
Y70460D01*
X153017D01*
Y70380D01*
X152617D01*
Y70460D01*
X152537D01*
Y70540D01*
X152377D01*
Y70620D01*
X152217D01*
Y70700D01*
X152137D01*
Y70780D01*
X152057D01*
Y70860D01*
X151817D01*
Y70940D01*
X151737D01*
Y70860D01*
X151657D01*
Y70940D01*
X151577D01*
Y71020D01*
X151497D01*
Y71100D01*
X151417D01*
Y71180D01*
X151337D01*
Y71260D01*
X151417D01*
Y71340D01*
X151017D01*
Y71420D01*
X150937D01*
Y71340D01*
X150857D01*
Y71420D01*
X150777D01*
Y71340D01*
X150537D01*
Y71260D01*
X150297D01*
Y71180D01*
X150217D01*
Y71100D01*
X150137D01*
Y71180D01*
X150057D01*
Y71100D01*
X150137D01*
Y71020D01*
X149897D01*
Y70940D01*
Y70860D01*
Y70780D01*
X149977D01*
Y70700D01*
X149897D01*
Y70620D01*
X149977D01*
Y70540D01*
Y70460D01*
Y70380D01*
X150057D01*
Y70300D01*
X149977D01*
Y70380D01*
X149897D01*
Y70300D01*
X149977D01*
Y70220D01*
Y70140D01*
Y70060D01*
X149897D01*
Y69980D01*
X149977D01*
Y69900D01*
X149897D01*
Y69820D01*
X149817D01*
Y69740D01*
X149737D01*
Y69660D01*
X149657D01*
Y69580D01*
X148937D01*
Y69660D01*
X148857D01*
Y69740D01*
X148777D01*
Y69820D01*
Y69900D01*
X148617D01*
Y69980D01*
X148697D01*
Y70060D01*
X148617D01*
Y70140D01*
X148697D01*
Y70220D01*
X148617D01*
Y70300D01*
X148697D01*
Y70380D01*
X148617D01*
Y70460D01*
X148697D01*
Y70540D01*
X148617D01*
Y70620D01*
X148697D01*
Y70700D01*
Y70780D01*
X148777D01*
Y70860D01*
Y70940D01*
X148697D01*
Y71020D01*
X148617D01*
Y71100D01*
X148537D01*
Y71180D01*
X148457D01*
Y71260D01*
X148377D01*
Y71340D01*
X148137D01*
Y71420D01*
X148057D01*
Y71500D01*
X147977D01*
Y71580D01*
X148057D01*
Y71660D01*
X147817D01*
Y71740D01*
X147897D01*
Y71820D01*
Y71900D01*
Y71980D01*
X147977D01*
Y72060D01*
X148057D01*
Y72140D01*
X147977D01*
Y72220D01*
X148057D01*
Y72300D01*
X147977D01*
Y72380D01*
X147897D01*
Y72460D01*
X147817D01*
Y72540D01*
X147737D01*
Y72620D01*
X147657D01*
Y72700D01*
X147577D01*
Y72780D01*
X147497D01*
Y72860D01*
X147417D01*
Y72940D01*
X147337D01*
Y73020D01*
Y73100D01*
X147257D01*
Y73180D01*
Y73260D01*
X147097D01*
Y73340D01*
Y73420D01*
X147017D01*
Y73500D01*
X146937D01*
Y73580D01*
X146857D01*
Y73660D01*
X146937D01*
Y73740D01*
X146857D01*
Y73820D01*
X146777D01*
Y73900D01*
X146697D01*
Y73980D01*
X146777D01*
Y74060D01*
X146697D01*
Y74140D01*
X146617D01*
Y74220D01*
X146537D01*
Y74300D01*
X146617D01*
Y74380D01*
X146537D01*
Y74460D01*
Y74540D01*
Y74620D01*
X146457D01*
Y74700D01*
Y74780D01*
Y74860D01*
X146377D01*
Y74940D01*
X146457D01*
Y75020D01*
X146377D01*
Y75100D01*
X146457D01*
Y75180D01*
X146377D01*
Y75260D01*
X146457D01*
Y75340D01*
X146377D01*
Y75420D01*
X146457D01*
Y75500D01*
X146377D01*
Y75580D01*
X146457D01*
Y75660D01*
X146377D01*
Y75740D01*
X146457D01*
Y75820D01*
Y75900D01*
Y75980D01*
X146537D01*
Y76060D01*
X146457D01*
Y76140D01*
X146537D01*
Y76220D01*
X146617D01*
Y76300D01*
X146537D01*
Y76380D01*
X146617D01*
Y76460D01*
X146537D01*
Y76540D01*
X146617D01*
Y76620D01*
X146697D01*
Y76700D01*
X146777D01*
Y76780D01*
X146697D01*
Y76860D01*
X146777D01*
Y76940D01*
X146857D01*
Y77020D01*
Y77100D01*
Y77180D01*
X146937D01*
Y77260D01*
X147017D01*
Y77340D01*
X147097D01*
Y77420D01*
X147017D01*
Y77500D01*
X147257D01*
Y77580D01*
X147177D01*
Y77660D01*
X147257D01*
Y77740D01*
X147337D01*
Y77820D01*
X147417D01*
Y77900D01*
X147497D01*
Y77980D01*
X147577D01*
Y78060D01*
X147657D01*
Y78140D01*
X147897D01*
Y78220D01*
X147977D01*
Y78300D01*
X148057D01*
Y78380D01*
X148137D01*
Y78300D01*
X148217D01*
Y78380D01*
X148137D01*
Y78460D01*
X148217D01*
Y78380D01*
X148297D01*
Y78460D01*
X148377D01*
Y78380D01*
X148457D01*
Y78460D01*
X148537D01*
Y78380D01*
X148617D01*
Y78460D01*
X148697D01*
Y78380D01*
X148777D01*
Y78300D01*
X149017D01*
Y78220D01*
X149097D01*
Y78140D01*
X149177D01*
Y78220D01*
X149257D01*
Y78140D01*
X149337D01*
Y78060D01*
X149417D01*
Y77980D01*
X149657D01*
Y78060D01*
X149737D01*
Y78140D01*
X149977D01*
Y78220D01*
X150057D01*
Y78300D01*
X150297D01*
Y78380D01*
X150377D01*
Y78460D01*
X150457D01*
Y78380D01*
X150537D01*
Y78460D01*
X151577D01*
Y78380D01*
D02*
G37*
G36*
X148857D02*
X148777D01*
Y78460D01*
X148857D01*
Y78380D01*
D02*
G37*
G36*
X134777Y79020D02*
X134857D01*
Y78940D01*
X135097D01*
Y78860D01*
X135177D01*
Y78940D01*
X135257D01*
Y78860D01*
X135337D01*
Y78780D01*
X135577D01*
Y78700D01*
X135657D01*
Y78620D01*
X135897D01*
Y78540D01*
X135977D01*
Y78460D01*
X136217D01*
Y78380D01*
X136297D01*
Y78300D01*
X136377D01*
Y78220D01*
X136457D01*
Y78300D01*
X136537D01*
Y78220D01*
Y78140D01*
X136697D01*
Y78060D01*
X136777D01*
Y77980D01*
X137017D01*
Y77900D01*
X137097D01*
Y77820D01*
X137177D01*
Y77740D01*
X137257D01*
Y77660D01*
X137497D01*
Y77580D01*
Y77500D01*
X137657D01*
Y77420D01*
X137737D01*
Y77340D01*
X137817D01*
Y77260D01*
X137897D01*
Y77180D01*
X137977D01*
Y77100D01*
Y77020D01*
Y76940D01*
X137897D01*
Y76860D01*
X137977D01*
Y76780D01*
X137897D01*
Y76700D01*
X141017D01*
Y76620D01*
X141097D01*
Y76540D01*
X141337D01*
Y76460D01*
X141257D01*
Y76380D01*
X141337D01*
Y76300D01*
X141417D01*
Y76220D01*
X141497D01*
Y76140D01*
X141577D01*
Y76060D01*
X141657D01*
Y75980D01*
Y75900D01*
X141817D01*
Y75820D01*
X141737D01*
Y75740D01*
X141817D01*
Y75660D01*
X141897D01*
Y75580D01*
X141977D01*
Y75500D01*
X142057D01*
Y75420D01*
Y75340D01*
Y75260D01*
X142137D01*
Y75180D01*
X142057D01*
Y75100D01*
X142137D01*
Y75020D01*
X142057D01*
Y74940D01*
X142137D01*
Y74860D01*
X142057D01*
Y74780D01*
Y74700D01*
X141897D01*
Y74620D01*
X141817D01*
Y74540D01*
X141577D01*
Y74460D01*
X141657D01*
Y74380D01*
X141737D01*
Y74300D01*
X141817D01*
Y74220D01*
X141737D01*
Y74140D01*
X141817D01*
Y74060D01*
X141897D01*
Y73980D01*
Y73900D01*
Y73820D01*
X141977D01*
Y73900D01*
X142057D01*
Y73980D01*
X142137D01*
Y74060D01*
X142057D01*
Y74140D01*
X142137D01*
Y74220D01*
X142217D01*
Y74300D01*
Y74380D01*
Y74460D01*
X142297D01*
Y74540D01*
Y74620D01*
X142457D01*
Y74700D01*
X142377D01*
Y74780D01*
X142457D01*
Y74860D01*
X142377D01*
Y74940D01*
X142457D01*
Y75020D01*
X142537D01*
Y75100D01*
X142617D01*
Y75180D01*
X142537D01*
Y75260D01*
X142697D01*
Y75340D01*
Y75420D01*
X142777D01*
Y75500D01*
X142697D01*
Y75580D01*
X142777D01*
Y75660D01*
X142857D01*
Y75740D01*
X142937D01*
Y75820D01*
X142857D01*
Y75900D01*
X143017D01*
Y75980D01*
Y76060D01*
X143097D01*
Y76140D01*
X143177D01*
Y76220D01*
X143257D01*
Y76300D01*
X143177D01*
Y76380D01*
X143257D01*
Y76460D01*
X143337D01*
Y76540D01*
X143417D01*
Y76620D01*
X143497D01*
Y76700D01*
X143577D01*
Y76620D01*
X143657D01*
Y76700D01*
X143737D01*
Y76780D01*
X143817D01*
Y76700D01*
X143897D01*
Y76780D01*
X143977D01*
Y76860D01*
X144057D01*
Y76780D01*
X144137D01*
Y76860D01*
X144217D01*
Y76780D01*
X144297D01*
Y76860D01*
X144377D01*
Y76780D01*
X144457D01*
Y76860D01*
X144537D01*
Y76780D01*
X144617D01*
Y76700D01*
X144857D01*
Y76620D01*
X144937D01*
Y76540D01*
X145177D01*
Y76460D01*
X145257D01*
Y76380D01*
X145337D01*
Y76300D01*
X145417D01*
Y76220D01*
X145497D01*
Y76140D01*
X145577D01*
Y76060D01*
X145657D01*
Y75980D01*
X145737D01*
Y75900D01*
X145817D01*
Y75820D01*
X145897D01*
Y75740D01*
X145977D01*
Y75660D01*
X146057D01*
Y75580D01*
X146137D01*
Y75500D01*
X146057D01*
Y75420D01*
X146137D01*
Y75340D01*
X146217D01*
Y75260D01*
X146297D01*
Y75180D01*
X146217D01*
Y75260D01*
X146137D01*
Y75180D01*
X146217D01*
Y75100D01*
X146137D01*
Y75020D01*
X146217D01*
Y74940D01*
X146297D01*
Y74860D01*
X146217D01*
Y74780D01*
X146137D01*
Y74700D01*
X146217D01*
Y74620D01*
X146297D01*
Y74540D01*
X146217D01*
Y74460D01*
X146137D01*
Y74380D01*
X146057D01*
Y74300D01*
X146137D01*
Y74220D01*
X146057D01*
Y74140D01*
X146297D01*
Y74060D01*
X146377D01*
Y73980D01*
X146457D01*
Y73900D01*
X146377D01*
Y73820D01*
X146537D01*
Y73740D01*
Y73660D01*
X146617D01*
Y73580D01*
X146697D01*
Y73500D01*
X146777D01*
Y73420D01*
X146697D01*
Y73340D01*
X146777D01*
Y73260D01*
X146857D01*
Y73180D01*
X146777D01*
Y73100D01*
X146857D01*
Y73020D01*
X146937D01*
Y72940D01*
X146857D01*
Y72860D01*
Y72780D01*
Y72700D01*
X146937D01*
Y72620D01*
X146857D01*
Y72540D01*
Y72460D01*
Y72380D01*
X146937D01*
Y72300D01*
X146857D01*
Y72220D01*
X146777D01*
Y72140D01*
Y72060D01*
Y71980D01*
X146697D01*
Y71900D01*
X146617D01*
Y71820D01*
X146537D01*
Y71740D01*
X146617D01*
Y71660D01*
X146377D01*
Y71580D01*
X146297D01*
Y71500D01*
X146057D01*
Y71420D01*
X145977D01*
Y71340D01*
X144777D01*
Y71420D01*
X144697D01*
Y71500D01*
X144457D01*
Y71580D01*
X144217D01*
Y71660D01*
X144137D01*
Y71740D01*
X144057D01*
Y71820D01*
X143977D01*
Y71900D01*
X143897D01*
Y71980D01*
X143657D01*
Y71900D01*
X143737D01*
Y71820D01*
X143657D01*
Y71740D01*
X143577D01*
Y71660D01*
X143497D01*
Y71580D01*
X143417D01*
Y71500D01*
X143257D01*
Y71420D01*
Y71340D01*
X143177D01*
Y71420D01*
X143097D01*
Y71340D01*
X143017D01*
Y71260D01*
X142937D01*
Y71340D01*
X142857D01*
Y71260D01*
X142937D01*
Y71180D01*
X142857D01*
Y71260D01*
X142617D01*
Y71180D01*
X142537D01*
Y71260D01*
X142457D01*
Y71340D01*
X142377D01*
Y71260D01*
X142297D01*
Y71340D01*
X142217D01*
Y71420D01*
X142137D01*
Y71500D01*
X142057D01*
Y71580D01*
X141977D01*
Y71660D01*
X141737D01*
Y71740D01*
X141817D01*
Y71820D01*
X141577D01*
Y71900D01*
X141657D01*
Y71980D01*
X141417D01*
Y72060D01*
X141497D01*
Y72140D01*
X141257D01*
Y72060D01*
Y71980D01*
X141097D01*
Y71900D01*
X141017D01*
Y71820D01*
X140937D01*
Y71740D01*
X140857D01*
Y71660D01*
X140777D01*
Y71580D01*
X140697D01*
Y71660D01*
X140617D01*
Y71580D01*
X140697D01*
Y71500D01*
X140617D01*
Y71580D01*
X140537D01*
Y71500D01*
X140297D01*
Y71420D01*
X140217D01*
Y71340D01*
X140137D01*
Y71420D01*
X140057D01*
Y71340D01*
X139177D01*
Y71420D01*
X139097D01*
Y71500D01*
X139017D01*
Y71580D01*
X138937D01*
Y71660D01*
X138697D01*
Y71740D01*
X138617D01*
Y71820D01*
X138537D01*
Y71900D01*
X138457D01*
Y71980D01*
X138377D01*
Y72060D01*
X138297D01*
Y72140D01*
X138217D01*
Y72220D01*
X138137D01*
Y72300D01*
X138057D01*
Y72380D01*
X137977D01*
Y72460D01*
X137897D01*
Y72540D01*
X137817D01*
Y72620D01*
X137737D01*
Y72700D01*
X137817D01*
Y72780D01*
X137737D01*
Y72860D01*
X137657D01*
Y72940D01*
X137577D01*
Y73020D01*
X137657D01*
Y73100D01*
X137577D01*
Y73180D01*
X137657D01*
Y73260D01*
X137577D01*
Y73340D01*
X137657D01*
Y73420D01*
X137737D01*
Y73500D01*
X137817D01*
Y73580D01*
X137897D01*
Y73500D01*
X137977D01*
Y73580D01*
X137897D01*
Y73660D01*
X137977D01*
Y73580D01*
X138057D01*
Y73500D01*
X138137D01*
Y73580D01*
X138217D01*
Y73500D01*
X138297D01*
Y73580D01*
X138217D01*
Y73660D01*
X138297D01*
Y73580D01*
X138377D01*
Y73500D01*
X138457D01*
Y73580D01*
X138377D01*
Y73660D01*
X138297D01*
Y73740D01*
Y73820D01*
Y73900D01*
X138217D01*
Y73980D01*
X138297D01*
Y74060D01*
X138217D01*
Y74140D01*
X138297D01*
Y74220D01*
X138217D01*
Y74300D01*
X138297D01*
Y74380D01*
X138217D01*
Y74460D01*
Y74540D01*
Y74620D01*
X138137D01*
Y74700D01*
X138057D01*
Y74620D01*
X137977D01*
Y74700D01*
X137897D01*
Y74780D01*
Y74860D01*
X137817D01*
Y74940D01*
Y75020D01*
X137737D01*
Y75100D01*
X137657D01*
Y75180D01*
X137577D01*
Y75260D01*
X137497D01*
Y75180D01*
Y75100D01*
Y75020D01*
Y74940D01*
Y74860D01*
X137577D01*
Y74780D01*
X137497D01*
Y74700D01*
Y74620D01*
Y74540D01*
Y74460D01*
Y74380D01*
Y74300D01*
Y74220D01*
X137577D01*
Y74140D01*
X137497D01*
Y74060D01*
Y73980D01*
Y73900D01*
Y73820D01*
Y73740D01*
Y73660D01*
Y73580D01*
Y73500D01*
Y73420D01*
Y73340D01*
Y73260D01*
X137417D01*
Y73180D01*
X137497D01*
Y73100D01*
X137417D01*
Y73020D01*
X137497D01*
Y72940D01*
X137417D01*
Y72860D01*
X137497D01*
Y72780D01*
X137417D01*
Y72700D01*
X137497D01*
Y72620D01*
X137417D01*
Y72540D01*
X137497D01*
Y72460D01*
X137417D01*
Y72380D01*
X137337D01*
Y72300D01*
Y72220D01*
Y72140D01*
X137257D01*
Y72060D01*
X137337D01*
Y71980D01*
X137257D01*
Y71900D01*
X137177D01*
Y71820D01*
X137097D01*
Y71740D01*
X137177D01*
Y71660D01*
X137097D01*
Y71580D01*
X137017D01*
Y71500D01*
X136937D01*
Y71420D01*
X136857D01*
Y71340D01*
X136617D01*
Y71260D01*
X136537D01*
Y71340D01*
X136457D01*
Y71260D01*
X136377D01*
Y71340D01*
X136297D01*
Y71420D01*
X136217D01*
Y71340D01*
X136137D01*
Y71420D01*
X136057D01*
Y71500D01*
X135977D01*
Y71580D01*
X135897D01*
Y71660D01*
X135817D01*
Y71740D01*
X135737D01*
Y71820D01*
X135657D01*
Y71900D01*
X135577D01*
Y71980D01*
X135337D01*
Y72060D01*
X135257D01*
Y72140D01*
X135177D01*
Y72220D01*
X135257D01*
Y72300D01*
X135017D01*
Y72380D01*
X135097D01*
Y72460D01*
Y72540D01*
Y72620D01*
X135017D01*
Y72700D01*
X135097D01*
Y72780D01*
X135177D01*
Y72860D01*
X135257D01*
Y72940D01*
X135177D01*
Y73020D01*
X135257D01*
Y73100D01*
X135177D01*
Y73180D01*
X135257D01*
Y73260D01*
Y73340D01*
X135337D01*
Y73420D01*
Y73500D01*
X135257D01*
Y73580D01*
X135337D01*
Y73660D01*
X135417D01*
Y73740D01*
X135337D01*
Y73820D01*
X135417D01*
Y73900D01*
X135337D01*
Y73980D01*
X135417D01*
Y74060D01*
X135337D01*
Y74140D01*
X135417D01*
Y74220D01*
X135337D01*
Y74300D01*
X135257D01*
Y74220D01*
X135177D01*
Y74140D01*
X135097D01*
Y74060D01*
X135017D01*
Y73980D01*
X135097D01*
Y73900D01*
X135017D01*
Y73820D01*
X134937D01*
Y73740D01*
X134857D01*
Y73660D01*
X134937D01*
Y73580D01*
X134857D01*
Y73500D01*
Y73420D01*
Y73340D01*
X134777D01*
Y73260D01*
Y73180D01*
Y73100D01*
X134697D01*
Y73020D01*
X134777D01*
Y72940D01*
X134697D01*
Y72860D01*
X134777D01*
Y72780D01*
X134697D01*
Y72700D01*
X134777D01*
Y72620D01*
X134697D01*
Y72540D01*
X134777D01*
Y72460D01*
X134697D01*
Y72380D01*
X134777D01*
Y72300D01*
X134857D01*
Y72220D01*
X134937D01*
Y72140D01*
Y72060D01*
X135097D01*
Y71980D01*
X135017D01*
Y71900D01*
X135097D01*
Y71820D01*
X135177D01*
Y71740D01*
X135257D01*
Y71660D01*
X135337D01*
Y71580D01*
X135417D01*
Y71500D01*
X135497D01*
Y71420D01*
X135577D01*
Y71340D01*
X135657D01*
Y71260D01*
X135897D01*
Y71180D01*
X135977D01*
Y71100D01*
X136057D01*
Y71020D01*
X136137D01*
Y70940D01*
X136217D01*
Y70860D01*
X136137D01*
Y70780D01*
X136217D01*
Y70700D01*
X136297D01*
Y70620D01*
X136217D01*
Y70540D01*
Y70460D01*
Y70380D01*
X136137D01*
Y70300D01*
Y70220D01*
X135977D01*
Y70140D01*
X136057D01*
Y70060D01*
X135977D01*
Y69980D01*
X135897D01*
Y70060D01*
X135817D01*
Y69980D01*
X135897D01*
Y69900D01*
X135817D01*
Y69820D01*
X135737D01*
Y69900D01*
X135657D01*
Y69820D01*
X135737D01*
Y69740D01*
X135657D01*
Y69660D01*
X135577D01*
Y69580D01*
X135497D01*
Y69500D01*
X135417D01*
Y69580D01*
X135337D01*
Y69500D01*
X135417D01*
Y69420D01*
X135337D01*
Y69500D01*
X135257D01*
Y69420D01*
X135177D01*
Y69500D01*
X135097D01*
Y69420D01*
X135017D01*
Y69500D01*
X134937D01*
Y69580D01*
X134857D01*
Y69500D01*
X134937D01*
Y69420D01*
X134857D01*
Y69500D01*
X134777D01*
Y69580D01*
X134697D01*
Y69660D01*
X134617D01*
Y69740D01*
X134537D01*
Y69820D01*
X134457D01*
Y69900D01*
X134377D01*
Y69980D01*
X134297D01*
Y70060D01*
X134217D01*
Y70140D01*
X134137D01*
Y70220D01*
X134057D01*
Y70300D01*
X133977D01*
Y70380D01*
X133897D01*
Y70460D01*
X133817D01*
Y70540D01*
Y70620D01*
Y70700D01*
X133737D01*
Y70780D01*
X133817D01*
Y70860D01*
X133897D01*
Y70940D01*
X133977D01*
Y71020D01*
X133897D01*
Y71100D01*
X133977D01*
Y71180D01*
X134057D01*
Y71260D01*
X133977D01*
Y71340D01*
X133897D01*
Y71420D01*
X133817D01*
Y71500D01*
X133737D01*
Y71580D01*
X133657D01*
Y71660D01*
X133577D01*
Y71740D01*
X133497D01*
Y71820D01*
X133417D01*
Y71900D01*
X133337D01*
Y71980D01*
X133257D01*
Y72060D01*
X133337D01*
Y72140D01*
X133257D01*
Y72220D01*
X133177D01*
Y72300D01*
X133097D01*
Y72380D01*
Y72460D01*
X132937D01*
Y72540D01*
X133017D01*
Y72620D01*
X132937D01*
Y72700D01*
X132857D01*
Y72780D01*
Y72860D01*
Y72940D01*
X132777D01*
Y73020D01*
X132857D01*
Y73100D01*
X132777D01*
Y73180D01*
X132697D01*
Y73260D01*
Y73340D01*
Y73420D01*
Y73500D01*
Y73580D01*
Y73660D01*
Y73740D01*
X132617D01*
Y73820D01*
X132697D01*
Y73900D01*
Y73980D01*
Y74060D01*
Y74140D01*
Y74220D01*
Y74300D01*
Y74380D01*
X132777D01*
Y74460D01*
X132697D01*
Y74540D01*
X132777D01*
Y74620D01*
X132857D01*
Y74700D01*
X132777D01*
Y74780D01*
X132857D01*
Y74860D01*
X132937D01*
Y74940D01*
Y75020D01*
Y75100D01*
X133017D01*
Y75180D01*
X133097D01*
Y75260D01*
X133177D01*
Y75340D01*
X133097D01*
Y75420D01*
X133177D01*
Y75500D01*
X133257D01*
Y75580D01*
X133337D01*
Y75660D01*
X133417D01*
Y75740D01*
Y75820D01*
Y75900D01*
X133497D01*
Y75980D01*
X133577D01*
Y76060D01*
X133657D01*
Y76140D01*
X133417D01*
Y76220D01*
X133497D01*
Y76300D01*
X133417D01*
Y76380D01*
X133337D01*
Y76460D01*
X133257D01*
Y76540D01*
X133337D01*
Y76620D01*
X133257D01*
Y76700D01*
X133337D01*
Y76780D01*
X133257D01*
Y76860D01*
X133337D01*
Y76940D01*
X133257D01*
Y77020D01*
X133337D01*
Y77100D01*
X133257D01*
Y77180D01*
X133337D01*
Y77260D01*
Y77340D01*
Y77420D01*
Y77500D01*
Y77580D01*
X133177D01*
Y77660D01*
Y77740D01*
X132937D01*
Y77820D01*
X132857D01*
Y77900D01*
X132777D01*
Y77980D01*
X132857D01*
Y78060D01*
X132777D01*
Y78140D01*
X132697D01*
Y78220D01*
X132617D01*
Y78300D01*
X132697D01*
Y78380D01*
Y78460D01*
Y78540D01*
X132777D01*
Y78620D01*
X132857D01*
Y78700D01*
X132777D01*
Y78780D01*
X133017D01*
Y78860D01*
X133097D01*
Y78940D01*
X133337D01*
Y79020D01*
X133417D01*
Y79100D01*
X133497D01*
Y79020D01*
X133577D01*
Y79100D01*
X134457D01*
Y79020D01*
X134537D01*
Y79100D01*
X134617D01*
Y79020D01*
X134697D01*
Y79100D01*
X134777D01*
Y79020D01*
D02*
G37*
G36*
X159417Y78700D02*
X159337D01*
Y78780D01*
X159417D01*
Y78700D01*
D02*
G37*
G36*
X182509Y93501D02*
X182511Y93500D01*
X182513Y93499D01*
X182513Y93499D01*
X182513Y93499D01*
X182514Y93497D01*
X182515Y93495D01*
X182515Y93495D01*
X182515Y93495D01*
X182514Y93493D01*
X182513Y93491D01*
X182513Y93491D01*
X182513Y93491D01*
X182513Y93491D01*
X182525Y93363D01*
X182569Y93219D01*
X182640Y93087D01*
X182735Y92971D01*
X182851Y92876D01*
X182983Y92805D01*
X183127Y92761D01*
X183255Y92749D01*
X183255Y92749D01*
X183255Y92749D01*
X183255Y92749D01*
X183257Y92750D01*
X183259Y92751D01*
X183259Y92750D01*
X183259Y92751D01*
X183261Y92750D01*
X183263Y92749D01*
X183263Y92749D01*
X183263Y92749D01*
X183264Y92747D01*
X183265Y92745D01*
Y92113D01*
X183265Y92109D01*
X183264Y92108D01*
X183263Y92106D01*
X183263Y92106D01*
X183263Y92106D01*
X183261Y92105D01*
X183260Y92104D01*
X183244Y92103D01*
X183244Y92103D01*
X183243Y92103D01*
X183029Y92120D01*
X183028Y92120D01*
X183028Y92120D01*
X182819Y92170D01*
X182818Y92170D01*
X182818D01*
X182619Y92253D01*
X182619Y92253D01*
X182618Y92253D01*
X182435Y92365D01*
X182434Y92366D01*
X182434Y92366D01*
X182270Y92506D01*
X182270Y92506D01*
X182270Y92506D01*
X182130Y92670D01*
X182130Y92670D01*
X182130Y92671D01*
X182017Y92854D01*
X182017Y92854D01*
X182017Y92855D01*
X181934Y93054D01*
Y93054D01*
X181934Y93054D01*
X181884Y93264D01*
X181884Y93264D01*
X181884Y93264D01*
X181867Y93479D01*
X181867Y93479D01*
X181867Y93480D01*
X181868Y93496D01*
X181869Y93497D01*
X181870Y93499D01*
X181870Y93499D01*
X181870Y93499D01*
X181872Y93500D01*
X181873Y93501D01*
X182509Y93501D01*
D02*
G37*
G36*
X153926Y93761D02*
X154166D01*
Y93681D01*
X154246D01*
Y93601D01*
X154406D01*
Y93521D01*
X154486D01*
Y93441D01*
Y93361D01*
X154566D01*
Y93281D01*
X154646D01*
Y93201D01*
Y93121D01*
X154726D01*
Y93041D01*
Y92961D01*
Y92881D01*
X154806D01*
Y92801D01*
Y92721D01*
Y92641D01*
Y92561D01*
Y92481D01*
Y92401D01*
Y92321D01*
Y92241D01*
Y92161D01*
X154726D01*
Y92081D01*
Y92001D01*
Y91921D01*
X154646D01*
Y91841D01*
X154566D01*
Y91761D01*
Y91681D01*
X154406D01*
Y91601D01*
X154326D01*
Y91521D01*
X154246D01*
Y91441D01*
X154166D01*
Y91361D01*
X154006D01*
Y91281D01*
X153686D01*
Y91201D01*
X153286D01*
Y91281D01*
X153046D01*
Y91361D01*
X152806D01*
Y91441D01*
X152726D01*
Y91521D01*
X152646D01*
Y91601D01*
X152486D01*
Y91681D01*
Y91761D01*
X152406D01*
Y91841D01*
X152326D01*
Y91921D01*
Y92001D01*
X152246D01*
Y92081D01*
Y92161D01*
X152166D01*
Y92241D01*
X152246D01*
Y92321D01*
Y92401D01*
X152166D01*
Y92481D01*
Y92561D01*
Y92641D01*
Y92721D01*
X152246D01*
Y92801D01*
Y92881D01*
X152166D01*
Y92961D01*
X152246D01*
Y93041D01*
X152326D01*
Y93121D01*
Y93201D01*
Y93281D01*
X152486D01*
Y93361D01*
Y93441D01*
X152566D01*
Y93521D01*
X152726D01*
Y93601D01*
Y93681D01*
X152886D01*
Y93761D01*
X153046D01*
Y93841D01*
X153926D01*
Y93761D01*
D02*
G37*
G36*
X129360Y69091D02*
X129361Y69090D01*
X129363Y69090D01*
X129363Y69089D01*
X129363Y69089D01*
X129364Y69088D01*
X129365Y69086D01*
X129365Y69086D01*
X129365Y69086D01*
X129364Y69084D01*
X129364Y69082D01*
X129363Y69082D01*
X129363Y69082D01*
X129363Y69082D01*
X129376Y68953D01*
X129419Y68810D01*
X129490Y68677D01*
X129585Y68561D01*
X129701Y68466D01*
X129833Y68395D01*
X129977Y68352D01*
X130106Y68339D01*
X130106Y68339D01*
X130106Y68340D01*
X130106Y68340D01*
X130108Y68340D01*
X130110Y68341D01*
X130110Y68341D01*
X130110Y68341D01*
X130112Y68340D01*
X130113Y68339D01*
X130113Y68339D01*
X130114Y68339D01*
X130114Y68338D01*
X130115Y68336D01*
Y67703D01*
X130115Y67700D01*
X130114Y67698D01*
X130114Y67696D01*
X130114Y67696D01*
X130114Y67696D01*
X130112Y67695D01*
X130110Y67695D01*
X130094Y67693D01*
X130094Y67693D01*
X130094Y67693D01*
X129879Y67710D01*
X129879Y67710D01*
X129878Y67710D01*
X129669Y67761D01*
X129669Y67761D01*
X129668D01*
X129469Y67843D01*
X129469Y67843D01*
X129469Y67844D01*
X129285Y67956D01*
X129285Y67956D01*
X129284Y67956D01*
X129121Y68096D01*
X129121Y68097D01*
X129120Y68097D01*
X128980Y68260D01*
X128980Y68261D01*
X128980Y68261D01*
X128867Y68445D01*
X128867Y68445D01*
X128867Y68445D01*
X128785Y68644D01*
Y68645D01*
X128784Y68645D01*
X128734Y68854D01*
X128734Y68855D01*
X128734Y68855D01*
X128717Y69070D01*
X128717Y69070D01*
X128717Y69070D01*
X128718Y69086D01*
X128719Y69088D01*
X128720Y69090D01*
X128720Y69090D01*
X128720Y69090D01*
X128722Y69090D01*
X128724Y69091D01*
X129360Y69091D01*
D02*
G37*
G36*
X130147Y93501D02*
X130149Y93500D01*
X130151Y93499D01*
X130151Y93499D01*
X130151Y93499D01*
X130152Y93497D01*
X130152Y93495D01*
X130152Y93495D01*
X130152Y93495D01*
X130152Y93493D01*
X130151Y93491D01*
X130151Y93491D01*
X130151Y93491D01*
X130151Y93491D01*
X130163Y93363D01*
X130207Y93219D01*
X130278Y93087D01*
X130373Y92971D01*
X130489Y92876D01*
X130621Y92805D01*
X130764Y92761D01*
X130893Y92749D01*
X130893Y92749D01*
X130893Y92749D01*
X130893Y92749D01*
X130895Y92750D01*
X130897Y92751D01*
X130897Y92750D01*
X130897Y92751D01*
X130899Y92750D01*
X130901Y92749D01*
X130901Y92749D01*
X130901Y92749D01*
X130902Y92747D01*
X130902Y92745D01*
Y92113D01*
X130902Y92109D01*
X130902Y92108D01*
X130901Y92106D01*
X130901Y92106D01*
X130901Y92106D01*
X130899Y92105D01*
X130897Y92104D01*
X130882Y92103D01*
X130881Y92103D01*
X130881Y92103D01*
X130666Y92120D01*
X130666Y92120D01*
X130666Y92120D01*
X130456Y92170D01*
X130456Y92170D01*
X130456D01*
X130257Y92253D01*
X130256Y92253D01*
X130256Y92253D01*
X130072Y92365D01*
X130072Y92366D01*
X130072Y92366D01*
X129908Y92506D01*
X129908Y92506D01*
X129908Y92506D01*
X129768Y92670D01*
X129768Y92670D01*
X129767Y92671D01*
X129655Y92854D01*
X129655Y92854D01*
X129654Y92855D01*
X129572Y93054D01*
Y93054D01*
X129572Y93054D01*
X129522Y93264D01*
X129522Y93264D01*
X129522Y93264D01*
X129505Y93479D01*
X129505Y93479D01*
X129505Y93480D01*
X129506Y93496D01*
X129507Y93497D01*
X129507Y93499D01*
X129508Y93499D01*
X129508Y93499D01*
X129510Y93500D01*
X129511Y93501D01*
X130147Y93501D01*
D02*
G37*
G36*
X130906Y94911D02*
X130906Y94911D01*
X131091Y94897D01*
X131091Y94896D01*
X131091Y94896D01*
X131312Y94843D01*
X131313Y94843D01*
X131313D01*
X131523Y94756D01*
X131523Y94756D01*
X131523Y94756D01*
X131717Y94637D01*
X131717Y94637D01*
X131718Y94637D01*
X131890Y94489D01*
X131891Y94489D01*
X131891Y94489D01*
X132038Y94316D01*
X132039Y94316D01*
X132039Y94315D01*
X132158Y94122D01*
X132158Y94121D01*
X132158Y94121D01*
X132245Y93911D01*
Y93911D01*
X132245Y93911D01*
X132298Y93690D01*
X132298Y93689D01*
X132298Y93689D01*
X132313Y93504D01*
X132313Y93504D01*
X132313Y93504D01*
X132312Y93502D01*
X132311Y93500D01*
X132311Y93500D01*
X132311Y93500D01*
X132309Y93499D01*
X132308Y93499D01*
X132308Y93499D01*
X132307Y93499D01*
X132306Y93499D01*
X132306Y93499D01*
X132306Y93499D01*
X131658Y93499D01*
X131656Y93499D01*
X131654Y93500D01*
X131654Y93500D01*
X131654Y93500D01*
X131653Y93502D01*
X131652Y93503D01*
X131639Y93637D01*
X131596Y93780D01*
X131525Y93912D01*
X131430Y94028D01*
X131314Y94123D01*
X131182Y94194D01*
X131038Y94238D01*
X130909Y94250D01*
X130909Y94250D01*
X130909Y94250D01*
X130909Y94250D01*
X130907Y94249D01*
X130906Y94249D01*
X130905Y94249D01*
X130905Y94249D01*
X130904Y94249D01*
X130902Y94250D01*
X130902Y94250D01*
X130902Y94250D01*
X130901Y94252D01*
X130900Y94254D01*
X130900Y94906D01*
X130900Y94906D01*
X130900Y94906D01*
X130901Y94908D01*
X130902Y94910D01*
X130902Y94910D01*
X130902Y94910D01*
X130904Y94910D01*
X130906Y94911D01*
X130906Y94911D01*
D02*
G37*
G36*
X183268D02*
X183268Y94911D01*
X183453Y94897D01*
X183453Y94896D01*
X183454Y94896D01*
X183674Y94843D01*
X183675Y94843D01*
X183675D01*
X183885Y94756D01*
X183885Y94756D01*
X183886Y94756D01*
X184079Y94637D01*
X184080Y94637D01*
X184080Y94637D01*
X184253Y94489D01*
X184253Y94489D01*
X184253Y94489D01*
X184401Y94316D01*
X184401Y94316D01*
X184401Y94315D01*
X184520Y94122D01*
X184520Y94121D01*
X184520Y94121D01*
X184607Y93911D01*
Y93911D01*
X184607Y93911D01*
X184660Y93690D01*
X184660Y93689D01*
X184660Y93689D01*
X184675Y93504D01*
X184675Y93504D01*
X184675Y93504D01*
X184674Y93502D01*
X184674Y93500D01*
X184673Y93500D01*
X184673Y93500D01*
X184672Y93499D01*
X184670Y93499D01*
X184670Y93499D01*
X184670Y93499D01*
X184668Y93499D01*
X184668Y93499D01*
X184668Y93499D01*
X184020Y93499D01*
X184018Y93499D01*
X184017Y93500D01*
X184016Y93500D01*
X184016Y93500D01*
X184015Y93502D01*
X184015Y93503D01*
X184001Y93637D01*
X183958Y93780D01*
X183887Y93912D01*
X183792Y94028D01*
X183676Y94123D01*
X183544Y94194D01*
X183400Y94238D01*
X183272Y94250D01*
X183272Y94250D01*
X183271Y94250D01*
X183271Y94250D01*
X183270Y94249D01*
X183268Y94249D01*
X183268Y94249D01*
X183268Y94249D01*
X183266Y94249D01*
X183264Y94250D01*
X183264Y94250D01*
X183264Y94250D01*
X183263Y94252D01*
X183262Y94254D01*
X183262Y94906D01*
X183262Y94906D01*
X183262Y94906D01*
X183263Y94908D01*
X183264Y94910D01*
X183264Y94910D01*
X183264Y94910D01*
X183266Y94910D01*
X183268Y94911D01*
X183268Y94911D01*
D02*
G37*
G36*
X173017Y72140D02*
X172937D01*
Y72220D01*
X173017D01*
Y72140D01*
D02*
G37*
G36*
X182509Y69091D02*
X182511Y69090D01*
X182513Y69090D01*
X182513Y69089D01*
X182513Y69089D01*
X182514Y69088D01*
X182515Y69086D01*
X182515Y69086D01*
X182515Y69086D01*
X182514Y69084D01*
X182513Y69082D01*
X182513Y69082D01*
X182513Y69082D01*
X182513Y69082D01*
X182525Y68953D01*
X182569Y68810D01*
X182640Y68677D01*
X182735Y68561D01*
X182851Y68466D01*
X182983Y68395D01*
X183127Y68352D01*
X183255Y68339D01*
X183255Y68339D01*
X183255Y68340D01*
X183255Y68340D01*
X183257Y68340D01*
X183259Y68341D01*
X183259Y68341D01*
X183259Y68341D01*
X183261Y68340D01*
X183263Y68339D01*
X183263Y68339D01*
X183263Y68339D01*
X183264Y68338D01*
X183265Y68336D01*
Y67703D01*
X183265Y67700D01*
X183264Y67698D01*
X183263Y67696D01*
X183263Y67696D01*
X183263Y67696D01*
X183261Y67695D01*
X183260Y67695D01*
X183244Y67693D01*
X183244Y67693D01*
X183243Y67693D01*
X183029Y67710D01*
X183028Y67710D01*
X183028Y67710D01*
X182819Y67761D01*
X182818Y67761D01*
X182818D01*
X182619Y67843D01*
X182619Y67843D01*
X182618Y67844D01*
X182435Y67956D01*
X182434Y67956D01*
X182434Y67956D01*
X182270Y68096D01*
X182270Y68097D01*
X182270Y68097D01*
X182130Y68260D01*
X182130Y68261D01*
X182130Y68261D01*
X182017Y68445D01*
X182017Y68445D01*
X182017Y68445D01*
X181934Y68644D01*
Y68645D01*
X181934Y68645D01*
X181884Y68854D01*
X181884Y68855D01*
X181884Y68855D01*
X181867Y69070D01*
X181867Y69070D01*
X181867Y69070D01*
X181868Y69086D01*
X181869Y69088D01*
X181870Y69090D01*
X181870Y69090D01*
X181870Y69090D01*
X181872Y69090D01*
X181873Y69091D01*
X182509Y69091D01*
D02*
G37*
G36*
X177977Y94478D02*
Y94398D01*
Y94318D01*
Y94238D01*
X178057D01*
Y94158D01*
X178377D01*
Y94078D01*
X181017D01*
Y93998D01*
X181097D01*
Y93918D01*
X181017D01*
Y93838D01*
X180937D01*
Y93758D01*
X180857D01*
Y93678D01*
X180777D01*
Y93598D01*
Y93518D01*
X180697D01*
Y93438D01*
X180537D01*
Y93518D01*
X180457D01*
Y93598D01*
X180377D01*
Y93518D01*
X180217D01*
Y93438D01*
Y93358D01*
Y93278D01*
X180377D01*
Y93198D01*
X180297D01*
Y93118D01*
X180137D01*
Y93198D01*
X179977D01*
Y93118D01*
X180137D01*
Y93038D01*
X180057D01*
Y92958D01*
X179897D01*
Y92878D01*
X179737D01*
Y92798D01*
X179577D01*
Y92718D01*
X179417D01*
Y92638D01*
X179177D01*
Y92558D01*
X178857D01*
Y92478D01*
X178377D01*
Y92398D01*
X178057D01*
Y92318D01*
X177817D01*
Y92398D01*
X177417D01*
Y92318D01*
X177497D01*
Y92238D01*
Y92158D01*
X177577D01*
Y92238D01*
X177657D01*
Y92318D01*
X177817D01*
Y92238D01*
X177737D01*
Y92158D01*
X177657D01*
Y92078D01*
X177577D01*
Y91998D01*
X177497D01*
Y92078D01*
X177417D01*
Y91998D01*
X177497D01*
Y91918D01*
Y91838D01*
Y91758D01*
Y91678D01*
Y91598D01*
Y91518D01*
Y91438D01*
Y91358D01*
Y91278D01*
X177577D01*
Y91198D01*
Y91118D01*
X177657D01*
Y91038D01*
X177737D01*
Y90958D01*
X177817D01*
Y90878D01*
X177897D01*
Y90798D01*
X177977D01*
Y90718D01*
X178137D01*
Y90638D01*
X178217D01*
Y90558D01*
X178457D01*
Y90478D01*
X178697D01*
Y90398D01*
X178777D01*
Y90318D01*
Y90238D01*
Y90158D01*
Y90078D01*
Y89998D01*
Y89918D01*
Y89838D01*
Y89758D01*
Y89678D01*
X177657D01*
Y89758D01*
X177497D01*
Y89838D01*
X177417D01*
Y89918D01*
X177257D01*
Y89998D01*
X177097D01*
Y90078D01*
X176697D01*
Y90158D01*
X176377D01*
Y90078D01*
X175977D01*
Y89998D01*
X175817D01*
Y89918D01*
X175657D01*
Y89838D01*
X175497D01*
Y89758D01*
X175417D01*
Y89678D01*
X175257D01*
Y89598D01*
X174217D01*
Y89678D01*
Y89758D01*
Y89838D01*
Y89918D01*
Y89998D01*
Y90078D01*
Y90158D01*
Y90238D01*
Y90318D01*
Y90398D01*
Y90478D01*
X174297D01*
Y90558D01*
X174377D01*
Y90638D01*
Y90718D01*
X174457D01*
Y90798D01*
X174537D01*
Y90878D01*
X174617D01*
Y90958D01*
X174777D01*
Y91038D01*
X175017D01*
Y90958D01*
X174937D01*
Y90878D01*
X174857D01*
Y90798D01*
X174697D01*
Y90718D01*
X174617D01*
Y90638D01*
Y90558D01*
X174777D01*
Y90478D01*
X174697D01*
Y90398D01*
X174777D01*
Y90318D01*
X175017D01*
Y90238D01*
X175177D01*
Y90158D01*
Y90078D01*
Y89998D01*
Y89918D01*
X175337D01*
Y89838D01*
X175417D01*
Y89918D01*
X175497D01*
Y89998D01*
X175337D01*
Y90078D01*
X175417D01*
Y90158D01*
Y90238D01*
X175497D01*
Y90318D01*
Y90398D01*
X175577D01*
Y90478D01*
X175657D01*
Y90558D01*
X175737D01*
Y90638D01*
X175817D01*
Y90718D01*
X175977D01*
Y90798D01*
X176057D01*
Y90878D01*
X176857D01*
Y90798D01*
X177017D01*
Y90718D01*
X177177D01*
Y90638D01*
X177257D01*
Y90558D01*
X177337D01*
Y90478D01*
X177417D01*
Y90398D01*
X177497D01*
Y90318D01*
Y90238D01*
X177577D01*
Y90158D01*
Y90078D01*
Y89998D01*
Y89918D01*
X177657D01*
Y89998D01*
X177737D01*
Y90078D01*
Y90158D01*
X177817D01*
Y90238D01*
X177897D01*
Y90318D01*
X178297D01*
Y90398D01*
Y90478D01*
X177657D01*
Y90558D01*
X177577D01*
Y90638D01*
X177497D01*
Y90718D01*
X177417D01*
Y90798D01*
X177337D01*
Y90878D01*
X177257D01*
Y90958D01*
X177177D01*
Y91038D01*
X177017D01*
Y91118D01*
X176937D01*
Y91198D01*
X176777D01*
Y91278D01*
X176217D01*
Y91198D01*
X176057D01*
Y91118D01*
X175977D01*
Y91038D01*
X175897D01*
Y90958D01*
X175817D01*
Y90878D01*
X175737D01*
Y90798D01*
X175657D01*
Y90718D01*
X175577D01*
Y90638D01*
X175417D01*
Y90718D01*
X175177D01*
Y90638D01*
X175417D01*
Y90558D01*
X175257D01*
Y90478D01*
X174857D01*
Y90558D01*
X174777D01*
Y90638D01*
X174937D01*
Y90718D01*
X175017D01*
Y90798D01*
X175097D01*
Y90878D01*
X175257D01*
Y90798D01*
X175337D01*
Y90878D01*
X175257D01*
Y90958D01*
Y91038D01*
X175337D01*
Y91118D01*
X175417D01*
Y91038D01*
Y90958D01*
X175497D01*
Y90878D01*
Y90798D01*
X175577D01*
Y90878D01*
X175657D01*
Y90958D01*
X175497D01*
Y91038D01*
Y91118D01*
X175417D01*
Y91198D01*
X175497D01*
Y91278D01*
Y91358D01*
X175577D01*
Y91438D01*
Y91518D01*
Y91598D01*
Y91678D01*
Y91758D01*
Y91838D01*
Y91918D01*
Y91998D01*
Y92078D01*
Y92158D01*
Y92238D01*
X175497D01*
Y92318D01*
Y92398D01*
X175417D01*
Y92478D01*
Y92558D01*
X175337D01*
Y92638D01*
X175257D01*
Y92718D01*
Y92798D01*
X175177D01*
Y92878D01*
X175017D01*
Y92958D01*
X174937D01*
Y93038D01*
X174857D01*
Y93118D01*
X174697D01*
Y93198D01*
X174537D01*
Y93278D01*
X174377D01*
Y93358D01*
X174137D01*
Y93438D01*
X173817D01*
Y93518D01*
X173417D01*
Y93598D01*
X173017D01*
Y93678D01*
X172857D01*
Y93758D01*
X172777D01*
Y93838D01*
Y93918D01*
Y93998D01*
Y94078D01*
Y94158D01*
Y94238D01*
Y94318D01*
Y94398D01*
Y94478D01*
Y94558D01*
X172857D01*
Y94478D01*
X172937D01*
Y94398D01*
X172857D01*
Y94318D01*
Y94238D01*
Y94158D01*
Y94078D01*
X172937D01*
Y94158D01*
X177657D01*
Y94078D01*
X177737D01*
Y93998D01*
X177817D01*
Y93918D01*
X177737D01*
Y93838D01*
X177897D01*
Y93918D01*
Y93998D01*
Y94078D01*
Y94158D01*
X177817D01*
Y94238D01*
Y94318D01*
Y94398D01*
Y94478D01*
X172937D01*
Y94558D01*
X177977D01*
Y94478D01*
D02*
G37*
G36*
X178057Y91038D02*
X178297D01*
Y90958D01*
X178457D01*
Y90878D01*
X178537D01*
Y90798D01*
X178617D01*
Y90718D01*
X178457D01*
Y90798D01*
X178217D01*
Y90878D01*
X178137D01*
Y90958D01*
X178057D01*
Y91038D01*
X177897D01*
Y91118D01*
X178057D01*
Y91038D01*
D02*
G37*
%LPC*%
G36*
X156006Y91521D02*
X155446D01*
Y91441D01*
X155286D01*
Y91361D01*
X155126D01*
Y91281D01*
Y91201D01*
X155046D01*
Y91121D01*
Y91041D01*
X154966D01*
Y90961D01*
Y90881D01*
Y90801D01*
Y90721D01*
Y90641D01*
Y90561D01*
Y90481D01*
Y90401D01*
X155046D01*
Y90321D01*
Y90241D01*
X155126D01*
Y90161D01*
X155286D01*
Y90081D01*
X155366D01*
Y90001D01*
X155606D01*
Y89921D01*
X155846D01*
Y90001D01*
X156086D01*
Y90081D01*
X156166D01*
Y90161D01*
X156326D01*
Y90241D01*
Y90321D01*
X156406D01*
Y90401D01*
X156486D01*
Y90481D01*
Y90561D01*
Y90641D01*
X156566D01*
Y90721D01*
Y90801D01*
Y90881D01*
X156486D01*
Y90961D01*
Y91041D01*
Y91121D01*
Y91201D01*
X156326D01*
Y91281D01*
X156246D01*
Y91361D01*
X156166D01*
Y91441D01*
X156006D01*
Y91521D01*
D02*
G37*
%LPD*%
G36*
X155846Y91201D02*
X155606D01*
Y91121D01*
X155446D01*
Y91041D01*
X155366D01*
Y90961D01*
X155286D01*
Y90881D01*
Y90801D01*
X155206D01*
Y90881D01*
Y90961D01*
Y91041D01*
X155286D01*
Y91121D01*
X155366D01*
Y91201D01*
X155526D01*
Y91281D01*
X155846D01*
Y91201D01*
D02*
G37*
%LPC*%
G36*
X172057Y73900D02*
X171977D01*
Y73820D01*
X172057D01*
Y73740D01*
X171977D01*
Y73660D01*
X172057D01*
Y73580D01*
X172137D01*
Y73660D01*
Y73740D01*
Y73820D01*
X172057D01*
Y73900D01*
D02*
G37*
G36*
X167337Y76460D02*
X166697D01*
Y76380D01*
X166537D01*
Y76300D01*
X166457D01*
Y76220D01*
X166377D01*
Y76140D01*
X166297D01*
Y76060D01*
X166217D01*
Y75980D01*
Y75900D01*
X166137D01*
Y75820D01*
Y75740D01*
X166057D01*
Y75660D01*
X165977D01*
Y75580D01*
Y75500D01*
X165897D01*
Y75420D01*
Y75340D01*
X165817D01*
Y75260D01*
Y75180D01*
X165737D01*
Y75100D01*
Y75020D01*
X165657D01*
Y74940D01*
Y74860D01*
Y74780D01*
X165577D01*
Y74700D01*
Y74620D01*
X165497D01*
Y74540D01*
Y74460D01*
X165417D01*
Y74380D01*
Y74300D01*
X165337D01*
Y74220D01*
Y74140D01*
X165257D01*
Y74060D01*
Y73980D01*
Y73900D01*
X165177D01*
Y73820D01*
Y73740D01*
X165097D01*
Y73660D01*
Y73580D01*
X165017D01*
Y73500D01*
Y73420D01*
X164937D01*
Y73340D01*
Y73260D01*
Y73180D01*
X164857D01*
Y73100D01*
Y73020D01*
X164777D01*
Y72940D01*
X164697D01*
Y72860D01*
X164457D01*
Y72940D01*
X164537D01*
Y73020D01*
Y73100D01*
Y73180D01*
Y73260D01*
X164617D01*
Y73340D01*
Y73420D01*
Y73500D01*
Y73580D01*
Y73660D01*
Y73740D01*
Y73820D01*
Y73900D01*
Y73980D01*
Y74060D01*
Y74140D01*
Y74220D01*
X164537D01*
Y74300D01*
Y74380D01*
Y74460D01*
Y74540D01*
Y74620D01*
X164457D01*
Y74700D01*
Y74780D01*
X164377D01*
Y74860D01*
Y74940D01*
X164297D01*
Y75020D01*
Y75100D01*
X164217D01*
Y75180D01*
Y75260D01*
X164137D01*
Y75340D01*
X164057D01*
Y75420D01*
Y75500D01*
X163977D01*
Y75580D01*
X163897D01*
Y75660D01*
X163817D01*
Y75740D01*
X163737D01*
Y75820D01*
X163657D01*
Y75900D01*
X163577D01*
Y75980D01*
X163497D01*
Y76060D01*
X163417D01*
Y76140D01*
X163257D01*
Y76220D01*
X163097D01*
Y76300D01*
X162937D01*
Y76380D01*
X162777D01*
Y76460D01*
X161897D01*
Y76380D01*
X161657D01*
Y76300D01*
X161497D01*
Y76220D01*
X161337D01*
Y76140D01*
X161257D01*
Y76060D01*
X161177D01*
Y75980D01*
X161097D01*
Y75900D01*
Y75820D01*
X161017D01*
Y75740D01*
Y75660D01*
Y75580D01*
X161097D01*
Y75500D01*
X161177D01*
Y75420D01*
Y75340D01*
X161257D01*
Y75260D01*
X161337D01*
Y75180D01*
X161417D01*
Y75100D01*
X161497D01*
Y75020D01*
X161577D01*
Y74940D01*
X161657D01*
Y74860D01*
X161737D01*
Y74780D01*
Y74700D01*
Y74620D01*
X161657D01*
Y74540D01*
Y74460D01*
X161577D01*
Y74380D01*
Y74300D01*
Y74220D01*
Y74140D01*
X161497D01*
Y74060D01*
Y73980D01*
Y73900D01*
Y73820D01*
X161577D01*
Y73740D01*
X161657D01*
Y73660D01*
X161737D01*
Y73580D01*
X161977D01*
Y73660D01*
X162057D01*
Y73740D01*
X162137D01*
Y73820D01*
X162217D01*
Y73900D01*
Y73980D01*
Y74060D01*
Y74140D01*
Y74220D01*
Y74300D01*
X162137D01*
Y74380D01*
Y74460D01*
X162057D01*
Y74540D01*
Y74620D01*
X161977D01*
Y74700D01*
Y74780D01*
Y74860D01*
Y74940D01*
X162057D01*
Y75020D01*
X162137D01*
Y75100D01*
X162217D01*
Y75180D01*
X162377D01*
Y75260D01*
X162537D01*
Y75180D01*
X162457D01*
Y75100D01*
X162377D01*
Y75020D01*
X162297D01*
Y74940D01*
Y74860D01*
X162217D01*
Y74780D01*
Y74700D01*
X162297D01*
Y74620D01*
Y74540D01*
X162377D01*
Y74460D01*
Y74380D01*
X162537D01*
Y74300D01*
X162697D01*
Y74220D01*
X162857D01*
Y74300D01*
X163017D01*
Y74380D01*
X163177D01*
Y74460D01*
Y74540D01*
X163257D01*
Y74620D01*
X163337D01*
Y74700D01*
Y74780D01*
Y74860D01*
X163257D01*
Y74940D01*
Y75020D01*
X163177D01*
Y75100D01*
X163097D01*
Y75180D01*
X163257D01*
Y75100D01*
X163337D01*
Y75020D01*
Y74940D01*
X163417D01*
Y74860D01*
Y74780D01*
Y74700D01*
Y74620D01*
X163497D01*
Y74540D01*
Y74460D01*
Y74380D01*
X163417D01*
Y74300D01*
Y74220D01*
Y74140D01*
Y74060D01*
Y73980D01*
X163337D01*
Y73900D01*
Y73820D01*
X163257D01*
Y73740D01*
Y73660D01*
X163177D01*
Y73580D01*
Y73500D01*
X163097D01*
Y73420D01*
X163017D01*
Y73340D01*
X162937D01*
Y73260D01*
X162857D01*
Y73180D01*
X162697D01*
Y73100D01*
X162537D01*
Y73020D01*
X161897D01*
Y73100D01*
X161657D01*
Y73180D01*
X161417D01*
Y73260D01*
X161257D01*
Y73180D01*
X161097D01*
Y73100D01*
Y73020D01*
Y72940D01*
X161177D01*
Y72860D01*
Y72780D01*
X161257D01*
Y72700D01*
Y72620D01*
Y72540D01*
X161337D01*
Y72460D01*
X161417D01*
Y72380D01*
Y72300D01*
X161497D01*
Y72220D01*
X161577D01*
Y72140D01*
X161657D01*
Y72060D01*
X161737D01*
Y71980D01*
X161817D01*
Y71900D01*
X161897D01*
Y71820D01*
X162057D01*
Y71740D01*
X162217D01*
Y71660D01*
X162537D01*
Y71580D01*
X163097D01*
Y71660D01*
X163337D01*
Y71740D01*
X163497D01*
Y71820D01*
X163657D01*
Y71900D01*
X163737D01*
Y71980D01*
X163897D01*
Y72060D01*
X163977D01*
Y72140D01*
X164057D01*
Y72220D01*
X164137D01*
Y72300D01*
X164217D01*
Y72380D01*
Y72460D01*
X164297D01*
Y72540D01*
X164377D01*
Y72460D01*
X164457D01*
Y72380D01*
X164537D01*
Y72300D01*
X164617D01*
Y72220D01*
X164697D01*
Y72140D01*
X164777D01*
Y72060D01*
X164857D01*
Y71980D01*
X164937D01*
Y71900D01*
X165017D01*
Y71820D01*
X165097D01*
Y71740D01*
X165177D01*
Y71660D01*
X165337D01*
Y71580D01*
X165657D01*
Y71660D01*
X165817D01*
Y71740D01*
X165897D01*
Y71820D01*
X165977D01*
Y71900D01*
X166057D01*
Y71980D01*
X166137D01*
Y72060D01*
X166217D01*
Y72140D01*
Y72220D01*
X166297D01*
Y72300D01*
Y72380D01*
X166377D01*
Y72460D01*
Y72540D01*
X166537D01*
Y72460D01*
X166617D01*
Y72380D01*
X166697D01*
Y72300D01*
X166777D01*
Y72220D01*
X166937D01*
Y72140D01*
X167017D01*
Y72060D01*
X167097D01*
Y71980D01*
X167257D01*
Y71900D01*
X167337D01*
Y71820D01*
X167497D01*
Y71740D01*
X167737D01*
Y71660D01*
X168617D01*
Y71740D01*
X168777D01*
Y71820D01*
X168937D01*
Y71900D01*
X169017D01*
Y71980D01*
X169097D01*
Y72060D01*
X169177D01*
Y72140D01*
X169257D01*
Y72220D01*
Y72300D01*
X169337D01*
Y72380D01*
Y72460D01*
Y72540D01*
Y72620D01*
Y72700D01*
Y72780D01*
Y72860D01*
Y72940D01*
Y73020D01*
Y73100D01*
X169257D01*
Y73180D01*
Y73260D01*
Y73340D01*
X169177D01*
Y73420D01*
X169097D01*
Y73500D01*
X169017D01*
Y73580D01*
Y73660D01*
X168937D01*
Y73740D01*
X168857D01*
Y73820D01*
X168697D01*
Y73900D01*
X168617D01*
Y73980D01*
X168537D01*
Y74060D01*
X168457D01*
Y74140D01*
X168377D01*
Y74220D01*
X168297D01*
Y74300D01*
X168137D01*
Y74380D01*
X168057D01*
Y74460D01*
X167977D01*
Y74540D01*
X167817D01*
Y74620D01*
X167737D01*
Y74700D01*
X167497D01*
Y74620D01*
Y74540D01*
X167417D01*
Y74460D01*
Y74380D01*
Y74300D01*
Y74220D01*
X167577D01*
Y74140D01*
X167657D01*
Y74060D01*
X167737D01*
Y73980D01*
X167817D01*
Y73900D01*
X167897D01*
Y73820D01*
X167737D01*
Y73900D01*
X167337D01*
Y73820D01*
X167177D01*
Y73740D01*
Y73660D01*
X167097D01*
Y73580D01*
Y73500D01*
Y73420D01*
Y73340D01*
Y73260D01*
Y73180D01*
X167177D01*
Y73100D01*
X167257D01*
Y73020D01*
X167337D01*
Y72940D01*
X167737D01*
Y73020D01*
X167897D01*
Y72940D01*
X167817D01*
Y72860D01*
X167097D01*
Y72940D01*
X166857D01*
Y73020D01*
X166697D01*
Y73100D01*
Y73180D01*
Y73260D01*
X166777D01*
Y73340D01*
Y73420D01*
X166857D01*
Y73500D01*
Y73580D01*
X166937D01*
Y73660D01*
Y73740D01*
X167017D01*
Y73820D01*
Y73900D01*
Y73980D01*
X167097D01*
Y74060D01*
Y74140D01*
X167177D01*
Y74220D01*
Y74300D01*
X167257D01*
Y74380D01*
Y74460D01*
X167337D01*
Y74540D01*
Y74620D01*
Y74700D01*
X167417D01*
Y74780D01*
Y74860D01*
X167497D01*
Y74940D01*
X167577D01*
Y75020D01*
Y75100D01*
X167657D01*
Y75180D01*
X167817D01*
Y75260D01*
X168217D01*
Y75180D01*
X168297D01*
Y75100D01*
X168377D01*
Y75020D01*
X168297D01*
Y74940D01*
Y74860D01*
Y74780D01*
X168217D01*
Y74700D01*
Y74620D01*
X168297D01*
Y74540D01*
Y74460D01*
X168617D01*
Y74540D01*
X168697D01*
Y74620D01*
Y74700D01*
Y74780D01*
Y74860D01*
X168617D01*
Y74940D01*
Y75020D01*
Y75100D01*
Y75180D01*
X168697D01*
Y75260D01*
Y75340D01*
X168617D01*
Y75420D01*
X168537D01*
Y75500D01*
X168457D01*
Y75580D01*
X168377D01*
Y75660D01*
X168297D01*
Y75740D01*
X168217D01*
Y75820D01*
X168137D01*
Y75900D01*
X168057D01*
Y75980D01*
X167977D01*
Y76060D01*
X167817D01*
Y76140D01*
X167737D01*
Y76220D01*
X167657D01*
Y76300D01*
X167497D01*
Y76380D01*
X167337D01*
Y76460D01*
D02*
G37*
G36*
X161097Y74940D02*
X161017D01*
Y74860D01*
Y74780D01*
Y74700D01*
Y74620D01*
Y74540D01*
Y74460D01*
Y74380D01*
Y74300D01*
Y74220D01*
Y74140D01*
Y74060D01*
Y73980D01*
Y73900D01*
Y73820D01*
Y73740D01*
Y73660D01*
Y73580D01*
X161097D01*
Y73500D01*
X161177D01*
Y73580D01*
X161097D01*
Y73660D01*
X161177D01*
Y73740D01*
Y73820D01*
Y73900D01*
Y73980D01*
Y74060D01*
Y74140D01*
Y74220D01*
Y74300D01*
Y74380D01*
X161257D01*
Y74460D01*
Y74540D01*
Y74620D01*
X161337D01*
Y74700D01*
X161257D01*
Y74780D01*
X161177D01*
Y74860D01*
X161097D01*
Y74940D01*
D02*
G37*
G36*
X162937Y73900D02*
X162537D01*
Y73820D01*
X162457D01*
Y73740D01*
Y73660D01*
Y73580D01*
X162377D01*
Y73500D01*
X162457D01*
Y73420D01*
X162537D01*
Y73500D01*
X162617D01*
Y73580D01*
X162697D01*
Y73660D01*
X162777D01*
Y73740D01*
X162857D01*
Y73820D01*
X162937D01*
Y73900D01*
D02*
G37*
G36*
X172057Y77420D02*
X171977D01*
Y77340D01*
X172057D01*
Y77420D01*
D02*
G37*
G36*
X162457Y73420D02*
X162377D01*
Y73340D01*
X162457D01*
Y73420D01*
D02*
G37*
G36*
X176217Y77980D02*
X175977D01*
Y77900D01*
X175817D01*
Y77820D01*
X175737D01*
Y77740D01*
X175657D01*
Y77660D01*
X175577D01*
Y77580D01*
Y77500D01*
X175497D01*
Y77420D01*
Y77340D01*
Y77260D01*
Y77180D01*
X175417D01*
Y77260D01*
X175337D01*
Y77340D01*
X175257D01*
Y77420D01*
X175177D01*
Y77500D01*
X175097D01*
Y77580D01*
X175017D01*
Y77660D01*
X174857D01*
Y77740D01*
X174777D01*
Y77820D01*
X174617D01*
Y77900D01*
X174377D01*
Y77980D01*
X174217D01*
Y77900D01*
X173977D01*
Y77820D01*
X173817D01*
Y77740D01*
X173657D01*
Y77660D01*
X173497D01*
Y77580D01*
X173417D01*
Y77500D01*
X173337D01*
Y77420D01*
X173257D01*
Y77340D01*
X173177D01*
Y77260D01*
X173097D01*
Y77180D01*
X173017D01*
Y77100D01*
Y77020D01*
X172937D01*
Y76940D01*
Y76860D01*
Y76780D01*
Y76700D01*
X172857D01*
Y76620D01*
Y76540D01*
Y76460D01*
Y76380D01*
Y76300D01*
Y76220D01*
Y76140D01*
Y76060D01*
X172937D01*
Y75980D01*
Y75900D01*
X173017D01*
Y75820D01*
X173097D01*
Y75740D01*
X173177D01*
Y75660D01*
X173257D01*
Y75580D01*
X173337D01*
Y75500D01*
X173417D01*
Y75420D01*
X173497D01*
Y75340D01*
X173337D01*
Y75260D01*
X173257D01*
Y75180D01*
X173097D01*
Y75100D01*
X173017D01*
Y75020D01*
X172937D01*
Y74940D01*
X172857D01*
Y74860D01*
X172777D01*
Y74780D01*
X172697D01*
Y74700D01*
Y74620D01*
X172617D01*
Y74540D01*
X172537D01*
Y74460D01*
Y74380D01*
Y74300D01*
X172457D01*
Y74220D01*
Y74140D01*
Y74060D01*
Y73980D01*
Y73900D01*
Y73820D01*
Y73740D01*
Y73660D01*
Y73580D01*
Y73500D01*
Y73420D01*
Y73340D01*
Y73260D01*
X172537D01*
Y73180D01*
Y73100D01*
X172617D01*
Y73020D01*
X172697D01*
Y72940D01*
X172777D01*
Y72860D01*
X172857D01*
Y72780D01*
X172937D01*
Y72700D01*
X173097D01*
Y72620D01*
X173177D01*
Y72540D01*
X173257D01*
Y72460D01*
X173337D01*
Y72380D01*
X173417D01*
Y72300D01*
Y72220D01*
X173497D01*
Y72140D01*
X173577D01*
Y72060D01*
X173657D01*
Y71980D01*
X173737D01*
Y71900D01*
X173817D01*
Y71820D01*
Y71740D01*
X173897D01*
Y71660D01*
X175417D01*
Y71580D01*
X176697D01*
Y71500D01*
X177177D01*
Y71580D01*
X177257D01*
Y71660D01*
Y71740D01*
X177337D01*
Y71820D01*
Y71900D01*
Y71980D01*
X177177D01*
Y72060D01*
Y72140D01*
X177097D01*
Y72220D01*
X177017D01*
Y72300D01*
Y72380D01*
X176937D01*
Y72460D01*
Y72540D01*
Y72620D01*
X176857D01*
Y72700D01*
Y72780D01*
Y72860D01*
Y72940D01*
Y73020D01*
Y73100D01*
Y73180D01*
Y73260D01*
Y73340D01*
Y73420D01*
Y73500D01*
Y73580D01*
Y73660D01*
Y73740D01*
Y73820D01*
Y73900D01*
Y73980D01*
Y74060D01*
Y74140D01*
Y74220D01*
Y74300D01*
Y74380D01*
Y74460D01*
Y74540D01*
Y74620D01*
Y74700D01*
Y74780D01*
Y74860D01*
Y74940D01*
Y75020D01*
Y75100D01*
Y75180D01*
Y75260D01*
Y75340D01*
Y75420D01*
Y75500D01*
Y75580D01*
Y75660D01*
Y75740D01*
Y75820D01*
Y75900D01*
Y75980D01*
Y76060D01*
Y76140D01*
Y76220D01*
Y76300D01*
Y76380D01*
Y76460D01*
Y76540D01*
X176937D01*
Y76620D01*
X177017D01*
Y76540D01*
Y76460D01*
X176937D01*
Y76380D01*
Y76300D01*
Y76220D01*
Y76140D01*
X177017D01*
Y76060D01*
X177097D01*
Y75980D01*
X177177D01*
Y76060D01*
X177337D01*
Y76140D01*
Y76220D01*
Y76300D01*
Y76380D01*
Y76460D01*
X177257D01*
Y76540D01*
Y76620D01*
Y76700D01*
X177337D01*
Y76780D01*
Y76860D01*
X177257D01*
Y76940D01*
X177177D01*
Y77020D01*
X177097D01*
Y77100D01*
X177017D01*
Y77180D01*
X176937D01*
Y77260D01*
X176857D01*
Y77340D01*
X176777D01*
Y77420D01*
X176697D01*
Y77500D01*
X176617D01*
Y77580D01*
X176537D01*
Y77660D01*
X176457D01*
Y77740D01*
X176377D01*
Y77820D01*
X176297D01*
Y77900D01*
X176217D01*
Y77980D01*
D02*
G37*
G36*
X162297Y73420D02*
X162217D01*
Y73340D01*
X162297D01*
Y73420D01*
D02*
G37*
G36*
X172537Y76300D02*
X172457D01*
Y76220D01*
X172537D01*
Y76300D01*
D02*
G37*
G36*
X172377Y74860D02*
X172297D01*
Y74780D01*
X172377D01*
Y74860D01*
D02*
G37*
G36*
X172697Y75660D02*
X172617D01*
Y75580D01*
X172697D01*
Y75500D01*
X172617D01*
Y75420D01*
X172697D01*
Y75340D01*
X172777D01*
Y75420D01*
X172857D01*
Y75500D01*
X172777D01*
Y75580D01*
X172697D01*
Y75660D01*
D02*
G37*
G36*
X170777Y78060D02*
X170537D01*
Y77980D01*
X170457D01*
Y77900D01*
X170377D01*
Y77820D01*
Y77740D01*
X170297D01*
Y77660D01*
X170217D01*
Y77580D01*
Y77500D01*
X170137D01*
Y77420D01*
Y77340D01*
Y77260D01*
Y77180D01*
X170057D01*
Y77100D01*
Y77020D01*
Y76940D01*
Y76860D01*
Y76780D01*
Y76700D01*
Y76620D01*
Y76540D01*
Y76460D01*
Y76380D01*
Y76300D01*
Y76220D01*
Y76140D01*
Y76060D01*
Y75980D01*
Y75900D01*
Y75820D01*
Y75740D01*
Y75660D01*
Y75580D01*
Y75500D01*
Y75420D01*
Y75340D01*
Y75260D01*
Y75180D01*
Y75100D01*
Y75020D01*
Y74940D01*
Y74860D01*
Y74780D01*
Y74700D01*
Y74620D01*
Y74540D01*
Y74460D01*
Y74380D01*
Y74300D01*
Y74220D01*
Y74140D01*
Y74060D01*
Y73980D01*
Y73900D01*
Y73820D01*
Y73740D01*
Y73660D01*
Y73580D01*
Y73500D01*
Y73420D01*
Y73340D01*
X169977D01*
Y73420D01*
X169817D01*
Y73500D01*
X169737D01*
Y73580D01*
X169577D01*
Y73500D01*
X169497D01*
Y73420D01*
X169417D01*
Y73340D01*
X169337D01*
Y73260D01*
Y73180D01*
X169417D01*
Y73100D01*
X169497D01*
Y73020D01*
X169577D01*
Y72940D01*
X169657D01*
Y72860D01*
X169737D01*
Y72780D01*
X169817D01*
Y72700D01*
X169897D01*
Y72620D01*
X169977D01*
Y72540D01*
X170137D01*
Y72460D01*
X170217D01*
Y72380D01*
X170297D01*
Y72300D01*
X170377D01*
Y72220D01*
X170457D01*
Y72140D01*
X170537D01*
Y72060D01*
X170617D01*
Y71980D01*
X170777D01*
Y71900D01*
X170857D01*
Y71820D01*
X170937D01*
Y71740D01*
X171017D01*
Y71660D01*
Y71580D01*
X170937D01*
Y71500D01*
Y71420D01*
X170857D01*
Y71340D01*
Y71260D01*
Y71180D01*
X170777D01*
Y71100D01*
Y71020D01*
Y70940D01*
Y70860D01*
Y70780D01*
Y70700D01*
X170857D01*
Y70620D01*
X170937D01*
Y70540D01*
X171097D01*
Y70460D01*
X171177D01*
Y70540D01*
X171337D01*
Y70620D01*
X171417D01*
Y70700D01*
Y70780D01*
X171497D01*
Y70860D01*
Y70940D01*
Y71020D01*
Y71100D01*
X171417D01*
Y71180D01*
Y71260D01*
Y71340D01*
X171337D01*
Y71420D01*
Y71500D01*
X171257D01*
Y71580D01*
Y71660D01*
X171177D01*
Y71740D01*
X171257D01*
Y71820D01*
X171337D01*
Y71900D01*
Y71980D01*
X171417D01*
Y72060D01*
Y72140D01*
X171497D01*
Y72220D01*
Y72300D01*
Y72380D01*
X171577D01*
Y72460D01*
Y72540D01*
Y72620D01*
Y72700D01*
X171657D01*
Y72780D01*
Y72860D01*
Y72940D01*
Y73020D01*
Y73100D01*
Y73180D01*
Y73260D01*
Y73340D01*
Y73420D01*
Y73500D01*
Y73580D01*
Y73660D01*
Y73740D01*
Y73820D01*
Y73900D01*
Y73980D01*
Y74060D01*
Y74140D01*
Y74220D01*
Y74300D01*
Y74380D01*
Y74460D01*
Y74540D01*
Y74620D01*
Y74700D01*
Y74780D01*
Y74860D01*
Y74940D01*
X171577D01*
Y75020D01*
Y75100D01*
Y75180D01*
Y75260D01*
Y75340D01*
Y75420D01*
Y75500D01*
Y75580D01*
Y75660D01*
Y75740D01*
Y75820D01*
Y75900D01*
Y75980D01*
Y76060D01*
Y76140D01*
Y76220D01*
Y76300D01*
Y76380D01*
Y76460D01*
Y76540D01*
X171737D01*
Y76460D01*
X171817D01*
Y76380D01*
X171897D01*
Y76300D01*
Y76220D01*
Y76140D01*
X171817D01*
Y76060D01*
Y75980D01*
X171737D01*
Y75900D01*
Y75820D01*
Y75740D01*
X171657D01*
Y75660D01*
Y75580D01*
Y75500D01*
Y75420D01*
X171737D01*
Y75340D01*
Y75260D01*
X171817D01*
Y75180D01*
X171977D01*
Y75100D01*
X172137D01*
Y75180D01*
X172217D01*
Y75260D01*
X172297D01*
Y75340D01*
X172377D01*
Y75420D01*
Y75500D01*
Y75580D01*
Y75660D01*
Y75740D01*
Y75820D01*
X172297D01*
Y75900D01*
Y75980D01*
Y76060D01*
X172217D01*
Y76140D01*
Y76220D01*
X172137D01*
Y76300D01*
Y76380D01*
X172217D01*
Y76460D01*
Y76540D01*
X172297D01*
Y76620D01*
Y76700D01*
Y76780D01*
X172137D01*
Y76860D01*
X172057D01*
Y76940D01*
X171977D01*
Y77020D01*
X171897D01*
Y77100D01*
X171817D01*
Y77180D01*
X171657D01*
Y77260D01*
X171577D01*
Y77340D01*
X171497D01*
Y77420D01*
X171417D01*
Y77500D01*
X171337D01*
Y77580D01*
X171257D01*
Y77660D01*
X171097D01*
Y77740D01*
X171017D01*
Y77820D01*
X170937D01*
Y77900D01*
X170857D01*
Y77980D01*
X170777D01*
Y78060D01*
D02*
G37*
G36*
X172697Y75180D02*
X172617D01*
Y75100D01*
X172697D01*
Y75180D01*
D02*
G37*
G36*
X172217Y74860D02*
X172137D01*
Y74780D01*
X172057D01*
Y74860D01*
X171977D01*
Y74780D01*
X172057D01*
Y74700D01*
X171977D01*
Y74620D01*
X172057D01*
Y74540D01*
X171977D01*
Y74460D01*
X172057D01*
Y74380D01*
X171977D01*
Y74300D01*
X172057D01*
Y74220D01*
X171977D01*
Y74140D01*
X172057D01*
Y74060D01*
X171977D01*
Y73980D01*
X172057D01*
Y73900D01*
X172137D01*
Y73980D01*
Y74060D01*
Y74140D01*
Y74220D01*
Y74300D01*
X172217D01*
Y74380D01*
X172137D01*
Y74460D01*
X172217D01*
Y74540D01*
X172137D01*
Y74620D01*
X172297D01*
Y74700D01*
Y74780D01*
X172217D01*
Y74860D01*
D02*
G37*
G36*
X172537Y76940D02*
X172457D01*
Y76860D01*
X172537D01*
Y76940D01*
D02*
G37*
G36*
X161017Y72460D02*
X160937D01*
Y72380D01*
X161017D01*
Y72460D01*
D02*
G37*
G36*
X177337D02*
X177257D01*
Y72380D01*
X177337D01*
Y72460D01*
D02*
G37*
G36*
X158457Y78700D02*
X157657D01*
Y78620D01*
X157497D01*
Y78540D01*
X157417D01*
Y78460D01*
X157337D01*
Y78380D01*
X157257D01*
Y78300D01*
X157177D01*
Y78220D01*
Y78140D01*
Y78060D01*
X157337D01*
Y77980D01*
X157417D01*
Y77900D01*
X157577D01*
Y77820D01*
X157657D01*
Y77740D01*
X157817D01*
Y77660D01*
X157897D01*
Y77580D01*
X157977D01*
Y77500D01*
X158137D01*
Y77420D01*
X158297D01*
Y77500D01*
X158377D01*
Y77580D01*
Y77660D01*
X158457D01*
Y77740D01*
Y77820D01*
X158617D01*
Y77900D01*
X159097D01*
Y77820D01*
X159257D01*
Y77740D01*
X159417D01*
Y77660D01*
X159577D01*
Y77580D01*
X159497D01*
Y77500D01*
Y77420D01*
Y77340D01*
X159417D01*
Y77260D01*
Y77180D01*
Y77100D01*
Y77020D01*
Y76940D01*
Y76860D01*
Y76780D01*
Y76700D01*
Y76620D01*
Y76540D01*
X159337D01*
Y76460D01*
Y76380D01*
Y76300D01*
Y76220D01*
Y76140D01*
Y76060D01*
Y75980D01*
Y75900D01*
X159257D01*
Y75980D01*
X159097D01*
Y76060D01*
X159017D01*
Y76140D01*
X158937D01*
Y76220D01*
X158857D01*
Y76300D01*
X158697D01*
Y76380D01*
X158617D01*
Y76460D01*
X158457D01*
Y76540D01*
X158217D01*
Y76620D01*
X157817D01*
Y76540D01*
X157577D01*
Y76460D01*
X157497D01*
Y76380D01*
X157337D01*
Y76300D01*
X157257D01*
Y76220D01*
Y76140D01*
X157177D01*
Y76060D01*
Y75980D01*
Y75900D01*
Y75820D01*
X157097D01*
Y75740D01*
Y75660D01*
Y75580D01*
Y75500D01*
X157177D01*
Y75420D01*
Y75340D01*
Y75260D01*
Y75180D01*
X157257D01*
Y75100D01*
Y75020D01*
X157337D01*
Y74940D01*
X157417D01*
Y74860D01*
Y74780D01*
X157497D01*
Y74700D01*
X157577D01*
Y74620D01*
X157657D01*
Y74540D01*
X157737D01*
Y74460D01*
X157817D01*
Y74380D01*
X157897D01*
Y74300D01*
X157817D01*
Y74220D01*
Y74140D01*
Y74060D01*
X157737D01*
Y73980D01*
Y73900D01*
Y73820D01*
X157657D01*
Y73740D01*
Y73660D01*
X157577D01*
Y73580D01*
Y73500D01*
X157497D01*
Y73420D01*
Y73340D01*
X157417D01*
Y73260D01*
Y73180D01*
X157337D01*
Y73100D01*
Y73020D01*
X157257D01*
Y72940D01*
X157177D01*
Y72860D01*
Y72780D01*
X157097D01*
Y72700D01*
X157017D01*
Y72620D01*
Y72540D01*
X156937D01*
Y72460D01*
X156857D01*
Y72380D01*
Y72300D01*
X156777D01*
Y72220D01*
X156697D01*
Y72140D01*
X156617D01*
Y72060D01*
Y71980D01*
X156537D01*
Y71900D01*
X156457D01*
Y71820D01*
X156377D01*
Y71740D01*
X156297D01*
Y71660D01*
X156137D01*
Y71580D01*
X156057D01*
Y71660D01*
X155897D01*
Y71580D01*
Y71500D01*
Y71420D01*
Y71340D01*
Y71260D01*
X156057D01*
Y71180D01*
X156217D01*
Y71100D01*
X156297D01*
Y71020D01*
X156377D01*
Y70940D01*
X156457D01*
Y70860D01*
X156617D01*
Y70780D01*
X156697D01*
Y70700D01*
X156777D01*
Y70620D01*
X156857D01*
Y70540D01*
X157017D01*
Y70460D01*
X157097D01*
Y70380D01*
X157177D01*
Y70300D01*
X157337D01*
Y70380D01*
X157417D01*
Y70460D01*
X157497D01*
Y70540D01*
X157577D01*
Y70620D01*
X157657D01*
Y70700D01*
X157737D01*
Y70780D01*
Y70860D01*
X157817D01*
Y70940D01*
X157897D01*
Y71020D01*
Y71100D01*
X157977D01*
Y71180D01*
Y71260D01*
X158057D01*
Y71340D01*
X158137D01*
Y71420D01*
Y71500D01*
X158217D01*
Y71580D01*
Y71660D01*
X158297D01*
Y71740D01*
Y71820D01*
Y71900D01*
X158377D01*
Y71980D01*
Y72060D01*
Y72140D01*
X158457D01*
Y72220D01*
Y72300D01*
Y72380D01*
X158537D01*
Y72460D01*
Y72540D01*
Y72620D01*
X158617D01*
Y72700D01*
Y72780D01*
Y72860D01*
Y72940D01*
X158697D01*
Y73020D01*
Y73100D01*
Y73180D01*
Y73260D01*
X158777D01*
Y73340D01*
Y73420D01*
Y73500D01*
Y73580D01*
Y73660D01*
X159177D01*
Y73580D01*
X159417D01*
Y73500D01*
X159337D01*
Y73420D01*
Y73340D01*
Y73260D01*
Y73180D01*
Y73100D01*
Y73020D01*
Y72940D01*
X159257D01*
Y72860D01*
Y72780D01*
Y72700D01*
X159177D01*
Y72620D01*
Y72540D01*
Y72460D01*
Y72380D01*
X159257D01*
Y72300D01*
X159097D01*
Y72220D01*
Y72140D01*
Y72060D01*
X159017D01*
Y71980D01*
Y71900D01*
Y71820D01*
Y71740D01*
X158777D01*
Y71660D01*
X158537D01*
Y71580D01*
X158377D01*
Y71500D01*
Y71420D01*
X158537D01*
Y71340D01*
X158777D01*
Y71260D01*
X158937D01*
Y71180D01*
X159017D01*
Y71100D01*
Y71020D01*
Y70940D01*
Y70860D01*
X159097D01*
Y70780D01*
Y70700D01*
Y70620D01*
X159337D01*
Y70700D01*
Y70780D01*
Y70860D01*
X159417D01*
Y70940D01*
Y71020D01*
Y71100D01*
X159497D01*
Y71180D01*
Y71260D01*
X159737D01*
Y71340D01*
X159977D01*
Y71420D01*
X160137D01*
Y71500D01*
Y71580D01*
X159977D01*
Y71660D01*
X159737D01*
Y71740D01*
X159497D01*
Y71820D01*
Y71900D01*
X159417D01*
Y71980D01*
Y72060D01*
Y72140D01*
X159577D01*
Y72060D01*
X159657D01*
Y71980D01*
X159737D01*
Y71900D01*
X159817D01*
Y71820D01*
X159977D01*
Y71740D01*
X160057D01*
Y71660D01*
X160137D01*
Y71580D01*
X160377D01*
Y71660D01*
X160457D01*
Y71740D01*
Y71820D01*
X160537D01*
Y71900D01*
Y71980D01*
Y72060D01*
X160617D01*
Y72140D01*
Y72220D01*
Y72300D01*
Y72380D01*
X160697D01*
Y72460D01*
Y72540D01*
Y72620D01*
Y72700D01*
Y72780D01*
Y72860D01*
Y72940D01*
Y73020D01*
Y73100D01*
Y73180D01*
Y73260D01*
Y73340D01*
Y73420D01*
Y73500D01*
Y73580D01*
Y73660D01*
Y73740D01*
Y73820D01*
Y73900D01*
Y73980D01*
Y74060D01*
Y74140D01*
Y74220D01*
Y74300D01*
Y74380D01*
Y74460D01*
Y74540D01*
Y74620D01*
Y74700D01*
Y74780D01*
Y74860D01*
Y74940D01*
Y75020D01*
Y75100D01*
Y75180D01*
Y75260D01*
Y75340D01*
Y75420D01*
Y75500D01*
Y75580D01*
Y75660D01*
Y75740D01*
X160777D01*
Y75820D01*
Y75900D01*
Y75980D01*
Y76060D01*
Y76140D01*
Y76220D01*
Y76300D01*
Y76380D01*
Y76460D01*
Y76540D01*
Y76620D01*
Y76700D01*
Y76780D01*
X160857D01*
Y76700D01*
X161017D01*
Y76620D01*
X161097D01*
Y76540D01*
X161257D01*
Y76620D01*
X161337D01*
Y76700D01*
Y76780D01*
X161417D01*
Y76860D01*
Y76940D01*
X161337D01*
Y77020D01*
X161177D01*
Y77100D01*
X161097D01*
Y77180D01*
X161017D01*
Y77260D01*
X160857D01*
Y77340D01*
X160777D01*
Y77420D01*
X160697D01*
Y77500D01*
X160537D01*
Y77580D01*
X160457D01*
Y77660D01*
X160297D01*
Y77740D01*
X160217D01*
Y77820D01*
X160057D01*
Y77900D01*
X159977D01*
Y77980D01*
X159817D01*
Y78060D01*
X159737D01*
Y78140D01*
X159577D01*
Y78220D01*
X159417D01*
Y78300D01*
X159257D01*
Y78380D01*
X159097D01*
Y78460D01*
X158937D01*
Y78540D01*
X158697D01*
Y78620D01*
X158457D01*
Y78700D01*
D02*
G37*
G36*
X165017Y74220D02*
X164937D01*
Y74140D01*
X165017D01*
Y74220D01*
D02*
G37*
G36*
X158937Y77580D02*
X158857D01*
Y77500D01*
X158777D01*
Y77580D01*
X158697D01*
Y77500D01*
X158777D01*
Y77420D01*
X158697D01*
Y77340D01*
X158617D01*
Y77260D01*
X158537D01*
Y77180D01*
X158457D01*
Y77260D01*
X158377D01*
Y77180D01*
X158457D01*
Y77100D01*
X158377D01*
Y77020D01*
X158297D01*
Y77100D01*
X158217D01*
Y77020D01*
X158297D01*
Y76940D01*
X158377D01*
Y76860D01*
X158617D01*
Y76780D01*
X158697D01*
Y76700D01*
X158937D01*
Y76620D01*
X159017D01*
Y76540D01*
X159097D01*
Y76620D01*
X159017D01*
Y76700D01*
X159097D01*
Y76780D01*
X159017D01*
Y76860D01*
X159097D01*
Y76940D01*
X159017D01*
Y77020D01*
X159097D01*
Y77100D01*
X159017D01*
Y77180D01*
X159097D01*
Y77260D01*
Y77340D01*
Y77420D01*
X159017D01*
Y77500D01*
X158937D01*
Y77580D01*
D02*
G37*
G36*
X155526Y86481D02*
X155286D01*
Y86401D01*
X155046D01*
Y86481D01*
X154886D01*
Y86401D01*
X154806D01*
Y86481D01*
X154646D01*
Y86401D01*
X154406D01*
Y86481D01*
X154326D01*
Y86401D01*
X154086D01*
Y86481D01*
X154006D01*
Y86401D01*
X153926D01*
Y86481D01*
X153606D01*
Y86401D01*
X153446D01*
Y86481D01*
X153286D01*
Y86401D01*
X153126D01*
Y86481D01*
X153046D01*
Y86401D01*
X152806D01*
Y86481D01*
X152646D01*
Y86401D01*
X152486D01*
Y86481D01*
X152406D01*
Y86401D01*
X152086D01*
Y86321D01*
Y86241D01*
Y86161D01*
Y86081D01*
Y86001D01*
X152166D01*
Y85921D01*
X155686D01*
Y86001D01*
X155766D01*
Y86081D01*
Y86161D01*
Y86241D01*
Y86321D01*
Y86401D01*
X155526D01*
Y86481D01*
D02*
G37*
G36*
X160697Y77900D02*
X160617D01*
Y77820D01*
X160697D01*
Y77900D01*
D02*
G37*
G36*
X157497Y77580D02*
X157417D01*
Y77500D01*
X157497D01*
Y77580D01*
D02*
G37*
%LPD*%
G36*
X163737Y73100D02*
X163817D01*
Y73020D01*
Y72940D01*
Y72860D01*
Y72780D01*
X163737D01*
Y72700D01*
X163417D01*
Y72780D01*
X163337D01*
Y72860D01*
Y72940D01*
Y73020D01*
Y73100D01*
X163417D01*
Y73180D01*
X163737D01*
Y73100D01*
D02*
G37*
G36*
X167977Y73020D02*
X167897D01*
Y73100D01*
X167977D01*
Y73020D01*
D02*
G37*
G36*
X165497D02*
X165577D01*
Y72940D01*
Y72860D01*
X165497D01*
Y72940D01*
X165417D01*
Y73020D01*
Y73100D01*
X165497D01*
Y73020D01*
D02*
G37*
G36*
X162937Y72700D02*
X163097D01*
Y72620D01*
Y72540D01*
Y72460D01*
X163177D01*
Y72380D01*
X163097D01*
Y72300D01*
Y72220D01*
Y72140D01*
X163017D01*
Y72060D01*
X162697D01*
Y72140D01*
X162617D01*
Y72220D01*
X162537D01*
Y72300D01*
Y72380D01*
Y72460D01*
Y72540D01*
Y72620D01*
X162617D01*
Y72700D01*
X162697D01*
Y72780D01*
X162937D01*
Y72700D01*
D02*
G37*
G36*
X166057Y72620D02*
X165817D01*
Y72540D01*
X165737D01*
Y72620D01*
Y72700D01*
X166057D01*
Y72620D01*
D02*
G37*
G36*
X165257Y72700D02*
Y72620D01*
Y72540D01*
X165177D01*
Y72620D01*
X164937D01*
Y72700D01*
X165177D01*
Y72780D01*
X165257D01*
Y72700D01*
D02*
G37*
G36*
X165577Y72300D02*
X165497D01*
Y72220D01*
X165417D01*
Y72300D01*
Y72380D01*
X165577D01*
Y72300D01*
D02*
G37*
G36*
X168697Y72780D02*
X168777D01*
Y72700D01*
X168857D01*
Y72620D01*
Y72540D01*
Y72460D01*
X168777D01*
Y72380D01*
X168617D01*
Y72300D01*
X168537D01*
Y72380D01*
X168457D01*
Y72460D01*
X168377D01*
Y72540D01*
Y72620D01*
Y72700D01*
Y72780D01*
X168457D01*
Y72860D01*
X168697D01*
Y72780D01*
D02*
G37*
G36*
X168057Y73180D02*
Y73100D01*
X167977D01*
Y73180D01*
Y73260D01*
X168057D01*
Y73180D01*
D02*
G37*
G36*
X163897Y75020D02*
X163977D01*
Y74940D01*
X163897D01*
Y74860D01*
X163817D01*
Y74940D01*
X163737D01*
Y75020D01*
X163817D01*
Y75100D01*
X163897D01*
Y75020D01*
D02*
G37*
G36*
X168057Y73660D02*
Y73580D01*
X167977D01*
Y73660D01*
Y73740D01*
X168057D01*
Y73660D01*
D02*
G37*
G36*
X164057Y73740D02*
X164137D01*
Y73660D01*
Y73580D01*
Y73500D01*
X164057D01*
Y73420D01*
X163897D01*
Y73500D01*
X163817D01*
Y73580D01*
X163737D01*
Y73660D01*
Y73740D01*
X163817D01*
Y73820D01*
X164057D01*
Y73740D01*
D02*
G37*
G36*
X168137Y73420D02*
Y73340D01*
X168057D01*
Y73420D01*
Y73500D01*
X168137D01*
Y73420D01*
D02*
G37*
G36*
X164137Y74380D02*
Y74300D01*
Y74220D01*
X163897D01*
Y74300D01*
Y74380D01*
Y74460D01*
X164137D01*
Y74380D01*
D02*
G37*
G36*
X175497Y73500D02*
Y73420D01*
Y73340D01*
Y73260D01*
X175577D01*
Y73180D01*
Y73100D01*
X175657D01*
Y73020D01*
X175737D01*
Y72940D01*
X174777D01*
Y73020D01*
Y73100D01*
Y73180D01*
X174857D01*
Y73260D01*
Y73340D01*
Y73420D01*
X175017D01*
Y73500D01*
X175257D01*
Y73580D01*
X175497D01*
Y73500D01*
D02*
G37*
G36*
X173817Y73660D02*
Y73580D01*
X173977D01*
Y73500D01*
X174217D01*
Y73420D01*
X174377D01*
Y73340D01*
Y73260D01*
Y73180D01*
Y73100D01*
X174457D01*
Y73020D01*
Y72940D01*
X174217D01*
Y73020D01*
X173977D01*
Y73100D01*
X173817D01*
Y73180D01*
X173737D01*
Y73260D01*
Y73340D01*
X173657D01*
Y73420D01*
Y73500D01*
Y73580D01*
X173737D01*
Y73660D01*
Y73740D01*
X173817D01*
Y73660D01*
D02*
G37*
G36*
X175977Y72380D02*
X176297D01*
Y72300D01*
X176217D01*
Y72220D01*
X175897D01*
Y72140D01*
X175497D01*
Y72220D01*
X175177D01*
Y72300D01*
X175097D01*
Y72380D01*
X175417D01*
Y72460D01*
X175977D01*
Y72380D01*
D02*
G37*
G36*
X174857Y76620D02*
X175017D01*
Y76540D01*
X175097D01*
Y76460D01*
X175177D01*
Y76380D01*
X175257D01*
Y76300D01*
Y76220D01*
X175337D01*
Y76140D01*
Y76060D01*
Y75980D01*
X175417D01*
Y75900D01*
Y75820D01*
Y75740D01*
Y75660D01*
Y75580D01*
X173977D01*
Y75660D01*
Y75740D01*
X173897D01*
Y75820D01*
Y75900D01*
X173977D01*
Y75980D01*
Y76060D01*
X174057D01*
Y75980D01*
Y75900D01*
X174137D01*
Y75820D01*
Y75740D01*
X174297D01*
Y75660D01*
X174777D01*
Y75740D01*
X174857D01*
Y75820D01*
X174937D01*
Y75900D01*
X175017D01*
Y75980D01*
Y76060D01*
Y76140D01*
Y76220D01*
Y76300D01*
Y76380D01*
X174937D01*
Y76460D01*
Y76540D01*
X174777D01*
Y76620D01*
X174617D01*
Y76700D01*
X174857D01*
Y76620D01*
D02*
G37*
G36*
X174377Y76220D02*
Y76140D01*
X174297D01*
Y76220D01*
Y76300D01*
X174377D01*
Y76220D01*
D02*
G37*
G36*
X176217Y76700D02*
Y76620D01*
X176137D01*
Y76700D01*
Y76780D01*
X176217D01*
Y76700D01*
D02*
G37*
G36*
X175977Y73660D02*
X175897D01*
Y73740D01*
X175977D01*
Y73660D01*
D02*
G37*
G36*
X176137Y74060D02*
X176217D01*
Y73980D01*
Y73900D01*
Y73820D01*
X176297D01*
Y73740D01*
Y73660D01*
Y73580D01*
X176217D01*
Y73660D01*
X176137D01*
Y73740D01*
X175977D01*
Y73820D01*
Y73900D01*
X176057D01*
Y73980D01*
Y74060D01*
Y74140D01*
X176137D01*
Y74060D01*
D02*
G37*
G36*
X176217Y73260D02*
X176137D01*
Y73340D01*
X176217D01*
Y73260D01*
D02*
G37*
G36*
X176297Y73340D02*
X176217D01*
Y73420D01*
X176297D01*
Y73340D01*
D02*
G37*
G36*
X174537Y74380D02*
X174457D01*
Y74460D01*
X174537D01*
Y74380D01*
D02*
G37*
G36*
X175257D02*
X175417D01*
Y74300D01*
Y74220D01*
Y74140D01*
Y74060D01*
Y73980D01*
Y73900D01*
Y73820D01*
X175177D01*
Y73900D01*
X174857D01*
Y73980D01*
Y74060D01*
Y74140D01*
X174777D01*
Y74220D01*
Y74300D01*
Y74380D01*
X174697D01*
Y74460D01*
X175257D01*
Y74380D01*
D02*
G37*
G36*
X174457Y74300D02*
Y74220D01*
Y74140D01*
X174377D01*
Y74060D01*
Y73980D01*
Y73900D01*
X174057D01*
Y73820D01*
X173817D01*
Y73900D01*
X173897D01*
Y73980D01*
Y74060D01*
X173977D01*
Y74140D01*
X174057D01*
Y74220D01*
X174137D01*
Y74300D01*
X174217D01*
Y74380D01*
X174457D01*
Y74300D01*
D02*
G37*
G36*
X171257Y75580D02*
X171337D01*
Y75500D01*
Y75420D01*
Y75340D01*
X171097D01*
Y75420D01*
X171017D01*
Y75500D01*
X171097D01*
Y75580D01*
X171177D01*
Y75660D01*
X171257D01*
Y75580D01*
D02*
G37*
G36*
X170697Y75500D02*
Y75420D01*
Y75340D01*
X170457D01*
Y75420D01*
Y75500D01*
Y75580D01*
X170697D01*
Y75500D01*
D02*
G37*
G36*
X170937Y76860D02*
Y76780D01*
Y76700D01*
Y76620D01*
Y76540D01*
X171017D01*
Y76460D01*
Y76380D01*
Y76300D01*
Y76220D01*
Y76140D01*
X170937D01*
Y76060D01*
Y75980D01*
Y75900D01*
Y75820D01*
Y75740D01*
X170857D01*
Y75820D01*
Y75900D01*
Y75980D01*
X170777D01*
Y76060D01*
Y76140D01*
Y76220D01*
Y76300D01*
Y76380D01*
Y76460D01*
Y76540D01*
Y76620D01*
Y76700D01*
X170857D01*
Y76780D01*
Y76860D01*
Y76940D01*
X170937D01*
Y76860D01*
D02*
G37*
G36*
X170857Y74780D02*
X170937D01*
Y74700D01*
Y74620D01*
Y74540D01*
Y74460D01*
Y74380D01*
Y74300D01*
Y74220D01*
X171017D01*
Y74140D01*
Y74060D01*
Y73980D01*
Y73900D01*
X170937D01*
Y73820D01*
Y73740D01*
Y73660D01*
Y73580D01*
Y73500D01*
X170857D01*
Y73420D01*
Y73340D01*
Y73260D01*
Y73180D01*
X170777D01*
Y73260D01*
Y73340D01*
Y73420D01*
Y73500D01*
Y73580D01*
Y73660D01*
Y73740D01*
X170697D01*
Y73820D01*
Y73900D01*
Y73980D01*
Y74060D01*
Y74140D01*
Y74220D01*
Y74300D01*
Y74380D01*
X170777D01*
Y74460D01*
Y74540D01*
Y74620D01*
Y74700D01*
Y74780D01*
Y74860D01*
X170857D01*
Y74780D01*
D02*
G37*
G36*
X157257Y71660D02*
X157177D01*
Y71740D01*
X157257D01*
Y71660D01*
D02*
G37*
G36*
X158137Y73020D02*
Y72940D01*
Y72860D01*
Y72780D01*
X158057D01*
Y72700D01*
Y72620D01*
Y72540D01*
Y72460D01*
Y72380D01*
Y72300D01*
X157977D01*
Y72220D01*
Y72140D01*
X157897D01*
Y72060D01*
X157737D01*
Y71980D01*
X157657D01*
Y71900D01*
X157497D01*
Y71820D01*
X157417D01*
Y71740D01*
X157257D01*
Y71820D01*
Y71900D01*
X157337D01*
Y71980D01*
X157417D01*
Y72060D01*
X157497D01*
Y72140D01*
X157577D01*
Y72220D01*
Y72300D01*
X157657D01*
Y72380D01*
X157737D01*
Y72460D01*
Y72540D01*
X157817D01*
Y72620D01*
X157897D01*
Y72700D01*
Y72780D01*
X157977D01*
Y72860D01*
Y72940D01*
X158057D01*
Y73020D01*
Y73100D01*
X158137D01*
Y73020D01*
D02*
G37*
G36*
X159097Y75500D02*
X159257D01*
Y75420D01*
X159337D01*
Y75340D01*
Y75260D01*
X159417D01*
Y75180D01*
Y75100D01*
Y75020D01*
Y74940D01*
Y74860D01*
Y74780D01*
Y74700D01*
Y74620D01*
Y74540D01*
Y74460D01*
Y74380D01*
Y74300D01*
Y74220D01*
Y74140D01*
X159337D01*
Y74220D01*
X159097D01*
Y74300D01*
X158937D01*
Y74380D01*
X158857D01*
Y74460D01*
X158777D01*
Y74540D01*
X158697D01*
Y74620D01*
X158617D01*
Y74700D01*
Y74780D01*
X158537D01*
Y74860D01*
Y74940D01*
X158457D01*
Y75020D01*
Y75100D01*
X158537D01*
Y75020D01*
X158617D01*
Y74940D01*
X158697D01*
Y74860D01*
X158937D01*
Y74940D01*
X159097D01*
Y75020D01*
Y75100D01*
X159177D01*
Y75180D01*
Y75260D01*
Y75340D01*
X159097D01*
Y75420D01*
X159017D01*
Y75500D01*
X158857D01*
Y75580D01*
X159097D01*
Y75500D01*
D02*
G37*
G36*
X158777D02*
X158617D01*
Y75420D01*
X158537D01*
Y75340D01*
X158457D01*
Y75260D01*
Y75180D01*
X158377D01*
Y75260D01*
Y75340D01*
Y75420D01*
X158457D01*
Y75500D01*
X158537D01*
Y75580D01*
X158777D01*
Y75500D01*
D02*
G37*
G36*
X160217Y77180D02*
X160297D01*
Y77100D01*
X160377D01*
Y77020D01*
Y76940D01*
Y76860D01*
Y76780D01*
X160217D01*
Y76700D01*
X160057D01*
Y76780D01*
X159977D01*
Y76860D01*
X159897D01*
Y76940D01*
Y77020D01*
Y77100D01*
X159977D01*
Y77180D01*
X160057D01*
Y77260D01*
X160217D01*
Y77180D01*
D02*
G37*
G36*
X158777Y76780D02*
X158697D01*
Y76860D01*
X158777D01*
Y76780D01*
D02*
G37*
%LPC*%
G36*
X136190Y93903D02*
X135310D01*
Y93823D01*
Y93743D01*
Y93663D01*
Y93583D01*
Y93503D01*
X135230D01*
Y93423D01*
Y93343D01*
Y93263D01*
Y93183D01*
X135070D01*
Y93103D01*
X134830D01*
Y93023D01*
X134750D01*
Y93103D01*
X134670D01*
Y93183D01*
X134510D01*
Y93263D01*
X134430D01*
Y93343D01*
X134270D01*
Y93423D01*
X134110D01*
Y93343D01*
X134030D01*
Y93263D01*
X133950D01*
Y93183D01*
X133870D01*
Y93103D01*
X133790D01*
Y93023D01*
X133710D01*
Y92943D01*
X133630D01*
Y92863D01*
Y92783D01*
X133710D01*
Y92703D01*
X133790D01*
Y92623D01*
X133870D01*
Y92543D01*
Y92463D01*
X133950D01*
Y92383D01*
X134030D01*
Y92303D01*
Y92223D01*
X133950D01*
Y92143D01*
Y92063D01*
Y91983D01*
X133870D01*
Y91903D01*
Y91823D01*
X133390D01*
Y91743D01*
X133150D01*
Y91663D01*
Y91583D01*
Y91503D01*
Y91423D01*
Y91343D01*
Y91263D01*
Y91183D01*
Y91103D01*
Y91023D01*
Y90943D01*
X133390D01*
Y90863D01*
X133790D01*
Y90783D01*
X133870D01*
Y90703D01*
Y90623D01*
X133950D01*
Y90543D01*
Y90463D01*
X134030D01*
Y90383D01*
Y90303D01*
X133950D01*
Y90223D01*
X133870D01*
Y90143D01*
Y90063D01*
X133790D01*
Y89983D01*
X133710D01*
Y89903D01*
X133630D01*
Y89823D01*
Y89743D01*
X133710D01*
Y89663D01*
X133790D01*
Y89583D01*
X133870D01*
Y89503D01*
X133950D01*
Y89423D01*
X134030D01*
Y89343D01*
X134110D01*
Y89263D01*
X134270D01*
Y89343D01*
X134430D01*
Y89423D01*
X134510D01*
Y89503D01*
X134670D01*
Y89583D01*
X134910D01*
Y89503D01*
X135070D01*
Y89583D01*
Y89663D01*
X135150D01*
Y89743D01*
Y89823D01*
X135230D01*
Y89903D01*
Y89983D01*
X135310D01*
Y90063D01*
Y90143D01*
Y90223D01*
X135390D01*
Y90303D01*
Y90383D01*
X135470D01*
Y90463D01*
Y90543D01*
X135550D01*
Y90623D01*
Y90703D01*
X135470D01*
Y90783D01*
X135310D01*
Y90863D01*
X135230D01*
Y90943D01*
Y91023D01*
X135150D01*
Y91103D01*
Y91183D01*
X135070D01*
Y91263D01*
Y91343D01*
Y91423D01*
Y91503D01*
X135150D01*
Y91583D01*
Y91663D01*
X135230D01*
Y91743D01*
Y91823D01*
X135390D01*
Y91903D01*
X135470D01*
Y91983D01*
X136030D01*
Y91903D01*
X136190D01*
Y91823D01*
X136270D01*
Y91743D01*
Y91663D01*
X136350D01*
Y91583D01*
Y91503D01*
X136430D01*
Y91423D01*
Y91343D01*
Y91263D01*
Y91183D01*
X136350D01*
Y91103D01*
Y91023D01*
Y90943D01*
X136270D01*
Y90863D01*
X136190D01*
Y90783D01*
X136030D01*
Y90703D01*
X135950D01*
Y90623D01*
Y90543D01*
X136030D01*
Y90463D01*
Y90383D01*
X136110D01*
Y90303D01*
Y90223D01*
X136190D01*
Y90143D01*
Y90063D01*
X136270D01*
Y89983D01*
Y89903D01*
Y89823D01*
X136350D01*
Y89743D01*
Y89663D01*
X136430D01*
Y89583D01*
Y89503D01*
X136670D01*
Y89583D01*
X136830D01*
Y89503D01*
X136990D01*
Y89423D01*
X137070D01*
Y89343D01*
X137230D01*
Y89263D01*
X137390D01*
Y89343D01*
X137470D01*
Y89423D01*
X137550D01*
Y89503D01*
X137630D01*
Y89583D01*
X137710D01*
Y89663D01*
X137790D01*
Y89743D01*
X137870D01*
Y89823D01*
Y89903D01*
X137790D01*
Y89983D01*
X137710D01*
Y90063D01*
X137630D01*
Y90143D01*
Y90223D01*
X137550D01*
Y90303D01*
X137470D01*
Y90383D01*
X137550D01*
Y90463D01*
Y90543D01*
Y90623D01*
X137630D01*
Y90703D01*
Y90783D01*
X137710D01*
Y90863D01*
X138110D01*
Y90943D01*
X138350D01*
Y91023D01*
Y91103D01*
Y91183D01*
Y91263D01*
Y91343D01*
Y91423D01*
Y91503D01*
Y91583D01*
Y91663D01*
Y91743D01*
X138110D01*
Y91823D01*
X137710D01*
Y91903D01*
X137630D01*
Y91983D01*
Y92063D01*
X137550D01*
Y92143D01*
Y92223D01*
X137470D01*
Y92303D01*
Y92383D01*
X137550D01*
Y92463D01*
X137630D01*
Y92543D01*
Y92623D01*
X137710D01*
Y92703D01*
X137790D01*
Y92783D01*
X137870D01*
Y92863D01*
Y92943D01*
X137790D01*
Y93023D01*
X137710D01*
Y93103D01*
X137630D01*
Y93183D01*
X137550D01*
Y93263D01*
X137470D01*
Y93343D01*
X137390D01*
Y93423D01*
X137230D01*
Y93343D01*
X137070D01*
Y93263D01*
X136990D01*
Y93183D01*
X136830D01*
Y93103D01*
X136750D01*
Y93023D01*
X136670D01*
Y93103D01*
X136510D01*
Y93183D01*
X136270D01*
Y93263D01*
Y93343D01*
Y93423D01*
Y93503D01*
X136190D01*
Y93583D01*
Y93663D01*
Y93743D01*
Y93823D01*
Y93903D01*
D02*
G37*
G36*
X152697Y72140D02*
X152617D01*
Y72060D01*
X152697D01*
Y72140D01*
D02*
G37*
G36*
Y70540D02*
X152617D01*
Y70460D01*
X152697D01*
Y70540D01*
D02*
G37*
G36*
X151417Y78140D02*
X150617D01*
Y78060D01*
X150377D01*
Y77980D01*
X150217D01*
Y77900D01*
X150057D01*
Y77820D01*
X149977D01*
Y77740D01*
X149897D01*
Y77660D01*
X149817D01*
Y77580D01*
X149737D01*
Y77500D01*
X149577D01*
Y77580D01*
X149497D01*
Y77660D01*
X149337D01*
Y77740D01*
X149177D01*
Y77820D01*
X149097D01*
Y77900D01*
X148937D01*
Y77980D01*
X148697D01*
Y78060D01*
X148537D01*
Y78140D01*
X148377D01*
Y78060D01*
X148297D01*
Y77980D01*
X148137D01*
Y77900D01*
X147977D01*
Y77820D01*
X147897D01*
Y77740D01*
X147817D01*
Y77660D01*
X147737D01*
Y77580D01*
X147657D01*
Y77500D01*
X147577D01*
Y77420D01*
X147497D01*
Y77340D01*
X147417D01*
Y77260D01*
X147337D01*
Y77180D01*
Y77100D01*
X147257D01*
Y77020D01*
Y76940D01*
X147177D01*
Y76860D01*
X147097D01*
Y76780D01*
Y76700D01*
Y76620D01*
X147017D01*
Y76540D01*
X146937D01*
Y76460D01*
Y76380D01*
Y76300D01*
X146857D01*
Y76220D01*
Y76140D01*
Y76060D01*
Y75980D01*
X146777D01*
Y75900D01*
Y75820D01*
Y75740D01*
Y75660D01*
Y75580D01*
Y75500D01*
Y75420D01*
Y75340D01*
Y75260D01*
Y75180D01*
Y75100D01*
Y75020D01*
Y74940D01*
Y74860D01*
Y74780D01*
Y74700D01*
X146857D01*
Y74620D01*
Y74540D01*
Y74460D01*
X146937D01*
Y74380D01*
Y74300D01*
X147017D01*
Y74220D01*
Y74140D01*
X147097D01*
Y74060D01*
Y73980D01*
X147177D01*
Y73900D01*
Y73820D01*
X147257D01*
Y73740D01*
X147337D01*
Y73660D01*
Y73580D01*
X147417D01*
Y73500D01*
X147497D01*
Y73420D01*
X147577D01*
Y73340D01*
X147657D01*
Y73260D01*
Y73180D01*
X147737D01*
Y73100D01*
X147817D01*
Y73020D01*
X147897D01*
Y72940D01*
X147977D01*
Y72860D01*
X148057D01*
Y72780D01*
X148137D01*
Y72700D01*
X148297D01*
Y72620D01*
X148377D01*
Y72540D01*
X148457D01*
Y72460D01*
X148537D01*
Y72380D01*
X148617D01*
Y72300D01*
X148697D01*
Y72220D01*
X148617D01*
Y72140D01*
X148537D01*
Y72060D01*
X148377D01*
Y71980D01*
X148297D01*
Y71900D01*
X148217D01*
Y71820D01*
Y71740D01*
X148297D01*
Y71660D01*
X148457D01*
Y71580D01*
X148617D01*
Y71500D01*
X148697D01*
Y71420D01*
X148857D01*
Y71340D01*
X148937D01*
Y71260D01*
X149017D01*
Y71180D01*
X149097D01*
Y71100D01*
X149177D01*
Y71020D01*
Y70940D01*
Y70860D01*
X149097D01*
Y70780D01*
Y70700D01*
X149017D01*
Y70620D01*
Y70540D01*
Y70460D01*
X148937D01*
Y70380D01*
Y70300D01*
Y70220D01*
Y70140D01*
X149017D01*
Y70060D01*
Y69980D01*
X149177D01*
Y69900D01*
X149497D01*
Y69980D01*
X149577D01*
Y70060D01*
X149657D01*
Y70140D01*
Y70220D01*
Y70300D01*
Y70380D01*
Y70460D01*
Y70540D01*
X149577D01*
Y70620D01*
Y70700D01*
Y70780D01*
X149497D01*
Y70860D01*
Y70940D01*
X149417D01*
Y71020D01*
Y71100D01*
X149497D01*
Y71180D01*
X149657D01*
Y71260D01*
X149737D01*
Y71340D01*
X149897D01*
Y71420D01*
X149977D01*
Y71500D01*
X150137D01*
Y71580D01*
X150377D01*
Y71660D01*
X151577D01*
Y71580D01*
X151657D01*
Y71500D01*
X151737D01*
Y71420D01*
Y71340D01*
Y71260D01*
X151897D01*
Y71180D01*
X152137D01*
Y71100D01*
X152297D01*
Y71020D01*
X152457D01*
Y70940D01*
X152537D01*
Y70860D01*
X152697D01*
Y70780D01*
X152777D01*
Y70700D01*
X152937D01*
Y70780D01*
Y70860D01*
Y70940D01*
Y71020D01*
Y71100D01*
Y71180D01*
X152857D01*
Y71260D01*
Y71340D01*
X152777D01*
Y71420D01*
Y71500D01*
X152697D01*
Y71580D01*
X152617D01*
Y71660D01*
X152537D01*
Y71740D01*
X152457D01*
Y71820D01*
X152377D01*
Y71900D01*
X152217D01*
Y71980D01*
X152137D01*
Y72060D01*
X151977D01*
Y72140D01*
X151817D01*
Y72220D01*
X151657D01*
Y72300D01*
X151497D01*
Y72380D01*
X151337D01*
Y72460D01*
X151097D01*
Y72540D01*
X151017D01*
Y72620D01*
Y72700D01*
X151097D01*
Y72780D01*
Y72860D01*
X151177D01*
Y72780D01*
Y72700D01*
X151257D01*
Y72620D01*
X151337D01*
Y72540D01*
X151497D01*
Y72460D01*
X151577D01*
Y72380D01*
X151737D01*
Y72300D01*
X151897D01*
Y72220D01*
X152137D01*
Y72300D01*
X152377D01*
Y72380D01*
X152537D01*
Y72460D01*
X152617D01*
Y72540D01*
X152697D01*
Y72620D01*
X152777D01*
Y72700D01*
X152937D01*
Y72780D01*
X153017D01*
Y72860D01*
X153097D01*
Y72940D01*
Y73020D01*
X153177D01*
Y73100D01*
X153257D01*
Y73180D01*
X153337D01*
Y73260D01*
X153417D01*
Y73340D01*
X153497D01*
Y73420D01*
X153577D01*
Y73500D01*
Y73580D01*
X153657D01*
Y73660D01*
X153737D01*
Y73740D01*
X153817D01*
Y73820D01*
Y73900D01*
X153897D01*
Y73980D01*
Y74060D01*
X153977D01*
Y74140D01*
Y74220D01*
X154057D01*
Y74300D01*
Y74380D01*
Y74460D01*
X154137D01*
Y74540D01*
Y74620D01*
Y74700D01*
Y74780D01*
Y74860D01*
Y74940D01*
Y75020D01*
Y75100D01*
Y75180D01*
Y75260D01*
Y75340D01*
Y75420D01*
X154057D01*
Y75500D01*
Y75580D01*
Y75660D01*
Y75740D01*
X153977D01*
Y75820D01*
Y75900D01*
Y75980D01*
X153897D01*
Y76060D01*
Y76140D01*
X153817D01*
Y76220D01*
Y76300D01*
X153737D01*
Y76380D01*
Y76460D01*
X153657D01*
Y76540D01*
X153577D01*
Y76620D01*
X153497D01*
Y76700D01*
Y76780D01*
X153417D01*
Y76860D01*
X153337D01*
Y76940D01*
X153257D01*
Y77020D01*
X153097D01*
Y77100D01*
X153017D01*
Y77180D01*
X152937D01*
Y77260D01*
X152777D01*
Y77340D01*
X152697D01*
Y77420D01*
X152537D01*
Y77500D01*
X152457D01*
Y77580D01*
X152297D01*
Y77660D01*
X152137D01*
Y77740D01*
X151977D01*
Y77820D01*
X151817D01*
Y77900D01*
X151657D01*
Y77980D01*
X151497D01*
Y78060D01*
X151417D01*
Y78140D01*
D02*
G37*
%LPD*%
G36*
X152377Y73100D02*
X152537D01*
Y73020D01*
X152377D01*
Y72940D01*
X152297D01*
Y73020D01*
Y73100D01*
Y73180D01*
X152377D01*
Y73100D01*
D02*
G37*
G36*
X150697Y72220D02*
Y72140D01*
Y72060D01*
Y71980D01*
X150457D01*
Y72060D01*
Y72140D01*
X150377D01*
Y72220D01*
X150457D01*
Y72300D01*
X150697D01*
Y72220D01*
D02*
G37*
G36*
X151577Y71980D02*
Y71900D01*
X151497D01*
Y71980D01*
Y72060D01*
X151577D01*
Y71980D01*
D02*
G37*
G36*
X151177Y72140D02*
Y72060D01*
Y71980D01*
X151017D01*
Y72060D01*
Y72140D01*
Y72220D01*
X151177D01*
Y72140D01*
D02*
G37*
G36*
X149417Y71980D02*
X149497D01*
Y71900D01*
X149577D01*
Y71820D01*
Y71740D01*
Y71660D01*
X149497D01*
Y71580D01*
X149417D01*
Y71500D01*
X149257D01*
Y71580D01*
X149177D01*
Y71660D01*
X149097D01*
Y71740D01*
Y71820D01*
Y71900D01*
X149177D01*
Y71980D01*
X149257D01*
Y72060D01*
X149417D01*
Y71980D01*
D02*
G37*
G36*
X149337Y70300D02*
Y70220D01*
X149177D01*
Y70300D01*
Y70380D01*
X149337D01*
Y70300D01*
D02*
G37*
G36*
X150057Y72220D02*
X150137D01*
Y72140D01*
Y72060D01*
Y71980D01*
Y71900D01*
X149817D01*
Y71980D01*
Y72060D01*
X149737D01*
Y72140D01*
X149817D01*
Y72220D01*
X149897D01*
Y72300D01*
X150057D01*
Y72220D01*
D02*
G37*
G36*
X149577Y76940D02*
Y76860D01*
Y76780D01*
Y76700D01*
Y76620D01*
Y76540D01*
Y76460D01*
Y76380D01*
Y76300D01*
Y76220D01*
Y76140D01*
Y76060D01*
X149417D01*
Y75980D01*
X149257D01*
Y75900D01*
X149097D01*
Y75820D01*
X149017D01*
Y75740D01*
X148937D01*
Y75660D01*
Y75580D01*
X148857D01*
Y75500D01*
Y75420D01*
Y75340D01*
Y75260D01*
Y75180D01*
Y75100D01*
Y75020D01*
Y74940D01*
X148937D01*
Y74860D01*
Y74780D01*
X149017D01*
Y74700D01*
X149097D01*
Y74620D01*
X149177D01*
Y74540D01*
X149337D01*
Y74460D01*
X149577D01*
Y74380D01*
Y74300D01*
X149497D01*
Y74220D01*
Y74140D01*
Y74060D01*
Y73980D01*
Y73900D01*
Y73820D01*
Y73740D01*
X149417D01*
Y73660D01*
Y73580D01*
Y73500D01*
Y73420D01*
Y73340D01*
Y73260D01*
Y73180D01*
X149577D01*
Y73100D01*
X149657D01*
Y73020D01*
X149817D01*
Y72940D01*
X149897D01*
Y72860D01*
X149977D01*
Y72780D01*
X150057D01*
Y72700D01*
X149657D01*
Y72620D01*
X149497D01*
Y72540D01*
X149417D01*
Y72620D01*
X149337D01*
Y72700D01*
X149177D01*
Y72780D01*
X149097D01*
Y72860D01*
X149017D01*
Y72940D01*
X148937D01*
Y73020D01*
Y73100D01*
X148857D01*
Y73180D01*
X148777D01*
Y73260D01*
X148697D01*
Y73340D01*
X148617D01*
Y73420D01*
Y73500D01*
X148537D01*
Y73580D01*
Y73660D01*
X148457D01*
Y73740D01*
Y73820D01*
Y73900D01*
X148377D01*
Y73980D01*
Y74060D01*
Y74140D01*
X148297D01*
Y74220D01*
Y74300D01*
Y74380D01*
Y74460D01*
Y74540D01*
Y74620D01*
Y74700D01*
Y74780D01*
Y74860D01*
Y74940D01*
Y75020D01*
Y75100D01*
Y75180D01*
Y75260D01*
Y75340D01*
Y75420D01*
Y75500D01*
Y75580D01*
X148377D01*
Y75660D01*
Y75740D01*
Y75820D01*
Y75900D01*
X148457D01*
Y75980D01*
Y76060D01*
X148537D01*
Y76140D01*
Y76220D01*
X148617D01*
Y76300D01*
Y76380D01*
X148697D01*
Y76460D01*
Y76540D01*
X148777D01*
Y76620D01*
X148857D01*
Y76700D01*
X148937D01*
Y76780D01*
X149017D01*
Y76860D01*
X149097D01*
Y76940D01*
X149177D01*
Y77020D01*
X149577D01*
Y76940D01*
D02*
G37*
G36*
X151417D02*
X151337D01*
Y77020D01*
X151417D01*
Y76940D01*
D02*
G37*
G36*
X151577Y77020D02*
X151417D01*
Y77100D01*
X151577D01*
Y77020D01*
D02*
G37*
G36*
X147897Y76300D02*
Y76220D01*
X147737D01*
Y76300D01*
Y76380D01*
X147897D01*
Y76300D01*
D02*
G37*
G36*
X152057Y77180D02*
X152137D01*
Y77100D01*
X152217D01*
Y77020D01*
X152297D01*
Y76940D01*
X152377D01*
Y76860D01*
X152457D01*
Y76780D01*
Y76700D01*
X152537D01*
Y76620D01*
Y76540D01*
X152617D01*
Y76460D01*
Y76380D01*
X152697D01*
Y76300D01*
Y76220D01*
Y76140D01*
Y76060D01*
X152777D01*
Y75980D01*
Y75900D01*
Y75820D01*
Y75740D01*
Y75660D01*
Y75580D01*
Y75500D01*
Y75420D01*
Y75340D01*
Y75260D01*
Y75180D01*
X152697D01*
Y75100D01*
Y75020D01*
Y74940D01*
X152617D01*
Y74860D01*
Y74780D01*
X152537D01*
Y74700D01*
Y74620D01*
X152457D01*
Y74540D01*
Y74460D01*
X152377D01*
Y74380D01*
X152297D01*
Y74300D01*
X152217D01*
Y74220D01*
Y74140D01*
X152137D01*
Y74060D01*
X152057D01*
Y73980D01*
X151977D01*
Y73900D01*
X151897D01*
Y73820D01*
X151737D01*
Y73740D01*
X151657D01*
Y73660D01*
X151577D01*
Y73580D01*
X151417D01*
Y73500D01*
X151257D01*
Y73580D01*
Y73660D01*
Y73740D01*
Y73820D01*
Y73900D01*
Y73980D01*
Y74060D01*
Y74140D01*
Y74220D01*
Y74300D01*
Y74380D01*
Y74460D01*
Y74540D01*
Y74620D01*
Y74700D01*
Y74780D01*
Y74860D01*
Y74940D01*
Y75020D01*
Y75100D01*
Y75180D01*
Y75260D01*
Y75340D01*
Y75420D01*
Y75500D01*
Y75580D01*
Y75660D01*
Y75740D01*
Y75820D01*
X151177D01*
Y75900D01*
Y75980D01*
Y76060D01*
Y76140D01*
Y76220D01*
Y76300D01*
Y76380D01*
Y76460D01*
Y76540D01*
Y76620D01*
X151257D01*
Y76540D01*
X151337D01*
Y76460D01*
Y76380D01*
Y76300D01*
X151417D01*
Y76220D01*
X151497D01*
Y76140D01*
X151737D01*
Y76060D01*
X151897D01*
Y76140D01*
X152057D01*
Y76220D01*
X152217D01*
Y76300D01*
Y76380D01*
X152297D01*
Y76460D01*
Y76540D01*
Y76620D01*
Y76700D01*
Y76780D01*
Y76860D01*
X152217D01*
Y76940D01*
X152137D01*
Y77020D01*
X152057D01*
Y77100D01*
X151577D01*
Y77180D01*
X151817D01*
Y77260D01*
X152057D01*
Y77180D01*
D02*
G37*
G36*
X151337Y76780D02*
Y76700D01*
X151257D01*
Y76780D01*
Y76860D01*
X151337D01*
Y76780D01*
D02*
G37*
G36*
X148137Y76620D02*
X148297D01*
Y76540D01*
X148057D01*
Y76620D01*
Y76700D01*
X148137D01*
Y76620D01*
D02*
G37*
G36*
X149817Y75900D02*
X149977D01*
Y75820D01*
X150137D01*
Y75740D01*
Y75660D01*
X150217D01*
Y75580D01*
X150297D01*
Y75500D01*
Y75420D01*
Y75340D01*
X150377D01*
Y75260D01*
Y75180D01*
Y75100D01*
X150297D01*
Y75020D01*
Y74940D01*
X150217D01*
Y74860D01*
Y74780D01*
X150137D01*
Y74700D01*
X150057D01*
Y74620D01*
X149897D01*
Y74540D01*
X149657D01*
Y74620D01*
X149737D01*
Y74700D01*
Y74780D01*
Y74860D01*
Y74940D01*
Y75020D01*
Y75100D01*
Y75180D01*
Y75260D01*
Y75340D01*
Y75420D01*
Y75500D01*
Y75580D01*
Y75660D01*
Y75740D01*
Y75820D01*
Y75900D01*
Y75980D01*
X149817D01*
Y75900D01*
D02*
G37*
%LPC*%
G36*
X148697Y74700D02*
X148617D01*
Y74620D01*
X148697D01*
Y74700D01*
D02*
G37*
G36*
Y74540D02*
X148617D01*
Y74460D01*
X148697D01*
Y74380D01*
X148617D01*
Y74300D01*
X148697D01*
Y74220D01*
X148617D01*
Y74140D01*
X148697D01*
Y74060D01*
X148777D01*
Y73980D01*
X148857D01*
Y73900D01*
X148777D01*
Y73820D01*
X148857D01*
Y73740D01*
X148937D01*
Y73660D01*
X149017D01*
Y73580D01*
X149097D01*
Y73660D01*
X149177D01*
Y73740D01*
X149097D01*
Y73820D01*
X149177D01*
Y73900D01*
X149097D01*
Y73980D01*
X149177D01*
Y74060D01*
Y74140D01*
Y74220D01*
X148937D01*
Y74300D01*
X148857D01*
Y74380D01*
X148777D01*
Y74460D01*
X148697D01*
Y74540D01*
D02*
G37*
G36*
X149017Y76300D02*
X148937D01*
Y76220D01*
X149017D01*
Y76300D01*
D02*
G37*
G36*
Y73580D02*
X148937D01*
Y73500D01*
X149017D01*
Y73580D01*
D02*
G37*
G36*
X149337Y76620D02*
X149257D01*
Y76540D01*
X149337D01*
Y76620D01*
D02*
G37*
G36*
X149257Y76540D02*
X149177D01*
Y76460D01*
X149097D01*
Y76380D01*
X149017D01*
Y76300D01*
X149097D01*
Y76220D01*
X149177D01*
Y76300D01*
X149257D01*
Y76380D01*
X149337D01*
Y76460D01*
X149257D01*
Y76540D01*
D02*
G37*
G36*
X151657Y74300D02*
X151577D01*
Y74220D01*
X151657D01*
Y74140D01*
X151737D01*
Y74220D01*
X151657D01*
Y74300D01*
D02*
G37*
G36*
X152377Y75980D02*
X152297D01*
Y75900D01*
X152377D01*
Y75820D01*
X152457D01*
Y75900D01*
X152377D01*
Y75980D01*
D02*
G37*
G36*
Y75820D02*
X152137D01*
Y75740D01*
X152057D01*
Y75820D01*
X151977D01*
Y75740D01*
X151897D01*
Y75820D01*
X151817D01*
Y75740D01*
X151737D01*
Y75820D01*
X151657D01*
Y75740D01*
X151577D01*
Y75820D01*
X151497D01*
Y75740D01*
X151577D01*
Y75660D01*
X151497D01*
Y75580D01*
X151577D01*
Y75500D01*
X151657D01*
Y75420D01*
X151577D01*
Y75500D01*
X151497D01*
Y75420D01*
X151577D01*
Y75340D01*
Y75260D01*
Y75180D01*
X151657D01*
Y75100D01*
X151577D01*
Y75020D01*
X151657D01*
Y74940D01*
X151577D01*
Y74860D01*
X151657D01*
Y74780D01*
X151577D01*
Y74700D01*
X151657D01*
Y74620D01*
X151577D01*
Y74540D01*
X151657D01*
Y74460D01*
X151577D01*
Y74380D01*
X151657D01*
Y74300D01*
X151817D01*
Y74380D01*
Y74460D01*
X151897D01*
Y74540D01*
X151977D01*
Y74620D01*
X152057D01*
Y74700D01*
X152137D01*
Y74780D01*
X152217D01*
Y74860D01*
Y74940D01*
X152377D01*
Y75020D01*
X152297D01*
Y75100D01*
X152377D01*
Y75180D01*
X152297D01*
Y75260D01*
X152377D01*
Y75340D01*
X152457D01*
Y75420D01*
X152537D01*
Y75500D01*
X152457D01*
Y75580D01*
X152537D01*
Y75660D01*
X152457D01*
Y75740D01*
X152377D01*
Y75820D01*
D02*
G37*
G36*
X141977Y73740D02*
X141897D01*
Y73660D01*
X141977D01*
Y73740D01*
D02*
G37*
G36*
X139577D02*
X139497D01*
Y73660D01*
X139577D01*
Y73740D01*
D02*
G37*
G36*
X139097Y73420D02*
X138857D01*
Y73340D01*
X139097D01*
Y73420D01*
D02*
G37*
G36*
X138617D02*
X138537D01*
Y73340D01*
X138617D01*
Y73420D01*
D02*
G37*
G36*
X138777D02*
X138697D01*
Y73340D01*
X138777D01*
Y73420D01*
D02*
G37*
G36*
X139417Y73740D02*
X139177D01*
Y73660D01*
X139257D01*
Y73580D01*
X139097D01*
Y73500D01*
Y73420D01*
X139177D01*
Y73340D01*
X139257D01*
Y73420D01*
Y73500D01*
X139417D01*
Y73580D01*
Y73660D01*
Y73740D01*
D02*
G37*
G36*
X141817Y74060D02*
X141737D01*
Y73980D01*
X141817D01*
Y74060D01*
D02*
G37*
G36*
X144537Y76460D02*
X143897D01*
Y76380D01*
X143737D01*
Y76300D01*
X143657D01*
Y76220D01*
X143577D01*
Y76140D01*
X143497D01*
Y76060D01*
X143417D01*
Y75980D01*
Y75900D01*
X143337D01*
Y75820D01*
Y75740D01*
X143257D01*
Y75660D01*
X143177D01*
Y75580D01*
Y75500D01*
X143097D01*
Y75420D01*
Y75340D01*
X143017D01*
Y75260D01*
Y75180D01*
X142937D01*
Y75100D01*
Y75020D01*
X142857D01*
Y74940D01*
Y74860D01*
Y74780D01*
X142777D01*
Y74700D01*
Y74620D01*
X142697D01*
Y74540D01*
Y74460D01*
X142617D01*
Y74380D01*
Y74300D01*
X142537D01*
Y74220D01*
Y74140D01*
X142457D01*
Y74060D01*
Y73980D01*
Y73900D01*
X142377D01*
Y73820D01*
Y73740D01*
X142297D01*
Y73660D01*
Y73580D01*
X142217D01*
Y73500D01*
Y73420D01*
X142137D01*
Y73340D01*
Y73260D01*
Y73180D01*
X142057D01*
Y73100D01*
Y73020D01*
X141977D01*
Y72940D01*
X141897D01*
Y72860D01*
X141657D01*
Y72940D01*
X141577D01*
Y73020D01*
X141497D01*
Y73100D01*
Y73180D01*
X141577D01*
Y73260D01*
Y73340D01*
Y73420D01*
Y73500D01*
Y73580D01*
Y73660D01*
Y73740D01*
Y73820D01*
X141497D01*
Y73900D01*
Y73980D01*
Y74060D01*
X141417D01*
Y74140D01*
Y74220D01*
Y74300D01*
X141337D01*
Y74380D01*
Y74460D01*
X141257D01*
Y74540D01*
X141177D01*
Y74620D01*
Y74700D01*
X141097D01*
Y74780D01*
X141017D01*
Y74860D01*
Y74940D01*
X140937D01*
Y75020D01*
X140857D01*
Y75100D01*
X141417D01*
Y75020D01*
X141497D01*
Y74940D01*
X141817D01*
Y75020D01*
Y75100D01*
Y75180D01*
X141737D01*
Y75260D01*
X141657D01*
Y75340D01*
X141577D01*
Y75420D01*
Y75500D01*
X141497D01*
Y75580D01*
X141417D01*
Y75660D01*
X141337D01*
Y75740D01*
Y75820D01*
X141257D01*
Y75900D01*
X141177D01*
Y75980D01*
Y76060D01*
X141097D01*
Y76140D01*
X141017D01*
Y76220D01*
X140937D01*
Y76300D01*
Y76380D01*
X137497D01*
Y76300D01*
X137417D01*
Y76220D01*
Y76140D01*
X137497D01*
Y76060D01*
X137577D01*
Y75980D01*
Y75900D01*
X137657D01*
Y75820D01*
X137737D01*
Y75740D01*
Y75660D01*
X137817D01*
Y75580D01*
X137897D01*
Y75500D01*
Y75420D01*
X137977D01*
Y75340D01*
X138057D01*
Y75260D01*
Y75180D01*
X138137D01*
Y75100D01*
X138217D01*
Y75020D01*
Y74940D01*
X138297D01*
Y74860D01*
X138457D01*
Y74940D01*
X138537D01*
Y74860D01*
Y74780D01*
Y74700D01*
Y74620D01*
X138617D01*
Y74540D01*
Y74460D01*
Y74380D01*
Y74300D01*
Y74220D01*
Y74140D01*
Y74060D01*
Y73980D01*
Y73900D01*
Y73820D01*
Y73740D01*
Y73660D01*
X138857D01*
Y73740D01*
Y73820D01*
Y73900D01*
Y73980D01*
X138937D01*
Y74060D01*
Y74140D01*
Y74220D01*
Y74300D01*
Y74380D01*
Y74460D01*
Y74540D01*
Y74620D01*
Y74700D01*
Y74780D01*
Y74860D01*
X138857D01*
Y74940D01*
X139337D01*
Y74860D01*
X139257D01*
Y74780D01*
X139177D01*
Y74700D01*
Y74620D01*
Y74540D01*
Y74460D01*
Y74380D01*
Y74300D01*
X139257D01*
Y74220D01*
X139337D01*
Y74140D01*
X139417D01*
Y74060D01*
X139577D01*
Y73980D01*
X139817D01*
Y74060D01*
X139977D01*
Y74140D01*
X140057D01*
Y74220D01*
X140137D01*
Y74300D01*
Y74380D01*
X140217D01*
Y74300D01*
Y74220D01*
Y74140D01*
Y74060D01*
X140137D01*
Y73980D01*
Y73900D01*
Y73820D01*
X140057D01*
Y73740D01*
Y73660D01*
X139977D01*
Y73580D01*
Y73500D01*
X139897D01*
Y73420D01*
X139817D01*
Y73340D01*
X139657D01*
Y73260D01*
X139577D01*
Y73180D01*
X139497D01*
Y73100D01*
X139337D01*
Y73020D01*
X139097D01*
Y72940D01*
X138697D01*
Y73020D01*
X138457D01*
Y73100D01*
X138297D01*
Y73180D01*
X138137D01*
Y73260D01*
X137977D01*
Y73180D01*
Y73100D01*
Y73020D01*
X138057D01*
Y72940D01*
Y72860D01*
X138137D01*
Y72780D01*
X138217D01*
Y72700D01*
X138297D01*
Y72620D01*
X138377D01*
Y72540D01*
X138457D01*
Y72460D01*
X138537D01*
Y72380D01*
X138617D01*
Y72300D01*
X138697D01*
Y72220D01*
X138777D01*
Y72140D01*
X138857D01*
Y72060D01*
X138937D01*
Y71980D01*
X139097D01*
Y71900D01*
X139177D01*
Y71820D01*
X139257D01*
Y71740D01*
X139417D01*
Y71660D01*
X139977D01*
Y71740D01*
X140217D01*
Y71820D01*
X140377D01*
Y71900D01*
X140537D01*
Y71980D01*
X140617D01*
Y72060D01*
X140777D01*
Y72140D01*
X140857D01*
Y72220D01*
X140937D01*
Y72300D01*
X141017D01*
Y72380D01*
X141097D01*
Y72460D01*
X141177D01*
Y72540D01*
X141257D01*
Y72620D01*
X141337D01*
Y72700D01*
Y72780D01*
X141417D01*
Y72700D01*
Y72620D01*
X141497D01*
Y72540D01*
X141577D01*
Y72460D01*
X141657D01*
Y72380D01*
X141737D01*
Y72300D01*
X141817D01*
Y72220D01*
X141897D01*
Y72140D01*
X141977D01*
Y72060D01*
X142057D01*
Y71980D01*
X142137D01*
Y71900D01*
X142217D01*
Y71820D01*
X142297D01*
Y71740D01*
X142377D01*
Y71660D01*
X142537D01*
Y71580D01*
X142857D01*
Y71660D01*
X143017D01*
Y71740D01*
X143097D01*
Y71820D01*
X143177D01*
Y71900D01*
X143257D01*
Y71980D01*
X143337D01*
Y72060D01*
X143417D01*
Y72140D01*
Y72220D01*
X143497D01*
Y72300D01*
Y72380D01*
X143577D01*
Y72460D01*
Y72540D01*
X143737D01*
Y72460D01*
X143817D01*
Y72380D01*
X143897D01*
Y72300D01*
X143977D01*
Y72220D01*
X144137D01*
Y72140D01*
X144217D01*
Y72060D01*
X144297D01*
Y71980D01*
X144457D01*
Y71900D01*
X144537D01*
Y71820D01*
X144697D01*
Y71740D01*
X144937D01*
Y71660D01*
X145817D01*
Y71740D01*
X145977D01*
Y71820D01*
X146137D01*
Y71900D01*
X146217D01*
Y71980D01*
X146297D01*
Y72060D01*
X146377D01*
Y72140D01*
X146457D01*
Y72220D01*
Y72300D01*
X146537D01*
Y72380D01*
Y72460D01*
Y72540D01*
Y72620D01*
Y72700D01*
Y72780D01*
Y72860D01*
Y72940D01*
Y73020D01*
Y73100D01*
X146457D01*
Y73180D01*
Y73260D01*
Y73340D01*
X146377D01*
Y73420D01*
X146297D01*
Y73500D01*
X146217D01*
Y73580D01*
Y73660D01*
X146137D01*
Y73740D01*
X146057D01*
Y73820D01*
X145897D01*
Y73900D01*
X145817D01*
Y73980D01*
X145737D01*
Y74060D01*
X145657D01*
Y74140D01*
X145577D01*
Y74220D01*
X145497D01*
Y74300D01*
X145337D01*
Y74380D01*
X145257D01*
Y74460D01*
X145177D01*
Y74540D01*
X145017D01*
Y74620D01*
X144937D01*
Y74700D01*
X144697D01*
Y74620D01*
Y74540D01*
X144617D01*
Y74460D01*
Y74380D01*
Y74300D01*
Y74220D01*
X144777D01*
Y74140D01*
X144857D01*
Y74060D01*
X144937D01*
Y73980D01*
X145017D01*
Y73900D01*
X145097D01*
Y73820D01*
X144937D01*
Y73900D01*
X144537D01*
Y73820D01*
X144377D01*
Y73740D01*
Y73660D01*
X144297D01*
Y73580D01*
Y73500D01*
Y73420D01*
Y73340D01*
Y73260D01*
Y73180D01*
X144377D01*
Y73100D01*
X144457D01*
Y73020D01*
X144537D01*
Y72940D01*
X144937D01*
Y73020D01*
X145097D01*
Y72940D01*
X145017D01*
Y72860D01*
X144297D01*
Y72940D01*
X144057D01*
Y73020D01*
X143897D01*
Y73100D01*
Y73180D01*
Y73260D01*
X143977D01*
Y73340D01*
Y73420D01*
X144057D01*
Y73500D01*
Y73580D01*
X144137D01*
Y73660D01*
Y73740D01*
X144217D01*
Y73820D01*
Y73900D01*
Y73980D01*
X144297D01*
Y74060D01*
Y74140D01*
X144377D01*
Y74220D01*
Y74300D01*
X144457D01*
Y74380D01*
Y74460D01*
X144537D01*
Y74540D01*
Y74620D01*
Y74700D01*
X144617D01*
Y74780D01*
Y74860D01*
X144697D01*
Y74940D01*
X144777D01*
Y75020D01*
Y75100D01*
X144857D01*
Y75180D01*
X145017D01*
Y75260D01*
X145417D01*
Y75180D01*
X145497D01*
Y75100D01*
X145577D01*
Y75020D01*
X145497D01*
Y74940D01*
Y74860D01*
Y74780D01*
X145417D01*
Y74700D01*
Y74620D01*
X145497D01*
Y74540D01*
Y74460D01*
X145817D01*
Y74540D01*
X145897D01*
Y74620D01*
Y74700D01*
Y74780D01*
Y74860D01*
X145817D01*
Y74940D01*
Y75020D01*
Y75100D01*
Y75180D01*
X145897D01*
Y75260D01*
Y75340D01*
X145817D01*
Y75420D01*
X145737D01*
Y75500D01*
X145657D01*
Y75580D01*
X145577D01*
Y75660D01*
X145497D01*
Y75740D01*
X145417D01*
Y75820D01*
X145337D01*
Y75900D01*
X145257D01*
Y75980D01*
X145177D01*
Y76060D01*
X145017D01*
Y76140D01*
X144937D01*
Y76220D01*
X144857D01*
Y76300D01*
X144697D01*
Y76380D01*
X144537D01*
Y76460D01*
D02*
G37*
G36*
X137657Y75340D02*
X137577D01*
Y75260D01*
X137657D01*
Y75340D01*
D02*
G37*
G36*
X146297Y74060D02*
X146217D01*
Y73980D01*
X146297D01*
Y74060D01*
D02*
G37*
G36*
X134457Y78780D02*
X133577D01*
Y78700D01*
X133417D01*
Y78620D01*
X133257D01*
Y78540D01*
X133177D01*
Y78460D01*
X133017D01*
Y78380D01*
Y78300D01*
Y78220D01*
X133097D01*
Y78140D01*
X133177D01*
Y78060D01*
X133337D01*
Y77980D01*
X133417D01*
Y77900D01*
X133497D01*
Y77820D01*
X133577D01*
Y77740D01*
X133657D01*
Y77660D01*
X133737D01*
Y77580D01*
X133817D01*
Y77500D01*
Y77420D01*
X133737D01*
Y77340D01*
Y77260D01*
X133657D01*
Y77180D01*
Y77100D01*
Y77020D01*
X133577D01*
Y76940D01*
Y76860D01*
Y76780D01*
Y76700D01*
Y76620D01*
X133657D01*
Y76540D01*
X133737D01*
Y76460D01*
X133817D01*
Y76380D01*
X134057D01*
Y76300D01*
Y76220D01*
X133977D01*
Y76140D01*
Y76060D01*
Y75980D01*
X133897D01*
Y75900D01*
Y75820D01*
X133817D01*
Y75740D01*
X133737D01*
Y75660D01*
Y75580D01*
X133657D01*
Y75500D01*
Y75420D01*
X133577D01*
Y75340D01*
X133497D01*
Y75260D01*
Y75180D01*
X133417D01*
Y75100D01*
X133337D01*
Y75020D01*
Y74940D01*
X133257D01*
Y74860D01*
Y74780D01*
X133177D01*
Y74700D01*
Y74620D01*
X133097D01*
Y74540D01*
Y74460D01*
Y74380D01*
X133017D01*
Y74300D01*
Y74220D01*
Y74140D01*
Y74060D01*
Y73980D01*
Y73900D01*
Y73820D01*
Y73740D01*
Y73660D01*
Y73580D01*
Y73500D01*
Y73420D01*
Y73340D01*
X133097D01*
Y73260D01*
Y73180D01*
Y73100D01*
Y73020D01*
X133177D01*
Y72940D01*
Y72860D01*
X133257D01*
Y72780D01*
Y72700D01*
X133337D01*
Y72620D01*
Y72540D01*
X133417D01*
Y72460D01*
X133497D01*
Y72380D01*
Y72300D01*
X133577D01*
Y72220D01*
X133657D01*
Y72140D01*
X133737D01*
Y72060D01*
Y71980D01*
X133817D01*
Y71900D01*
X133897D01*
Y71820D01*
X133977D01*
Y71740D01*
X134057D01*
Y71660D01*
X134137D01*
Y71580D01*
X134217D01*
Y71500D01*
X134297D01*
Y71420D01*
X134377D01*
Y71340D01*
X134457D01*
Y71260D01*
X134537D01*
Y71180D01*
X134457D01*
Y71100D01*
X134377D01*
Y71020D01*
X134297D01*
Y70940D01*
Y70860D01*
X134217D01*
Y70780D01*
X134137D01*
Y70700D01*
Y70620D01*
Y70540D01*
X134297D01*
Y70460D01*
X134377D01*
Y70380D01*
X134457D01*
Y70300D01*
X134537D01*
Y70220D01*
X134617D01*
Y70140D01*
X134697D01*
Y70060D01*
X134777D01*
Y69980D01*
X134857D01*
Y69900D01*
X135017D01*
Y69820D01*
Y69740D01*
X135177D01*
Y69820D01*
X135257D01*
Y69900D01*
X135337D01*
Y69980D01*
X135417D01*
Y70060D01*
X135497D01*
Y70140D01*
X135577D01*
Y70220D01*
X135657D01*
Y70300D01*
Y70380D01*
X135737D01*
Y70460D01*
X135817D01*
Y70540D01*
X135897D01*
Y70620D01*
Y70700D01*
X135817D01*
Y70780D01*
X135737D01*
Y70860D01*
X135577D01*
Y70940D01*
X135497D01*
Y71020D01*
X135417D01*
Y71100D01*
X135337D01*
Y71180D01*
X135257D01*
Y71260D01*
X135097D01*
Y71340D01*
X135017D01*
Y71420D01*
X134937D01*
Y71500D01*
X134857D01*
Y71580D01*
Y71660D01*
X134777D01*
Y71740D01*
X134697D01*
Y71820D01*
X134617D01*
Y71900D01*
Y71980D01*
X134537D01*
Y72060D01*
Y72140D01*
X134457D01*
Y72220D01*
Y72300D01*
Y72380D01*
Y72460D01*
X134377D01*
Y72540D01*
Y72620D01*
Y72700D01*
Y72780D01*
Y72860D01*
Y72940D01*
Y73020D01*
Y73100D01*
Y73180D01*
Y73260D01*
X134457D01*
Y73340D01*
Y73420D01*
Y73500D01*
Y73580D01*
X134537D01*
Y73660D01*
Y73740D01*
X134617D01*
Y73820D01*
Y73900D01*
Y73980D01*
X134697D01*
Y74060D01*
Y74140D01*
X134777D01*
Y74220D01*
Y74300D01*
X134857D01*
Y74380D01*
Y74460D01*
X134937D01*
Y74540D01*
Y74620D01*
X135017D01*
Y74700D01*
Y74780D01*
X135097D01*
Y74860D01*
X135257D01*
Y74780D01*
X135337D01*
Y74700D01*
X135417D01*
Y74620D01*
X135497D01*
Y74540D01*
X135657D01*
Y74460D01*
X135737D01*
Y74380D01*
Y74300D01*
Y74220D01*
Y74140D01*
Y74060D01*
Y73980D01*
Y73900D01*
X135657D01*
Y73820D01*
Y73740D01*
Y73660D01*
Y73580D01*
Y73500D01*
Y73420D01*
Y73340D01*
Y73260D01*
Y73180D01*
X135577D01*
Y73100D01*
Y73020D01*
Y72940D01*
Y72860D01*
X135497D01*
Y72780D01*
Y72700D01*
Y72620D01*
X135417D01*
Y72540D01*
Y72460D01*
Y72380D01*
X135577D01*
Y72300D01*
X135657D01*
Y72220D01*
X135737D01*
Y72140D01*
X135897D01*
Y72060D01*
X135977D01*
Y71980D01*
X136057D01*
Y71900D01*
X136217D01*
Y71820D01*
X136297D01*
Y71740D01*
X136377D01*
Y71660D01*
X136537D01*
Y71580D01*
X136617D01*
Y71660D01*
X136697D01*
Y71740D01*
X136777D01*
Y71820D01*
Y71900D01*
X136857D01*
Y71980D01*
Y72060D01*
X136937D01*
Y72140D01*
Y72220D01*
X137017D01*
Y72300D01*
Y72380D01*
Y72460D01*
X137097D01*
Y72540D01*
Y72620D01*
Y72700D01*
Y72780D01*
Y72860D01*
Y72940D01*
X137177D01*
Y73020D01*
Y73100D01*
Y73180D01*
Y73260D01*
Y73340D01*
Y73420D01*
Y73500D01*
Y73580D01*
Y73660D01*
Y73740D01*
Y73820D01*
Y73900D01*
Y73980D01*
Y74060D01*
Y74140D01*
Y74220D01*
Y74300D01*
Y74380D01*
Y74460D01*
Y74540D01*
Y74620D01*
Y74700D01*
Y74780D01*
Y74860D01*
Y74940D01*
Y75020D01*
Y75100D01*
Y75180D01*
Y75260D01*
Y75340D01*
Y75420D01*
Y75500D01*
Y75580D01*
Y75660D01*
Y75740D01*
Y75820D01*
Y75900D01*
Y75980D01*
Y76060D01*
Y76140D01*
Y76220D01*
Y76300D01*
Y76380D01*
Y76460D01*
Y76540D01*
Y76620D01*
Y76700D01*
X137337D01*
Y76620D01*
X137577D01*
Y76700D01*
Y76780D01*
X137657D01*
Y76860D01*
Y76940D01*
Y77020D01*
X137577D01*
Y77100D01*
X137417D01*
Y77180D01*
X137337D01*
Y77260D01*
X137257D01*
Y77340D01*
X137097D01*
Y77420D01*
X137017D01*
Y77500D01*
X136857D01*
Y77580D01*
X136777D01*
Y77660D01*
X136617D01*
Y77740D01*
X136537D01*
Y77820D01*
X136377D01*
Y77900D01*
X136297D01*
Y77980D01*
X136137D01*
Y78060D01*
X135977D01*
Y78140D01*
X135817D01*
Y78220D01*
X135737D01*
Y78300D01*
X135577D01*
Y78380D01*
X135417D01*
Y78460D01*
X135177D01*
Y78540D01*
X135017D01*
Y78620D01*
X134777D01*
Y78700D01*
X134457D01*
Y78780D01*
D02*
G37*
G36*
X137017Y77900D02*
X136937D01*
Y77820D01*
X137017D01*
Y77900D01*
D02*
G37*
%LPD*%
G36*
X140617Y73020D02*
X140697D01*
Y72940D01*
Y72860D01*
Y72780D01*
Y72700D01*
X140617D01*
Y72620D01*
X140297D01*
Y72700D01*
X140217D01*
Y72780D01*
Y72860D01*
Y72940D01*
X140297D01*
Y73020D01*
X140377D01*
Y73100D01*
X140617D01*
Y73020D01*
D02*
G37*
G36*
X142697D02*
X142777D01*
Y72940D01*
Y72860D01*
X142697D01*
Y72940D01*
X142617D01*
Y73020D01*
Y73100D01*
X142697D01*
Y73020D01*
D02*
G37*
G36*
X145177D02*
X145097D01*
Y73100D01*
X145177D01*
Y73020D01*
D02*
G37*
G36*
X145257Y73180D02*
Y73100D01*
X145177D01*
Y73180D01*
Y73260D01*
X145257D01*
Y73180D01*
D02*
G37*
G36*
X139817Y72620D02*
X139897D01*
Y72540D01*
Y72460D01*
Y72380D01*
Y72300D01*
Y72220D01*
X139817D01*
Y72140D01*
X139657D01*
Y72060D01*
X139497D01*
Y72140D01*
X139417D01*
Y72220D01*
X139337D01*
Y72300D01*
Y72380D01*
Y72460D01*
Y72540D01*
Y72620D01*
X139417D01*
Y72700D01*
X139817D01*
Y72620D01*
D02*
G37*
G36*
X142777Y72300D02*
X142697D01*
Y72220D01*
Y72140D01*
X142617D01*
Y72220D01*
Y72300D01*
Y72380D01*
X142777D01*
Y72300D01*
D02*
G37*
G36*
X143257Y72620D02*
X143017D01*
Y72540D01*
X142937D01*
Y72620D01*
Y72700D01*
X143257D01*
Y72620D01*
D02*
G37*
G36*
X142457Y72700D02*
Y72620D01*
Y72540D01*
X142377D01*
Y72620D01*
X142137D01*
Y72700D01*
X142377D01*
Y72780D01*
X142457D01*
Y72700D01*
D02*
G37*
G36*
X145897Y72780D02*
X145977D01*
Y72700D01*
X146057D01*
Y72620D01*
Y72540D01*
Y72460D01*
X145977D01*
Y72380D01*
X145817D01*
Y72300D01*
X145737D01*
Y72380D01*
X145657D01*
Y72460D01*
X145577D01*
Y72540D01*
Y72620D01*
Y72700D01*
Y72780D01*
X145657D01*
Y72860D01*
X145897D01*
Y72780D01*
D02*
G37*
G36*
X138777Y75340D02*
Y75260D01*
X138697D01*
Y75340D01*
X138617D01*
Y75420D01*
X138777D01*
Y75340D01*
D02*
G37*
G36*
X138537Y75660D02*
Y75580D01*
X138377D01*
Y75660D01*
X138457D01*
Y75740D01*
X138537D01*
Y75660D01*
D02*
G37*
G36*
X139497Y74940D02*
X139337D01*
Y75020D01*
X139497D01*
Y74940D01*
D02*
G37*
G36*
X138777Y75900D02*
Y75820D01*
X138697D01*
Y75900D01*
Y75980D01*
X138777D01*
Y75900D01*
D02*
G37*
G36*
X145257Y73660D02*
Y73580D01*
X145177D01*
Y73660D01*
Y73740D01*
X145257D01*
Y73660D01*
D02*
G37*
G36*
X141177Y73580D02*
Y73500D01*
Y73420D01*
Y73340D01*
X141097D01*
Y73260D01*
X140937D01*
Y73340D01*
X140857D01*
Y73420D01*
X140777D01*
Y73500D01*
Y73580D01*
X140857D01*
Y73660D01*
X141177D01*
Y73580D01*
D02*
G37*
G36*
X145337Y73420D02*
Y73340D01*
X145257D01*
Y73420D01*
Y73500D01*
X145337D01*
Y73420D01*
D02*
G37*
G36*
X140937Y74300D02*
Y74220D01*
Y74140D01*
X140697D01*
Y74220D01*
Y74300D01*
X140777D01*
Y74380D01*
X140937D01*
Y74300D01*
D02*
G37*
G36*
X140697Y74780D02*
Y74700D01*
X140537D01*
Y74780D01*
X140457D01*
Y74860D01*
X140697D01*
Y74780D01*
D02*
G37*
G36*
X133897Y73100D02*
Y73020D01*
Y72940D01*
X133657D01*
Y73020D01*
Y73100D01*
Y73180D01*
X133897D01*
Y73100D01*
D02*
G37*
G36*
X134057Y72460D02*
Y72380D01*
Y72300D01*
X133977D01*
Y72380D01*
X133897D01*
Y72460D01*
Y72540D01*
X134057D01*
Y72460D01*
D02*
G37*
G36*
X134937Y77900D02*
X135257D01*
Y77820D01*
X135417D01*
Y77740D01*
X135577D01*
Y77660D01*
X135657D01*
Y77580D01*
Y77500D01*
Y77420D01*
Y77340D01*
Y77260D01*
Y77180D01*
Y77100D01*
Y77020D01*
Y76940D01*
Y76860D01*
Y76780D01*
Y76700D01*
Y76620D01*
Y76540D01*
Y76460D01*
Y76380D01*
Y76300D01*
Y76220D01*
Y76140D01*
Y76060D01*
Y75980D01*
Y75900D01*
Y75820D01*
Y75740D01*
Y75660D01*
Y75580D01*
Y75500D01*
Y75420D01*
Y75340D01*
Y75260D01*
X135577D01*
Y75340D01*
X135497D01*
Y75420D01*
X135417D01*
Y75500D01*
X135337D01*
Y75580D01*
X135257D01*
Y75660D01*
X135177D01*
Y75740D01*
X135017D01*
Y75820D01*
X134937D01*
Y75900D01*
X134857D01*
Y75980D01*
X134777D01*
Y76060D01*
X134697D01*
Y76140D01*
X134537D01*
Y76220D01*
X134457D01*
Y76300D01*
X134377D01*
Y76380D01*
X134057D01*
Y76460D01*
X134137D01*
Y76540D01*
X134217D01*
Y76620D01*
Y76700D01*
X134297D01*
Y76780D01*
Y76860D01*
Y76940D01*
X134217D01*
Y77020D01*
Y77100D01*
Y77180D01*
Y77260D01*
X134137D01*
Y77340D01*
Y77420D01*
X134057D01*
Y77500D01*
Y77580D01*
Y77660D01*
X134137D01*
Y77740D01*
X134297D01*
Y77820D01*
X134457D01*
Y77900D01*
X134697D01*
Y77980D01*
X134937D01*
Y77900D01*
D02*
G37*
G36*
X134617Y75500D02*
X134697D01*
Y75420D01*
Y75340D01*
X134777D01*
Y75260D01*
X134697D01*
Y75180D01*
X134617D01*
Y75100D01*
X134377D01*
Y75180D01*
X134297D01*
Y75260D01*
Y75340D01*
Y75420D01*
Y75500D01*
X134377D01*
Y75580D01*
X134617D01*
Y75500D01*
D02*
G37*
G36*
X133817Y73980D02*
X133897D01*
Y73900D01*
X133977D01*
Y73820D01*
Y73740D01*
X133897D01*
Y73660D01*
X133657D01*
Y73740D01*
X133577D01*
Y73820D01*
Y73900D01*
Y73980D01*
X133737D01*
Y74060D01*
X133817D01*
Y73980D01*
D02*
G37*
G36*
X134137Y74780D02*
X134217D01*
Y74700D01*
X134297D01*
Y74620D01*
Y74540D01*
X134217D01*
Y74460D01*
Y74380D01*
X133897D01*
Y74460D01*
X133817D01*
Y74540D01*
Y74620D01*
Y74700D01*
Y74780D01*
X133897D01*
Y74860D01*
X134137D01*
Y74780D01*
D02*
G37*
G36*
X136457Y75580D02*
Y75500D01*
X136537D01*
Y75420D01*
Y75340D01*
Y75260D01*
Y75180D01*
Y75100D01*
Y75020D01*
X136617D01*
Y74940D01*
Y74860D01*
Y74780D01*
Y74700D01*
Y74620D01*
Y74540D01*
X136537D01*
Y74460D01*
Y74380D01*
Y74300D01*
Y74220D01*
Y74140D01*
X136457D01*
Y74060D01*
Y73980D01*
Y73900D01*
Y73820D01*
Y73740D01*
X136377D01*
Y73820D01*
Y73900D01*
Y73980D01*
Y74060D01*
Y74140D01*
X136297D01*
Y74220D01*
Y74300D01*
Y74380D01*
Y74460D01*
Y74540D01*
Y74620D01*
X136217D01*
Y74700D01*
Y74780D01*
Y74860D01*
X136297D01*
Y74940D01*
Y75020D01*
Y75100D01*
Y75180D01*
Y75260D01*
X136377D01*
Y75340D01*
Y75420D01*
Y75500D01*
Y75580D01*
Y75660D01*
X136457D01*
Y75580D01*
D02*
G37*
%LPC*%
G36*
X135097Y77580D02*
X134697D01*
Y77500D01*
X134617D01*
Y77580D01*
X134537D01*
Y77500D01*
X134457D01*
Y77420D01*
X134537D01*
Y77340D01*
X134617D01*
Y77260D01*
X134537D01*
Y77180D01*
X134617D01*
Y77100D01*
X134537D01*
Y77020D01*
X134617D01*
Y76940D01*
X134537D01*
Y76860D01*
X134617D01*
Y76780D01*
X134537D01*
Y76700D01*
X134617D01*
Y76620D01*
X134697D01*
Y76540D01*
X134777D01*
Y76460D01*
X134857D01*
Y76380D01*
X134937D01*
Y76300D01*
X135017D01*
Y76220D01*
X135097D01*
Y76140D01*
X135177D01*
Y76060D01*
X135257D01*
Y76140D01*
X135337D01*
Y76220D01*
X135417D01*
Y76300D01*
X135337D01*
Y76380D01*
X135257D01*
Y76460D01*
X135337D01*
Y76540D01*
X135417D01*
Y76620D01*
X135337D01*
Y76700D01*
Y76780D01*
Y76860D01*
X135417D01*
Y76940D01*
X135337D01*
Y77020D01*
Y77100D01*
Y77180D01*
X135417D01*
Y77260D01*
X135337D01*
Y77340D01*
X135257D01*
Y77420D01*
X135177D01*
Y77500D01*
X135097D01*
Y77580D01*
D02*
G37*
G36*
X153846Y93601D02*
X153206D01*
Y93521D01*
X152966D01*
Y93441D01*
X152886D01*
Y93361D01*
X152726D01*
Y93281D01*
Y93201D01*
X152646D01*
Y93121D01*
X152566D01*
Y93041D01*
X152486D01*
Y92961D01*
Y92881D01*
Y92801D01*
Y92721D01*
X152406D01*
Y92641D01*
Y92561D01*
Y92481D01*
Y92401D01*
Y92321D01*
X152486D01*
Y92241D01*
Y92161D01*
X152566D01*
Y92081D01*
Y92001D01*
Y91921D01*
X152646D01*
Y91841D01*
X152726D01*
Y91761D01*
X152806D01*
Y91681D01*
X152966D01*
Y91601D01*
X153126D01*
Y91521D01*
X153926D01*
Y91601D01*
X154006D01*
Y91681D01*
X154166D01*
Y91761D01*
X154246D01*
Y91841D01*
X154326D01*
Y91921D01*
X154406D01*
Y92001D01*
Y92081D01*
X154486D01*
Y92161D01*
Y92241D01*
X154566D01*
Y92321D01*
Y92401D01*
Y92481D01*
Y92561D01*
Y92641D01*
Y92721D01*
Y92801D01*
Y92881D01*
X154486D01*
Y92961D01*
Y93041D01*
X154406D01*
Y93121D01*
Y93201D01*
X154246D01*
Y93281D01*
Y93361D01*
Y93441D01*
X154086D01*
Y93521D01*
X153846D01*
Y93601D01*
D02*
G37*
%LPD*%
G36*
X153526Y93281D02*
X153606D01*
Y93201D01*
X153526D01*
Y93121D01*
X153286D01*
Y93041D01*
X153126D01*
Y92961D01*
X153046D01*
Y92881D01*
X152966D01*
Y92801D01*
X152886D01*
Y92721D01*
Y92641D01*
Y92561D01*
Y92481D01*
Y92401D01*
X152726D01*
Y92481D01*
Y92561D01*
Y92641D01*
Y92721D01*
Y92801D01*
Y92881D01*
X152806D01*
Y92961D01*
X152886D01*
Y93041D01*
Y93121D01*
X152966D01*
Y93201D01*
X153126D01*
Y93281D01*
X153366D01*
Y93361D01*
X153526D01*
Y93281D01*
D02*
G37*
%LPC*%
G36*
X180617Y93598D02*
X180537D01*
Y93518D01*
X180617D01*
Y93598D01*
D02*
G37*
G36*
X175817Y91118D02*
X175737D01*
Y91038D01*
X175817D01*
Y91118D01*
D02*
G37*
G36*
X177577D02*
X177497D01*
Y91038D01*
X177417D01*
Y90958D01*
X177337D01*
Y90878D01*
X177497D01*
Y90958D01*
X177577D01*
Y91038D01*
Y91118D01*
D02*
G37*
G36*
X178137Y94078D02*
X177977D01*
Y93998D01*
Y93918D01*
Y93838D01*
Y93758D01*
Y93678D01*
Y93598D01*
X178057D01*
Y93518D01*
X178297D01*
Y93598D01*
Y93678D01*
Y93758D01*
Y93838D01*
Y93918D01*
Y93998D01*
X178137D01*
Y94078D01*
D02*
G37*
G36*
X177097Y91278D02*
X176937D01*
Y91198D01*
X177097D01*
Y91278D01*
D02*
G37*
G36*
X175977D02*
X175817D01*
Y91198D01*
Y91118D01*
X175897D01*
Y91198D01*
X175977D01*
Y91278D01*
D02*
G37*
G36*
X180697Y93678D02*
X180617D01*
Y93598D01*
X180697D01*
Y93678D01*
D02*
G37*
G36*
X176777Y90798D02*
X176537D01*
Y90718D01*
X176777D01*
Y90798D01*
D02*
G37*
G36*
X176297D02*
X176137D01*
Y90718D01*
X176297D01*
Y90798D01*
D02*
G37*
G36*
X177657Y90718D02*
X177577D01*
Y90638D01*
X177657D01*
Y90718D01*
D02*
G37*
G36*
X175417Y90958D02*
X175337D01*
Y90878D01*
X175417D01*
Y90958D01*
D02*
G37*
G36*
X173177Y93758D02*
X173097D01*
Y93678D01*
X173177D01*
Y93758D01*
D02*
G37*
G36*
X172937Y93998D02*
X172857D01*
Y93918D01*
Y93838D01*
X172937D01*
Y93758D01*
X173017D01*
Y93838D01*
X172937D01*
Y93918D01*
Y93998D01*
D02*
G37*
G36*
X175737Y91518D02*
X175657D01*
Y91438D01*
X175737D01*
Y91518D01*
D02*
G37*
G36*
X180777Y93918D02*
X178617D01*
Y93838D01*
X178457D01*
Y93758D01*
Y93678D01*
Y93598D01*
Y93518D01*
Y93438D01*
Y93358D01*
Y93278D01*
Y93198D01*
X178377D01*
Y93118D01*
Y93038D01*
Y92958D01*
Y92878D01*
X178457D01*
Y92958D01*
X178537D01*
Y93038D01*
X178617D01*
Y93118D01*
Y93198D01*
X178697D01*
Y93118D01*
X178857D01*
Y93198D01*
X178697D01*
Y93278D01*
X178777D01*
Y93358D01*
X179177D01*
Y93438D01*
X179577D01*
Y93518D01*
X179897D01*
Y93598D01*
X180217D01*
Y93678D01*
X180537D01*
Y93758D01*
X180777D01*
Y93838D01*
Y93918D01*
D02*
G37*
G36*
X179577Y92958D02*
X179417D01*
Y92878D01*
Y92798D01*
X179497D01*
Y92878D01*
X179577D01*
Y92958D01*
D02*
G37*
G36*
X175417Y92878D02*
X175257D01*
Y92798D01*
X175417D01*
Y92878D01*
D02*
G37*
G36*
X178857Y93038D02*
X178777D01*
Y92958D01*
X178857D01*
Y93038D01*
D02*
G37*
G36*
X175497Y92958D02*
X175417D01*
Y92878D01*
X175497D01*
Y92958D01*
D02*
G37*
G36*
X178617Y92638D02*
X178537D01*
Y92558D01*
X178617D01*
Y92638D01*
D02*
G37*
G36*
X174617Y93518D02*
X174217D01*
Y93438D01*
X174457D01*
Y93358D01*
X174617D01*
Y93438D01*
Y93518D01*
D02*
G37*
G36*
X175737Y92158D02*
X175657D01*
Y92078D01*
X175737D01*
Y92158D01*
D02*
G37*
G36*
X175497Y92718D02*
X175417D01*
Y92638D01*
Y92558D01*
X175497D01*
Y92638D01*
Y92718D01*
D02*
G37*
G36*
X175657Y92398D02*
X175577D01*
Y92318D01*
X175657D01*
Y92398D01*
D02*
G37*
G36*
X179497Y93358D02*
X179337D01*
Y93278D01*
X179497D01*
Y93358D01*
D02*
G37*
G36*
X178537Y93998D02*
X178457D01*
Y93918D01*
X178537D01*
Y93998D01*
D02*
G37*
G36*
X178697Y89838D02*
X178537D01*
Y89758D01*
X178697D01*
Y89838D01*
D02*
G37*
G36*
X177497Y90158D02*
X177417D01*
Y90078D01*
Y89998D01*
X177497D01*
Y90078D01*
Y90158D01*
D02*
G37*
G36*
X175737Y90398D02*
X175657D01*
Y90318D01*
X175577D01*
Y90238D01*
Y90158D01*
X175497D01*
Y90078D01*
Y89998D01*
X175657D01*
Y90078D01*
X175737D01*
Y90158D01*
Y90238D01*
Y90318D01*
Y90398D01*
D02*
G37*
G36*
X175337Y89838D02*
X175257D01*
Y89758D01*
X175337D01*
Y89838D01*
D02*
G37*
G36*
X174377Y89918D02*
X174297D01*
Y89838D01*
Y89758D01*
X174377D01*
Y89838D01*
Y89918D01*
D02*
G37*
G36*
X177897Y89838D02*
X177817D01*
Y89758D01*
X177897D01*
Y89838D01*
D02*
G37*
G36*
X177737D02*
X177657D01*
Y89758D01*
X177737D01*
Y89838D01*
D02*
G37*
G36*
X174377Y90158D02*
X174297D01*
Y90078D01*
X174377D01*
Y90158D01*
D02*
G37*
G36*
X175897Y90558D02*
X175817D01*
Y90478D01*
X175897D01*
Y90558D01*
D02*
G37*
G36*
X174617Y90478D02*
X174537D01*
Y90398D01*
X174617D01*
Y90478D01*
D02*
G37*
G36*
X178697Y90318D02*
X178537D01*
Y90238D01*
X178617D01*
Y90158D01*
X178697D01*
Y90238D01*
Y90318D01*
D02*
G37*
G36*
X177817Y90798D02*
X177737D01*
Y90718D01*
Y90638D01*
Y90558D01*
X177817D01*
Y90638D01*
X177897D01*
Y90558D01*
X178057D01*
Y90638D01*
X177897D01*
Y90718D01*
X177817D01*
Y90798D01*
D02*
G37*
G36*
X176057Y90638D02*
X175897D01*
Y90558D01*
X175977D01*
Y90478D01*
X176057D01*
Y90558D01*
Y90638D01*
D02*
G37*
G36*
X174777Y90318D02*
X174697D01*
Y90238D01*
Y90158D01*
X174777D01*
Y90238D01*
Y90318D01*
D02*
G37*
G36*
X178137Y90238D02*
X177977D01*
Y90158D01*
X177897D01*
Y90078D01*
X178057D01*
Y90158D01*
X178137D01*
Y90238D01*
D02*
G37*
G36*
X177257Y90158D02*
X177177D01*
Y90078D01*
X177257D01*
Y90158D01*
D02*
G37*
G36*
X174937Y90238D02*
X174857D01*
Y90158D01*
X174937D01*
Y90238D01*
D02*
G37*
%LPD*%
D47*
X131656Y93504D02*
G03*
X131656Y93504I-750J0D01*
G01*
X132306D02*
G03*
X132306Y93504I-1400J0D01*
G01*
X131656D02*
G03*
X131656Y93504I-750J0D01*
G01*
X132306D02*
G03*
X132306Y93504I-1400J0D01*
G01*
X184018Y69094D02*
G03*
X184018Y69094I-750J0D01*
G01*
X184668D02*
G03*
X184668Y69094I-1400J0D01*
G01*
X184018D02*
G03*
X184018Y69094I-750J0D01*
G01*
X184668D02*
G03*
X184668Y69094I-1400J0D01*
G01*
X130868D02*
G03*
X130868Y69094I-750J0D01*
G01*
X131518D02*
G03*
X131518Y69094I-1400J0D01*
G01*
X130868D02*
G03*
X130868Y69094I-750J0D01*
G01*
X131518D02*
G03*
X131518Y69094I-1400J0D01*
G01*
X184018Y93504D02*
G03*
X184018Y93504I-750J0D01*
G01*
X184668D02*
G03*
X184668Y93504I-1400J0D01*
G01*
X184018D02*
G03*
X184018Y93504I-750J0D01*
G01*
X184668D02*
G03*
X184668Y93504I-1400J0D01*
G01*
M02*
